<svg xmlns="http://www.w3.org/2000/svg" xmlns:xlink="http://www.w3.org/1999/xlink" contentStyleType="text/css" data-diagram-type="ACTIVITY" height="565px" preserveAspectRatio="none" style="width:428px;height:565px;background:#FFFFFF;" version="1.1" viewBox="0 0 428 565" width="428px" zoomAndPan="magnify"><defs/><g><rect fill="none" height="543.4003" style="stroke:#000000;stroke-width:1.5;" width="406.7701" x="11" y="11"/><path d="M117.4596,11 L117.4596,20.7999 L107.4596,30.7999 L11,30.7999" fill="none" style="stroke:#000000;stroke-width:1.5;"/><text fill="#000000" font-family="sans-serif" font-size="14" lengthAdjust="spacing" textLength="96.4596" x="14" y="25.0059">calc_CFG_instr</text><ellipse cx="214.385" cy="50.7999" fill="#222222" rx="10" ry="10" style="stroke:#222222;stroke-width:1;"/><rect fill="#555555" height="6" rx="2.5" ry="2.5" style="stroke:#555555;stroke-width:1;" width="386.7701" x="21" y="80.7999"/><rect fill="#F1F1F1" height="34.4001" rx="12.5" ry="12.5" style="stroke:#181818;stroke-width:0.5;" width="179.0491" x="33" y="106.7999"/><text fill="#000000" font-family="sans-serif" font-size="12" lengthAdjust="spacing" textLength="159.0491" x="43" y="127.948">VasmInst *inp_vasm = INPUT</text><rect fill="#F1F1F1" height="34.4001" rx="12.5" ry="12.5" style="stroke:#181818;stroke-width:0.5;" width="155.721" x="240.0491" y="106.7999"/><text fill="#000000" font-family="sans-serif" font-size="12" lengthAdjust="spacing" textLength="135.721" x="250.0491" y="127.948">size_t inp_index = INPUT</text><rect fill="#555555" height="6" rx="2.5" ry="2.5" style="stroke:#555555;stroke-width:1;" width="386.7701" x="21" y="161.2"/><rect fill="#555555" height="6" rx="2.5" ry="2.5" style="stroke:#555555;stroke-width:1;" width="296.7614" x="66.0043" y="187.2"/><rect fill="#F1F1F1" height="34.4001" rx="12.5" ry="12.5" style="stroke:#181818;stroke-width:0.5;" width="159.729" x="80.0043" y="213.2"/><text fill="#000000" font-family="sans-serif" font-size="12" lengthAdjust="spacing" textLength="139.729" x="90.0043" y="234.3481">VasmInst out = *inp_vasm</text><rect fill="#F1F1F1" height="34.4001" rx="12.5" ry="12.5" style="stroke:#181818;stroke-width:0.5;" width="81.0325" x="267.7333" y="213.2"/><text fill="#000000" font-family="sans-serif" font-size="12" lengthAdjust="spacing" textLength="61.0325" x="277.7333" y="234.3481">size_t c = 0</text><rect fill="#555555" height="6" rx="2.5" ry="2.5" style="stroke:#555555;stroke-width:1;" width="296.7614" x="66.0043" y="267.6001"/><rect fill="#555555" height="6" rx="2.5" ry="2.5" style="stroke:#555555;stroke-width:1;" width="196.7408" x="116.0147" y="337.6001"/><rect fill="#F1F1F1" height="34.4001" rx="12.5" ry="12.5" style="stroke:#181818;stroke-width:0.5;" width="100.7246" x="130.0147" y="363.6001"/><text fill="#000000" font-family="sans-serif" font-size="12" lengthAdjust="spacing" textLength="80.7246" x="140.0147" y="384.7482">out = out-&gt;next</text><rect fill="#F1F1F1" height="34.4001" rx="12.5" ry="12.5" style="stroke:#181818;stroke-width:0.5;" width="40.0162" x="258.7393" y="363.6001"/><text fill="#000000" font-family="sans-serif" font-size="12" lengthAdjust="spacing" textLength="20.0162" x="268.7393" y="384.7482">c++</text><rect fill="#555555" height="6" rx="2.5" ry="2.5" style="stroke:#555555;stroke-width:1;" width="196.7408" x="116.0147" y="418.0002"/><polygon fill="#F1F1F1" points="180.2963,293.6001,248.4738,293.6001,260.4738,305.6001,248.4738,317.6001,180.2963,317.6001,168.2963,305.6001,180.2963,293.6001" style="stroke:#181818;stroke-width:0.5;"/><text fill="#000000" font-family="sans-serif" font-size="11" lengthAdjust="spacing" textLength="68.1775" x="180.2963" y="309.2191">c != inp_index</text><rect fill="#F1F1F1" height="34.4001" rx="12.5" ry="12.5" style="stroke:#181818;stroke-width:0.5;" width="89.3485" x="169.7108" y="466.0002"/><text fill="#000000" font-family="sans-serif" font-size="12" lengthAdjust="spacing" textLength="69.3485" x="179.7108" y="487.1483">OUTPUT out</text><ellipse cx="214.385" cy="531.4003" fill="none" rx="11" ry="11" style="stroke:#222222;stroke-width:1;"/><ellipse cx="214.385" cy="531.4003" fill="#222222" rx="6" ry="6" style="stroke:#222222;stroke-width:1;"/><line style="stroke:#181818;stroke-width:1;" x1="122.5246" x2="122.5246" y1="86.7999" y2="106.7999"/><polygon fill="#181818" points="118.5246,96.7999,122.5246,106.7999,126.5246,96.7999,122.5246,100.7999" style="stroke:#181818;stroke-width:1;"/><line style="stroke:#181818;stroke-width:1;" x1="317.9096" x2="317.9096" y1="86.7999" y2="106.7999"/><polygon fill="#181818" points="313.9096,96.7999,317.9096,106.7999,321.9096,96.7999,317.9096,100.7999" style="stroke:#181818;stroke-width:1;"/><line style="stroke:#181818;stroke-width:1;" x1="122.5246" x2="122.5246" y1="141.2" y2="161.2"/><polygon fill="#181818" points="118.5246,151.2,122.5246,161.2,126.5246,151.2,122.5246,155.2" style="stroke:#181818;stroke-width:1;"/><line style="stroke:#181818;stroke-width:1;" x1="317.9096" x2="317.9096" y1="141.2" y2="161.2"/><polygon fill="#181818" points="313.9096,151.2,317.9096,161.2,321.9096,151.2,317.9096,155.2" style="stroke:#181818;stroke-width:1;"/><line style="stroke:#181818;stroke-width:1;" x1="214.385" x2="214.385" y1="60.7999" y2="80.7999"/><polygon fill="#181818" points="210.385,70.7999,214.385,80.7999,218.385,70.7999,214.385,74.7999" style="stroke:#181818;stroke-width:1;"/><line style="stroke:#181818;stroke-width:1;" x1="159.8688" x2="159.8688" y1="193.2" y2="213.2"/><polygon fill="#181818" points="155.8688,203.2,159.8688,213.2,163.8688,203.2,159.8688,207.2" style="stroke:#181818;stroke-width:1;"/><line style="stroke:#181818;stroke-width:1;" x1="308.2495" x2="308.2495" y1="193.2" y2="213.2"/><polygon fill="#181818" points="304.2495,203.2,308.2495,213.2,312.2495,203.2,308.2495,207.2" style="stroke:#181818;stroke-width:1;"/><line style="stroke:#181818;stroke-width:1;" x1="159.8688" x2="159.8688" y1="247.6001" y2="267.6001"/><polygon fill="#181818" points="155.8688,257.6001,159.8688,267.6001,163.8688,257.6001,159.8688,261.6001" style="stroke:#181818;stroke-width:1;"/><line style="stroke:#181818;stroke-width:1;" x1="308.2495" x2="308.2495" y1="247.6001" y2="267.6001"/><polygon fill="#181818" points="304.2495,257.6001,308.2495,267.6001,312.2495,257.6001,308.2495,261.6001" style="stroke:#181818;stroke-width:1;"/><line style="stroke:#181818;stroke-width:1;" x1="214.385" x2="214.385" y1="167.2" y2="187.2"/><polygon fill="#181818" points="210.385,177.2,214.385,187.2,218.385,177.2,214.385,181.2" style="stroke:#181818;stroke-width:1;"/><line style="stroke:#181818;stroke-width:1;" x1="180.377" x2="180.377" y1="343.6001" y2="363.6001"/><polygon fill="#181818" points="176.377,353.6001,180.377,363.6001,184.377,353.6001,180.377,357.6001" style="stroke:#181818;stroke-width:1;"/><line style="stroke:#181818;stroke-width:1;" x1="278.7473" x2="278.7473" y1="343.6001" y2="363.6001"/><polygon fill="#181818" points="274.7473,353.6001,278.7473,363.6001,282.7473,353.6001,278.7473,357.6001" style="stroke:#181818;stroke-width:1;"/><line style="stroke:#181818;stroke-width:1;" x1="180.377" x2="180.377" y1="398.0002" y2="418.0002"/><polygon fill="#181818" points="176.377,408.0002,180.377,418.0002,184.377,408.0002,180.377,412.0002" style="stroke:#181818;stroke-width:1;"/><line style="stroke:#181818;stroke-width:1;" x1="278.7473" x2="278.7473" y1="398.0002" y2="418.0002"/><polygon fill="#181818" points="274.7473,408.0002,278.7473,418.0002,282.7473,408.0002,278.7473,412.0002" style="stroke:#181818;stroke-width:1;"/><line style="stroke:#181818;stroke-width:1;" x1="214.385" x2="214.385" y1="317.6001" y2="337.6001"/><polygon fill="#181818" points="210.385,327.6001,214.385,337.6001,218.385,327.6001,214.385,331.6001" style="stroke:#181818;stroke-width:1;"/><line style="stroke:#181818;stroke-width:1;" x1="214.385" x2="214.385" y1="424.0002" y2="434.0002"/><line style="stroke:#181818;stroke-width:1;" x1="214.385" x2="324.7554" y1="434.0002" y2="434.0002"/><polygon fill="#181818" points="320.7554,378.8002,324.7554,368.8002,328.7554,378.8002,324.7554,374.8002" style="stroke:#181818;stroke-width:1;"/><line style="stroke:#181818;stroke-width:1;" x1="324.7554" x2="324.7554" y1="305.6001" y2="434.0002"/><line style="stroke:#181818;stroke-width:1;" x1="324.7554" x2="260.4738" y1="305.6001" y2="305.6001"/><polygon fill="#181818" points="270.4738,301.6001,260.4738,305.6001,270.4738,309.6001,266.4738,305.6001" style="stroke:#181818;stroke-width:1;"/><line style="stroke:#181818;stroke-width:1;" x1="168.2963" x2="104.0147" y1="305.6001" y2="305.6001"/><polygon fill="#181818" points="100.0147,364.8002,104.0147,374.8002,108.0147,364.8002,104.0147,368.8002" style="stroke:#181818;stroke-width:1;"/><line style="stroke:#181818;stroke-width:1;" x1="104.0147" x2="104.0147" y1="305.6001" y2="446.0002"/><line style="stroke:#181818;stroke-width:1;" x1="104.0147" x2="214.385" y1="446.0002" y2="446.0002"/><line style="stroke:#181818;stroke-width:1;" x1="214.385" x2="214.385" y1="446.0002" y2="466.0002"/><polygon fill="#181818" points="210.385,456.0002,214.385,466.0002,218.385,456.0002,214.385,460.0002" style="stroke:#181818;stroke-width:1;"/><line style="stroke:#181818;stroke-width:1;" x1="214.385" x2="214.385" y1="273.6001" y2="293.6001"/><polygon fill="#181818" points="210.385,283.6001,214.385,293.6001,218.385,283.6001,214.385,287.6001" style="stroke:#181818;stroke-width:1;"/><line style="stroke:#181818;stroke-width:1;" x1="214.385" x2="214.385" y1="500.4003" y2="520.4003"/><polygon fill="#181818" points="210.385,510.4003,214.385,520.4003,218.385,510.4003,214.385,514.4003" style="stroke:#181818;stroke-width:1;"/><!--SRC=[TP2n2i8m48Rdv2dEJIs2SqfT1AMBEhIk8SIemPgK9cfHV7SlRQaekXpS_Tzz5rAAocklhG4f2iddYoNNnlaA7fGuZo4bUrkTA25iAzmvnGp6sfJyYXqaaAusUHQt48Y3q2QWJjyLzn0uRNQg_WQLsVtmsej7iBV_iqg4fX-csr4N2eOI1idxvWXNkXE4jMgiavbHjO-xh7SJ9gEedpPIB8sN4hRECtnyM8_3hzYIFby0]--></g></svg>