<svg xmlns="http://www.w3.org/2000/svg" xmlns:xlink="http://www.w3.org/1999/xlink" contentStyleType="text/css" data-diagram-type="ACTIVITY" height="537px" preserveAspectRatio="none" style="width:1248px;height:537px;background:#FFFFFF;" version="1.1" viewBox="0 0 1248 537" width="1248px" zoomAndPan="magnify"><defs/><g><rect fill="none" height="515.1193" style="stroke:#000000;stroke-width:1.5;" width="1226.3939" x="11" y="11"/><path d="M165.7034,11 L165.7034,20.7999 L155.7034,30.7999 L11,30.7999" fill="none" style="stroke:#000000;stroke-width:1.5;"/><text fill="#000000" font-family="sans-serif" font-size="14" lengthAdjust="spacing" textLength="144.7034" x="14" y="25.0059">calc_CFG_num_blocks</text><ellipse cx="622.197" cy="50.7999" fill="#222222" rx="10" ry="10" style="stroke:#222222;stroke-width:1;"/><rect fill="#F1F1F1" height="34.4001" rx="12.5" ry="12.5" style="stroke:#181818;stroke-width:0.5;" width="187.0412" x="528.6764" y="80.7999"/><text fill="#000000" font-family="sans-serif" font-size="12" lengthAdjust="spacing" textLength="167.0412" x="538.6764" y="101.948">VasmInstr *inp_vasm &lt;- INPUT</text><rect fill="#F1F1F1" height="34.4001" rx="12.5" ry="12.5" style="stroke:#181818;stroke-width:0.5;" width="95.7086" x="574.3427" y="135.2"/><text fill="#000000" font-family="sans-serif" font-size="12" lengthAdjust="spacing" textLength="75.7086" x="584.3427" y="156.3481">size_t out &lt;- 0</text><polygon fill="#F1F1F1" points="135.9748,233.6001,259.4709,233.6001,271.4709,245.6001,259.4709,257.6001,135.9748,257.6001,123.9748,245.6001,135.9748,233.6001" style="stroke:#181818;stroke-width:0.5;"/><text fill="#000000" font-family="sans-serif" font-size="11" lengthAdjust="spacing" textLength="29.9418" x="201.7228" y="267.8191">TRUE</text><text fill="#000000" font-family="sans-serif" font-size="11" lengthAdjust="spacing" textLength="123.4961" x="135.9748" y="249.2191">t_inp_vasm is head of list</text><rect fill="#555555" height="6" rx="2.5" ry="2.5" style="stroke:#555555;stroke-width:1;" width="317.4456" x="39" y="289.3191"/><rect fill="#F1F1F1" height="34.4001" rx="12.5" ry="12.5" style="stroke:#181818;stroke-width:0.5;" width="91.3885" x="51" y="315.3191"/><text fill="#000000" font-family="sans-serif" font-size="12" lengthAdjust="spacing" textLength="71.3885" x="61" y="336.4671">out &lt;- out + 1</text><rect fill="#F1F1F1" height="34.4001" rx="12.5" ry="12.5" style="stroke:#181818;stroke-width:0.5;" width="174.0571" x="170.3885" y="315.3191"/><text fill="#000000" font-family="sans-serif" font-size="12" lengthAdjust="spacing" textLength="154.0571" x="180.3885" y="336.4671">inp_vasm &lt;- inp_vasm-&gt;next</text><rect fill="#555555" height="6" rx="2.5" ry="2.5" style="stroke:#555555;stroke-width:1;" width="317.4456" x="39" y="369.7192"/><polygon fill="#F1F1F1" points="463.7229,233.6001,586.614,233.6001,598.614,245.6001,586.614,257.6001,463.7229,257.6001,451.7229,245.6001,463.7229,233.6001" style="stroke:#181818;stroke-width:0.5;"/><text fill="#000000" font-family="sans-serif" font-size="11" lengthAdjust="spacing" textLength="29.9418" x="529.1684" y="267.8191">TRUE</text><text fill="#000000" font-family="sans-serif" font-size="11" lengthAdjust="spacing" textLength="122.8911" x="463.7229" y="249.2191">t_inp_vasm-&gt;type = label</text><rect fill="#555555" height="6" rx="2.5" ry="2.5" style="stroke:#555555;stroke-width:1;" width="319.4456" x="366.4456" y="289.3191"/><rect fill="#F1F1F1" height="34.4001" rx="12.5" ry="12.5" style="stroke:#181818;stroke-width:0.5;" width="91.3885" x="378.4456" y="315.3191"/><text fill="#000000" font-family="sans-serif" font-size="12" lengthAdjust="spacing" textLength="71.3885" x="388.4456" y="336.4671">out &lt;- out + 1</text><rect fill="#F1F1F1" height="34.4001" rx="12.5" ry="12.5" style="stroke:#181818;stroke-width:0.5;" width="174.0571" x="497.8342" y="315.3191"/><text fill="#000000" font-family="sans-serif" font-size="12" lengthAdjust="spacing" textLength="154.0571" x="507.8342" y="336.4671">inp_vasm &lt;- inp_vasm-&gt;next</text><rect fill="#555555" height="6" rx="2.5" ry="2.5" style="stroke:#555555;stroke-width:1;" width="319.4456" x="366.4456" y="369.7192"/><polygon fill="#F1F1F1" points="815.8714,233.6001,917.3567,233.6001,929.3567,245.6001,917.3567,257.6001,815.8714,257.6001,803.8714,245.6001,815.8714,233.6001" style="stroke:#181818;stroke-width:0.5;"/><text fill="#000000" font-family="sans-serif" font-size="11" lengthAdjust="spacing" textLength="29.9418" x="870.614" y="267.8191">TRUE</text><text fill="#000000" font-family="sans-serif" font-size="11" lengthAdjust="spacing" textLength="101.4852" x="815.8714" y="249.2191">inp_vasm-&gt;type = jle</text><text fill="#000000" font-family="sans-serif" font-size="11" lengthAdjust="spacing" textLength="34.8477" x="929.3567" y="242.6192">FALSE</text><rect fill="#555555" height="6" rx="2.5" ry="2.5" style="stroke:#555555;stroke-width:1;" width="319.4456" x="705.8912" y="289.3191"/><rect fill="#F1F1F1" height="34.4001" rx="12.5" ry="12.5" style="stroke:#181818;stroke-width:0.5;" width="91.3885" x="719.8912" y="315.3191"/><text fill="#000000" font-family="sans-serif" font-size="12" lengthAdjust="spacing" textLength="71.3885" x="729.8912" y="336.4671">out &lt;- out + 1</text><rect fill="#F1F1F1" height="34.4001" rx="12.5" ry="12.5" style="stroke:#181818;stroke-width:0.5;" width="174.0571" x="839.2798" y="315.3191"/><text fill="#000000" font-family="sans-serif" font-size="12" lengthAdjust="spacing" textLength="154.0571" x="849.2798" y="336.4671">inp_vasm &lt;- inp_vasm-&gt;next</text><rect fill="#555555" height="6" rx="2.5" ry="2.5" style="stroke:#555555;stroke-width:1;" width="319.4456" x="705.8912" y="369.7192"/><rect fill="#F1F1F1" height="34.4001" rx="12.5" ry="12.5" style="stroke:#181818;stroke-width:0.5;" width="174.0571" x="1035.3369" y="311.7191"/><text fill="#000000" font-family="sans-serif" font-size="12" lengthAdjust="spacing" textLength="154.0571" x="1045.3369" y="332.8672">inp_vasm &lt;- inp_vasm-&gt;next</text><polygon fill="#F1F1F1" points="576.8058,189.6001,667.5881,189.6001,679.5881,201.6001,667.5881,213.6001,576.8058,213.6001,564.8058,201.6001,576.8058,189.6001" style="stroke:#181818;stroke-width:0.5;"/><text fill="#000000" font-family="sans-serif" font-size="11" lengthAdjust="spacing" textLength="90.7823" x="576.8058" y="205.2191">inp_vasm != NULL</text><rect fill="#F1F1F1" height="34.4001" rx="12.5" ry="12.5" style="stroke:#181818;stroke-width:0.5;" width="89.3485" x="577.5227" y="437.7192"/><text fill="#000000" font-family="sans-serif" font-size="12" lengthAdjust="spacing" textLength="69.3485" x="587.5227" y="458.8672">OUTPUT out</text><ellipse cx="622.197" cy="503.1193" fill="none" rx="11" ry="11" style="stroke:#222222;stroke-width:1;"/><ellipse cx="622.197" cy="503.1193" fill="#222222" rx="6" ry="6" style="stroke:#222222;stroke-width:1;"/><line style="stroke:#181818;stroke-width:1;" x1="622.197" x2="622.197" y1="60.7999" y2="80.7999"/><polygon fill="#181818" points="618.197,70.7999,622.197,80.7999,626.197,70.7999,622.197,74.7999" style="stroke:#181818;stroke-width:1;"/><line style="stroke:#181818;stroke-width:1;" x1="622.197" x2="622.197" y1="115.2" y2="135.2"/><polygon fill="#181818" points="618.197,125.2,622.197,135.2,626.197,125.2,622.197,129.2" style="stroke:#181818;stroke-width:1;"/><line style="stroke:#181818;stroke-width:1;" x1="96.6943" x2="96.6943" y1="295.3191" y2="315.3191"/><polygon fill="#181818" points="92.6943,305.3191,96.6943,315.3191,100.6943,305.3191,96.6943,309.3191" style="stroke:#181818;stroke-width:1;"/><line style="stroke:#181818;stroke-width:1;" x1="257.4171" x2="257.4171" y1="295.3191" y2="315.3191"/><polygon fill="#181818" points="253.4171,305.3191,257.4171,315.3191,261.4171,305.3191,257.4171,309.3191" style="stroke:#181818;stroke-width:1;"/><line style="stroke:#181818;stroke-width:1;" x1="96.6943" x2="96.6943" y1="349.7192" y2="369.7192"/><polygon fill="#181818" points="92.6943,359.7192,96.6943,369.7192,100.6943,359.7192,96.6943,363.7192" style="stroke:#181818;stroke-width:1;"/><line style="stroke:#181818;stroke-width:1;" x1="257.4171" x2="257.4171" y1="349.7192" y2="369.7192"/><polygon fill="#181818" points="253.4171,359.7192,257.4171,369.7192,261.4171,359.7192,257.4171,363.7192" style="stroke:#181818;stroke-width:1;"/><line style="stroke:#181818;stroke-width:1;" x1="424.1399" x2="424.1399" y1="295.3191" y2="315.3191"/><polygon fill="#181818" points="420.1399,305.3191,424.1399,315.3191,428.1399,305.3191,424.1399,309.3191" style="stroke:#181818;stroke-width:1;"/><line style="stroke:#181818;stroke-width:1;" x1="584.8627" x2="584.8627" y1="295.3191" y2="315.3191"/><polygon fill="#181818" points="580.8627,305.3191,584.8627,315.3191,588.8627,305.3191,584.8627,309.3191" style="stroke:#181818;stroke-width:1;"/><line style="stroke:#181818;stroke-width:1;" x1="424.1399" x2="424.1399" y1="349.7192" y2="369.7192"/><polygon fill="#181818" points="420.1399,359.7192,424.1399,369.7192,428.1399,359.7192,424.1399,363.7192" style="stroke:#181818;stroke-width:1;"/><line style="stroke:#181818;stroke-width:1;" x1="584.8627" x2="584.8627" y1="349.7192" y2="369.7192"/><polygon fill="#181818" points="580.8627,359.7192,584.8627,369.7192,588.8627,359.7192,584.8627,363.7192" style="stroke:#181818;stroke-width:1;"/><line style="stroke:#181818;stroke-width:1;" x1="765.5855" x2="765.5855" y1="295.3191" y2="315.3191"/><polygon fill="#181818" points="761.5855,305.3191,765.5855,315.3191,769.5855,305.3191,765.5855,309.3191" style="stroke:#181818;stroke-width:1;"/><line style="stroke:#181818;stroke-width:1;" x1="926.3083" x2="926.3083" y1="295.3191" y2="315.3191"/><polygon fill="#181818" points="922.3083,305.3191,926.3083,315.3191,930.3083,305.3191,926.3083,309.3191" style="stroke:#181818;stroke-width:1;"/><line style="stroke:#181818;stroke-width:1;" x1="765.5855" x2="765.5855" y1="349.7192" y2="369.7192"/><polygon fill="#181818" points="761.5855,359.7192,765.5855,369.7192,769.5855,359.7192,765.5855,363.7192" style="stroke:#181818;stroke-width:1;"/><line style="stroke:#181818;stroke-width:1;" x1="926.3083" x2="926.3083" y1="349.7192" y2="369.7192"/><polygon fill="#181818" points="922.3083,359.7192,926.3083,369.7192,930.3083,359.7192,926.3083,363.7192" style="stroke:#181818;stroke-width:1;"/><line style="stroke:#181818;stroke-width:1;" x1="197.7228" x2="197.7228" y1="257.6001" y2="289.3191"/><polygon fill="#181818" points="193.7228,279.3191,197.7228,289.3191,201.7228,279.3191,197.7228,283.3191" style="stroke:#181818;stroke-width:1;"/><line style="stroke:#181818;stroke-width:1;" x1="197.7228" x2="197.7228" y1="375.7192" y2="395.7192"/><polygon fill="#181818" points="193.7228,385.7192,197.7228,395.7192,201.7228,385.7192,197.7228,389.7192" style="stroke:#181818;stroke-width:1;"/><line style="stroke:#181818;stroke-width:1;" x1="525.1684" x2="525.1684" y1="257.6001" y2="289.3191"/><polygon fill="#181818" points="521.1684,279.3191,525.1684,289.3191,529.1684,279.3191,525.1684,283.3191" style="stroke:#181818;stroke-width:1;"/><line style="stroke:#181818;stroke-width:1;" x1="525.1684" x2="525.1684" y1="375.7192" y2="395.7192"/><polygon fill="#181818" points="521.1684,385.7192,525.1684,395.7192,529.1684,385.7192,525.1684,389.7192" style="stroke:#181818;stroke-width:1;"/><line style="stroke:#181818;stroke-width:1;" x1="866.614" x2="866.614" y1="257.6001" y2="289.3191"/><polygon fill="#181818" points="862.614,279.3191,866.614,289.3191,870.614,279.3191,866.614,283.3191" style="stroke:#181818;stroke-width:1;"/><line style="stroke:#181818;stroke-width:1;" x1="866.614" x2="866.614" y1="375.7192" y2="395.7192"/><polygon fill="#181818" points="862.614,385.7192,866.614,395.7192,870.614,385.7192,866.614,389.7192" style="stroke:#181818;stroke-width:1;"/><line style="stroke:#181818;stroke-width:1;" x1="271.4709" x2="451.7229" y1="245.6001" y2="245.6001"/><polygon fill="#181818" points="441.7229,241.6001,451.7229,245.6001,441.7229,249.6001,445.7229,245.6001" style="stroke:#181818;stroke-width:1;"/><line style="stroke:#181818;stroke-width:1;" x1="598.614" x2="803.8714" y1="245.6001" y2="245.6001"/><polygon fill="#181818" points="793.8714,241.6001,803.8714,245.6001,793.8714,249.6001,797.8714,245.6001" style="stroke:#181818;stroke-width:1;"/><line style="stroke:#181818;stroke-width:1;" x1="622.197" x2="622.197" y1="213.6001" y2="218.6001"/><line style="stroke:#181818;stroke-width:1;" x1="622.197" x2="197.7228" y1="218.6001" y2="218.6001"/><line style="stroke:#181818;stroke-width:1;" x1="197.7228" x2="197.7228" y1="218.6001" y2="233.6001"/><polygon fill="#181818" points="193.7228,223.6001,197.7228,233.6001,201.7228,223.6001,197.7228,227.6001" style="stroke:#181818;stroke-width:1;"/><line style="stroke:#181818;stroke-width:1;" x1="929.3567" x2="1122.3654" y1="245.6001" y2="245.6001"/><line style="stroke:#181818;stroke-width:1;" x1="1122.3654" x2="1122.3654" y1="245.6001" y2="311.7191"/><polygon fill="#181818" points="1118.3654,301.7191,1122.3654,311.7191,1126.3654,301.7191,1122.3654,305.7191" style="stroke:#181818;stroke-width:1;"/><line style="stroke:#181818;stroke-width:1;" x1="1122.3654" x2="1122.3654" y1="346.1192" y2="395.7192"/><polygon fill="#181818" points="1118.3654,385.7192,1122.3654,395.7192,1126.3654,385.7192,1122.3654,389.7192" style="stroke:#181818;stroke-width:1;"/><line style="stroke:#181818;stroke-width:1;" x1="197.7228" x2="1122.3654" y1="395.7192" y2="395.7192"/><line style="stroke:#181818;stroke-width:1;" x1="622.197" x2="622.197" y1="395.7192" y2="405.7192"/><line style="stroke:#181818;stroke-width:1;" x1="622.197" x2="1221.3939" y1="405.7192" y2="405.7192"/><polygon fill="#181818" points="1217.3939,326.9192,1221.3939,316.9192,1225.3939,326.9192,1221.3939,322.9192" style="stroke:#181818;stroke-width:1;"/><line style="stroke:#181818;stroke-width:1;" x1="1221.3939" x2="1221.3939" y1="201.6001" y2="405.7192"/><line style="stroke:#181818;stroke-width:1;" x1="1221.3939" x2="679.5881" y1="201.6001" y2="201.6001"/><polygon fill="#181818" points="689.5881,197.6001,679.5881,201.6001,689.5881,205.6001,685.5881,201.6001" style="stroke:#181818;stroke-width:1;"/><line style="stroke:#181818;stroke-width:1;" x1="564.8058" x2="27" y1="201.6001" y2="201.6001"/><polygon fill="#181818" points="23,312.9192,27,322.9192,31,312.9192,27,316.9192" style="stroke:#181818;stroke-width:1;"/><line style="stroke:#181818;stroke-width:1;" x1="27" x2="27" y1="201.6001" y2="417.7192"/><line style="stroke:#181818;stroke-width:1;" x1="27" x2="622.197" y1="417.7192" y2="417.7192"/><line style="stroke:#181818;stroke-width:1;" x1="622.197" x2="622.197" y1="417.7192" y2="437.7192"/><polygon fill="#181818" points="618.197,427.7192,622.197,437.7192,626.197,427.7192,622.197,431.7192" style="stroke:#181818;stroke-width:1;"/><line style="stroke:#181818;stroke-width:1;" x1="622.197" x2="622.197" y1="169.6001" y2="189.6001"/><polygon fill="#181818" points="618.197,179.6001,622.197,189.6001,626.197,179.6001,622.197,183.6001" style="stroke:#181818;stroke-width:1;"/><line style="stroke:#181818;stroke-width:1;" x1="622.197" x2="622.197" y1="472.1193" y2="492.1193"/><polygon fill="#181818" points="618.197,482.1193,622.197,492.1193,626.197,482.1193,622.197,486.1193" style="stroke:#181818;stroke-width:1;"/><!--SRC=[lP9DJyCm38RFoQ_mRXse4bnNDWcX3KsgDWGjroZhN6gM9LNZZI_ntqaO6o0Et7Qou_UryqXsgpic9cUXqgPILvDhPJThjJ2kMdbuay9pS4WnkDT-FRMUEpWXswfjUC952jFPJLbaGVVqYeh1RJYMpqBfgI63a1pSlI7CoZplIo6eXeJLGI4F3Uebk1eCUUu3DsWXAMxBSNIBsdMh6CNWQtmCft2UxKNG3vhiplAJRf-d8ulF_6r7kmmv6e-_IT8HlxG8Gp1wWURO77ye7WqUam6IoML-j_lcdzRGHBMCuNFBOV_piWYN46coU3IkbUyV]--></g></svg>