<svg xmlns="http://www.w3.org/2000/svg" xmlns:xlink="http://www.w3.org/1999/xlink" contentStyleType="text/css" data-diagram-type="ACTIVITY" height="409px" preserveAspectRatio="none" style="width:221px;height:409px;background:#FFFFFF;" version="1.1" viewBox="0 0 221 409" width="221px" zoomAndPan="magnify"><defs/><g><rect fill="none" height="387.4003" style="stroke:#000000;stroke-width:1.5;" width="199.0491" x="11" y="11"/><path d="M142.3655,11 L142.3655,20.7999 L132.3655,30.7999 L11,30.7999" fill="none" style="stroke:#000000;stroke-width:1.5;"/><text fill="#000000" font-family="sans-serif" font-size="14" lengthAdjust="spacing" textLength="121.3655" x="14" y="25.0059">calc_CFG_last_inst</text><ellipse cx="110.5246" cy="50.7999" fill="#222222" rx="10" ry="10" style="stroke:#222222;stroke-width:1;"/><rect fill="#F1F1F1" height="34.4001" rx="12.5" ry="12.5" style="stroke:#181818;stroke-width:0.5;" width="179.0491" x="21" y="80.7999"/><text fill="#000000" font-family="sans-serif" font-size="12" lengthAdjust="spacing" textLength="159.0491" x="31" y="101.948">VasmInst *inp_vasm = INPUT</text><rect fill="#F1F1F1" height="34.4001" rx="12.5" ry="12.5" style="stroke:#181818;stroke-width:0.5;" width="101.7086" x="59.6703" y="135.2"/><text fill="#000000" font-family="sans-serif" font-size="12" lengthAdjust="spacing" textLength="81.7086" x="69.6703" y="156.3481">out = inp_vasm</text><rect fill="#F1F1F1" height="34.4001" rx="12.5" ry="12.5" style="stroke:#181818;stroke-width:0.5;" width="100.7246" x="60.1623" y="233.6001"/><text fill="#000000" font-family="sans-serif" font-size="12" lengthAdjust="spacing" textLength="80.7246" x="70.1623" y="254.7482">out = out-&gt;next</text><polygon fill="#F1F1F1" points="65.5844,189.6001,155.4647,189.6001,167.4647,201.6001,155.4647,213.6001,65.5844,213.6001,53.5844,201.6001,65.5844,189.6001" style="stroke:#181818;stroke-width:0.5;"/><text fill="#000000" font-family="sans-serif" font-size="11" lengthAdjust="spacing" textLength="89.8803" x="65.5844" y="205.2191">out-&gt;next != NULL</text><rect fill="#F1F1F1" height="34.4001" rx="12.5" ry="12.5" style="stroke:#181818;stroke-width:0.5;" width="89.3485" x="65.8503" y="310.0002"/><text fill="#000000" font-family="sans-serif" font-size="12" lengthAdjust="spacing" textLength="69.3485" x="75.8503" y="331.1483">OUTPUT out</text><ellipse cx="110.5246" cy="375.4003" fill="none" rx="11" ry="11" style="stroke:#222222;stroke-width:1;"/><ellipse cx="110.5246" cy="375.4003" fill="#222222" rx="6" ry="6" style="stroke:#222222;stroke-width:1;"/><line style="stroke:#181818;stroke-width:1;" x1="110.5246" x2="110.5246" y1="60.7999" y2="80.7999"/><polygon fill="#181818" points="106.5246,70.7999,110.5246,80.7999,114.5246,70.7999,110.5246,74.7999" style="stroke:#181818;stroke-width:1;"/><line style="stroke:#181818;stroke-width:1;" x1="110.5246" x2="110.5246" y1="115.2" y2="135.2"/><polygon fill="#181818" points="106.5246,125.2,110.5246,135.2,114.5246,125.2,110.5246,129.2" style="stroke:#181818;stroke-width:1;"/><line style="stroke:#181818;stroke-width:1;" x1="110.5246" x2="110.5246" y1="213.6001" y2="233.6001"/><polygon fill="#181818" points="106.5246,223.6001,110.5246,233.6001,114.5246,223.6001,110.5246,227.6001" style="stroke:#181818;stroke-width:1;"/><line style="stroke:#181818;stroke-width:1;" x1="110.5246" x2="110.5246" y1="268.0002" y2="278.0002"/><line style="stroke:#181818;stroke-width:1;" x1="110.5246" x2="179.4647" y1="278.0002" y2="278.0002"/><polygon fill="#181818" points="175.4647,248.8002,179.4647,238.8002,183.4647,248.8002,179.4647,244.8002" style="stroke:#181818;stroke-width:1;"/><line style="stroke:#181818;stroke-width:1;" x1="179.4647" x2="179.4647" y1="201.6001" y2="278.0002"/><line style="stroke:#181818;stroke-width:1;" x1="179.4647" x2="167.4647" y1="201.6001" y2="201.6001"/><polygon fill="#181818" points="177.4647,197.6001,167.4647,201.6001,177.4647,205.6001,173.4647,201.6001" style="stroke:#181818;stroke-width:1;"/><line style="stroke:#181818;stroke-width:1;" x1="53.5844" x2="41.5844" y1="201.6001" y2="201.6001"/><polygon fill="#181818" points="37.5844,234.8002,41.5844,244.8002,45.5844,234.8002,41.5844,238.8002" style="stroke:#181818;stroke-width:1;"/><line style="stroke:#181818;stroke-width:1;" x1="41.5844" x2="41.5844" y1="201.6001" y2="290.0002"/><line style="stroke:#181818;stroke-width:1;" x1="41.5844" x2="110.5246" y1="290.0002" y2="290.0002"/><line style="stroke:#181818;stroke-width:1;" x1="110.5246" x2="110.5246" y1="290.0002" y2="310.0002"/><polygon fill="#181818" points="106.5246,300.0002,110.5246,310.0002,114.5246,300.0002,110.5246,304.0002" style="stroke:#181818;stroke-width:1;"/><line style="stroke:#181818;stroke-width:1;" x1="110.5246" x2="110.5246" y1="169.6001" y2="189.6001"/><polygon fill="#181818" points="106.5246,179.6001,110.5246,189.6001,114.5246,179.6001,110.5246,183.6001" style="stroke:#181818;stroke-width:1;"/><line style="stroke:#181818;stroke-width:1;" x1="110.5246" x2="110.5246" y1="344.4003" y2="364.4003"/><polygon fill="#181818" points="106.5246,354.4003,110.5246,364.4003,114.5246,354.4003,110.5246,358.4003" style="stroke:#181818;stroke-width:1;"/><!--SRC=[AqWiAiaioSpFKqXEp4cETtPpZyz9B2w9pymhBb6evk8iBW4guEAq2aiiplK4YMbbvXN4bm5v2hOAddu1eI7MGDdyqX8W5oO352dFoCn9LT00YklQvQLMb2WesYhuXVhuQ79nmbJ3vO3AK_DIm3g0Hlc7XW0D1SbQWspFB-2g1G00]--></g></svg>