<svg xmlns="http://www.w3.org/2000/svg" xmlns:xlink="http://www.w3.org/1999/xlink" contentStyleType="text/css" data-diagram-type="ACTIVITY" height="934px" preserveAspectRatio="none" style="width:423px;height:934px;background:#FFFFFF;" version="1.1" viewBox="0 0 423 934" width="423px" zoomAndPan="magnify"><defs/><g><rect fill="none" height="912.1198" style="stroke:#000000;stroke-width:1.5;" width="401.442" x="11" y="11"/><path d="M129.1495,11 L129.1495,20.7999 L119.1495,30.7999 L11,30.7999" fill="none" style="stroke:#000000;stroke-width:1.5;"/><text fill="#000000" font-family="sans-serif" font-size="14" lengthAdjust="spacing" textLength="108.1495" x="14" y="25.0059">calc_CFG_edges</text><ellipse cx="211.721" cy="50.7999" fill="#222222" rx="10" ry="10" style="stroke:#222222;stroke-width:1;"/><rect fill="#555555" height="6" rx="2.5" ry="2.5" style="stroke:#555555;stroke-width:1;" width="381.442" x="21" y="80.7999"/><rect fill="#F1F1F1" height="34.4001" rx="12.5" ry="12.5" style="stroke:#181818;stroke-width:0.5;" width="181.0651" x="33" y="106.7999"/><text fill="#000000" font-family="sans-serif" font-size="12" lengthAdjust="spacing" textLength="161.0651" x="43" y="127.948">CFGNode *inp_node = INPUT</text><rect fill="#F1F1F1" height="34.4001" rx="12.5" ry="12.5" style="stroke:#181818;stroke-width:0.5;" width="148.3769" x="242.0651" y="106.7999"/><text fill="#000000" font-family="sans-serif" font-size="12" lengthAdjust="spacing" textLength="128.3769" x="252.0651" y="127.948">size_t inp_size = INPUT</text><rect fill="#555555" height="6" rx="2.5" ry="2.5" style="stroke:#555555;stroke-width:1;" width="381.442" x="21" y="161.2"/><rect fill="#555555" height="6" rx="2.5" ry="2.5" style="stroke:#555555;stroke-width:1;" width="298.7774" x="62.3323" y="187.2"/><rect fill="#F1F1F1" height="34.4001" rx="12.5" ry="12.5" style="stroke:#181818;stroke-width:0.5;" width="81.0325" x="76.3323" y="213.2"/><text fill="#000000" font-family="sans-serif" font-size="12" lengthAdjust="spacing" textLength="61.0325" x="86.3323" y="234.3481">size_t c = 0</text><rect fill="#F1F1F1" height="34.4001" rx="12.5" ry="12.5" style="stroke:#181818;stroke-width:0.5;" width="161.745" x="185.3648" y="213.2"/><text fill="#000000" font-family="sans-serif" font-size="12" lengthAdjust="spacing" textLength="141.745" x="195.3648" y="234.3481">CFGNode *out = inp_node</text><rect fill="#555555" height="6" rx="2.5" ry="2.5" style="stroke:#555555;stroke-width:1;" width="298.7774" x="62.3323" y="267.6001"/><rect fill="#F1F1F1" height="34.4001" rx="12.5" ry="12.5" style="stroke:#181818;stroke-width:0.5;" width="115.7127" x="153.8647" y="293.6001"/><text fill="#000000" font-family="sans-serif" font-size="12" lengthAdjust="spacing" textLength="95.7127" x="163.8647" y="314.7482">CFGNode *t = out</text><rect fill="#F1F1F1" height="34.4001" rx="12.5" ry="12.5" style="stroke:#181818;stroke-width:0.5;" width="208.0654" x="107.6883" y="392.0002"/><text fill="#000000" font-family="sans-serif" font-size="12" lengthAdjust="spacing" textLength="188.0654" x="117.6883" y="413.1483">l = calc_CFG_last_inst(t-&gt;contents)</text><rect fill="#F1F1F1" height="34.4001" rx="12.5" ry="12.5" style="stroke:#181818;stroke-width:0.5;" width="260.7697" x="81.3362" y="446.4003"/><text fill="#000000" font-family="sans-serif" font-size="12" lengthAdjust="spacing" textLength="240.7697" x="91.3362" y="467.5484">LC = calc_CFG_loop_const(l-&gt;left, inp_node)</text><polygon fill="#F1F1F1" points="70.0487,500.8004,133.6283,500.8004,145.6283,512.8004,133.6283,524.8004,70.0487,524.8004,58.0487,512.8004,70.0487,500.8004" style="stroke:#181818;stroke-width:0.5;"/><text fill="#000000" font-family="sans-serif" font-size="11" lengthAdjust="spacing" textLength="29.9418" x="105.8385" y="535.0194">TRUE</text><text fill="#000000" font-family="sans-serif" font-size="11" lengthAdjust="spacing" textLength="63.5795" x="70.0487" y="516.4194">l-&gt;type = jmp</text><rect fill="#F1F1F1" height="34.4001" rx="12.5" ry="12.5" style="stroke:#181818;stroke-width:0.5;" width="79.3645" x="62.1563" y="556.5194"/><text fill="#000000" font-family="sans-serif" font-size="12" lengthAdjust="spacing" textLength="59.3645" x="72.1563" y="577.6674">t-&gt;left = LC</text><rect fill="#F1F1F1" height="34.4001" rx="12.5" ry="12.5" style="stroke:#181818;stroke-width:0.5;" width="40.0162" x="81.8304" y="625.9195"/><text fill="#000000" font-family="sans-serif" font-size="12" lengthAdjust="spacing" textLength="20.0162" x="91.8304" y="647.0675">c++</text><rect fill="#F1F1F1" height="34.4001" rx="12.5" ry="12.5" style="stroke:#181818;stroke-width:0.5;" width="37.3521" x="83.1624" y="683.9195"/><text fill="#000000" font-family="sans-serif" font-size="12" lengthAdjust="spacing" textLength="17.3521" x="93.1624" y="705.0676">t++</text><polygon fill="#F1F1F1" points="207.0734,500.8004,263.932,500.8004,275.932,512.8004,263.932,524.8004,207.0734,524.8004,195.0734,512.8004,207.0734,500.8004" style="stroke:#181818;stroke-width:0.5;"/><text fill="#000000" font-family="sans-serif" font-size="11" lengthAdjust="spacing" textLength="29.9418" x="239.5027" y="535.0194">TRUE</text><text fill="#000000" font-family="sans-serif" font-size="11" lengthAdjust="spacing" textLength="56.8586" x="207.0734" y="516.4194">l-&gt;type = jle</text><text fill="#000000" font-family="sans-serif" font-size="11" lengthAdjust="spacing" textLength="34.8477" x="275.932" y="509.8195">FALSE</text><rect fill="#F1F1F1" height="34.4001" rx="12.5" ry="12.5" style="stroke:#181818;stroke-width:0.5;" width="86.6965" x="192.1545" y="556.5194"/><text fill="#000000" font-family="sans-serif" font-size="12" lengthAdjust="spacing" textLength="66.6965" x="202.1545" y="577.6674">t-&gt;right = LC</text><rect fill="#F1F1F1" height="34.4001" rx="12.5" ry="12.5" style="stroke:#181818;stroke-width:0.5;" width="139.7489" x="165.6283" y="625.9195"/><text fill="#000000" font-family="sans-serif" font-size="12" lengthAdjust="spacing" textLength="119.7489" x="175.6283" y="647.0675">t-&gt;left = inp_node[c+1]</text><rect fill="#F1F1F1" height="34.4001" rx="12.5" ry="12.5" style="stroke:#181818;stroke-width:0.5;" width="40.0162" x="215.4946" y="683.9195"/><text fill="#000000" font-family="sans-serif" font-size="12" lengthAdjust="spacing" textLength="20.0162" x="225.4946" y="705.0676">c++</text><rect fill="#F1F1F1" height="34.4001" rx="12.5" ry="12.5" style="stroke:#181818;stroke-width:0.5;" width="37.3521" x="216.8266" y="738.3196"/><text fill="#000000" font-family="sans-serif" font-size="12" lengthAdjust="spacing" textLength="17.3521" x="226.8266" y="759.4677">t++</text><rect fill="#F1F1F1" height="34.4001" rx="12.5" ry="12.5" style="stroke:#181818;stroke-width:0.5;" width="40.0162" x="325.3771" y="622.3195"/><text fill="#000000" font-family="sans-serif" font-size="12" lengthAdjust="spacing" textLength="20.0162" x="335.3771" y="643.4676">c++</text><rect fill="#F1F1F1" height="34.4001" rx="12.5" ry="12.5" style="stroke:#181818;stroke-width:0.5;" width="37.3521" x="326.7092" y="680.3196"/><text fill="#000000" font-family="sans-serif" font-size="12" lengthAdjust="spacing" textLength="17.3521" x="336.7092" y="701.4676">t++</text><polygon fill="#F1F1F1" points="180.9982,348.0002,242.4438,348.0002,254.4438,360.0002,242.4438,372.0002,180.9982,372.0002,168.9982,360.0002,180.9982,348.0002" style="stroke:#181818;stroke-width:0.5;"/><text fill="#000000" font-family="sans-serif" font-size="11" lengthAdjust="spacing" textLength="61.4455" x="180.9982" y="363.6192">c != inp_size</text><rect fill="#F1F1F1" height="34.4001" rx="12.5" ry="12.5" style="stroke:#181818;stroke-width:0.5;" width="89.3485" x="167.0468" y="834.7197"/><text fill="#000000" font-family="sans-serif" font-size="12" lengthAdjust="spacing" textLength="69.3485" x="177.0468" y="855.8678">OUTPUT out</text><ellipse cx="211.721" cy="900.1198" fill="none" rx="11" ry="11" style="stroke:#222222;stroke-width:1;"/><ellipse cx="211.721" cy="900.1198" fill="#222222" rx="6" ry="6" style="stroke:#222222;stroke-width:1;"/><line style="stroke:#181818;stroke-width:1;" x1="123.5326" x2="123.5326" y1="86.7999" y2="106.7999"/><polygon fill="#181818" points="119.5326,96.7999,123.5326,106.7999,127.5326,96.7999,123.5326,100.7999" style="stroke:#181818;stroke-width:1;"/><line style="stroke:#181818;stroke-width:1;" x1="316.2536" x2="316.2536" y1="86.7999" y2="106.7999"/><polygon fill="#181818" points="312.2536,96.7999,316.2536,106.7999,320.2536,96.7999,316.2536,100.7999" style="stroke:#181818;stroke-width:1;"/><line style="stroke:#181818;stroke-width:1;" x1="123.5326" x2="123.5326" y1="141.2" y2="161.2"/><polygon fill="#181818" points="119.5326,151.2,123.5326,161.2,127.5326,151.2,123.5326,155.2" style="stroke:#181818;stroke-width:1;"/><line style="stroke:#181818;stroke-width:1;" x1="316.2536" x2="316.2536" y1="141.2" y2="161.2"/><polygon fill="#181818" points="312.2536,151.2,316.2536,161.2,320.2536,151.2,316.2536,155.2" style="stroke:#181818;stroke-width:1;"/><line style="stroke:#181818;stroke-width:1;" x1="211.721" x2="211.721" y1="60.7999" y2="80.7999"/><polygon fill="#181818" points="207.721,70.7999,211.721,80.7999,215.721,70.7999,211.721,74.7999" style="stroke:#181818;stroke-width:1;"/><line style="stroke:#181818;stroke-width:1;" x1="116.8485" x2="116.8485" y1="193.2" y2="213.2"/><polygon fill="#181818" points="112.8485,203.2,116.8485,213.2,120.8485,203.2,116.8485,207.2" style="stroke:#181818;stroke-width:1;"/><line style="stroke:#181818;stroke-width:1;" x1="266.2372" x2="266.2372" y1="193.2" y2="213.2"/><polygon fill="#181818" points="262.2372,203.2,266.2372,213.2,270.2372,203.2,266.2372,207.2" style="stroke:#181818;stroke-width:1;"/><line style="stroke:#181818;stroke-width:1;" x1="116.8485" x2="116.8485" y1="247.6001" y2="267.6001"/><polygon fill="#181818" points="112.8485,257.6001,116.8485,267.6001,120.8485,257.6001,116.8485,261.6001" style="stroke:#181818;stroke-width:1;"/><line style="stroke:#181818;stroke-width:1;" x1="266.2372" x2="266.2372" y1="247.6001" y2="267.6001"/><polygon fill="#181818" points="262.2372,257.6001,266.2372,267.6001,270.2372,257.6001,266.2372,261.6001" style="stroke:#181818;stroke-width:1;"/><line style="stroke:#181818;stroke-width:1;" x1="211.721" x2="211.721" y1="167.2" y2="187.2"/><polygon fill="#181818" points="207.721,177.2,211.721,187.2,215.721,177.2,211.721,181.2" style="stroke:#181818;stroke-width:1;"/><line style="stroke:#181818;stroke-width:1;" x1="211.721" x2="211.721" y1="273.6001" y2="293.6001"/><polygon fill="#181818" points="207.721,283.6001,211.721,293.6001,215.721,283.6001,211.721,287.6001" style="stroke:#181818;stroke-width:1;"/><line style="stroke:#181818;stroke-width:1;" x1="211.721" x2="211.721" y1="426.4003" y2="446.4003"/><polygon fill="#181818" points="207.721,436.4003,211.721,446.4003,215.721,436.4003,211.721,440.4003" style="stroke:#181818;stroke-width:1;"/><line style="stroke:#181818;stroke-width:1;" x1="101.8385" x2="101.8385" y1="590.9195" y2="625.9195"/><polygon fill="#181818" points="97.8385,615.9195,101.8385,625.9195,105.8385,615.9195,101.8385,619.9195" style="stroke:#181818;stroke-width:1;"/><line style="stroke:#181818;stroke-width:1;" x1="101.8385" x2="101.8385" y1="660.3196" y2="683.9195"/><polygon fill="#181818" points="97.8385,673.9195,101.8385,683.9195,105.8385,673.9195,101.8385,677.9195" style="stroke:#181818;stroke-width:1;"/><line style="stroke:#181818;stroke-width:1;" x1="235.5027" x2="235.5027" y1="590.9195" y2="625.9195"/><polygon fill="#181818" points="231.5027,615.9195,235.5027,625.9195,239.5027,615.9195,235.5027,619.9195" style="stroke:#181818;stroke-width:1;"/><line style="stroke:#181818;stroke-width:1;" x1="235.5027" x2="235.5027" y1="660.3196" y2="683.9195"/><polygon fill="#181818" points="231.5027,673.9195,235.5027,683.9195,239.5027,673.9195,235.5027,677.9195" style="stroke:#181818;stroke-width:1;"/><line style="stroke:#181818;stroke-width:1;" x1="235.5027" x2="235.5027" y1="718.3196" y2="738.3196"/><polygon fill="#181818" points="231.5027,728.3196,235.5027,738.3196,239.5027,728.3196,235.5027,732.3196" style="stroke:#181818;stroke-width:1;"/><line style="stroke:#181818;stroke-width:1;" x1="345.3852" x2="345.3852" y1="656.7196" y2="680.3196"/><polygon fill="#181818" points="341.3852,670.3196,345.3852,680.3196,349.3852,670.3196,345.3852,674.3196" style="stroke:#181818;stroke-width:1;"/><line style="stroke:#181818;stroke-width:1;" x1="101.8385" x2="101.8385" y1="524.8004" y2="556.5194"/><polygon fill="#181818" points="97.8385,546.5194,101.8385,556.5194,105.8385,546.5194,101.8385,550.5194" style="stroke:#181818;stroke-width:1;"/><line style="stroke:#181818;stroke-width:1;" x1="101.8385" x2="101.8385" y1="718.3196" y2="792.7197"/><polygon fill="#181818" points="97.8385,782.7197,101.8385,792.7197,105.8385,782.7197,101.8385,786.7197" style="stroke:#181818;stroke-width:1;"/><line style="stroke:#181818;stroke-width:1;" x1="235.5027" x2="235.5027" y1="524.8004" y2="556.5194"/><polygon fill="#181818" points="231.5027,546.5194,235.5027,556.5194,239.5027,546.5194,235.5027,550.5194" style="stroke:#181818;stroke-width:1;"/><line style="stroke:#181818;stroke-width:1;" x1="235.5027" x2="235.5027" y1="772.7197" y2="792.7197"/><polygon fill="#181818" points="231.5027,782.7197,235.5027,792.7197,239.5027,782.7197,235.5027,786.7197" style="stroke:#181818;stroke-width:1;"/><line style="stroke:#181818;stroke-width:1;" x1="145.6283" x2="195.0734" y1="512.8004" y2="512.8004"/><polygon fill="#181818" points="185.0734,508.8004,195.0734,512.8004,185.0734,516.8004,189.0734,512.8004" style="stroke:#181818;stroke-width:1;"/><line style="stroke:#181818;stroke-width:1;" x1="211.721" x2="211.721" y1="480.8004" y2="485.8004"/><line style="stroke:#181818;stroke-width:1;" x1="211.721" x2="101.8385" y1="485.8004" y2="485.8004"/><line style="stroke:#181818;stroke-width:1;" x1="101.8385" x2="101.8385" y1="485.8004" y2="500.8004"/><polygon fill="#181818" points="97.8385,490.8004,101.8385,500.8004,105.8385,490.8004,101.8385,494.8004" style="stroke:#181818;stroke-width:1;"/><line style="stroke:#181818;stroke-width:1;" x1="275.932" x2="345.3852" y1="512.8004" y2="512.8004"/><line style="stroke:#181818;stroke-width:1;" x1="345.3852" x2="345.3852" y1="512.8004" y2="622.3195"/><polygon fill="#181818" points="341.3852,612.3195,345.3852,622.3195,349.3852,612.3195,345.3852,616.3195" style="stroke:#181818;stroke-width:1;"/><line style="stroke:#181818;stroke-width:1;" x1="345.3852" x2="345.3852" y1="714.7197" y2="792.7197"/><polygon fill="#181818" points="341.3852,782.7197,345.3852,792.7197,349.3852,782.7197,345.3852,786.7197" style="stroke:#181818;stroke-width:1;"/><line style="stroke:#181818;stroke-width:1;" x1="101.8385" x2="345.3852" y1="792.7197" y2="792.7197"/><line style="stroke:#181818;stroke-width:1;" x1="211.721" x2="211.721" y1="372.0002" y2="392.0002"/><polygon fill="#181818" points="207.721,382.0002,211.721,392.0002,215.721,382.0002,211.721,386.0002" style="stroke:#181818;stroke-width:1;"/><line style="stroke:#181818;stroke-width:1;" x1="211.721" x2="211.721" y1="792.7197" y2="802.7197"/><line style="stroke:#181818;stroke-width:1;" x1="211.721" x2="377.3933" y1="802.7197" y2="802.7197"/><polygon fill="#181818" points="373.3933,602.8195,377.3933,592.8195,381.3933,602.8195,377.3933,598.8195" style="stroke:#181818;stroke-width:1;"/><line style="stroke:#181818;stroke-width:1;" x1="377.3933" x2="377.3933" y1="360.0002" y2="802.7197"/><line style="stroke:#181818;stroke-width:1;" x1="377.3933" x2="254.4438" y1="360.0002" y2="360.0002"/><polygon fill="#181818" points="264.4438,356.0002,254.4438,360.0002,264.4438,364.0002,260.4438,360.0002" style="stroke:#181818;stroke-width:1;"/><line style="stroke:#181818;stroke-width:1;" x1="168.9982" x2="46.0487" y1="360.0002" y2="360.0002"/><polygon fill="#181818" points="42.0487,588.8195,46.0487,598.8195,50.0487,588.8195,46.0487,592.8195" style="stroke:#181818;stroke-width:1;"/><line style="stroke:#181818;stroke-width:1;" x1="46.0487" x2="46.0487" y1="360.0002" y2="814.7197"/><line style="stroke:#181818;stroke-width:1;" x1="46.0487" x2="211.721" y1="814.7197" y2="814.7197"/><line style="stroke:#181818;stroke-width:1;" x1="211.721" x2="211.721" y1="814.7197" y2="834.7197"/><polygon fill="#181818" points="207.721,824.7197,211.721,834.7197,215.721,824.7197,211.721,828.7197" style="stroke:#181818;stroke-width:1;"/><line style="stroke:#181818;stroke-width:1;" x1="211.721" x2="211.721" y1="328.0002" y2="348.0002"/><polygon fill="#181818" points="207.721,338.0002,211.721,348.0002,215.721,338.0002,211.721,342.0002" style="stroke:#181818;stroke-width:1;"/><line style="stroke:#181818;stroke-width:1;" x1="211.721" x2="211.721" y1="869.1198" y2="889.1198"/><polygon fill="#181818" points="207.721,879.1198,211.721,889.1198,215.721,879.1198,211.721,883.1198" style="stroke:#181818;stroke-width:1;"/><!--SRC=[TP5DIyGm48RFxQyORwrrGQzRTa6AAq9PHTkJI2Zfj8t6f3GZek9_D-dNxhfw6_8-UMOoQOkE10cjW1UIisHppR2iqS2NRyXclbVfxiNtlAMDjhf4E1MgPSfLAxZPtkLPF31Gr8LGZZJY4nc1urovnw4gOV1Drf7b5Ze_4iqjzHjPO6fy8Df13h6WJTyR8H423YUhUOhG2QL5vdVAmX0Job10YpNNYb2H2MF7fSa1g7NBB619kLXBhEXidgNdHGKkeO_MFVRvjGs16bGGPFVvbMliBMcuQECqYViJ7aL3GKE1qk0laSG_HPsecttJpZrDzSYZYwV_sq2mkKmVHk4He4fHzHlkrsWtV9jdzll6tHhIhV_z0m00]--></g></svg>