<svg xmlns="http://www.w3.org/2000/svg" xmlns:xlink="http://www.w3.org/1999/xlink" contentStyleType="text/css" data-diagram-type="ACTIVITY" height="567px" preserveAspectRatio="none" style="width:394px;height:567px;background:#FFFFFF;" version="1.1" viewBox="0 0 394 567" width="394px" zoomAndPan="magnify"><defs/><g><rect fill="none" height="545.8004" style="stroke:#000000;stroke-width:1.5;" width="372.1418" x="11" y="11"/><path d="M123.6896,11 L123.6896,20.7999 L113.6896,30.7999 L11,30.7999" fill="none" style="stroke:#000000;stroke-width:1.5;"/><text fill="#000000" font-family="sans-serif" font-size="14" lengthAdjust="spacing" textLength="102.6896" x="14" y="25.0059">calc_CFG_block</text><ellipse cx="197.0709" cy="50.7999" fill="#222222" rx="10" ry="10" style="stroke:#222222;stroke-width:1;"/><rect fill="#555555" height="6" rx="2.5" ry="2.5" style="stroke:#555555;stroke-width:1;" width="344.0898" x="25.026" y="80.7999"/><rect fill="#F1F1F1" height="34.4001" rx="12.5" ry="12.5" style="stroke:#181818;stroke-width:0.5;" width="149.7209" x="39.026" y="106.7999"/><text fill="#000000" font-family="sans-serif" font-size="12" lengthAdjust="spacing" textLength="129.7209" x="49.026" y="127.948">VasmInst head = INPUT</text><rect fill="#F1F1F1" height="34.4001" rx="12.5" ry="12.5" style="stroke:#181818;stroke-width:0.5;" width="138.3689" x="216.7469" y="106.7999"/><text fill="#000000" font-family="sans-serif" font-size="12" lengthAdjust="spacing" textLength="118.3689" x="226.7469" y="127.948">VasmInst tail = INPUT</text><rect fill="#555555" height="6" rx="2.5" ry="2.5" style="stroke:#555555;stroke-width:1;" width="344.0898" x="25.026" y="161.2"/><rect fill="#555555" height="6" rx="2.5" ry="2.5" style="stroke:#555555;stroke-width:1;" width="352.1418" x="21" y="187.2"/><rect fill="#F1F1F1" height="34.4001" rx="12.5" ry="12.5" style="stroke:#181818;stroke-width:0.5;" width="143.0729" x="35" y="213.2"/><text fill="#000000" font-family="sans-serif" font-size="12" lengthAdjust="spacing" textLength="123.0729" x="45" y="234.3481">VasmInst *out = &amp;head</text><rect fill="#F1F1F1" height="34.4001" rx="12.5" ry="12.5" style="stroke:#181818;stroke-width:0.5;" width="153.0689" x="206.0729" y="213.2"/><text fill="#000000" font-family="sans-serif" font-size="12" lengthAdjust="spacing" textLength="133.0689" x="216.0729" y="234.3481">VasmInst *temp = &amp;head</text><rect fill="#555555" height="6" rx="2.5" ry="2.5" style="stroke:#555555;stroke-width:1;" width="352.1418" x="21" y="267.6001"/><rect fill="#F1F1F1" height="34.4001" rx="12.5" ry="12.5" style="stroke:#181818;stroke-width:0.5;" width="120.7167" x="136.7125" y="337.6001"/><text fill="#000000" font-family="sans-serif" font-size="12" lengthAdjust="spacing" textLength="100.7167" x="146.7125" y="358.7482">temp = temp-&gt;next</text><polygon fill="#F1F1F1" points="170.0166,293.6001,224.1252,293.6001,236.1252,305.6001,224.1252,317.6001,170.0166,317.6001,158.0166,305.6001,170.0166,293.6001" style="stroke:#181818;stroke-width:0.5;"/><text fill="#000000" font-family="sans-serif" font-size="11" lengthAdjust="spacing" textLength="54.1086" x="170.0166" y="309.2191">temp != tail</text><rect fill="#F1F1F1" height="34.4001" rx="12.5" ry="12.5" style="stroke:#181818;stroke-width:0.5;" width="124.7128" x="134.7145" y="414.0002"/><text fill="#000000" font-family="sans-serif" font-size="12" lengthAdjust="spacing" textLength="104.7128" x="144.7145" y="435.1483">temp-&gt;next = NULL</text><rect fill="#F1F1F1" height="34.4001" rx="12.5" ry="12.5" style="stroke:#181818;stroke-width:0.5;" width="89.3485" x="152.3967" y="468.4003"/><text fill="#000000" font-family="sans-serif" font-size="12" lengthAdjust="spacing" textLength="69.3485" x="162.3967" y="489.5484">OUTPUT out</text><ellipse cx="197.0709" cy="533.8004" fill="none" rx="11" ry="11" style="stroke:#222222;stroke-width:1;"/><ellipse cx="197.0709" cy="533.8004" fill="#222222" rx="6" ry="6" style="stroke:#222222;stroke-width:1;"/><line style="stroke:#181818;stroke-width:1;" x1="113.8865" x2="113.8865" y1="86.7999" y2="106.7999"/><polygon fill="#181818" points="109.8865,96.7999,113.8865,106.7999,117.8865,96.7999,113.8865,100.7999" style="stroke:#181818;stroke-width:1;"/><line style="stroke:#181818;stroke-width:1;" x1="285.9314" x2="285.9314" y1="86.7999" y2="106.7999"/><polygon fill="#181818" points="281.9314,96.7999,285.9314,106.7999,289.9314,96.7999,285.9314,100.7999" style="stroke:#181818;stroke-width:1;"/><line style="stroke:#181818;stroke-width:1;" x1="113.8865" x2="113.8865" y1="141.2" y2="161.2"/><polygon fill="#181818" points="109.8865,151.2,113.8865,161.2,117.8865,151.2,113.8865,155.2" style="stroke:#181818;stroke-width:1;"/><line style="stroke:#181818;stroke-width:1;" x1="285.9314" x2="285.9314" y1="141.2" y2="161.2"/><polygon fill="#181818" points="281.9314,151.2,285.9314,161.2,289.9314,151.2,285.9314,155.2" style="stroke:#181818;stroke-width:1;"/><line style="stroke:#181818;stroke-width:1;" x1="197.0709" x2="197.0709" y1="60.7999" y2="80.7999"/><polygon fill="#181818" points="193.0709,70.7999,197.0709,80.7999,201.0709,70.7999,197.0709,74.7999" style="stroke:#181818;stroke-width:1;"/><line style="stroke:#181818;stroke-width:1;" x1="106.5364" x2="106.5364" y1="193.2" y2="213.2"/><polygon fill="#181818" points="102.5364,203.2,106.5364,213.2,110.5364,203.2,106.5364,207.2" style="stroke:#181818;stroke-width:1;"/><line style="stroke:#181818;stroke-width:1;" x1="282.6073" x2="282.6073" y1="193.2" y2="213.2"/><polygon fill="#181818" points="278.6073,203.2,282.6073,213.2,286.6073,203.2,282.6073,207.2" style="stroke:#181818;stroke-width:1;"/><line style="stroke:#181818;stroke-width:1;" x1="106.5364" x2="106.5364" y1="247.6001" y2="267.6001"/><polygon fill="#181818" points="102.5364,257.6001,106.5364,267.6001,110.5364,257.6001,106.5364,261.6001" style="stroke:#181818;stroke-width:1;"/><line style="stroke:#181818;stroke-width:1;" x1="282.6073" x2="282.6073" y1="247.6001" y2="267.6001"/><polygon fill="#181818" points="278.6073,257.6001,282.6073,267.6001,286.6073,257.6001,282.6073,261.6001" style="stroke:#181818;stroke-width:1;"/><line style="stroke:#181818;stroke-width:1;" x1="197.0709" x2="197.0709" y1="167.2" y2="187.2"/><polygon fill="#181818" points="193.0709,177.2,197.0709,187.2,201.0709,177.2,197.0709,181.2" style="stroke:#181818;stroke-width:1;"/><line style="stroke:#181818;stroke-width:1;" x1="197.0709" x2="197.0709" y1="317.6001" y2="337.6001"/><polygon fill="#181818" points="193.0709,327.6001,197.0709,337.6001,201.0709,327.6001,197.0709,331.6001" style="stroke:#181818;stroke-width:1;"/><line style="stroke:#181818;stroke-width:1;" x1="197.0709" x2="197.0709" y1="372.0002" y2="382.0002"/><line style="stroke:#181818;stroke-width:1;" x1="197.0709" x2="269.4293" y1="382.0002" y2="382.0002"/><polygon fill="#181818" points="265.4293,352.8002,269.4293,342.8002,273.4293,352.8002,269.4293,348.8002" style="stroke:#181818;stroke-width:1;"/><line style="stroke:#181818;stroke-width:1;" x1="269.4293" x2="269.4293" y1="305.6001" y2="382.0002"/><line style="stroke:#181818;stroke-width:1;" x1="269.4293" x2="236.1252" y1="305.6001" y2="305.6001"/><polygon fill="#181818" points="246.1252,301.6001,236.1252,305.6001,246.1252,309.6001,242.1252,305.6001" style="stroke:#181818;stroke-width:1;"/><line style="stroke:#181818;stroke-width:1;" x1="158.0166" x2="124.7125" y1="305.6001" y2="305.6001"/><polygon fill="#181818" points="120.7125,338.8002,124.7125,348.8002,128.7125,338.8002,124.7125,342.8002" style="stroke:#181818;stroke-width:1;"/><line style="stroke:#181818;stroke-width:1;" x1="124.7125" x2="124.7125" y1="305.6001" y2="394.0002"/><line style="stroke:#181818;stroke-width:1;" x1="124.7125" x2="197.0709" y1="394.0002" y2="394.0002"/><line style="stroke:#181818;stroke-width:1;" x1="197.0709" x2="197.0709" y1="394.0002" y2="414.0002"/><polygon fill="#181818" points="193.0709,404.0002,197.0709,414.0002,201.0709,404.0002,197.0709,408.0002" style="stroke:#181818;stroke-width:1;"/><line style="stroke:#181818;stroke-width:1;" x1="197.0709" x2="197.0709" y1="273.6001" y2="293.6001"/><polygon fill="#181818" points="193.0709,283.6001,197.0709,293.6001,201.0709,283.6001,197.0709,287.6001" style="stroke:#181818;stroke-width:1;"/><line style="stroke:#181818;stroke-width:1;" x1="197.0709" x2="197.0709" y1="448.4003" y2="468.4003"/><polygon fill="#181818" points="193.0709,458.4003,197.0709,468.4003,201.0709,458.4003,197.0709,462.4003" style="stroke:#181818;stroke-width:1;"/><line style="stroke:#181818;stroke-width:1;" x1="197.0709" x2="197.0709" y1="502.8004" y2="522.8004"/><polygon fill="#181818" points="193.0709,512.8004,197.0709,522.8004,201.0709,512.8004,197.0709,516.8004" style="stroke:#181818;stroke-width:1;"/><!--SRC=[AqWiAiaioSpFKqXEp4cETtPpZq_AoK_ELgZcKW22uXAWF9YLbb-K3MQ0W5LOOd6kPrvnYK96QcAAWgs2frz0Q8WrNA52OdfYPXuMvIM9cJbObAVcfU2pH2k_j0IeImra6H6MQ9MavXPWKG-pfJmZCoTLGGEiIj4Mx2PDX35GpI1ArouljQ84OW9GCrWV5rmHH1Qer2_KnmUYoCe_D0JeCmMWUwsXuPTVm5KB0000]--></g></svg>