<svg xmlns="http://www.w3.org/2000/svg" xmlns:xlink="http://www.w3.org/1999/xlink" contentStyleType="text/css" data-diagram-type="ACTIVITY" height="639px" preserveAspectRatio="none" style="width:719px;height:639px;background:#FFFFFF;" version="1.1" viewBox="0 0 719 639" width="719px" zoomAndPan="magnify"><defs/><g><rect fill="none" height="617.6006" style="stroke:#000000;stroke-width:1.5;" width="697.8318" x="11" y="11"/><path d="M133.7975,11 L133.7975,20.7999 L123.7975,30.7999 L11,30.7999" fill="none" style="stroke:#000000;stroke-width:1.5;"/><text fill="#000000" font-family="sans-serif" font-size="14" lengthAdjust="spacing" textLength="112.7975" x="14" y="25.0059">calc_CFG_tail_arr</text><ellipse cx="359.9159" cy="50.7999" fill="#222222" rx="10" ry="10" style="stroke:#222222;stroke-width:1;"/><rect fill="#F1F1F1" height="34.4001" rx="12.5" ry="12.5" style="stroke:#181818;stroke-width:0.5;" width="187.0412" x="266.3953" y="80.7999"/><text fill="#000000" font-family="sans-serif" font-size="12" lengthAdjust="spacing" textLength="167.0412" x="276.3953" y="101.948">VasmInstr *inp_vasm &lt;- INPUT</text><rect fill="#555555" height="6" rx="2.5" ry="2.5" style="stroke:#555555;stroke-width:1;" width="677.8318" x="21" y="135.2"/><rect fill="#F1F1F1" height="34.4001" rx="12.5" ry="12.5" style="stroke:#181818;stroke-width:0.5;" width="251.0736" x="33" y="161.2"/><text fill="#000000" font-family="sans-serif" font-size="12" lengthAdjust="spacing" textLength="231.0736" x="43" y="182.3481">size_t *h &lt;- calc_CFG_head_arr(inp_vasm)</text><rect fill="#F1F1F1" height="34.4001" rx="12.5" ry="12.5" style="stroke:#181818;stroke-width:0.5;" width="85.0285" x="312.0736" y="161.2"/><text fill="#000000" font-family="sans-serif" font-size="12" lengthAdjust="spacing" textLength="65.0285" x="322.0736" y="182.3481">size_t c &lt;- 0</text><rect fill="#F1F1F1" height="34.4001" rx="12.5" ry="12.5" style="stroke:#181818;stroke-width:0.5;" width="261.7297" x="425.1021" y="161.2"/><text fill="#000000" font-family="sans-serif" font-size="12" lengthAdjust="spacing" textLength="241.7297" x="435.1021" y="182.3481">size_t s &lt;- calc_CFG_num_blocks(inp_vasm)</text><rect fill="#555555" height="6" rx="2.5" ry="2.5" style="stroke:#555555;stroke-width:1;" width="677.8318" x="21" y="215.6001"/><rect fill="#F1F1F1" height="34.4001" rx="12.5" ry="12.5" style="stroke:#181818;stroke-width:0.5;" width="84.0325" x="317.8997" y="241.6001"/><text fill="#000000" font-family="sans-serif" font-size="12" lengthAdjust="spacing" textLength="64.0325" x="327.8997" y="262.7482">size_t out[s]</text><rect fill="#F1F1F1" height="34.4001" rx="12.5" ry="12.5" style="stroke:#181818;stroke-width:0.5;" width="121.3888" x="299.2215" y="340.0002"/><text fill="#000000" font-family="sans-serif" font-size="12" lengthAdjust="spacing" textLength="101.3888" x="309.2215" y="361.1483">out[c] &lt;- h[c+1]) - 1</text><rect fill="#F1F1F1" height="34.4001" rx="12.5" ry="12.5" style="stroke:#181818;stroke-width:0.5;" width="70.0284" x="324.9017" y="409.4003"/><text fill="#000000" font-family="sans-serif" font-size="12" lengthAdjust="spacing" textLength="50.0284" x="334.9017" y="430.5484">c &lt;- c + 1</text><polygon fill="#F1F1F1" points="338.0645,296.0002,381.7672,296.0002,393.7672,308.0002,381.7672,320.0002,338.0645,320.0002,326.0645,308.0002,338.0645,296.0002" style="stroke:#181818;stroke-width:0.5;"/><text fill="#000000" font-family="sans-serif" font-size="11" lengthAdjust="spacing" textLength="43.7027" x="338.0645" y="311.6192">c != (s-1)</text><rect fill="#F1F1F1" height="34.4001" rx="12.5" ry="12.5" style="stroke:#181818;stroke-width:0.5;" width="266.3977" x="226.717" y="485.8004"/><text fill="#000000" font-family="sans-serif" font-size="12" lengthAdjust="spacing" textLength="246.3977" x="236.717" y="506.9485">out[s] &lt;- calc_CFG_num_list_items(inp_vasm)</text><rect fill="#F1F1F1" height="34.4001" rx="12.5" ry="12.5" style="stroke:#181818;stroke-width:0.5;" width="89.3485" x="315.2417" y="540.2005"/><text fill="#000000" font-family="sans-serif" font-size="12" lengthAdjust="spacing" textLength="69.3485" x="325.2417" y="561.3486">OUTPUT out</text><ellipse cx="359.9159" cy="605.6006" fill="none" rx="11" ry="11" style="stroke:#222222;stroke-width:1;"/><ellipse cx="359.9159" cy="605.6006" fill="#222222" rx="6" ry="6" style="stroke:#222222;stroke-width:1;"/><line style="stroke:#181818;stroke-width:1;" x1="359.9159" x2="359.9159" y1="60.7999" y2="80.7999"/><polygon fill="#181818" points="355.9159,70.7999,359.9159,80.7999,363.9159,70.7999,359.9159,74.7999" style="stroke:#181818;stroke-width:1;"/><line style="stroke:#181818;stroke-width:1;" x1="158.5368" x2="158.5368" y1="141.2" y2="161.2"/><polygon fill="#181818" points="154.5368,151.2,158.5368,161.2,162.5368,151.2,158.5368,155.2" style="stroke:#181818;stroke-width:1;"/><line style="stroke:#181818;stroke-width:1;" x1="354.5879" x2="354.5879" y1="141.2" y2="161.2"/><polygon fill="#181818" points="350.5879,151.2,354.5879,161.2,358.5879,151.2,354.5879,155.2" style="stroke:#181818;stroke-width:1;"/><line style="stroke:#181818;stroke-width:1;" x1="555.9669" x2="555.9669" y1="141.2" y2="161.2"/><polygon fill="#181818" points="551.9669,151.2,555.9669,161.2,559.9669,151.2,555.9669,155.2" style="stroke:#181818;stroke-width:1;"/><line style="stroke:#181818;stroke-width:1;" x1="158.5368" x2="158.5368" y1="195.6001" y2="215.6001"/><polygon fill="#181818" points="154.5368,205.6001,158.5368,215.6001,162.5368,205.6001,158.5368,209.6001" style="stroke:#181818;stroke-width:1;"/><line style="stroke:#181818;stroke-width:1;" x1="354.5879" x2="354.5879" y1="195.6001" y2="215.6001"/><polygon fill="#181818" points="350.5879,205.6001,354.5879,215.6001,358.5879,205.6001,354.5879,209.6001" style="stroke:#181818;stroke-width:1;"/><line style="stroke:#181818;stroke-width:1;" x1="555.9669" x2="555.9669" y1="195.6001" y2="215.6001"/><polygon fill="#181818" points="551.9669,205.6001,555.9669,215.6001,559.9669,205.6001,555.9669,209.6001" style="stroke:#181818;stroke-width:1;"/><line style="stroke:#181818;stroke-width:1;" x1="359.9159" x2="359.9159" y1="115.2" y2="135.2"/><polygon fill="#181818" points="355.9159,125.2,359.9159,135.2,363.9159,125.2,359.9159,129.2" style="stroke:#181818;stroke-width:1;"/><line style="stroke:#181818;stroke-width:1;" x1="359.9159" x2="359.9159" y1="221.6001" y2="241.6001"/><polygon fill="#181818" points="355.9159,231.6001,359.9159,241.6001,363.9159,231.6001,359.9159,235.6001" style="stroke:#181818;stroke-width:1;"/><line style="stroke:#181818;stroke-width:1;" x1="359.9159" x2="359.9159" y1="374.4003" y2="409.4003"/><polygon fill="#181818" points="355.9159,399.4003,359.9159,409.4003,363.9159,399.4003,359.9159,403.4003" style="stroke:#181818;stroke-width:1;"/><line style="stroke:#181818;stroke-width:1;" x1="359.9159" x2="359.9159" y1="320.0002" y2="340.0002"/><polygon fill="#181818" points="355.9159,330.0002,359.9159,340.0002,363.9159,330.0002,359.9159,334.0002" style="stroke:#181818;stroke-width:1;"/><line style="stroke:#181818;stroke-width:1;" x1="359.9159" x2="359.9159" y1="443.8004" y2="453.8004"/><line style="stroke:#181818;stroke-width:1;" x1="359.9159" x2="432.6103" y1="453.8004" y2="453.8004"/><polygon fill="#181818" points="428.6103,389.9003,432.6103,379.9003,436.6103,389.9003,432.6103,385.9003" style="stroke:#181818;stroke-width:1;"/><line style="stroke:#181818;stroke-width:1;" x1="432.6103" x2="432.6103" y1="308.0002" y2="453.8004"/><line style="stroke:#181818;stroke-width:1;" x1="432.6103" x2="393.7672" y1="308.0002" y2="308.0002"/><polygon fill="#181818" points="403.7672,304.0002,393.7672,308.0002,403.7672,312.0002,399.7672,308.0002" style="stroke:#181818;stroke-width:1;"/><line style="stroke:#181818;stroke-width:1;" x1="326.0645" x2="287.2215" y1="308.0002" y2="308.0002"/><polygon fill="#181818" points="283.2215,375.9003,287.2215,385.9003,291.2215,375.9003,287.2215,379.9003" style="stroke:#181818;stroke-width:1;"/><line style="stroke:#181818;stroke-width:1;" x1="287.2215" x2="287.2215" y1="308.0002" y2="465.8004"/><line style="stroke:#181818;stroke-width:1;" x1="287.2215" x2="359.9159" y1="465.8004" y2="465.8004"/><line style="stroke:#181818;stroke-width:1;" x1="359.9159" x2="359.9159" y1="465.8004" y2="485.8004"/><polygon fill="#181818" points="355.9159,475.8004,359.9159,485.8004,363.9159,475.8004,359.9159,479.8004" style="stroke:#181818;stroke-width:1;"/><line style="stroke:#181818;stroke-width:1;" x1="359.9159" x2="359.9159" y1="276.0002" y2="296.0002"/><polygon fill="#181818" points="355.9159,286.0002,359.9159,296.0002,363.9159,286.0002,359.9159,290.0002" style="stroke:#181818;stroke-width:1;"/><line style="stroke:#181818;stroke-width:1;" x1="359.9159" x2="359.9159" y1="520.2005" y2="540.2005"/><polygon fill="#181818" points="355.9159,530.2005,359.9159,540.2005,363.9159,530.2005,359.9159,534.2005" style="stroke:#181818;stroke-width:1;"/><line style="stroke:#181818;stroke-width:1;" x1="359.9159" x2="359.9159" y1="574.6006" y2="594.6006"/><polygon fill="#181818" points="355.9159,584.6006,359.9159,594.6006,363.9159,584.6006,359.9159,588.6006" style="stroke:#181818;stroke-width:1;"/><!--SRC=[TP11ImCn44RFoQ-OtdPR5jphhfu4Io_geVLIbX3Jw0xD9ajcgg3utqrMBPRIu_1uZuyPTMHa31wCTaRTtYqLQtHAnmYVKX0dBaNpf6bOUU88S_IZUaidN5Umkd_Sh5ifNaBSIo4QmW-h6EPzXiTWR_Kk1ui_jVnLGBzgzFz4axshIvHEglumg6SNp9xEkzRlv54B1zvIbz1xZyv2OM1s0mLLTLdcUCQco-b-QnPrLq85TPl9jCR0OZfJSlBbZq7TsHY7n0hP3gU3ceVDEdqfpsZpGyCelxu1]--></g></svg>