<svg xmlns="http://www.w3.org/2000/svg" xmlns:xlink="http://www.w3.org/1999/xlink" contentStyleType="text/css" data-diagram-type="ACTIVITY" height="459px" preserveAspectRatio="none" style="width:390px;height:459px;background:#FFFFFF;" version="1.1" viewBox="0 0 390 459" width="390px" zoomAndPan="magnify"><defs/><g><rect fill="none" height="437.0002" style="stroke:#000000;stroke-width:1.5;" width="368.0818" x="11" y="11"/><path d="M184.3653,11 L184.3653,20.7999 L174.3653,30.7999 L11,30.7999" fill="none" style="stroke:#000000;stroke-width:1.5;"/><text fill="#000000" font-family="sans-serif" font-size="14" lengthAdjust="spacing" textLength="163.3653" x="14" y="25.0059">calc_CFG_num_list_items</text><ellipse cx="195.0409" cy="50.7999" fill="#222222" rx="10" ry="10" style="stroke:#222222;stroke-width:1;"/><rect fill="#555555" height="6" rx="2.5" ry="2.5" style="stroke:#555555;stroke-width:1;" width="348.0818" x="21" y="80.7999"/><rect fill="#F1F1F1" height="34.4001" rx="12.5" ry="12.5" style="stroke:#181818;stroke-width:0.5;" width="200.3733" x="33" y="106.7999"/><text fill="#000000" font-family="sans-serif" font-size="12" lengthAdjust="spacing" textLength="180.3733" x="43" y="127.948">VasmInstr *inp_vasm &lt;- OUTPUT</text><rect fill="#F1F1F1" height="34.4001" rx="12.5" ry="12.5" style="stroke:#181818;stroke-width:0.5;" width="95.7086" x="261.3733" y="106.7999"/><text fill="#000000" font-family="sans-serif" font-size="12" lengthAdjust="spacing" textLength="75.7086" x="271.3733" y="127.948">size_t out &lt;- 0</text><rect fill="#555555" height="6" rx="2.5" ry="2.5" style="stroke:#555555;stroke-width:1;" width="348.0818" x="21" y="161.2"/><rect fill="#555555" height="6" rx="2.5" ry="2.5" style="stroke:#555555;stroke-width:1;" width="280.7533" x="54.6643" y="231.2"/><rect fill="#F1F1F1" height="34.4001" rx="12.5" ry="12.5" style="stroke:#181818;stroke-width:0.5;" width="50.6962" x="68.6643" y="257.2"/><text fill="#000000" font-family="sans-serif" font-size="12" lengthAdjust="spacing" textLength="30.6962" x="78.6643" y="278.3481">out++</text><rect fill="#F1F1F1" height="34.4001" rx="12.5" ry="12.5" style="stroke:#181818;stroke-width:0.5;" width="174.0571" x="147.3605" y="257.2"/><text fill="#000000" font-family="sans-serif" font-size="12" lengthAdjust="spacing" textLength="154.0571" x="157.3605" y="278.3481">inp_vasm &lt;- inp_vasm-&gt;next</text><rect fill="#555555" height="6" rx="2.5" ry="2.5" style="stroke:#555555;stroke-width:1;" width="280.7533" x="54.6643" y="311.6001"/><polygon fill="#F1F1F1" points="134.2114,187.2,255.8705,187.2,267.8705,199.2,255.8705,211.2,134.2114,211.2,122.2114,199.2,134.2114,187.2" style="stroke:#181818;stroke-width:0.5;"/><text fill="#000000" font-family="sans-serif" font-size="11" lengthAdjust="spacing" textLength="121.6591" x="134.2114" y="202.819">inp_vasm-&gt;next != NULL</text><rect fill="#F1F1F1" height="34.4001" rx="12.5" ry="12.5" style="stroke:#181818;stroke-width:0.5;" width="89.3485" x="150.3667" y="359.6001"/><text fill="#000000" font-family="sans-serif" font-size="12" lengthAdjust="spacing" textLength="69.3485" x="160.3667" y="380.7482">OUTPUT out</text><ellipse cx="195.0409" cy="425.0002" fill="none" rx="11" ry="11" style="stroke:#222222;stroke-width:1;"/><ellipse cx="195.0409" cy="425.0002" fill="#222222" rx="6" ry="6" style="stroke:#222222;stroke-width:1;"/><line style="stroke:#181818;stroke-width:1;" x1="133.1866" x2="133.1866" y1="86.7999" y2="106.7999"/><polygon fill="#181818" points="129.1866,96.7999,133.1866,106.7999,137.1866,96.7999,133.1866,100.7999" style="stroke:#181818;stroke-width:1;"/><line style="stroke:#181818;stroke-width:1;" x1="309.2276" x2="309.2276" y1="86.7999" y2="106.7999"/><polygon fill="#181818" points="305.2276,96.7999,309.2276,106.7999,313.2276,96.7999,309.2276,100.7999" style="stroke:#181818;stroke-width:1;"/><line style="stroke:#181818;stroke-width:1;" x1="133.1866" x2="133.1866" y1="141.2" y2="161.2"/><polygon fill="#181818" points="129.1866,151.2,133.1866,161.2,137.1866,151.2,133.1866,155.2" style="stroke:#181818;stroke-width:1;"/><line style="stroke:#181818;stroke-width:1;" x1="309.2276" x2="309.2276" y1="141.2" y2="161.2"/><polygon fill="#181818" points="305.2276,151.2,309.2276,161.2,313.2276,151.2,309.2276,155.2" style="stroke:#181818;stroke-width:1;"/><line style="stroke:#181818;stroke-width:1;" x1="195.0409" x2="195.0409" y1="60.7999" y2="80.7999"/><polygon fill="#181818" points="191.0409,70.7999,195.0409,80.7999,199.0409,70.7999,195.0409,74.7999" style="stroke:#181818;stroke-width:1;"/><line style="stroke:#181818;stroke-width:1;" x1="94.0124" x2="94.0124" y1="237.2" y2="257.2"/><polygon fill="#181818" points="90.0124,247.2,94.0124,257.2,98.0124,247.2,94.0124,251.2" style="stroke:#181818;stroke-width:1;"/><line style="stroke:#181818;stroke-width:1;" x1="234.389" x2="234.389" y1="237.2" y2="257.2"/><polygon fill="#181818" points="230.389,247.2,234.389,257.2,238.389,247.2,234.389,251.2" style="stroke:#181818;stroke-width:1;"/><line style="stroke:#181818;stroke-width:1;" x1="94.0124" x2="94.0124" y1="291.6001" y2="311.6001"/><polygon fill="#181818" points="90.0124,301.6001,94.0124,311.6001,98.0124,301.6001,94.0124,305.6001" style="stroke:#181818;stroke-width:1;"/><line style="stroke:#181818;stroke-width:1;" x1="234.389" x2="234.389" y1="291.6001" y2="311.6001"/><polygon fill="#181818" points="230.389,301.6001,234.389,311.6001,238.389,301.6001,234.389,305.6001" style="stroke:#181818;stroke-width:1;"/><line style="stroke:#181818;stroke-width:1;" x1="195.0409" x2="195.0409" y1="211.2" y2="231.2"/><polygon fill="#181818" points="191.0409,221.2,195.0409,231.2,199.0409,221.2,195.0409,225.2" style="stroke:#181818;stroke-width:1;"/><line style="stroke:#181818;stroke-width:1;" x1="195.0409" x2="195.0409" y1="317.6001" y2="327.6001"/><line style="stroke:#181818;stroke-width:1;" x1="195.0409" x2="347.4176" y1="327.6001" y2="327.6001"/><polygon fill="#181818" points="343.4176,272.4001,347.4176,262.4001,351.4176,272.4001,347.4176,268.4001" style="stroke:#181818;stroke-width:1;"/><line style="stroke:#181818;stroke-width:1;" x1="347.4176" x2="347.4176" y1="199.2" y2="327.6001"/><line style="stroke:#181818;stroke-width:1;" x1="347.4176" x2="267.8705" y1="199.2" y2="199.2"/><polygon fill="#181818" points="277.8705,195.2,267.8705,199.2,277.8705,203.2,273.8705,199.2" style="stroke:#181818;stroke-width:1;"/><line style="stroke:#181818;stroke-width:1;" x1="122.2114" x2="42.6643" y1="199.2" y2="199.2"/><polygon fill="#181818" points="38.6643,258.4001,42.6643,268.4001,46.6643,258.4001,42.6643,262.4001" style="stroke:#181818;stroke-width:1;"/><line style="stroke:#181818;stroke-width:1;" x1="42.6643" x2="42.6643" y1="199.2" y2="339.6001"/><line style="stroke:#181818;stroke-width:1;" x1="42.6643" x2="195.0409" y1="339.6001" y2="339.6001"/><line style="stroke:#181818;stroke-width:1;" x1="195.0409" x2="195.0409" y1="339.6001" y2="359.6001"/><polygon fill="#181818" points="191.0409,349.6001,195.0409,359.6001,199.0409,349.6001,195.0409,353.6001" style="stroke:#181818;stroke-width:1;"/><line style="stroke:#181818;stroke-width:1;" x1="195.0409" x2="195.0409" y1="167.2" y2="187.2"/><polygon fill="#181818" points="191.0409,177.2,195.0409,187.2,199.0409,177.2,195.0409,181.2" style="stroke:#181818;stroke-width:1;"/><line style="stroke:#181818;stroke-width:1;" x1="195.0409" x2="195.0409" y1="394.0002" y2="414.0002"/><polygon fill="#181818" points="191.0409,404.0002,195.0409,414.0002,199.0409,404.0002,195.0409,408.0002" style="stroke:#181818;stroke-width:1;"/><!--SRC=[LOzF2y8m3CNFxQU8DtKCF7VgHL24eHushwNCgiMj7MkcelZTRVSFlGII_FBUIoagLAYCXapa6L-jDrpN1S-LHQvG5XRUb5Xq52LdKzqe8UmeRB7L5YkOAbtoksjX7i8-JGvf4hKSY8jGsjDMlIH7C3LwQDRlfJvHyhYgNCAuLmcNMZuHHWlOfN4ySTUT9M7kF0YYRZA84_ORu5zcW1idLnepIbYRqmUA_6kcf9yl]--></g></svg>