<svg xmlns="http://www.w3.org/2000/svg" xmlns:xlink="http://www.w3.org/1999/xlink" contentStyleType="text/css" data-diagram-type="ACTIVITY" height="567px" preserveAspectRatio="none" style="width:430px;height:567px;background:#FFFFFF;" version="1.1" viewBox="0 0 430 567" width="430px" zoomAndPan="magnify"><defs/><g><rect fill="none" height="545.8004" style="stroke:#000000;stroke-width:1.5;" width="408.1741" x="11" y="11"/><path d="M123.6896,11 L123.6896,20.7999 L113.6896,30.7999 L11,30.7999" fill="none" style="stroke:#000000;stroke-width:1.5;"/><text fill="#000000" font-family="sans-serif" font-size="14" lengthAdjust="spacing" textLength="102.6896" x="14" y="25.0059">calc_CFG_block</text><ellipse cx="215.0871" cy="50.7999" fill="#222222" rx="10" ry="10" style="stroke:#222222;stroke-width:1;"/><rect fill="#555555" height="6" rx="2.5" ry="2.5" style="stroke:#555555;stroke-width:1;" width="364.1059" x="33.0341" y="80.7999"/><rect fill="#F1F1F1" height="34.4001" rx="12.5" ry="12.5" style="stroke:#181818;stroke-width:0.5;" width="159.729" x="47.0341" y="106.7999"/><text fill="#000000" font-family="sans-serif" font-size="12" lengthAdjust="spacing" textLength="139.729" x="57.0341" y="127.948">VasmInst t_head = INPUT</text><rect fill="#F1F1F1" height="34.4001" rx="12.5" ry="12.5" style="stroke:#181818;stroke-width:0.5;" width="148.3769" x="234.7631" y="106.7999"/><text fill="#000000" font-family="sans-serif" font-size="12" lengthAdjust="spacing" textLength="128.3769" x="244.7631" y="127.948">VasmInst t_tail = INPUT</text><rect fill="#555555" height="6" rx="2.5" ry="2.5" style="stroke:#555555;stroke-width:1;" width="364.1059" x="33.0341" y="161.2"/><rect fill="#555555" height="6" rx="2.5" ry="2.5" style="stroke:#555555;stroke-width:1;" width="388.1741" x="21" y="187.2"/><rect fill="#F1F1F1" height="34.4001" rx="12.5" ry="12.5" style="stroke:#181818;stroke-width:0.5;" width="163.089" x="33" y="213.2"/><text fill="#000000" font-family="sans-serif" font-size="12" lengthAdjust="spacing" textLength="143.089" x="43" y="234.3481">VasmInst *t_out = &amp;t_head</text><rect fill="#F1F1F1" height="34.4001" rx="12.5" ry="12.5" style="stroke:#181818;stroke-width:0.5;" width="173.0851" x="224.089" y="213.2"/><text fill="#000000" font-family="sans-serif" font-size="12" lengthAdjust="spacing" textLength="153.0851" x="234.089" y="234.3481">VasmInst *t_temp = &amp;t_head</text><rect fill="#555555" height="6" rx="2.5" ry="2.5" style="stroke:#555555;stroke-width:1;" width="388.1741" x="21" y="267.6001"/><rect fill="#F1F1F1" height="34.4001" rx="12.5" ry="12.5" style="stroke:#181818;stroke-width:0.5;" width="140.7329" x="144.7206" y="337.6001"/><text fill="#000000" font-family="sans-serif" font-size="12" lengthAdjust="spacing" textLength="120.7329" x="154.7206" y="358.7482">t_temp = t_temp-&gt;next</text><polygon fill="#F1F1F1" points="178.8588,293.6001,251.3153,293.6001,263.3153,305.6001,251.3153,317.6001,178.8588,317.6001,166.8588,305.6001,178.8588,293.6001" style="stroke:#181818;stroke-width:0.5;"/><text fill="#000000" font-family="sans-serif" font-size="11" lengthAdjust="spacing" textLength="72.4565" x="178.8588" y="309.2191">t_temp != t_tail</text><rect fill="#F1F1F1" height="34.4001" rx="12.5" ry="12.5" style="stroke:#181818;stroke-width:0.5;" width="134.7208" x="147.7266" y="414.0002"/><text fill="#000000" font-family="sans-serif" font-size="12" lengthAdjust="spacing" textLength="114.7208" x="157.7266" y="435.1483">t_temp-&gt;next = NULL</text><rect fill="#F1F1F1" height="34.4001" rx="12.5" ry="12.5" style="stroke:#181818;stroke-width:0.5;" width="99.3566" x="165.4088" y="468.4003"/><text fill="#000000" font-family="sans-serif" font-size="12" lengthAdjust="spacing" textLength="79.3566" x="175.4088" y="489.5484">OUTPUT t_out</text><ellipse cx="215.0871" cy="533.8004" fill="none" rx="11" ry="11" style="stroke:#222222;stroke-width:1;"/><ellipse cx="215.0871" cy="533.8004" fill="#222222" rx="6" ry="6" style="stroke:#222222;stroke-width:1;"/><line style="stroke:#181818;stroke-width:1;" x1="126.8986" x2="126.8986" y1="86.7999" y2="106.7999"/><polygon fill="#181818" points="122.8986,96.7999,126.8986,106.7999,130.8986,96.7999,126.8986,100.7999" style="stroke:#181818;stroke-width:1;"/><line style="stroke:#181818;stroke-width:1;" x1="308.9516" x2="308.9516" y1="86.7999" y2="106.7999"/><polygon fill="#181818" points="304.9516,96.7999,308.9516,106.7999,312.9516,96.7999,308.9516,100.7999" style="stroke:#181818;stroke-width:1;"/><line style="stroke:#181818;stroke-width:1;" x1="126.8986" x2="126.8986" y1="141.2" y2="161.2"/><polygon fill="#181818" points="122.8986,151.2,126.8986,161.2,130.8986,151.2,126.8986,155.2" style="stroke:#181818;stroke-width:1;"/><line style="stroke:#181818;stroke-width:1;" x1="308.9516" x2="308.9516" y1="141.2" y2="161.2"/><polygon fill="#181818" points="304.9516,151.2,308.9516,161.2,312.9516,151.2,308.9516,155.2" style="stroke:#181818;stroke-width:1;"/><line style="stroke:#181818;stroke-width:1;" x1="215.0871" x2="215.0871" y1="60.7999" y2="80.7999"/><polygon fill="#181818" points="211.0871,70.7999,215.0871,80.7999,219.0871,70.7999,215.0871,74.7999" style="stroke:#181818;stroke-width:1;"/><line style="stroke:#181818;stroke-width:1;" x1="114.5445" x2="114.5445" y1="193.2" y2="213.2"/><polygon fill="#181818" points="110.5445,203.2,114.5445,213.2,118.5445,203.2,114.5445,207.2" style="stroke:#181818;stroke-width:1;"/><line style="stroke:#181818;stroke-width:1;" x1="310.6316" x2="310.6316" y1="193.2" y2="213.2"/><polygon fill="#181818" points="306.6316,203.2,310.6316,213.2,314.6316,203.2,310.6316,207.2" style="stroke:#181818;stroke-width:1;"/><line style="stroke:#181818;stroke-width:1;" x1="114.5445" x2="114.5445" y1="247.6001" y2="267.6001"/><polygon fill="#181818" points="110.5445,257.6001,114.5445,267.6001,118.5445,257.6001,114.5445,261.6001" style="stroke:#181818;stroke-width:1;"/><line style="stroke:#181818;stroke-width:1;" x1="310.6316" x2="310.6316" y1="247.6001" y2="267.6001"/><polygon fill="#181818" points="306.6316,257.6001,310.6316,267.6001,314.6316,257.6001,310.6316,261.6001" style="stroke:#181818;stroke-width:1;"/><line style="stroke:#181818;stroke-width:1;" x1="215.0871" x2="215.0871" y1="167.2" y2="187.2"/><polygon fill="#181818" points="211.0871,177.2,215.0871,187.2,219.0871,177.2,215.0871,181.2" style="stroke:#181818;stroke-width:1;"/><line style="stroke:#181818;stroke-width:1;" x1="215.0871" x2="215.0871" y1="317.6001" y2="337.6001"/><polygon fill="#181818" points="211.0871,327.6001,215.0871,337.6001,219.0871,327.6001,215.0871,331.6001" style="stroke:#181818;stroke-width:1;"/><line style="stroke:#181818;stroke-width:1;" x1="215.0871" x2="215.0871" y1="372.0002" y2="382.0002"/><line style="stroke:#181818;stroke-width:1;" x1="215.0871" x2="297.4535" y1="382.0002" y2="382.0002"/><polygon fill="#181818" points="293.4535,352.8002,297.4535,342.8002,301.4535,352.8002,297.4535,348.8002" style="stroke:#181818;stroke-width:1;"/><line style="stroke:#181818;stroke-width:1;" x1="297.4535" x2="297.4535" y1="305.6001" y2="382.0002"/><line style="stroke:#181818;stroke-width:1;" x1="297.4535" x2="263.3153" y1="305.6001" y2="305.6001"/><polygon fill="#181818" points="273.3153,301.6001,263.3153,305.6001,273.3153,309.6001,269.3153,305.6001" style="stroke:#181818;stroke-width:1;"/><line style="stroke:#181818;stroke-width:1;" x1="166.8588" x2="132.7206" y1="305.6001" y2="305.6001"/><polygon fill="#181818" points="128.7206,338.8002,132.7206,348.8002,136.7206,338.8002,132.7206,342.8002" style="stroke:#181818;stroke-width:1;"/><line style="stroke:#181818;stroke-width:1;" x1="132.7206" x2="132.7206" y1="305.6001" y2="394.0002"/><line style="stroke:#181818;stroke-width:1;" x1="132.7206" x2="215.0871" y1="394.0002" y2="394.0002"/><line style="stroke:#181818;stroke-width:1;" x1="215.0871" x2="215.0871" y1="394.0002" y2="414.0002"/><polygon fill="#181818" points="211.0871,404.0002,215.0871,414.0002,219.0871,404.0002,215.0871,408.0002" style="stroke:#181818;stroke-width:1;"/><line style="stroke:#181818;stroke-width:1;" x1="215.0871" x2="215.0871" y1="273.6001" y2="293.6001"/><polygon fill="#181818" points="211.0871,283.6001,215.0871,293.6001,219.0871,283.6001,215.0871,287.6001" style="stroke:#181818;stroke-width:1;"/><line style="stroke:#181818;stroke-width:1;" x1="215.0871" x2="215.0871" y1="448.4003" y2="468.4003"/><polygon fill="#181818" points="211.0871,458.4003,215.0871,468.4003,219.0871,458.4003,215.0871,462.4003" style="stroke:#181818;stroke-width:1;"/><line style="stroke:#181818;stroke-width:1;" x1="215.0871" x2="215.0871" y1="502.8004" y2="522.8004"/><polygon fill="#181818" points="211.0871,512.8004,215.0871,522.8004,219.0871,512.8004,215.0871,516.8004" style="stroke:#181818;stroke-width:1;"/><!--SRC=[AqWiAiaioSpFKqXEp4cETtPpZq_AoK_ELgZcKW22uXAWF9YLbb-K3MQ0W5LOOd6kPrvnYK99V4PgOeg2hOAdNq1eY3LSgK9YUc9c7bOD9OcPELWqfEQbuBD8goG-lxG4g4yDOYKHLW6rbAJc5c3L0xEjF2Cp9rL10wfIqHRgFas4SN1380nTkxpKYXA8IK13mFgva1H2v87A_K9zV23AhFn3Gu1-LG3xm1eQhla5NBK0]--></g></svg>