<svg xmlns="http://www.w3.org/2000/svg" xmlns:xlink="http://www.w3.org/1999/xlink" contentStyleType="text/css" data-diagram-type="ACTIVITY" height="459px" preserveAspectRatio="none" style="width:354px;height:459px;background:#FFFFFF;" version="1.1" viewBox="0 0 354 459" width="354px" zoomAndPan="magnify"><defs/><g><rect fill="none" height="437.0002" style="stroke:#000000;stroke-width:1.5;" width="331.4095" x="11" y="11"/><path d="M184.3653,11 L184.3653,20.7999 L174.3653,30.7999 L11,30.7999" fill="none" style="stroke:#000000;stroke-width:1.5;"/><text fill="#000000" font-family="sans-serif" font-size="14" lengthAdjust="spacing" textLength="163.3653" x="14" y="25.0059">calc_CFG_num_list_items</text><ellipse cx="177.7048" cy="50.7999" fill="#222222" rx="10" ry="10" style="stroke:#222222;stroke-width:1;"/><rect fill="#555555" height="6" rx="2.5" ry="2.5" style="stroke:#555555;stroke-width:1;" width="309.4095" x="23" y="80.7999"/><rect fill="#F1F1F1" height="34.4001" rx="12.5" ry="12.5" style="stroke:#181818;stroke-width:0.5;" width="196.3772" x="37" y="106.7999"/><text fill="#000000" font-family="sans-serif" font-size="12" lengthAdjust="spacing" textLength="176.3772" x="47" y="127.948">VasmInstr *inp_vasm = OUTPUT</text><rect fill="#F1F1F1" height="34.4001" rx="12.5" ry="12.5" style="stroke:#181818;stroke-width:0.5;" width="57.0323" x="261.3772" y="106.7999"/><text fill="#000000" font-family="sans-serif" font-size="12" lengthAdjust="spacing" textLength="37.0323" x="271.3772" y="127.948">out = 0</text><rect fill="#555555" height="6" rx="2.5" ry="2.5" style="stroke:#555555;stroke-width:1;" width="309.4095" x="23" y="161.2"/><rect fill="#555555" height="6" rx="2.5" ry="2.5" style="stroke:#555555;stroke-width:1;" width="276.7573" x="39.3261" y="231.2"/><rect fill="#F1F1F1" height="34.4001" rx="12.5" ry="12.5" style="stroke:#181818;stroke-width:0.5;" width="50.6962" x="53.3261" y="257.2"/><text fill="#000000" font-family="sans-serif" font-size="12" lengthAdjust="spacing" textLength="30.6962" x="63.3261" y="278.3481">out++</text><rect fill="#F1F1F1" height="34.4001" rx="12.5" ry="12.5" style="stroke:#181818;stroke-width:0.5;" width="170.0611" x="132.0223" y="257.2"/><text fill="#000000" font-family="sans-serif" font-size="12" lengthAdjust="spacing" textLength="150.0611" x="142.0223" y="278.3481">inp_vasm = inp_vasm-&gt;next</text><rect fill="#555555" height="6" rx="2.5" ry="2.5" style="stroke:#555555;stroke-width:1;" width="276.7573" x="39.3261" y="311.6001"/><polygon fill="#F1F1F1" points="116.8752,187.2,238.5343,187.2,250.5343,199.2,238.5343,211.2,116.8752,211.2,104.8752,199.2,116.8752,187.2" style="stroke:#181818;stroke-width:0.5;"/><text fill="#000000" font-family="sans-serif" font-size="11" lengthAdjust="spacing" textLength="121.6591" x="116.8752" y="202.819">inp_vasm-&gt;next != NULL</text><rect fill="#F1F1F1" height="34.4001" rx="12.5" ry="12.5" style="stroke:#181818;stroke-width:0.5;" width="89.3485" x="133.0305" y="359.6001"/><text fill="#000000" font-family="sans-serif" font-size="12" lengthAdjust="spacing" textLength="69.3485" x="143.0305" y="380.7482">OUTPUT out</text><ellipse cx="177.7048" cy="425.0002" fill="none" rx="11" ry="11" style="stroke:#222222;stroke-width:1;"/><ellipse cx="177.7048" cy="425.0002" fill="#222222" rx="6" ry="6" style="stroke:#222222;stroke-width:1;"/><line style="stroke:#181818;stroke-width:1;" x1="135.1886" x2="135.1886" y1="86.7999" y2="106.7999"/><polygon fill="#181818" points="131.1886,96.7999,135.1886,106.7999,139.1886,96.7999,135.1886,100.7999" style="stroke:#181818;stroke-width:1;"/><line style="stroke:#181818;stroke-width:1;" x1="289.8934" x2="289.8934" y1="86.7999" y2="106.7999"/><polygon fill="#181818" points="285.8934,96.7999,289.8934,106.7999,293.8934,96.7999,289.8934,100.7999" style="stroke:#181818;stroke-width:1;"/><line style="stroke:#181818;stroke-width:1;" x1="135.1886" x2="135.1886" y1="141.2" y2="161.2"/><polygon fill="#181818" points="131.1886,151.2,135.1886,161.2,139.1886,151.2,135.1886,155.2" style="stroke:#181818;stroke-width:1;"/><line style="stroke:#181818;stroke-width:1;" x1="289.8934" x2="289.8934" y1="141.2" y2="161.2"/><polygon fill="#181818" points="285.8934,151.2,289.8934,161.2,293.8934,151.2,289.8934,155.2" style="stroke:#181818;stroke-width:1;"/><line style="stroke:#181818;stroke-width:1;" x1="177.7048" x2="177.7048" y1="60.7999" y2="80.7999"/><polygon fill="#181818" points="173.7048,70.7999,177.7048,80.7999,181.7048,70.7999,177.7048,74.7999" style="stroke:#181818;stroke-width:1;"/><line style="stroke:#181818;stroke-width:1;" x1="78.6742" x2="78.6742" y1="237.2" y2="257.2"/><polygon fill="#181818" points="74.6742,247.2,78.6742,257.2,82.6742,247.2,78.6742,251.2" style="stroke:#181818;stroke-width:1;"/><line style="stroke:#181818;stroke-width:1;" x1="217.0529" x2="217.0529" y1="237.2" y2="257.2"/><polygon fill="#181818" points="213.0529,247.2,217.0529,257.2,221.0529,247.2,217.0529,251.2" style="stroke:#181818;stroke-width:1;"/><line style="stroke:#181818;stroke-width:1;" x1="78.6742" x2="78.6742" y1="291.6001" y2="311.6001"/><polygon fill="#181818" points="74.6742,301.6001,78.6742,311.6001,82.6742,301.6001,78.6742,305.6001" style="stroke:#181818;stroke-width:1;"/><line style="stroke:#181818;stroke-width:1;" x1="217.0529" x2="217.0529" y1="291.6001" y2="311.6001"/><polygon fill="#181818" points="213.0529,301.6001,217.0529,311.6001,221.0529,301.6001,217.0529,305.6001" style="stroke:#181818;stroke-width:1;"/><line style="stroke:#181818;stroke-width:1;" x1="177.7048" x2="177.7048" y1="211.2" y2="231.2"/><polygon fill="#181818" points="173.7048,221.2,177.7048,231.2,181.7048,221.2,177.7048,225.2" style="stroke:#181818;stroke-width:1;"/><line style="stroke:#181818;stroke-width:1;" x1="177.7048" x2="177.7048" y1="317.6001" y2="327.6001"/><line style="stroke:#181818;stroke-width:1;" x1="177.7048" x2="328.0834" y1="327.6001" y2="327.6001"/><polygon fill="#181818" points="324.0834,272.4001,328.0834,262.4001,332.0834,272.4001,328.0834,268.4001" style="stroke:#181818;stroke-width:1;"/><line style="stroke:#181818;stroke-width:1;" x1="328.0834" x2="328.0834" y1="199.2" y2="327.6001"/><line style="stroke:#181818;stroke-width:1;" x1="328.0834" x2="250.5343" y1="199.2" y2="199.2"/><polygon fill="#181818" points="260.5343,195.2,250.5343,199.2,260.5343,203.2,256.5343,199.2" style="stroke:#181818;stroke-width:1;"/><line style="stroke:#181818;stroke-width:1;" x1="104.8752" x2="27.3261" y1="199.2" y2="199.2"/><polygon fill="#181818" points="23.3261,258.4001,27.3261,268.4001,31.3261,258.4001,27.3261,262.4001" style="stroke:#181818;stroke-width:1;"/><line style="stroke:#181818;stroke-width:1;" x1="27.3261" x2="27.3261" y1="199.2" y2="339.6001"/><line style="stroke:#181818;stroke-width:1;" x1="27.3261" x2="177.7048" y1="339.6001" y2="339.6001"/><line style="stroke:#181818;stroke-width:1;" x1="177.7048" x2="177.7048" y1="339.6001" y2="359.6001"/><polygon fill="#181818" points="173.7048,349.6001,177.7048,359.6001,181.7048,349.6001,177.7048,353.6001" style="stroke:#181818;stroke-width:1;"/><line style="stroke:#181818;stroke-width:1;" x1="177.7048" x2="177.7048" y1="167.2" y2="187.2"/><polygon fill="#181818" points="173.7048,177.2,177.7048,187.2,181.7048,177.2,177.7048,181.2" style="stroke:#181818;stroke-width:1;"/><line style="stroke:#181818;stroke-width:1;" x1="177.7048" x2="177.7048" y1="394.0002" y2="414.0002"/><polygon fill="#181818" points="173.7048,404.0002,177.7048,414.0002,181.7048,404.0002,177.7048,408.0002" style="stroke:#181818;stroke-width:1;"/><!--SRC=[NP112u9048Nl_ehfLadGMR5BK0HI7RJhijXMGpehxbX1zD_RjZHrBZiFlfdtPajPCJ9gWapccLYkreBgGkHeM22hmi3J0rk6BUYwawwkhlbKS92cs93X2gP8fRXP2H7iqcIV9c7BWpnBfF-KhjbIymwWwEZ4_OAvWd6pQxOWzM0OHR1DutZIRkY5Q5RwVjW31guEwuJiUmn6cppsTP6S2BvtWVKAVx-YI-_r1W00]--></g></svg>