<svg xmlns="http://www.w3.org/2000/svg" xmlns:xlink="http://www.w3.org/1999/xlink" contentStyleType="text/css" data-diagram-type="ACTIVITY" height="934px" preserveAspectRatio="none" style="width:447px;height:934px;background:#FFFFFF;" version="1.1" viewBox="0 0 447 934" width="447px" zoomAndPan="magnify"><defs/><g><rect fill="none" height="912.1198" style="stroke:#000000;stroke-width:1.5;" width="425.1698" x="11" y="11"/><path d="M129.1495,11 L129.1495,20.7999 L119.1495,30.7999 L11,30.7999" fill="none" style="stroke:#000000;stroke-width:1.5;"/><text fill="#000000" font-family="sans-serif" font-size="14" lengthAdjust="spacing" textLength="108.1495" x="14" y="25.0059">calc_CFG_edges</text><ellipse cx="223.5849" cy="50.7999" fill="#222222" rx="10" ry="10" style="stroke:#222222;stroke-width:1;"/><rect fill="#555555" height="6" rx="2.5" ry="2.5" style="stroke:#555555;stroke-width:1;" width="405.1698" x="21" y="80.7999"/><rect fill="#F1F1F1" height="34.4001" rx="12.5" ry="12.5" style="stroke:#181818;stroke-width:0.5;" width="191.0732" x="34.8558" y="106.7999"/><text fill="#000000" font-family="sans-serif" font-size="12" lengthAdjust="spacing" textLength="171.0732" x="44.8558" y="127.948">CFGNode *t_inp_node = INPUT</text><rect fill="#F1F1F1" height="34.4001" rx="12.5" ry="12.5" style="stroke:#181818;stroke-width:0.5;" width="158.385" x="253.929" y="106.7999"/><text fill="#000000" font-family="sans-serif" font-size="12" lengthAdjust="spacing" textLength="138.385" x="263.929" y="127.948">size_t t_inp_size = INPUT</text><rect fill="#555555" height="6" rx="2.5" ry="2.5" style="stroke:#555555;stroke-width:1;" width="405.1698" x="21" y="161.2"/><rect fill="#555555" height="6" rx="2.5" ry="2.5" style="stroke:#555555;stroke-width:1;" width="232.105" x="107.5324" y="187.2"/><rect fill="#F1F1F1" height="34.4001" rx="12.5" ry="12.5" style="stroke:#181818;stroke-width:0.5;" width="56.3603" x="121.5324" y="213.2"/><text fill="#000000" font-family="sans-serif" font-size="12" lengthAdjust="spacing" textLength="36.3603" x="131.5324" y="234.3481">t_c = 0</text><rect fill="#F1F1F1" height="34.4001" rx="12.5" ry="12.5" style="stroke:#181818;stroke-width:0.5;" width="119.7447" x="205.8927" y="213.2"/><text fill="#000000" font-family="sans-serif" font-size="12" lengthAdjust="spacing" textLength="99.7447" x="215.8927" y="234.3481">t_out = t_inp_node</text><rect fill="#555555" height="6" rx="2.5" ry="2.5" style="stroke:#555555;stroke-width:1;" width="232.105" x="107.5324" y="267.6001"/><rect fill="#F1F1F1" height="34.4001" rx="12.5" ry="12.5" style="stroke:#181818;stroke-width:0.5;" width="73.7124" x="186.7287" y="293.6001"/><text fill="#000000" font-family="sans-serif" font-size="12" lengthAdjust="spacing" textLength="53.7124" x="196.7287" y="314.7482">t_t = t_out</text><rect fill="#F1F1F1" height="34.4001" rx="12.5" ry="12.5" style="stroke:#181818;stroke-width:0.5;" width="228.0815" x="109.5442" y="392.0002"/><text fill="#000000" font-family="sans-serif" font-size="12" lengthAdjust="spacing" textLength="208.0815" x="119.5442" y="413.1483">t_l = calc_CFG_last_inst(t_t-&gt;contents)</text><rect fill="#F1F1F1" height="34.4001" rx="12.5" ry="12.5" style="stroke:#181818;stroke-width:0.5;" width="290.7939" x="78.188" y="446.4003"/><text fill="#000000" font-family="sans-serif" font-size="12" lengthAdjust="spacing" textLength="270.7939" x="88.188" y="467.5484">t_LC = calc_CFG_loop_const(t_l-&gt;left, t_inp_node)</text><polygon fill="#F1F1F1" points="62.3136,500.8004,135.067,500.8004,147.067,512.8004,135.067,524.8004,62.3136,524.8004,50.3136,512.8004,62.3136,500.8004" style="stroke:#181818;stroke-width:0.5;"/><text fill="#000000" font-family="sans-serif" font-size="11" lengthAdjust="spacing" textLength="29.9418" x="102.6903" y="535.0194">TRUE</text><text fill="#000000" font-family="sans-serif" font-size="11" lengthAdjust="spacing" textLength="72.7535" x="62.3136" y="516.4194">t_l-&gt;type = jmp</text><rect fill="#F1F1F1" height="34.4001" rx="12.5" ry="12.5" style="stroke:#181818;stroke-width:0.5;" width="99.3806" x="49" y="556.5194"/><text fill="#000000" font-family="sans-serif" font-size="12" lengthAdjust="spacing" textLength="79.3806" x="59" y="577.6674">t_t-&gt;left = t_LC</text><rect fill="#F1F1F1" height="34.4001" rx="12.5" ry="12.5" style="stroke:#181818;stroke-width:0.5;" width="50.0242" x="73.6782" y="625.9195"/><text fill="#000000" font-family="sans-serif" font-size="12" lengthAdjust="spacing" textLength="30.0242" x="83.6782" y="647.0675">t_c++</text><rect fill="#F1F1F1" height="34.4001" rx="12.5" ry="12.5" style="stroke:#181818;stroke-width:0.5;" width="47.3602" x="75.0102" y="683.9195"/><text fill="#000000" font-family="sans-serif" font-size="12" lengthAdjust="spacing" textLength="27.3602" x="85.0102" y="705.0676">t_t++</text><polygon fill="#F1F1F1" points="215.2468,500.8004,281.2794,500.8004,293.2794,512.8004,281.2794,524.8004,215.2468,524.8004,203.2468,512.8004,215.2468,500.8004" style="stroke:#181818;stroke-width:0.5;"/><text fill="#000000" font-family="sans-serif" font-size="11" lengthAdjust="spacing" textLength="29.9418" x="252.2631" y="535.0194">TRUE</text><text fill="#000000" font-family="sans-serif" font-size="11" lengthAdjust="spacing" textLength="66.0325" x="215.2468" y="516.4194">t_l-&gt;type = jle</text><text fill="#000000" font-family="sans-serif" font-size="11" lengthAdjust="spacing" textLength="34.8477" x="293.2794" y="509.8195">FALSE</text><rect fill="#F1F1F1" height="34.4001" rx="12.5" ry="12.5" style="stroke:#181818;stroke-width:0.5;" width="106.7126" x="194.9068" y="556.5194"/><text fill="#000000" font-family="sans-serif" font-size="12" lengthAdjust="spacing" textLength="86.7126" x="204.9068" y="577.6674">t_t-&gt;right = t_LC</text><rect fill="#F1F1F1" height="34.4001" rx="12.5" ry="12.5" style="stroke:#181818;stroke-width:0.5;" width="159.765" x="168.3806" y="625.9195"/><text fill="#000000" font-family="sans-serif" font-size="12" lengthAdjust="spacing" textLength="139.765" x="178.3806" y="647.0675">t_t-&gt;left = t_inp_node[c+1]</text><rect fill="#F1F1F1" height="34.4001" rx="12.5" ry="12.5" style="stroke:#181818;stroke-width:0.5;" width="50.0242" x="223.251" y="683.9195"/><text fill="#000000" font-family="sans-serif" font-size="12" lengthAdjust="spacing" textLength="30.0242" x="233.251" y="705.0676">t_c++</text><rect fill="#F1F1F1" height="34.4001" rx="12.5" ry="12.5" style="stroke:#181818;stroke-width:0.5;" width="47.3602" x="224.583" y="738.3196"/><text fill="#000000" font-family="sans-serif" font-size="12" lengthAdjust="spacing" textLength="27.3602" x="234.583" y="759.4677">t_t++</text><rect fill="#F1F1F1" height="34.4001" rx="12.5" ry="12.5" style="stroke:#181818;stroke-width:0.5;" width="50.0242" x="348.1456" y="622.3195"/><text fill="#000000" font-family="sans-serif" font-size="12" lengthAdjust="spacing" textLength="30.0242" x="358.1456" y="643.4676">t_c++</text><rect fill="#F1F1F1" height="34.4001" rx="12.5" ry="12.5" style="stroke:#181818;stroke-width:0.5;" width="47.3602" x="349.4776" y="680.3196"/><text fill="#000000" font-family="sans-serif" font-size="12" lengthAdjust="spacing" textLength="27.3602" x="359.4776" y="701.4676">t_t++</text><polygon fill="#F1F1F1" points="183.6882,348.0002,263.4816,348.0002,275.4816,360.0002,263.4816,372.0002,183.6882,372.0002,171.6882,360.0002,183.6882,348.0002" style="stroke:#181818;stroke-width:0.5;"/><text fill="#000000" font-family="sans-serif" font-size="11" lengthAdjust="spacing" textLength="79.7934" x="183.6882" y="363.6192">t_c != t_inp_size</text><rect fill="#F1F1F1" height="34.4001" rx="12.5" ry="12.5" style="stroke:#181818;stroke-width:0.5;" width="99.3566" x="173.9066" y="834.7197"/><text fill="#000000" font-family="sans-serif" font-size="12" lengthAdjust="spacing" textLength="79.3566" x="183.9066" y="855.8678">OUTPUT t_out</text><ellipse cx="223.5849" cy="900.1198" fill="none" rx="11" ry="11" style="stroke:#222222;stroke-width:1;"/><ellipse cx="223.5849" cy="900.1198" fill="#222222" rx="6" ry="6" style="stroke:#222222;stroke-width:1;"/><line style="stroke:#181818;stroke-width:1;" x1="130.3924" x2="130.3924" y1="86.7999" y2="106.7999"/><polygon fill="#181818" points="126.3924,96.7999,130.3924,106.7999,134.3924,96.7999,130.3924,100.7999" style="stroke:#181818;stroke-width:1;"/><line style="stroke:#181818;stroke-width:1;" x1="333.1215" x2="333.1215" y1="86.7999" y2="106.7999"/><polygon fill="#181818" points="329.1215,96.7999,333.1215,106.7999,337.1215,96.7999,333.1215,100.7999" style="stroke:#181818;stroke-width:1;"/><line style="stroke:#181818;stroke-width:1;" x1="130.3924" x2="130.3924" y1="141.2" y2="161.2"/><polygon fill="#181818" points="126.3924,151.2,130.3924,161.2,134.3924,151.2,130.3924,155.2" style="stroke:#181818;stroke-width:1;"/><line style="stroke:#181818;stroke-width:1;" x1="333.1215" x2="333.1215" y1="141.2" y2="161.2"/><polygon fill="#181818" points="329.1215,151.2,333.1215,161.2,337.1215,151.2,333.1215,155.2" style="stroke:#181818;stroke-width:1;"/><line style="stroke:#181818;stroke-width:1;" x1="223.5849" x2="223.5849" y1="60.7999" y2="80.7999"/><polygon fill="#181818" points="219.5849,70.7999,223.5849,80.7999,227.5849,70.7999,223.5849,74.7999" style="stroke:#181818;stroke-width:1;"/><line style="stroke:#181818;stroke-width:1;" x1="149.7126" x2="149.7126" y1="193.2" y2="213.2"/><polygon fill="#181818" points="145.7126,203.2,149.7126,213.2,153.7126,203.2,149.7126,207.2" style="stroke:#181818;stroke-width:1;"/><line style="stroke:#181818;stroke-width:1;" x1="265.7651" x2="265.7651" y1="193.2" y2="213.2"/><polygon fill="#181818" points="261.7651,203.2,265.7651,213.2,269.7651,203.2,265.7651,207.2" style="stroke:#181818;stroke-width:1;"/><line style="stroke:#181818;stroke-width:1;" x1="149.7126" x2="149.7126" y1="247.6001" y2="267.6001"/><polygon fill="#181818" points="145.7126,257.6001,149.7126,267.6001,153.7126,257.6001,149.7126,261.6001" style="stroke:#181818;stroke-width:1;"/><line style="stroke:#181818;stroke-width:1;" x1="265.7651" x2="265.7651" y1="247.6001" y2="267.6001"/><polygon fill="#181818" points="261.7651,257.6001,265.7651,267.6001,269.7651,257.6001,265.7651,261.6001" style="stroke:#181818;stroke-width:1;"/><line style="stroke:#181818;stroke-width:1;" x1="223.5849" x2="223.5849" y1="167.2" y2="187.2"/><polygon fill="#181818" points="219.5849,177.2,223.5849,187.2,227.5849,177.2,223.5849,181.2" style="stroke:#181818;stroke-width:1;"/><line style="stroke:#181818;stroke-width:1;" x1="223.5849" x2="223.5849" y1="273.6001" y2="293.6001"/><polygon fill="#181818" points="219.5849,283.6001,223.5849,293.6001,227.5849,283.6001,223.5849,287.6001" style="stroke:#181818;stroke-width:1;"/><line style="stroke:#181818;stroke-width:1;" x1="223.5849" x2="223.5849" y1="426.4003" y2="446.4003"/><polygon fill="#181818" points="219.5849,436.4003,223.5849,446.4003,227.5849,436.4003,223.5849,440.4003" style="stroke:#181818;stroke-width:1;"/><line style="stroke:#181818;stroke-width:1;" x1="98.6903" x2="98.6903" y1="590.9195" y2="625.9195"/><polygon fill="#181818" points="94.6903,615.9195,98.6903,625.9195,102.6903,615.9195,98.6903,619.9195" style="stroke:#181818;stroke-width:1;"/><line style="stroke:#181818;stroke-width:1;" x1="98.6903" x2="98.6903" y1="660.3196" y2="683.9195"/><polygon fill="#181818" points="94.6903,673.9195,98.6903,683.9195,102.6903,673.9195,98.6903,677.9195" style="stroke:#181818;stroke-width:1;"/><line style="stroke:#181818;stroke-width:1;" x1="248.2631" x2="248.2631" y1="590.9195" y2="625.9195"/><polygon fill="#181818" points="244.2631,615.9195,248.2631,625.9195,252.2631,615.9195,248.2631,619.9195" style="stroke:#181818;stroke-width:1;"/><line style="stroke:#181818;stroke-width:1;" x1="248.2631" x2="248.2631" y1="660.3196" y2="683.9195"/><polygon fill="#181818" points="244.2631,673.9195,248.2631,683.9195,252.2631,673.9195,248.2631,677.9195" style="stroke:#181818;stroke-width:1;"/><line style="stroke:#181818;stroke-width:1;" x1="248.2631" x2="248.2631" y1="718.3196" y2="738.3196"/><polygon fill="#181818" points="244.2631,728.3196,248.2631,738.3196,252.2631,728.3196,248.2631,732.3196" style="stroke:#181818;stroke-width:1;"/><line style="stroke:#181818;stroke-width:1;" x1="373.1577" x2="373.1577" y1="656.7196" y2="680.3196"/><polygon fill="#181818" points="369.1577,670.3196,373.1577,680.3196,377.1577,670.3196,373.1577,674.3196" style="stroke:#181818;stroke-width:1;"/><line style="stroke:#181818;stroke-width:1;" x1="98.6903" x2="98.6903" y1="524.8004" y2="556.5194"/><polygon fill="#181818" points="94.6903,546.5194,98.6903,556.5194,102.6903,546.5194,98.6903,550.5194" style="stroke:#181818;stroke-width:1;"/><line style="stroke:#181818;stroke-width:1;" x1="98.6903" x2="98.6903" y1="718.3196" y2="792.7197"/><polygon fill="#181818" points="94.6903,782.7197,98.6903,792.7197,102.6903,782.7197,98.6903,786.7197" style="stroke:#181818;stroke-width:1;"/><line style="stroke:#181818;stroke-width:1;" x1="248.2631" x2="248.2631" y1="524.8004" y2="556.5194"/><polygon fill="#181818" points="244.2631,546.5194,248.2631,556.5194,252.2631,546.5194,248.2631,550.5194" style="stroke:#181818;stroke-width:1;"/><line style="stroke:#181818;stroke-width:1;" x1="248.2631" x2="248.2631" y1="772.7197" y2="792.7197"/><polygon fill="#181818" points="244.2631,782.7197,248.2631,792.7197,252.2631,782.7197,248.2631,786.7197" style="stroke:#181818;stroke-width:1;"/><line style="stroke:#181818;stroke-width:1;" x1="147.067" x2="203.2468" y1="512.8004" y2="512.8004"/><polygon fill="#181818" points="193.2468,508.8004,203.2468,512.8004,193.2468,516.8004,197.2468,512.8004" style="stroke:#181818;stroke-width:1;"/><line style="stroke:#181818;stroke-width:1;" x1="223.5849" x2="223.5849" y1="480.8004" y2="485.8004"/><line style="stroke:#181818;stroke-width:1;" x1="223.5849" x2="98.6903" y1="485.8004" y2="485.8004"/><line style="stroke:#181818;stroke-width:1;" x1="98.6903" x2="98.6903" y1="485.8004" y2="500.8004"/><polygon fill="#181818" points="94.6903,490.8004,98.6903,500.8004,102.6903,490.8004,98.6903,494.8004" style="stroke:#181818;stroke-width:1;"/><line style="stroke:#181818;stroke-width:1;" x1="293.2794" x2="373.1577" y1="512.8004" y2="512.8004"/><line style="stroke:#181818;stroke-width:1;" x1="373.1577" x2="373.1577" y1="512.8004" y2="622.3195"/><polygon fill="#181818" points="369.1577,612.3195,373.1577,622.3195,377.1577,612.3195,373.1577,616.3195" style="stroke:#181818;stroke-width:1;"/><line style="stroke:#181818;stroke-width:1;" x1="373.1577" x2="373.1577" y1="714.7197" y2="792.7197"/><polygon fill="#181818" points="369.1577,782.7197,373.1577,792.7197,377.1577,782.7197,373.1577,786.7197" style="stroke:#181818;stroke-width:1;"/><line style="stroke:#181818;stroke-width:1;" x1="98.6903" x2="373.1577" y1="792.7197" y2="792.7197"/><line style="stroke:#181818;stroke-width:1;" x1="223.5849" x2="223.5849" y1="372.0002" y2="392.0002"/><polygon fill="#181818" points="219.5849,382.0002,223.5849,392.0002,227.5849,382.0002,223.5849,386.0002" style="stroke:#181818;stroke-width:1;"/><line style="stroke:#181818;stroke-width:1;" x1="223.5849" x2="223.5849" y1="792.7197" y2="802.7197"/><line style="stroke:#181818;stroke-width:1;" x1="223.5849" x2="410.1698" y1="802.7197" y2="802.7197"/><polygon fill="#181818" points="406.1698,602.8195,410.1698,592.8195,414.1698,602.8195,410.1698,598.8195" style="stroke:#181818;stroke-width:1;"/><line style="stroke:#181818;stroke-width:1;" x1="410.1698" x2="410.1698" y1="360.0002" y2="802.7197"/><line style="stroke:#181818;stroke-width:1;" x1="410.1698" x2="275.4816" y1="360.0002" y2="360.0002"/><polygon fill="#181818" points="285.4816,356.0002,275.4816,360.0002,285.4816,364.0002,281.4816,360.0002" style="stroke:#181818;stroke-width:1;"/><line style="stroke:#181818;stroke-width:1;" x1="171.6882" x2="37" y1="360.0002" y2="360.0002"/><polygon fill="#181818" points="33,588.8195,37,598.8195,41,588.8195,37,592.8195" style="stroke:#181818;stroke-width:1;"/><line style="stroke:#181818;stroke-width:1;" x1="37" x2="37" y1="360.0002" y2="814.7197"/><line style="stroke:#181818;stroke-width:1;" x1="37" x2="223.5849" y1="814.7197" y2="814.7197"/><line style="stroke:#181818;stroke-width:1;" x1="223.5849" x2="223.5849" y1="814.7197" y2="834.7197"/><polygon fill="#181818" points="219.5849,824.7197,223.5849,834.7197,227.5849,824.7197,223.5849,828.7197" style="stroke:#181818;stroke-width:1;"/><line style="stroke:#181818;stroke-width:1;" x1="223.5849" x2="223.5849" y1="328.0002" y2="348.0002"/><polygon fill="#181818" points="219.5849,338.0002,223.5849,348.0002,227.5849,338.0002,223.5849,342.0002" style="stroke:#181818;stroke-width:1;"/><line style="stroke:#181818;stroke-width:1;" x1="223.5849" x2="223.5849" y1="869.1198" y2="889.1198"/><polygon fill="#181818" points="219.5849,879.1198,223.5849,889.1198,227.5849,879.1198,223.5849,883.1198" style="stroke:#181818;stroke-width:1;"/><!--SRC=[dL9FIyCm5B_lKyHRQnterRA152T2cQBjIIIKzhMDnYGqJqJ5xsxIq3LT7GDpIl9-_rxoLD4XGoO5AGjUqcHpGw5gG9FlXKPJMn2pQjczzXkxBWrcAoiWfqYPK5JO_OhSRk_pBDx1IT4KJ8mapRw08d4KUvXIG5IZozGEQMcmvuUbaSftD90npX-Q1kKm1klA7otZG08hVxBoWeM-CZUStSFmGbkOHaF2vRgK0a6W3cEVaIOJYfIA6c3FuSirXnhFlAGUbzN4OV1JsTTvULCXmHO42RA7_7gCDRJZrFgcqYJUBvTHDBj3_mwuXfadXsEU7MlQWwP-fg75fpAwUFvVF19ihjB7UOpZP56nUXY2_gFT4DpbcHcvOGeqIhNu-GK0]--></g></svg>