<svg xmlns="http://www.w3.org/2000/svg" xmlns:xlink="http://www.w3.org/1999/xlink" contentStyleType="text/css" data-diagram-type="ACTIVITY" height="407px" preserveAspectRatio="none" style="width:420px;height:407px;background:#FFFFFF;" version="1.1" viewBox="0 0 420 407" width="420px" zoomAndPan="magnify"><defs/><g><rect fill="none" height="385.0002" style="stroke:#000000;stroke-width:1.5;" width="398.778" x="11" y="11"/><path d="M158.7174,11 L158.7174,20.7999 L148.7174,30.7999 L11,30.7999" fill="none" style="stroke:#000000;stroke-width:1.5;"/><text fill="#000000" font-family="sans-serif" font-size="14" lengthAdjust="spacing" textLength="137.7174" x="14" y="25.0059">calc_CFG_loop_const</text><ellipse cx="210.389" cy="50.7999" fill="#222222" rx="10" ry="10" style="stroke:#222222;stroke-width:1;"/><rect fill="#555555" height="6" rx="2.5" ry="2.5" style="stroke:#555555;stroke-width:1;" width="378.778" x="21" y="80.7999"/><rect fill="#F1F1F1" height="34.4001" rx="12.5" ry="12.5" style="stroke:#181818;stroke-width:0.5;" width="171.0571" x="33" y="106.7999"/><text fill="#000000" font-family="sans-serif" font-size="12" lengthAdjust="spacing" textLength="151.0571" x="43" y="127.948">CFGNode *inp_out = INPUT</text><rect fill="#F1F1F1" height="34.4001" rx="12.5" ry="12.5" style="stroke:#181818;stroke-width:0.5;" width="155.721" x="232.0571" y="106.7999"/><text fill="#000000" font-family="sans-serif" font-size="12" lengthAdjust="spacing" textLength="135.721" x="242.0571" y="127.948">size_t inp_index = INPUT</text><rect fill="#555555" height="6" rx="2.5" ry="2.5" style="stroke:#555555;stroke-width:1;" width="378.778" x="21" y="161.2"/><rect fill="#F1F1F1" height="34.4001" rx="12.5" ry="12.5" style="stroke:#181818;stroke-width:0.5;" width="146.0849" x="137.3466" y="231.2"/><text fill="#000000" font-family="sans-serif" font-size="12" lengthAdjust="spacing" textLength="126.0849" x="147.3466" y="252.3481">inp_out = inp_out-&gt;next</text><polygon fill="#F1F1F1" points="93.4543,187.2,327.3237,187.2,339.3237,199.2,327.3237,211.2,93.4543,211.2,81.4543,199.2,93.4543,187.2" style="stroke:#181818;stroke-width:0.5;"/><text fill="#000000" font-family="sans-serif" font-size="11" lengthAdjust="spacing" textLength="233.8693" x="93.4543" y="202.819">(inp_out != label) &amp;&amp; (inp_out-&gt;left != inp_index)</text><rect fill="#F1F1F1" height="34.4001" rx="12.5" ry="12.5" style="stroke:#181818;stroke-width:0.5;" width="112.0286" x="154.3747" y="307.6001"/><text fill="#000000" font-family="sans-serif" font-size="12" lengthAdjust="spacing" textLength="92.0286" x="164.3747" y="328.7482">OUTPUT inp_out</text><ellipse cx="210.389" cy="373.0002" fill="none" rx="11" ry="11" style="stroke:#222222;stroke-width:1;"/><ellipse cx="210.389" cy="373.0002" fill="#222222" rx="6" ry="6" style="stroke:#222222;stroke-width:1;"/><line style="stroke:#181818;stroke-width:1;" x1="118.5285" x2="118.5285" y1="86.7999" y2="106.7999"/><polygon fill="#181818" points="114.5285,96.7999,118.5285,106.7999,122.5285,96.7999,118.5285,100.7999" style="stroke:#181818;stroke-width:1;"/><line style="stroke:#181818;stroke-width:1;" x1="309.9175" x2="309.9175" y1="86.7999" y2="106.7999"/><polygon fill="#181818" points="305.9175,96.7999,309.9175,106.7999,313.9175,96.7999,309.9175,100.7999" style="stroke:#181818;stroke-width:1;"/><line style="stroke:#181818;stroke-width:1;" x1="118.5285" x2="118.5285" y1="141.2" y2="161.2"/><polygon fill="#181818" points="114.5285,151.2,118.5285,161.2,122.5285,151.2,118.5285,155.2" style="stroke:#181818;stroke-width:1;"/><line style="stroke:#181818;stroke-width:1;" x1="309.9175" x2="309.9175" y1="141.2" y2="161.2"/><polygon fill="#181818" points="305.9175,151.2,309.9175,161.2,313.9175,151.2,309.9175,155.2" style="stroke:#181818;stroke-width:1;"/><line style="stroke:#181818;stroke-width:1;" x1="210.389" x2="210.389" y1="60.7999" y2="80.7999"/><polygon fill="#181818" points="206.389,70.7999,210.389,80.7999,214.389,70.7999,210.389,74.7999" style="stroke:#181818;stroke-width:1;"/><line style="stroke:#181818;stroke-width:1;" x1="210.389" x2="210.389" y1="211.2" y2="231.2"/><polygon fill="#181818" points="206.389,221.2,210.389,231.2,214.389,221.2,210.389,225.2" style="stroke:#181818;stroke-width:1;"/><line style="stroke:#181818;stroke-width:1;" x1="210.389" x2="210.389" y1="265.6001" y2="275.6001"/><line style="stroke:#181818;stroke-width:1;" x1="210.389" x2="351.3237" y1="275.6001" y2="275.6001"/><polygon fill="#181818" points="347.3237,246.4001,351.3237,236.4001,355.3237,246.4001,351.3237,242.4001" style="stroke:#181818;stroke-width:1;"/><line style="stroke:#181818;stroke-width:1;" x1="351.3237" x2="351.3237" y1="199.2" y2="275.6001"/><line style="stroke:#181818;stroke-width:1;" x1="351.3237" x2="339.3237" y1="199.2" y2="199.2"/><polygon fill="#181818" points="349.3237,195.2,339.3237,199.2,349.3237,203.2,345.3237,199.2" style="stroke:#181818;stroke-width:1;"/><line style="stroke:#181818;stroke-width:1;" x1="81.4543" x2="69.4543" y1="199.2" y2="199.2"/><polygon fill="#181818" points="65.4543,232.4001,69.4543,242.4001,73.4543,232.4001,69.4543,236.4001" style="stroke:#181818;stroke-width:1;"/><line style="stroke:#181818;stroke-width:1;" x1="69.4543" x2="69.4543" y1="199.2" y2="287.6001"/><line style="stroke:#181818;stroke-width:1;" x1="69.4543" x2="210.389" y1="287.6001" y2="287.6001"/><line style="stroke:#181818;stroke-width:1;" x1="210.389" x2="210.389" y1="287.6001" y2="307.6001"/><polygon fill="#181818" points="206.389,297.6001,210.389,307.6001,214.389,297.6001,210.389,301.6001" style="stroke:#181818;stroke-width:1;"/><line style="stroke:#181818;stroke-width:1;" x1="210.389" x2="210.389" y1="167.2" y2="187.2"/><polygon fill="#181818" points="206.389,177.2,210.389,187.2,214.389,177.2,210.389,181.2" style="stroke:#181818;stroke-width:1;"/><line style="stroke:#181818;stroke-width:1;" x1="210.389" x2="210.389" y1="342.0002" y2="362.0002"/><polygon fill="#181818" points="206.389,352.0002,210.389,362.0002,214.389,352.0002,210.389,356.0002" style="stroke:#181818;stroke-width:1;"/><!--SRC=[NSwn3e8m4CRnkNsASo5WuWj0S37HkA03p4s5KnkRNWDd91hVtO814zVUB_-lNhTis923MjjQRROxPOcygibr32yfEWv2YZErDob46a113SBIEA_epf33lZXMPVObe2_Qk05svecAOM36DTZ_GtID58-hiGXnFCKMELXzGfj05C7qkbfRF8-tEPOamyJl2xDqs7DO2F4nBKLwgCgmEebCTanUlZy0]--></g></svg>