<svg xmlns="http://www.w3.org/2000/svg" xmlns:xlink="http://www.w3.org/1999/xlink" contentStyleType="text/css" data-diagram-type="ACTIVITY" height="409px" preserveAspectRatio="none" style="width:231px;height:409px;background:#FFFFFF;" version="1.1" viewBox="0 0 231 409" width="231px" zoomAndPan="magnify"><defs/><g><rect fill="none" height="387.4003" style="stroke:#000000;stroke-width:1.5;" width="209.0572" x="11" y="11"/><path d="M142.3655,11 L142.3655,20.7999 L132.3655,30.7999 L11,30.7999" fill="none" style="stroke:#000000;stroke-width:1.5;"/><text fill="#000000" font-family="sans-serif" font-size="14" lengthAdjust="spacing" textLength="121.3655" x="14" y="25.0059">calc_CFG_last_inst</text><ellipse cx="115.5286" cy="50.7999" fill="#222222" rx="10" ry="10" style="stroke:#222222;stroke-width:1;"/><rect fill="#F1F1F1" height="34.4001" rx="12.5" ry="12.5" style="stroke:#181818;stroke-width:0.5;" width="189.0572" x="21" y="80.7999"/><text fill="#000000" font-family="sans-serif" font-size="12" lengthAdjust="spacing" textLength="169.0572" x="31" y="101.948">VasmInst *t_inp_vasm = INPUT</text><rect fill="#F1F1F1" height="34.4001" rx="12.5" ry="12.5" style="stroke:#181818;stroke-width:0.5;" width="121.7247" x="54.6662" y="135.2"/><text fill="#000000" font-family="sans-serif" font-size="12" lengthAdjust="spacing" textLength="101.7247" x="64.6662" y="156.3481">t_out = t_inp_vasm</text><rect fill="#F1F1F1" height="34.4001" rx="12.5" ry="12.5" style="stroke:#181818;stroke-width:0.5;" width="120.7407" x="55.1582" y="233.6001"/><text fill="#000000" font-family="sans-serif" font-size="12" lengthAdjust="spacing" textLength="100.7407" x="65.1582" y="254.7482">t_out = t_out-&gt;next</text><polygon fill="#F1F1F1" points="66.0015,189.6001,165.0557,189.6001,177.0557,201.6001,165.0557,213.6001,66.0015,213.6001,54.0015,201.6001,66.0015,189.6001" style="stroke:#181818;stroke-width:0.5;"/><text fill="#000000" font-family="sans-serif" font-size="11" lengthAdjust="spacing" textLength="99.0543" x="66.0015" y="205.2191">t_out-&gt;next != NULL</text><rect fill="#F1F1F1" height="34.4001" rx="12.5" ry="12.5" style="stroke:#181818;stroke-width:0.5;" width="99.3566" x="65.8503" y="310.0002"/><text fill="#000000" font-family="sans-serif" font-size="12" lengthAdjust="spacing" textLength="79.3566" x="75.8503" y="331.1483">OUTPUT t_out</text><ellipse cx="115.5286" cy="375.4003" fill="none" rx="11" ry="11" style="stroke:#222222;stroke-width:1;"/><ellipse cx="115.5286" cy="375.4003" fill="#222222" rx="6" ry="6" style="stroke:#222222;stroke-width:1;"/><line style="stroke:#181818;stroke-width:1;" x1="115.5286" x2="115.5286" y1="60.7999" y2="80.7999"/><polygon fill="#181818" points="111.5286,70.7999,115.5286,80.7999,119.5286,70.7999,115.5286,74.7999" style="stroke:#181818;stroke-width:1;"/><line style="stroke:#181818;stroke-width:1;" x1="115.5286" x2="115.5286" y1="115.2" y2="135.2"/><polygon fill="#181818" points="111.5286,125.2,115.5286,135.2,119.5286,125.2,115.5286,129.2" style="stroke:#181818;stroke-width:1;"/><line style="stroke:#181818;stroke-width:1;" x1="115.5286" x2="115.5286" y1="213.6001" y2="233.6001"/><polygon fill="#181818" points="111.5286,223.6001,115.5286,233.6001,119.5286,223.6001,115.5286,227.6001" style="stroke:#181818;stroke-width:1;"/><line style="stroke:#181818;stroke-width:1;" x1="115.5286" x2="115.5286" y1="268.0002" y2="278.0002"/><line style="stroke:#181818;stroke-width:1;" x1="115.5286" x2="189.0557" y1="278.0002" y2="278.0002"/><polygon fill="#181818" points="185.0557,248.8002,189.0557,238.8002,193.0557,248.8002,189.0557,244.8002" style="stroke:#181818;stroke-width:1;"/><line style="stroke:#181818;stroke-width:1;" x1="189.0557" x2="189.0557" y1="201.6001" y2="278.0002"/><line style="stroke:#181818;stroke-width:1;" x1="189.0557" x2="177.0557" y1="201.6001" y2="201.6001"/><polygon fill="#181818" points="187.0557,197.6001,177.0557,201.6001,187.0557,205.6001,183.0557,201.6001" style="stroke:#181818;stroke-width:1;"/><line style="stroke:#181818;stroke-width:1;" x1="54.0015" x2="42.0015" y1="201.6001" y2="201.6001"/><polygon fill="#181818" points="38.0015,234.8002,42.0015,244.8002,46.0015,234.8002,42.0015,238.8002" style="stroke:#181818;stroke-width:1;"/><line style="stroke:#181818;stroke-width:1;" x1="42.0015" x2="42.0015" y1="201.6001" y2="290.0002"/><line style="stroke:#181818;stroke-width:1;" x1="42.0015" x2="115.5286" y1="290.0002" y2="290.0002"/><line style="stroke:#181818;stroke-width:1;" x1="115.5286" x2="115.5286" y1="290.0002" y2="310.0002"/><polygon fill="#181818" points="111.5286,300.0002,115.5286,310.0002,119.5286,300.0002,115.5286,304.0002" style="stroke:#181818;stroke-width:1;"/><line style="stroke:#181818;stroke-width:1;" x1="115.5286" x2="115.5286" y1="169.6001" y2="189.6001"/><polygon fill="#181818" points="111.5286,179.6001,115.5286,189.6001,119.5286,179.6001,115.5286,183.6001" style="stroke:#181818;stroke-width:1;"/><line style="stroke:#181818;stroke-width:1;" x1="115.5286" x2="115.5286" y1="344.4003" y2="364.4003"/><polygon fill="#181818" points="111.5286,354.4003,115.5286,364.4003,119.5286,354.4003,115.5286,358.4003" style="stroke:#181818;stroke-width:1;"/><!--SRC=[AqWiAiaioSpFKqXEp4cETtPpZyz9B2w9pymhBb6evb80Wk8Ie1emooeiiJZN4oIZ1L9H45y6v2lOAdZw1OI6M4EKbCJdbvO0nH0A81Bb6PavgGeQO6bTkxpKYX85HLi5lr0V7qsmF9fck2g8xjIy5B0143lyGqE05a9KMKFTc5_0LGi0]--></g></svg>