<svg xmlns="http://www.w3.org/2000/svg" xmlns:xlink="http://www.w3.org/1999/xlink" contentStyleType="text/css" data-diagram-type="ACTIVITY" height="565px" preserveAspectRatio="none" style="width:452px;height:565px;background:#FFFFFF;" version="1.1" viewBox="0 0 452 565" width="452px" zoomAndPan="magnify"><defs/><g><rect fill="none" height="543.4003" style="stroke:#000000;stroke-width:1.5;" width="430.7823" x="11" y="11"/><path d="M117.4596,11 L117.4596,20.7999 L107.4596,30.7999 L11,30.7999" fill="none" style="stroke:#000000;stroke-width:1.5;"/><text fill="#000000" font-family="sans-serif" font-size="14" lengthAdjust="spacing" textLength="96.4596" x="14" y="25.0059">calc_CFG_instr</text><ellipse cx="226.3911" cy="50.7999" fill="#222222" rx="10" ry="10" style="stroke:#222222;stroke-width:1;"/><rect fill="#555555" height="6" rx="2.5" ry="2.5" style="stroke:#555555;stroke-width:1;" width="410.7823" x="21" y="80.7999"/><rect fill="#F1F1F1" height="34.4001" rx="12.5" ry="12.5" style="stroke:#181818;stroke-width:0.5;" width="193.0532" x="33" y="106.7999"/><text fill="#000000" font-family="sans-serif" font-size="12" lengthAdjust="spacing" textLength="173.0532" x="43" y="127.948">VasmInstr *t_inp_vasm = INPUT</text><rect fill="#F1F1F1" height="34.4001" rx="12.5" ry="12.5" style="stroke:#181818;stroke-width:0.5;" width="165.729" x="254.0532" y="106.7999"/><text fill="#000000" font-family="sans-serif" font-size="12" lengthAdjust="spacing" textLength="145.729" x="264.0532" y="127.948">size_t t_inp_index = INPUT</text><rect fill="#555555" height="6" rx="2.5" ry="2.5" style="stroke:#555555;stroke-width:1;" width="410.7823" x="21" y="161.2"/><rect fill="#555555" height="6" rx="2.5" ry="2.5" style="stroke:#555555;stroke-width:1;" width="238.753" x="107.0146" y="187.2"/><rect fill="#F1F1F1" height="34.4001" rx="12.5" ry="12.5" style="stroke:#181818;stroke-width:0.5;" width="126.3927" x="121.0146" y="213.2"/><text fill="#000000" font-family="sans-serif" font-size="12" lengthAdjust="spacing" textLength="106.3927" x="131.0146" y="234.3481">t_out = *t_inp_vasm</text><rect fill="#F1F1F1" height="34.4001" rx="12.5" ry="12.5" style="stroke:#181818;stroke-width:0.5;" width="56.3603" x="275.4074" y="213.2"/><text fill="#000000" font-family="sans-serif" font-size="12" lengthAdjust="spacing" textLength="36.3603" x="285.4074" y="234.3481">t_c = 0</text><rect fill="#555555" height="6" rx="2.5" ry="2.5" style="stroke:#555555;stroke-width:1;" width="238.753" x="107.0146" y="267.6001"/><rect fill="#555555" height="6" rx="2.5" ry="2.5" style="stroke:#555555;stroke-width:1;" width="226.765" x="113.0087" y="337.6001"/><rect fill="#F1F1F1" height="34.4001" rx="12.5" ry="12.5" style="stroke:#181818;stroke-width:0.5;" width="120.7407" x="127.0087" y="363.6001"/><text fill="#000000" font-family="sans-serif" font-size="12" lengthAdjust="spacing" textLength="100.7407" x="137.0087" y="384.7482">t_out = t_out-&gt;next</text><rect fill="#F1F1F1" height="34.4001" rx="12.5" ry="12.5" style="stroke:#181818;stroke-width:0.5;" width="50.0242" x="275.7494" y="363.6001"/><text fill="#000000" font-family="sans-serif" font-size="12" lengthAdjust="spacing" textLength="30.0242" x="285.7494" y="384.7482">t_c++</text><rect fill="#555555" height="6" rx="2.5" ry="2.5" style="stroke:#555555;stroke-width:1;" width="226.765" x="113.0087" y="418.0002"/><polygon fill="#F1F1F1" points="183.1285,293.6001,269.6538,293.6001,281.6538,305.6001,269.6538,317.6001,183.1285,317.6001,171.1285,305.6001,183.1285,293.6001" style="stroke:#181818;stroke-width:0.5;"/><text fill="#000000" font-family="sans-serif" font-size="11" lengthAdjust="spacing" textLength="86.5254" x="183.1285" y="309.2191">t_c != t_inp_index</text><rect fill="#F1F1F1" height="34.4001" rx="12.5" ry="12.5" style="stroke:#181818;stroke-width:0.5;" width="99.3566" x="176.7129" y="466.0002"/><text fill="#000000" font-family="sans-serif" font-size="12" lengthAdjust="spacing" textLength="79.3566" x="186.7129" y="487.1483">OUTPUT t_out</text><ellipse cx="226.3911" cy="531.4003" fill="none" rx="11" ry="11" style="stroke:#222222;stroke-width:1;"/><ellipse cx="226.3911" cy="531.4003" fill="#222222" rx="6" ry="6" style="stroke:#222222;stroke-width:1;"/><line style="stroke:#181818;stroke-width:1;" x1="129.5266" x2="129.5266" y1="86.7999" y2="106.7999"/><polygon fill="#181818" points="125.5266,96.7999,129.5266,106.7999,133.5266,96.7999,129.5266,100.7999" style="stroke:#181818;stroke-width:1;"/><line style="stroke:#181818;stroke-width:1;" x1="336.9178" x2="336.9178" y1="86.7999" y2="106.7999"/><polygon fill="#181818" points="332.9178,96.7999,336.9178,106.7999,340.9178,96.7999,336.9178,100.7999" style="stroke:#181818;stroke-width:1;"/><line style="stroke:#181818;stroke-width:1;" x1="129.5266" x2="129.5266" y1="141.2" y2="161.2"/><polygon fill="#181818" points="125.5266,151.2,129.5266,161.2,133.5266,151.2,129.5266,155.2" style="stroke:#181818;stroke-width:1;"/><line style="stroke:#181818;stroke-width:1;" x1="336.9178" x2="336.9178" y1="141.2" y2="161.2"/><polygon fill="#181818" points="332.9178,151.2,336.9178,161.2,340.9178,151.2,336.9178,155.2" style="stroke:#181818;stroke-width:1;"/><line style="stroke:#181818;stroke-width:1;" x1="226.3911" x2="226.3911" y1="60.7999" y2="80.7999"/><polygon fill="#181818" points="222.3911,70.7999,226.3911,80.7999,230.3911,70.7999,226.3911,74.7999" style="stroke:#181818;stroke-width:1;"/><line style="stroke:#181818;stroke-width:1;" x1="184.211" x2="184.211" y1="193.2" y2="213.2"/><polygon fill="#181818" points="180.211,203.2,184.211,213.2,188.211,203.2,184.211,207.2" style="stroke:#181818;stroke-width:1;"/><line style="stroke:#181818;stroke-width:1;" x1="303.5875" x2="303.5875" y1="193.2" y2="213.2"/><polygon fill="#181818" points="299.5875,203.2,303.5875,213.2,307.5875,203.2,303.5875,207.2" style="stroke:#181818;stroke-width:1;"/><line style="stroke:#181818;stroke-width:1;" x1="184.211" x2="184.211" y1="247.6001" y2="267.6001"/><polygon fill="#181818" points="180.211,257.6001,184.211,267.6001,188.211,257.6001,184.211,261.6001" style="stroke:#181818;stroke-width:1;"/><line style="stroke:#181818;stroke-width:1;" x1="303.5875" x2="303.5875" y1="247.6001" y2="267.6001"/><polygon fill="#181818" points="299.5875,257.6001,303.5875,267.6001,307.5875,257.6001,303.5875,261.6001" style="stroke:#181818;stroke-width:1;"/><line style="stroke:#181818;stroke-width:1;" x1="226.3911" x2="226.3911" y1="167.2" y2="187.2"/><polygon fill="#181818" points="222.3911,177.2,226.3911,187.2,230.3911,177.2,226.3911,181.2" style="stroke:#181818;stroke-width:1;"/><line style="stroke:#181818;stroke-width:1;" x1="187.379" x2="187.379" y1="343.6001" y2="363.6001"/><polygon fill="#181818" points="183.379,353.6001,187.379,363.6001,191.379,353.6001,187.379,357.6001" style="stroke:#181818;stroke-width:1;"/><line style="stroke:#181818;stroke-width:1;" x1="300.7615" x2="300.7615" y1="343.6001" y2="363.6001"/><polygon fill="#181818" points="296.7615,353.6001,300.7615,363.6001,304.7615,353.6001,300.7615,357.6001" style="stroke:#181818;stroke-width:1;"/><line style="stroke:#181818;stroke-width:1;" x1="187.379" x2="187.379" y1="398.0002" y2="418.0002"/><polygon fill="#181818" points="183.379,408.0002,187.379,418.0002,191.379,408.0002,187.379,412.0002" style="stroke:#181818;stroke-width:1;"/><line style="stroke:#181818;stroke-width:1;" x1="300.7615" x2="300.7615" y1="398.0002" y2="418.0002"/><polygon fill="#181818" points="296.7615,408.0002,300.7615,418.0002,304.7615,408.0002,300.7615,412.0002" style="stroke:#181818;stroke-width:1;"/><line style="stroke:#181818;stroke-width:1;" x1="226.3911" x2="226.3911" y1="317.6001" y2="337.6001"/><polygon fill="#181818" points="222.3911,327.6001,226.3911,337.6001,230.3911,327.6001,226.3911,331.6001" style="stroke:#181818;stroke-width:1;"/><line style="stroke:#181818;stroke-width:1;" x1="226.3911" x2="226.3911" y1="424.0002" y2="434.0002"/><line style="stroke:#181818;stroke-width:1;" x1="226.3911" x2="351.7736" y1="434.0002" y2="434.0002"/><polygon fill="#181818" points="347.7736,378.8002,351.7736,368.8002,355.7736,378.8002,351.7736,374.8002" style="stroke:#181818;stroke-width:1;"/><line style="stroke:#181818;stroke-width:1;" x1="351.7736" x2="351.7736" y1="305.6001" y2="434.0002"/><line style="stroke:#181818;stroke-width:1;" x1="351.7736" x2="281.6538" y1="305.6001" y2="305.6001"/><polygon fill="#181818" points="291.6538,301.6001,281.6538,305.6001,291.6538,309.6001,287.6538,305.6001" style="stroke:#181818;stroke-width:1;"/><line style="stroke:#181818;stroke-width:1;" x1="171.1285" x2="101.0087" y1="305.6001" y2="305.6001"/><polygon fill="#181818" points="97.0087,364.8002,101.0087,374.8002,105.0087,364.8002,101.0087,368.8002" style="stroke:#181818;stroke-width:1;"/><line style="stroke:#181818;stroke-width:1;" x1="101.0087" x2="101.0087" y1="305.6001" y2="446.0002"/><line style="stroke:#181818;stroke-width:1;" x1="101.0087" x2="226.3911" y1="446.0002" y2="446.0002"/><line style="stroke:#181818;stroke-width:1;" x1="226.3911" x2="226.3911" y1="446.0002" y2="466.0002"/><polygon fill="#181818" points="222.3911,456.0002,226.3911,466.0002,230.3911,456.0002,226.3911,460.0002" style="stroke:#181818;stroke-width:1;"/><line style="stroke:#181818;stroke-width:1;" x1="226.3911" x2="226.3911" y1="273.6001" y2="293.6001"/><polygon fill="#181818" points="222.3911,283.6001,226.3911,293.6001,230.3911,283.6001,226.3911,287.6001" style="stroke:#181818;stroke-width:1;"/><line style="stroke:#181818;stroke-width:1;" x1="226.3911" x2="226.3911" y1="500.4003" y2="520.4003"/><polygon fill="#181818" points="222.3911,510.4003,226.3911,520.4003,230.3911,510.4003,226.3911,514.4003" style="stroke:#181818;stroke-width:1;"/><!--SRC=[TP0n3u8m48LtVyMvgSJ46OABYOP57S2rQQ1g8xQ4daeq_dUF8WW4kzor_TwzbyjuZXAbLX3pD6QhzOP9PJ27rmZe6AH_snrrVh5DUTm3DzV0SZCaGSRkz00-1Djz57gD0FY9I_MJ6VaK3A6II9M8Oa0ZL3BWY4pVaEYMttyVP36XYu6XZxDC1KnAOEotWqmRTSUtusthVAb4WLu7x_dN6HodXzKfgDeWzkBkef0sK4ttlclNsUZz0G00]--></g></svg>