<svg xmlns="http://www.w3.org/2000/svg" xmlns:xlink="http://www.w3.org/1999/xlink" contentStyleType="text/css" data-diagram-type="ACTIVITY" height="745px" preserveAspectRatio="none" style="width:802px;height:745px;background:#FFFFFF;" version="1.1" viewBox="0 0 802 745" width="802px" zoomAndPan="magnify"><defs/><g><rect fill="none" height="723.8007" style="stroke:#000000;stroke-width:1.5;" width="780.1761" x="11" y="11"/><path d="M83.2297,11 L83.2297,20.7999 L73.2297,30.7999 L11,30.7999" fill="none" style="stroke:#000000;stroke-width:1.5;"/><text fill="#000000" font-family="sans-serif" font-size="14" lengthAdjust="spacing" textLength="62.2297" x="14" y="25.0059">calc_CFG</text><ellipse cx="410.0881" cy="50.7999" fill="#222222" rx="10" ry="10" style="stroke:#222222;stroke-width:1;"/><rect fill="#F1F1F1" height="34.4001" rx="12.5" ry="12.5" style="stroke:#181818;stroke-width:0.5;" width="179.0491" x="320.5635" y="80.7999"/><text fill="#000000" font-family="sans-serif" font-size="12" lengthAdjust="spacing" textLength="159.0491" x="330.5635" y="101.948">VasmInst *inp_vasm = INPUT</text><rect fill="#555555" height="6" rx="2.5" ry="2.5" style="stroke:#555555;stroke-width:1;" width="760.1761" x="21" y="135.2"/><rect fill="#F1F1F1" height="34.4001" rx="12.5" ry="12.5" style="stroke:#181818;stroke-width:0.5;" width="223.0534" x="33" y="161.2"/><text fill="#000000" font-family="sans-serif" font-size="12" lengthAdjust="spacing" textLength="203.0534" x="43" y="182.3481">s = calc_CFG_num_blocks(inp_vasm)</text><rect fill="#F1F1F1" height="34.4001" rx="12.5" ry="12.5" style="stroke:#181818;stroke-width:0.5;" width="207.7293" x="284.0534" y="161.2"/><text fill="#000000" font-family="sans-serif" font-size="12" lengthAdjust="spacing" textLength="187.7293" x="294.0534" y="182.3481">h = calc_CFG_head_arr(inp_vasm)</text><rect fill="#F1F1F1" height="34.4001" rx="12.5" ry="12.5" style="stroke:#181818;stroke-width:0.5;" width="193.0412" x="519.7827" y="161.2"/><text fill="#000000" font-family="sans-serif" font-size="12" lengthAdjust="spacing" textLength="173.0412" x="529.7827" y="182.3481">t = calc_CFG_tail_arr(inp_vasm)</text><rect fill="#F1F1F1" height="34.4001" rx="12.5" ry="12.5" style="stroke:#181818;stroke-width:0.5;" width="46.3522" x="722.8239" y="161.2"/><text fill="#000000" font-family="sans-serif" font-size="12" lengthAdjust="spacing" textLength="26.3522" x="732.8239" y="182.3481">c = 0</text><rect fill="#555555" height="6" rx="2.5" ry="2.5" style="stroke:#555555;stroke-width:1;" width="760.1761" x="21" y="215.6001"/><rect fill="#F1F1F1" height="34.4001" rx="12.5" ry="12.5" style="stroke:#181818;stroke-width:0.5;" width="49.3522" x="385.4119" y="241.6001"/><text fill="#000000" font-family="sans-serif" font-size="12" lengthAdjust="spacing" textLength="29.3522" x="395.4119" y="262.7482">out[s]</text><rect fill="#555555" height="6" rx="2.5" ry="2.5" style="stroke:#555555;stroke-width:1;" width="470.1147" x="175.0307" y="340.0002"/><rect fill="#F1F1F1" height="34.4001" rx="12.5" ry="12.5" style="stroke:#181818;stroke-width:0.5;" width="210.3934" x="189.0307" y="366.0002"/><text fill="#000000" font-family="sans-serif" font-size="12" lengthAdjust="spacing" textLength="190.3934" x="199.0307" y="387.1483">xh = calc_CFG_inst(h[c], inp_vasm)</text><rect fill="#F1F1F1" height="34.4001" rx="12.5" ry="12.5" style="stroke:#181818;stroke-width:0.5;" width="203.7213" x="427.4241" y="366.0002"/><text fill="#000000" font-family="sans-serif" font-size="12" lengthAdjust="spacing" textLength="183.7213" x="437.4241" y="387.1483">xt = calc_CFG_inst(t[c], inp_vasm)</text><rect fill="#555555" height="6" rx="2.5" ry="2.5" style="stroke:#555555;stroke-width:1;" width="470.1147" x="175.0307" y="420.4003"/><rect fill="#F1F1F1" height="34.4001" rx="12.5" ry="12.5" style="stroke:#181818;stroke-width:0.5;" width="193.7253" x="313.2254" y="461.2003"/><text fill="#000000" font-family="sans-serif" font-size="12" lengthAdjust="spacing" textLength="173.7253" x="323.2254" y="482.3484">out[c] = calc_CFG_blocks(xh, xt)</text><rect fill="#F1F1F1" height="34.4001" rx="12.5" ry="12.5" style="stroke:#181818;stroke-width:0.5;" width="40.0162" x="390.08" y="515.6004"/><text fill="#000000" font-family="sans-serif" font-size="12" lengthAdjust="spacing" textLength="20.0162" x="400.08" y="536.7485">c++</text><polygon fill="#F1F1F1" points="398.0881,296.0002,422.0881,296.0002,434.0881,308.0002,422.0881,320.0002,398.0881,320.0002,386.0881,308.0002,398.0881,296.0002" style="stroke:#181818;stroke-width:0.5;"/><text fill="#000000" font-family="sans-serif" font-size="11" lengthAdjust="spacing" textLength="23.5398" x="398.3181" y="311.6192">c &lt; s</text><rect fill="#F1F1F1" height="34.4001" rx="12.5" ry="12.5" style="stroke:#181818;stroke-width:0.5;" width="167.733" x="326.2215" y="592.0005"/><text fill="#000000" font-family="sans-serif" font-size="12" lengthAdjust="spacing" textLength="147.733" x="336.2215" y="613.1486">out = calc_CFG_edges(out)</text><rect fill="#F1F1F1" height="34.4001" rx="12.5" ry="12.5" style="stroke:#181818;stroke-width:0.5;" width="89.3485" x="365.4138" y="646.4006"/><text fill="#000000" font-family="sans-serif" font-size="12" lengthAdjust="spacing" textLength="69.3485" x="375.4138" y="667.5487">OUTPUT out</text><ellipse cx="410.0881" cy="711.8007" fill="none" rx="11" ry="11" style="stroke:#222222;stroke-width:1;"/><ellipse cx="410.0881" cy="711.8007" fill="#222222" rx="6" ry="6" style="stroke:#222222;stroke-width:1;"/><line style="stroke:#181818;stroke-width:1;" x1="410.0881" x2="410.0881" y1="60.7999" y2="80.7999"/><polygon fill="#181818" points="406.0881,70.7999,410.0881,80.7999,414.0881,70.7999,410.0881,74.7999" style="stroke:#181818;stroke-width:1;"/><line style="stroke:#181818;stroke-width:1;" x1="144.5267" x2="144.5267" y1="141.2" y2="161.2"/><polygon fill="#181818" points="140.5267,151.2,144.5267,161.2,148.5267,151.2,144.5267,155.2" style="stroke:#181818;stroke-width:1;"/><line style="stroke:#181818;stroke-width:1;" x1="387.9181" x2="387.9181" y1="141.2" y2="161.2"/><polygon fill="#181818" points="383.9181,151.2,387.9181,161.2,391.9181,151.2,387.9181,155.2" style="stroke:#181818;stroke-width:1;"/><line style="stroke:#181818;stroke-width:1;" x1="616.3033" x2="616.3033" y1="141.2" y2="161.2"/><polygon fill="#181818" points="612.3033,151.2,616.3033,161.2,620.3033,151.2,616.3033,155.2" style="stroke:#181818;stroke-width:1;"/><line style="stroke:#181818;stroke-width:1;" x1="746" x2="746" y1="141.2" y2="161.2"/><polygon fill="#181818" points="742,151.2,746,161.2,750,151.2,746,155.2" style="stroke:#181818;stroke-width:1;"/><line style="stroke:#181818;stroke-width:1;" x1="144.5267" x2="144.5267" y1="195.6001" y2="215.6001"/><polygon fill="#181818" points="140.5267,205.6001,144.5267,215.6001,148.5267,205.6001,144.5267,209.6001" style="stroke:#181818;stroke-width:1;"/><line style="stroke:#181818;stroke-width:1;" x1="387.9181" x2="387.9181" y1="195.6001" y2="215.6001"/><polygon fill="#181818" points="383.9181,205.6001,387.9181,215.6001,391.9181,205.6001,387.9181,209.6001" style="stroke:#181818;stroke-width:1;"/><line style="stroke:#181818;stroke-width:1;" x1="616.3033" x2="616.3033" y1="195.6001" y2="215.6001"/><polygon fill="#181818" points="612.3033,205.6001,616.3033,215.6001,620.3033,205.6001,616.3033,209.6001" style="stroke:#181818;stroke-width:1;"/><line style="stroke:#181818;stroke-width:1;" x1="746" x2="746" y1="195.6001" y2="215.6001"/><polygon fill="#181818" points="742,205.6001,746,215.6001,750,205.6001,746,209.6001" style="stroke:#181818;stroke-width:1;"/><line style="stroke:#181818;stroke-width:1;" x1="410.0881" x2="410.0881" y1="115.2" y2="135.2"/><polygon fill="#181818" points="406.0881,125.2,410.0881,135.2,414.0881,125.2,410.0881,129.2" style="stroke:#181818;stroke-width:1;"/><line style="stroke:#181818;stroke-width:1;" x1="410.0881" x2="410.0881" y1="221.6001" y2="241.6001"/><polygon fill="#181818" points="406.0881,231.6001,410.0881,241.6001,414.0881,231.6001,410.0881,235.6001" style="stroke:#181818;stroke-width:1;"/><line style="stroke:#181818;stroke-width:1;" x1="294.2274" x2="294.2274" y1="346.0002" y2="366.0002"/><polygon fill="#181818" points="290.2274,356.0002,294.2274,366.0002,298.2274,356.0002,294.2274,360.0002" style="stroke:#181818;stroke-width:1;"/><line style="stroke:#181818;stroke-width:1;" x1="529.2847" x2="529.2847" y1="346.0002" y2="366.0002"/><polygon fill="#181818" points="525.2847,356.0002,529.2847,366.0002,533.2847,356.0002,529.2847,360.0002" style="stroke:#181818;stroke-width:1;"/><line style="stroke:#181818;stroke-width:1;" x1="294.2274" x2="294.2274" y1="400.4003" y2="420.4003"/><polygon fill="#181818" points="290.2274,410.4003,294.2274,420.4003,298.2274,410.4003,294.2274,414.4003" style="stroke:#181818;stroke-width:1;"/><line style="stroke:#181818;stroke-width:1;" x1="529.2847" x2="529.2847" y1="400.4003" y2="420.4003"/><polygon fill="#181818" points="525.2847,410.4003,529.2847,420.4003,533.2847,410.4003,529.2847,414.4003" style="stroke:#181818;stroke-width:1;"/><line style="stroke:#181818;stroke-width:1;" x1="410.0881" x2="410.0881" y1="426.4003" y2="461.2003"/><polygon fill="#181818" points="406.0881,451.2003,410.0881,461.2003,414.0881,451.2003,410.0881,455.2003" style="stroke:#181818;stroke-width:1;"/><line style="stroke:#181818;stroke-width:1;" x1="410.0881" x2="410.0881" y1="495.6004" y2="515.6004"/><polygon fill="#181818" points="406.0881,505.6004,410.0881,515.6004,414.0881,505.6004,410.0881,509.6004" style="stroke:#181818;stroke-width:1;"/><line style="stroke:#181818;stroke-width:1;" x1="410.0881" x2="410.0881" y1="320.0002" y2="340.0002"/><polygon fill="#181818" points="406.0881,330.0002,410.0881,340.0002,414.0881,330.0002,410.0881,334.0002" style="stroke:#181818;stroke-width:1;"/><line style="stroke:#181818;stroke-width:1;" x1="410.0881" x2="410.0881" y1="550.0005" y2="560.0005"/><line style="stroke:#181818;stroke-width:1;" x1="410.0881" x2="657.1454" y1="560.0005" y2="560.0005"/><polygon fill="#181818" points="653.1454,450.4003,657.1454,440.4003,661.1454,450.4003,657.1454,446.4003" style="stroke:#181818;stroke-width:1;"/><line style="stroke:#181818;stroke-width:1;" x1="657.1454" x2="657.1454" y1="308.0002" y2="560.0005"/><line style="stroke:#181818;stroke-width:1;" x1="657.1454" x2="434.0881" y1="308.0002" y2="308.0002"/><polygon fill="#181818" points="444.0881,304.0002,434.0881,308.0002,444.0881,312.0002,440.0881,308.0002" style="stroke:#181818;stroke-width:1;"/><line style="stroke:#181818;stroke-width:1;" x1="386.0881" x2="163.0307" y1="308.0002" y2="308.0002"/><polygon fill="#181818" points="159.0307,436.4003,163.0307,446.4003,167.0307,436.4003,163.0307,440.4003" style="stroke:#181818;stroke-width:1;"/><line style="stroke:#181818;stroke-width:1;" x1="163.0307" x2="163.0307" y1="308.0002" y2="572.0005"/><line style="stroke:#181818;stroke-width:1;" x1="163.0307" x2="410.0881" y1="572.0005" y2="572.0005"/><line style="stroke:#181818;stroke-width:1;" x1="410.0881" x2="410.0881" y1="572.0005" y2="592.0005"/><polygon fill="#181818" points="406.0881,582.0005,410.0881,592.0005,414.0881,582.0005,410.0881,586.0005" style="stroke:#181818;stroke-width:1;"/><line style="stroke:#181818;stroke-width:1;" x1="410.0881" x2="410.0881" y1="276.0002" y2="296.0002"/><polygon fill="#181818" points="406.0881,286.0002,410.0881,296.0002,414.0881,286.0002,410.0881,290.0002" style="stroke:#181818;stroke-width:1;"/><line style="stroke:#181818;stroke-width:1;" x1="410.0881" x2="410.0881" y1="626.4006" y2="646.4006"/><polygon fill="#181818" points="406.0881,636.4006,410.0881,646.4006,414.0881,636.4006,410.0881,640.4006" style="stroke:#181818;stroke-width:1;"/><line style="stroke:#181818;stroke-width:1;" x1="410.0881" x2="410.0881" y1="680.8007" y2="700.8007"/><polygon fill="#181818" points="406.0881,690.8007,410.0881,700.8007,414.0881,690.8007,410.0881,694.8007" style="stroke:#181818;stroke-width:1;"/><!--SRC=[ZP8zRy8m48PtViMDIM5W3ks4HCK23845HPRhkDWYs55yq4WL_vsJyu41WV1q7tvUlNTsoIlKgAq1mGl1fhDl-1y07OVKyL6ouUumDmxXGvkIdIY3BvWlLkjquY_yschl0t_RKRFJOkPuO3-55NiNTMnyXO3lk3PNL8MeaZndlAhU0J44aUlYNL0GE0xQqkJDpFQ8MvSrdJ-b2mcHW4zmSS_UJEsP-iQ_fer5QYko4TmPUMAcqS073NofqJdkNOiiL6YNNwiHr1YmYHWEcum4_83zt24kyvrq4HLRD5ckKtfteCga_IQs79ml]--></g></svg>