<svg xmlns="http://www.w3.org/2000/svg" xmlns:xlink="http://www.w3.org/1999/xlink" contentStyleType="text/css" data-diagram-type="ACTIVITY" height="639px" preserveAspectRatio="none" style="width:599px;height:639px;background:#FFFFFF;" version="1.1" viewBox="0 0 599 639" width="599px" zoomAndPan="magnify"><defs/><g><rect fill="none" height="617.6006" style="stroke:#000000;stroke-width:1.5;" width="577.1349" x="11" y="11"/><path d="M133.7975,11 L133.7975,20.7999 L123.7975,30.7999 L11,30.7999" fill="none" style="stroke:#000000;stroke-width:1.5;"/><text fill="#000000" font-family="sans-serif" font-size="14" lengthAdjust="spacing" textLength="112.7975" x="14" y="25.0059">calc_CFG_tail_arr</text><ellipse cx="299.5675" cy="50.7999" fill="#222222" rx="10" ry="10" style="stroke:#222222;stroke-width:1;"/><rect fill="#F1F1F1" height="34.4001" rx="12.5" ry="12.5" style="stroke:#181818;stroke-width:0.5;" width="183.0452" x="208.0449" y="80.7999"/><text fill="#000000" font-family="sans-serif" font-size="12" lengthAdjust="spacing" textLength="163.0452" x="218.0449" y="101.948">VasmInstr *inp_vasm = INPUT</text><rect fill="#555555" height="6" rx="2.5" ry="2.5" style="stroke:#555555;stroke-width:1;" width="557.1349" x="21" y="135.2"/><rect fill="#F1F1F1" height="34.4001" rx="12.5" ry="12.5" style="stroke:#181818;stroke-width:0.5;" width="207.7293" x="33" y="161.2"/><text fill="#000000" font-family="sans-serif" font-size="12" lengthAdjust="spacing" textLength="187.7293" x="43" y="182.3481">h = calc_CFG_head_arr(inp_vasm)</text><rect fill="#F1F1F1" height="34.4001" rx="12.5" ry="12.5" style="stroke:#181818;stroke-width:0.5;" width="46.3522" x="268.7293" y="161.2"/><text fill="#000000" font-family="sans-serif" font-size="12" lengthAdjust="spacing" textLength="26.3522" x="278.7293" y="182.3481">c = 0</text><rect fill="#F1F1F1" height="34.4001" rx="12.5" ry="12.5" style="stroke:#181818;stroke-width:0.5;" width="223.0534" x="343.0815" y="161.2"/><text fill="#000000" font-family="sans-serif" font-size="12" lengthAdjust="spacing" textLength="203.0534" x="353.0815" y="182.3481">s = calc_CFG_num_blocks(inp_vasm)</text><rect fill="#555555" height="6" rx="2.5" ry="2.5" style="stroke:#555555;stroke-width:1;" width="557.1349" x="21" y="215.6001"/><rect fill="#F1F1F1" height="34.4001" rx="12.5" ry="12.5" style="stroke:#181818;stroke-width:0.5;" width="49.3522" x="274.8913" y="241.6001"/><text fill="#000000" font-family="sans-serif" font-size="12" lengthAdjust="spacing" textLength="29.3522" x="284.8913" y="262.7482">out[s]</text><rect fill="#F1F1F1" height="34.4001" rx="12.5" ry="12.5" style="stroke:#181818;stroke-width:0.5;" width="121.3888" x="238.8731" y="340.0002"/><text fill="#000000" font-family="sans-serif" font-size="12" lengthAdjust="spacing" textLength="101.3888" x="248.8731" y="361.1483">out[c] = (h[c+1]) - 1</text><rect fill="#F1F1F1" height="34.4001" rx="12.5" ry="12.5" style="stroke:#181818;stroke-width:0.5;" width="40.0162" x="279.5594" y="409.4003"/><text fill="#000000" font-family="sans-serif" font-size="12" lengthAdjust="spacing" textLength="20.0162" x="289.5594" y="430.5484">c++</text><polygon fill="#F1F1F1" points="277.7161,296.0002,321.4188,296.0002,333.4188,308.0002,321.4188,320.0002,277.7161,320.0002,265.7161,308.0002,277.7161,296.0002" style="stroke:#181818;stroke-width:0.5;"/><text fill="#000000" font-family="sans-serif" font-size="11" lengthAdjust="spacing" textLength="43.7027" x="277.7161" y="311.6192">c != (s-1)</text><rect fill="#F1F1F1" height="34.4001" rx="12.5" ry="12.5" style="stroke:#181818;stroke-width:0.5;" width="262.4017" x="168.3666" y="485.8004"/><text fill="#000000" font-family="sans-serif" font-size="12" lengthAdjust="spacing" textLength="242.4017" x="178.3666" y="506.9485">out[s] = calc_CFG_num_list_items(inp_vasm)</text><rect fill="#F1F1F1" height="34.4001" rx="12.5" ry="12.5" style="stroke:#181818;stroke-width:0.5;" width="89.3485" x="254.8932" y="540.2005"/><text fill="#000000" font-family="sans-serif" font-size="12" lengthAdjust="spacing" textLength="69.3485" x="264.8932" y="561.3486">OUTPUT out</text><ellipse cx="299.5675" cy="605.6006" fill="none" rx="11" ry="11" style="stroke:#222222;stroke-width:1;"/><ellipse cx="299.5675" cy="605.6006" fill="#222222" rx="6" ry="6" style="stroke:#222222;stroke-width:1;"/><line style="stroke:#181818;stroke-width:1;" x1="299.5675" x2="299.5675" y1="60.7999" y2="80.7999"/><polygon fill="#181818" points="295.5675,70.7999,299.5675,80.7999,303.5675,70.7999,299.5675,74.7999" style="stroke:#181818;stroke-width:1;"/><line style="stroke:#181818;stroke-width:1;" x1="136.8646" x2="136.8646" y1="141.2" y2="161.2"/><polygon fill="#181818" points="132.8646,151.2,136.8646,161.2,140.8646,151.2,136.8646,155.2" style="stroke:#181818;stroke-width:1;"/><line style="stroke:#181818;stroke-width:1;" x1="291.9054" x2="291.9054" y1="141.2" y2="161.2"/><polygon fill="#181818" points="287.9054,151.2,291.9054,161.2,295.9054,151.2,291.9054,155.2" style="stroke:#181818;stroke-width:1;"/><line style="stroke:#181818;stroke-width:1;" x1="454.6082" x2="454.6082" y1="141.2" y2="161.2"/><polygon fill="#181818" points="450.6082,151.2,454.6082,161.2,458.6082,151.2,454.6082,155.2" style="stroke:#181818;stroke-width:1;"/><line style="stroke:#181818;stroke-width:1;" x1="136.8646" x2="136.8646" y1="195.6001" y2="215.6001"/><polygon fill="#181818" points="132.8646,205.6001,136.8646,215.6001,140.8646,205.6001,136.8646,209.6001" style="stroke:#181818;stroke-width:1;"/><line style="stroke:#181818;stroke-width:1;" x1="291.9054" x2="291.9054" y1="195.6001" y2="215.6001"/><polygon fill="#181818" points="287.9054,205.6001,291.9054,215.6001,295.9054,205.6001,291.9054,209.6001" style="stroke:#181818;stroke-width:1;"/><line style="stroke:#181818;stroke-width:1;" x1="454.6082" x2="454.6082" y1="195.6001" y2="215.6001"/><polygon fill="#181818" points="450.6082,205.6001,454.6082,215.6001,458.6082,205.6001,454.6082,209.6001" style="stroke:#181818;stroke-width:1;"/><line style="stroke:#181818;stroke-width:1;" x1="299.5675" x2="299.5675" y1="115.2" y2="135.2"/><polygon fill="#181818" points="295.5675,125.2,299.5675,135.2,303.5675,125.2,299.5675,129.2" style="stroke:#181818;stroke-width:1;"/><line style="stroke:#181818;stroke-width:1;" x1="299.5675" x2="299.5675" y1="221.6001" y2="241.6001"/><polygon fill="#181818" points="295.5675,231.6001,299.5675,241.6001,303.5675,231.6001,299.5675,235.6001" style="stroke:#181818;stroke-width:1;"/><line style="stroke:#181818;stroke-width:1;" x1="299.5675" x2="299.5675" y1="374.4003" y2="409.4003"/><polygon fill="#181818" points="295.5675,399.4003,299.5675,409.4003,303.5675,399.4003,299.5675,403.4003" style="stroke:#181818;stroke-width:1;"/><line style="stroke:#181818;stroke-width:1;" x1="299.5675" x2="299.5675" y1="320.0002" y2="340.0002"/><polygon fill="#181818" points="295.5675,330.0002,299.5675,340.0002,303.5675,330.0002,299.5675,334.0002" style="stroke:#181818;stroke-width:1;"/><line style="stroke:#181818;stroke-width:1;" x1="299.5675" x2="299.5675" y1="443.8004" y2="453.8004"/><line style="stroke:#181818;stroke-width:1;" x1="299.5675" x2="372.2618" y1="453.8004" y2="453.8004"/><polygon fill="#181818" points="368.2618,389.9003,372.2618,379.9003,376.2618,389.9003,372.2618,385.9003" style="stroke:#181818;stroke-width:1;"/><line style="stroke:#181818;stroke-width:1;" x1="372.2618" x2="372.2618" y1="308.0002" y2="453.8004"/><line style="stroke:#181818;stroke-width:1;" x1="372.2618" x2="333.4188" y1="308.0002" y2="308.0002"/><polygon fill="#181818" points="343.4188,304.0002,333.4188,308.0002,343.4188,312.0002,339.4188,308.0002" style="stroke:#181818;stroke-width:1;"/><line style="stroke:#181818;stroke-width:1;" x1="265.7161" x2="226.8731" y1="308.0002" y2="308.0002"/><polygon fill="#181818" points="222.8731,375.9003,226.8731,385.9003,230.8731,375.9003,226.8731,379.9003" style="stroke:#181818;stroke-width:1;"/><line style="stroke:#181818;stroke-width:1;" x1="226.8731" x2="226.8731" y1="308.0002" y2="465.8004"/><line style="stroke:#181818;stroke-width:1;" x1="226.8731" x2="299.5675" y1="465.8004" y2="465.8004"/><line style="stroke:#181818;stroke-width:1;" x1="299.5675" x2="299.5675" y1="465.8004" y2="485.8004"/><polygon fill="#181818" points="295.5675,475.8004,299.5675,485.8004,303.5675,475.8004,299.5675,479.8004" style="stroke:#181818;stroke-width:1;"/><line style="stroke:#181818;stroke-width:1;" x1="299.5675" x2="299.5675" y1="276.0002" y2="296.0002"/><polygon fill="#181818" points="295.5675,286.0002,299.5675,296.0002,303.5675,286.0002,299.5675,290.0002" style="stroke:#181818;stroke-width:1;"/><line style="stroke:#181818;stroke-width:1;" x1="299.5675" x2="299.5675" y1="520.2005" y2="540.2005"/><polygon fill="#181818" points="295.5675,530.2005,299.5675,540.2005,303.5675,530.2005,299.5675,534.2005" style="stroke:#181818;stroke-width:1;"/><line style="stroke:#181818;stroke-width:1;" x1="299.5675" x2="299.5675" y1="574.6006" y2="594.6006"/><polygon fill="#181818" points="295.5675,584.6006,299.5675,594.6006,303.5675,584.6006,299.5675,588.6006" style="stroke:#181818;stroke-width:1;"/><!--SRC=[TP0_3u8m4CLtFyMvWOH4LecJYSP57T25aAPMbCRIahReOFpk7aM5-AVJNTvxlxvSHRNbbYi9Z0f6PlC5iPGBGhM6sm3m6OiMDqrsr9HBQQo64PSLkU0AKrYkDjiaTewZqcStE7k1ufjQvFJGKBrNqkyYG4-Koox8C3Z-Bvi-LzObsGl5pkOdEPU7jhkgRMgoLhaMNEJWCHXEmJDXvFiTlF6n37_mYfG5KUP3257SwnO4xOPan-dZFui9RYpXDY-_oatMsmJF1fYBdsTMrU3-0000]--></g></svg>