<svg xmlns="http://www.w3.org/2000/svg" xmlns:xlink="http://www.w3.org/1999/xlink" contentStyleType="text/css" data-diagram-type="ACTIVITY" height="407px" preserveAspectRatio="none" style="width:440px;height:407px;background:#FFFFFF;" version="1.1" viewBox="0 0 440 407" width="440px" zoomAndPan="magnify"><defs/><g><rect fill="none" height="385.0002" style="stroke:#000000;stroke-width:1.5;" width="418.7942" x="11" y="11"/><path d="M158.7174,11 L158.7174,20.7999 L148.7174,30.7999 L11,30.7999" fill="none" style="stroke:#000000;stroke-width:1.5;"/><text fill="#000000" font-family="sans-serif" font-size="14" lengthAdjust="spacing" textLength="137.7174" x="14" y="25.0059">calc_CFG_loop_const</text><ellipse cx="220.3971" cy="50.7999" fill="#222222" rx="10" ry="10" style="stroke:#222222;stroke-width:1;"/><rect fill="#555555" height="6" rx="2.5" ry="2.5" style="stroke:#555555;stroke-width:1;" width="398.7942" x="21" y="80.7999"/><rect fill="#F1F1F1" height="34.4001" rx="12.5" ry="12.5" style="stroke:#181818;stroke-width:0.5;" width="181.0651" x="33" y="106.7999"/><text fill="#000000" font-family="sans-serif" font-size="12" lengthAdjust="spacing" textLength="161.0651" x="43" y="127.948">CFGNode *t_inp_out = INPUT</text><rect fill="#F1F1F1" height="34.4001" rx="12.5" ry="12.5" style="stroke:#181818;stroke-width:0.5;" width="165.729" x="242.0651" y="106.7999"/><text fill="#000000" font-family="sans-serif" font-size="12" lengthAdjust="spacing" textLength="145.729" x="252.0651" y="127.948">size_t t_inp_index = INPUT</text><rect fill="#555555" height="6" rx="2.5" ry="2.5" style="stroke:#555555;stroke-width:1;" width="398.7942" x="21" y="161.2"/><rect fill="#F1F1F1" height="34.4001" rx="12.5" ry="12.5" style="stroke:#181818;stroke-width:0.5;" width="166.101" x="137.3466" y="231.2"/><text fill="#000000" font-family="sans-serif" font-size="12" lengthAdjust="spacing" textLength="146.101" x="147.3466" y="252.3481">t_inp_out = t_inp_out-&gt;next</text><polygon fill="#F1F1F1" points="89.7015,187.2,351.0926,187.2,363.0926,199.2,351.0926,211.2,89.7015,211.2,77.7015,199.2,89.7015,187.2" style="stroke:#181818;stroke-width:0.5;"/><text fill="#000000" font-family="sans-serif" font-size="11" lengthAdjust="spacing" textLength="261.3911" x="89.7015" y="202.819">(t_inp_out != label) &amp;&amp; (t_inp_out-&gt;left != t_inp_index)</text><rect fill="#F1F1F1" height="34.4001" rx="12.5" ry="12.5" style="stroke:#181818;stroke-width:0.5;" width="122.0367" x="159.3787" y="307.6001"/><text fill="#000000" font-family="sans-serif" font-size="12" lengthAdjust="spacing" textLength="102.0367" x="169.3787" y="328.7482">OUTPUT t_inp_out</text><ellipse cx="220.3971" cy="373.0002" fill="none" rx="11" ry="11" style="stroke:#222222;stroke-width:1;"/><ellipse cx="220.3971" cy="373.0002" fill="#222222" rx="6" ry="6" style="stroke:#222222;stroke-width:1;"/><line style="stroke:#181818;stroke-width:1;" x1="123.5326" x2="123.5326" y1="86.7999" y2="106.7999"/><polygon fill="#181818" points="119.5326,96.7999,123.5326,106.7999,127.5326,96.7999,123.5326,100.7999" style="stroke:#181818;stroke-width:1;"/><line style="stroke:#181818;stroke-width:1;" x1="324.9296" x2="324.9296" y1="86.7999" y2="106.7999"/><polygon fill="#181818" points="320.9296,96.7999,324.9296,106.7999,328.9296,96.7999,324.9296,100.7999" style="stroke:#181818;stroke-width:1;"/><line style="stroke:#181818;stroke-width:1;" x1="123.5326" x2="123.5326" y1="141.2" y2="161.2"/><polygon fill="#181818" points="119.5326,151.2,123.5326,161.2,127.5326,151.2,123.5326,155.2" style="stroke:#181818;stroke-width:1;"/><line style="stroke:#181818;stroke-width:1;" x1="324.9296" x2="324.9296" y1="141.2" y2="161.2"/><polygon fill="#181818" points="320.9296,151.2,324.9296,161.2,328.9296,151.2,324.9296,155.2" style="stroke:#181818;stroke-width:1;"/><line style="stroke:#181818;stroke-width:1;" x1="220.3971" x2="220.3971" y1="60.7999" y2="80.7999"/><polygon fill="#181818" points="216.3971,70.7999,220.3971,80.7999,224.3971,70.7999,220.3971,74.7999" style="stroke:#181818;stroke-width:1;"/><line style="stroke:#181818;stroke-width:1;" x1="220.3971" x2="220.3971" y1="211.2" y2="231.2"/><polygon fill="#181818" points="216.3971,221.2,220.3971,231.2,224.3971,221.2,220.3971,225.2" style="stroke:#181818;stroke-width:1;"/><line style="stroke:#181818;stroke-width:1;" x1="220.3971" x2="220.3971" y1="265.6001" y2="275.6001"/><line style="stroke:#181818;stroke-width:1;" x1="220.3971" x2="375.0926" y1="275.6001" y2="275.6001"/><polygon fill="#181818" points="371.0926,246.4001,375.0926,236.4001,379.0926,246.4001,375.0926,242.4001" style="stroke:#181818;stroke-width:1;"/><line style="stroke:#181818;stroke-width:1;" x1="375.0926" x2="375.0926" y1="199.2" y2="275.6001"/><line style="stroke:#181818;stroke-width:1;" x1="375.0926" x2="363.0926" y1="199.2" y2="199.2"/><polygon fill="#181818" points="373.0926,195.2,363.0926,199.2,373.0926,203.2,369.0926,199.2" style="stroke:#181818;stroke-width:1;"/><line style="stroke:#181818;stroke-width:1;" x1="77.7015" x2="65.7015" y1="199.2" y2="199.2"/><polygon fill="#181818" points="61.7015,232.4001,65.7015,242.4001,69.7015,232.4001,65.7015,236.4001" style="stroke:#181818;stroke-width:1;"/><line style="stroke:#181818;stroke-width:1;" x1="65.7015" x2="65.7015" y1="199.2" y2="287.6001"/><line style="stroke:#181818;stroke-width:1;" x1="65.7015" x2="220.3971" y1="287.6001" y2="287.6001"/><line style="stroke:#181818;stroke-width:1;" x1="220.3971" x2="220.3971" y1="287.6001" y2="307.6001"/><polygon fill="#181818" points="216.3971,297.6001,220.3971,307.6001,224.3971,297.6001,220.3971,301.6001" style="stroke:#181818;stroke-width:1;"/><line style="stroke:#181818;stroke-width:1;" x1="220.3971" x2="220.3971" y1="167.2" y2="187.2"/><polygon fill="#181818" points="216.3971,177.2,220.3971,187.2,224.3971,177.2,220.3971,181.2" style="stroke:#181818;stroke-width:1;"/><line style="stroke:#181818;stroke-width:1;" x1="220.3971" x2="220.3971" y1="342.0002" y2="362.0002"/><polygon fill="#181818" points="216.3971,352.0002,220.3971,362.0002,224.3971,352.0002,220.3971,356.0002" style="stroke:#181818;stroke-width:1;"/><!--SRC=[RL3D3e8m3Bxp5FL2mCGNWE35HEC5FS1vcL1qSLaNg95eV7VdC8w3FNrjlv-cLlQiM961Hkf6RBOxeOciQCWC3Cy8N0tiI1vrr5yz-5Jco2Mr24iMobX1DuO2zkMnhl8V6-HPAXCqWtgWO9WKohGu_j6WQNrploYDa2J1Vr60bYVKASGnXFbghR7psvbnceRO-OKpbS6HfrmNwTDyantgobqKcFdt3sIZrni0]--></g></svg>