<svg xmlns="http://www.w3.org/2000/svg" xmlns:xlink="http://www.w3.org/1999/xlink" contentStyleType="text/css" data-diagram-type="ACTIVITY" height="745px" preserveAspectRatio="none" style="width:966px;height:745px;background:#FFFFFF;" version="1.1" viewBox="0 0 966 745" width="966px" zoomAndPan="magnify"><defs/><g><rect fill="none" height="723.8007" style="stroke:#000000;stroke-width:1.5;" width="944.2173" x="11" y="11"/><path d="M83.2297,11 L83.2297,20.7999 L73.2297,30.7999 L11,30.7999" fill="none" style="stroke:#000000;stroke-width:1.5;"/><text fill="#000000" font-family="sans-serif" font-size="14" lengthAdjust="spacing" textLength="62.2297" x="14" y="25.0059">calc_CFG</text><ellipse cx="492.1087" cy="50.7999" fill="#222222" rx="10" ry="10" style="stroke:#222222;stroke-width:1;"/><rect fill="#F1F1F1" height="34.4001" rx="12.5" ry="12.5" style="stroke:#181818;stroke-width:0.5;" width="183.0452" x="400.5861" y="80.7999"/><text fill="#000000" font-family="sans-serif" font-size="12" lengthAdjust="spacing" textLength="163.0452" x="410.5861" y="101.948">VasmInst *inp_vasm &lt;- INPUT</text><rect fill="#555555" height="6" rx="2.5" ry="2.5" style="stroke:#555555;stroke-width:1;" width="924.2173" x="21" y="135.2"/><rect fill="#F1F1F1" height="34.4001" rx="12.5" ry="12.5" style="stroke:#181818;stroke-width:0.5;" width="261.7297" x="33" y="161.2"/><text fill="#000000" font-family="sans-serif" font-size="12" lengthAdjust="spacing" textLength="241.7297" x="43" y="182.3481">size_t s &lt;- calc_CFG_num_blocks(inp_vasm)</text><rect fill="#F1F1F1" height="34.4001" rx="12.5" ry="12.5" style="stroke:#181818;stroke-width:0.5;" width="251.0736" x="322.7297" y="161.2"/><text fill="#000000" font-family="sans-serif" font-size="12" lengthAdjust="spacing" textLength="231.0736" x="332.7297" y="182.3481">size_t *h &lt;- calc_CFG_head_arr(inp_vasm)</text><rect fill="#F1F1F1" height="34.4001" rx="12.5" ry="12.5" style="stroke:#181818;stroke-width:0.5;" width="236.3855" x="601.8033" y="161.2"/><text fill="#000000" font-family="sans-serif" font-size="12" lengthAdjust="spacing" textLength="216.3855" x="611.8033" y="182.3481">size_t *t &lt;- calc_CFG_tail_arr(inp_vasm)</text><rect fill="#F1F1F1" height="34.4001" rx="12.5" ry="12.5" style="stroke:#181818;stroke-width:0.5;" width="85.0285" x="848.1888" y="161.2"/><text fill="#000000" font-family="sans-serif" font-size="12" lengthAdjust="spacing" textLength="65.0285" x="858.1888" y="182.3481">size_t c &lt;- 0</text><rect fill="#555555" height="6" rx="2.5" ry="2.5" style="stroke:#555555;stroke-width:1;" width="924.2173" x="21" y="215.6001"/><rect fill="#F1F1F1" height="34.4001" rx="12.5" ry="12.5" style="stroke:#181818;stroke-width:0.5;" width="106.7006" x="438.7584" y="241.6001"/><text fill="#000000" font-family="sans-serif" font-size="12" lengthAdjust="spacing" textLength="86.7006" x="448.7584" y="262.7482">CFGNode out[s]</text><rect fill="#555555" height="6" rx="2.5" ry="2.5" style="stroke:#555555;stroke-width:1;" width="478.1068" x="253.0553" y="340.0002"/><rect fill="#F1F1F1" height="34.4001" rx="12.5" ry="12.5" style="stroke:#181818;stroke-width:0.5;" width="214.3894" x="267.0553" y="366.0002"/><text fill="#000000" font-family="sans-serif" font-size="12" lengthAdjust="spacing" textLength="194.3894" x="277.0553" y="387.1483">xh &lt;- calc_CFG_inst(h[c], inp_vasm)</text><rect fill="#F1F1F1" height="34.4001" rx="12.5" ry="12.5" style="stroke:#181818;stroke-width:0.5;" width="207.7174" x="509.4447" y="366.0002"/><text fill="#000000" font-family="sans-serif" font-size="12" lengthAdjust="spacing" textLength="187.7174" x="519.4447" y="387.1483">xt &lt;- calc_CFG_inst(t[c], inp_vasm)</text><rect fill="#555555" height="6" rx="2.5" ry="2.5" style="stroke:#555555;stroke-width:1;" width="478.1068" x="253.0553" y="420.4003"/><rect fill="#F1F1F1" height="34.4001" rx="12.5" ry="12.5" style="stroke:#181818;stroke-width:0.5;" width="197.7213" x="393.248" y="461.2003"/><text fill="#000000" font-family="sans-serif" font-size="12" lengthAdjust="spacing" textLength="177.7213" x="403.248" y="482.3484">out[c] &lt;- calc_CFG_blocks(xh, xt)</text><rect fill="#F1F1F1" height="34.4001" rx="12.5" ry="12.5" style="stroke:#181818;stroke-width:0.5;" width="70.0284" x="457.0945" y="515.6004"/><text fill="#000000" font-family="sans-serif" font-size="12" lengthAdjust="spacing" textLength="50.0284" x="467.0945" y="536.7485">c &lt;- c + 1</text><polygon fill="#F1F1F1" points="480.1087,296.0002,504.1087,296.0002,516.1087,308.0002,504.1087,320.0002,480.1087,320.0002,468.1087,308.0002,480.1087,296.0002" style="stroke:#181818;stroke-width:0.5;"/><text fill="#000000" font-family="sans-serif" font-size="11" lengthAdjust="spacing" textLength="23.5398" x="480.3387" y="311.6192">c &lt; s</text><rect fill="#F1F1F1" height="34.4001" rx="12.5" ry="12.5" style="stroke:#181818;stroke-width:0.5;" width="171.7291" x="406.2441" y="592.0005"/><text fill="#000000" font-family="sans-serif" font-size="12" lengthAdjust="spacing" textLength="151.7291" x="416.2441" y="613.1486">out &lt;- calc_CFG_edges(out)</text><rect fill="#F1F1F1" height="34.4001" rx="12.5" ry="12.5" style="stroke:#181818;stroke-width:0.5;" width="89.3485" x="447.4344" y="646.4006"/><text fill="#000000" font-family="sans-serif" font-size="12" lengthAdjust="spacing" textLength="69.3485" x="457.4344" y="667.5487">OUTPUT out</text><ellipse cx="492.1087" cy="711.8007" fill="none" rx="11" ry="11" style="stroke:#222222;stroke-width:1;"/><ellipse cx="492.1087" cy="711.8007" fill="#222222" rx="6" ry="6" style="stroke:#222222;stroke-width:1;"/><line style="stroke:#181818;stroke-width:1;" x1="492.1087" x2="492.1087" y1="60.7999" y2="80.7999"/><polygon fill="#181818" points="488.1087,70.7999,492.1087,80.7999,496.1087,70.7999,492.1087,74.7999" style="stroke:#181818;stroke-width:1;"/><line style="stroke:#181818;stroke-width:1;" x1="163.8648" x2="163.8648" y1="141.2" y2="161.2"/><polygon fill="#181818" points="159.8648,151.2,163.8648,161.2,167.8648,151.2,163.8648,155.2" style="stroke:#181818;stroke-width:1;"/><line style="stroke:#181818;stroke-width:1;" x1="448.2665" x2="448.2665" y1="141.2" y2="161.2"/><polygon fill="#181818" points="444.2665,151.2,448.2665,161.2,452.2665,151.2,448.2665,155.2" style="stroke:#181818;stroke-width:1;"/><line style="stroke:#181818;stroke-width:1;" x1="719.9961" x2="719.9961" y1="141.2" y2="161.2"/><polygon fill="#181818" points="715.9961,151.2,719.9961,161.2,723.9961,151.2,719.9961,155.2" style="stroke:#181818;stroke-width:1;"/><line style="stroke:#181818;stroke-width:1;" x1="890.7031" x2="890.7031" y1="141.2" y2="161.2"/><polygon fill="#181818" points="886.7031,151.2,890.7031,161.2,894.7031,151.2,890.7031,155.2" style="stroke:#181818;stroke-width:1;"/><line style="stroke:#181818;stroke-width:1;" x1="163.8648" x2="163.8648" y1="195.6001" y2="215.6001"/><polygon fill="#181818" points="159.8648,205.6001,163.8648,215.6001,167.8648,205.6001,163.8648,209.6001" style="stroke:#181818;stroke-width:1;"/><line style="stroke:#181818;stroke-width:1;" x1="448.2665" x2="448.2665" y1="195.6001" y2="215.6001"/><polygon fill="#181818" points="444.2665,205.6001,448.2665,215.6001,452.2665,205.6001,448.2665,209.6001" style="stroke:#181818;stroke-width:1;"/><line style="stroke:#181818;stroke-width:1;" x1="719.9961" x2="719.9961" y1="195.6001" y2="215.6001"/><polygon fill="#181818" points="715.9961,205.6001,719.9961,215.6001,723.9961,205.6001,719.9961,209.6001" style="stroke:#181818;stroke-width:1;"/><line style="stroke:#181818;stroke-width:1;" x1="890.7031" x2="890.7031" y1="195.6001" y2="215.6001"/><polygon fill="#181818" points="886.7031,205.6001,890.7031,215.6001,894.7031,205.6001,890.7031,209.6001" style="stroke:#181818;stroke-width:1;"/><line style="stroke:#181818;stroke-width:1;" x1="492.1087" x2="492.1087" y1="115.2" y2="135.2"/><polygon fill="#181818" points="488.1087,125.2,492.1087,135.2,496.1087,125.2,492.1087,129.2" style="stroke:#181818;stroke-width:1;"/><line style="stroke:#181818;stroke-width:1;" x1="492.1087" x2="492.1087" y1="221.6001" y2="241.6001"/><polygon fill="#181818" points="488.1087,231.6001,492.1087,241.6001,496.1087,231.6001,492.1087,235.6001" style="stroke:#181818;stroke-width:1;"/><line style="stroke:#181818;stroke-width:1;" x1="374.25" x2="374.25" y1="346.0002" y2="366.0002"/><polygon fill="#181818" points="370.25,356.0002,374.25,366.0002,378.25,356.0002,374.25,360.0002" style="stroke:#181818;stroke-width:1;"/><line style="stroke:#181818;stroke-width:1;" x1="613.3034" x2="613.3034" y1="346.0002" y2="366.0002"/><polygon fill="#181818" points="609.3034,356.0002,613.3034,366.0002,617.3034,356.0002,613.3034,360.0002" style="stroke:#181818;stroke-width:1;"/><line style="stroke:#181818;stroke-width:1;" x1="374.25" x2="374.25" y1="400.4003" y2="420.4003"/><polygon fill="#181818" points="370.25,410.4003,374.25,420.4003,378.25,410.4003,374.25,414.4003" style="stroke:#181818;stroke-width:1;"/><line style="stroke:#181818;stroke-width:1;" x1="613.3034" x2="613.3034" y1="400.4003" y2="420.4003"/><polygon fill="#181818" points="609.3034,410.4003,613.3034,420.4003,617.3034,410.4003,613.3034,414.4003" style="stroke:#181818;stroke-width:1;"/><line style="stroke:#181818;stroke-width:1;" x1="492.1087" x2="492.1087" y1="426.4003" y2="461.2003"/><polygon fill="#181818" points="488.1087,451.2003,492.1087,461.2003,496.1087,451.2003,492.1087,455.2003" style="stroke:#181818;stroke-width:1;"/><line style="stroke:#181818;stroke-width:1;" x1="492.1087" x2="492.1087" y1="495.6004" y2="515.6004"/><polygon fill="#181818" points="488.1087,505.6004,492.1087,515.6004,496.1087,505.6004,492.1087,509.6004" style="stroke:#181818;stroke-width:1;"/><line style="stroke:#181818;stroke-width:1;" x1="492.1087" x2="492.1087" y1="320.0002" y2="340.0002"/><polygon fill="#181818" points="488.1087,330.0002,492.1087,340.0002,496.1087,330.0002,492.1087,334.0002" style="stroke:#181818;stroke-width:1;"/><line style="stroke:#181818;stroke-width:1;" x1="492.1087" x2="492.1087" y1="550.0005" y2="560.0005"/><line style="stroke:#181818;stroke-width:1;" x1="492.1087" x2="743.162" y1="560.0005" y2="560.0005"/><polygon fill="#181818" points="739.162,450.4003,743.162,440.4003,747.162,450.4003,743.162,446.4003" style="stroke:#181818;stroke-width:1;"/><line style="stroke:#181818;stroke-width:1;" x1="743.162" x2="743.162" y1="308.0002" y2="560.0005"/><line style="stroke:#181818;stroke-width:1;" x1="743.162" x2="516.1087" y1="308.0002" y2="308.0002"/><polygon fill="#181818" points="526.1087,304.0002,516.1087,308.0002,526.1087,312.0002,522.1087,308.0002" style="stroke:#181818;stroke-width:1;"/><line style="stroke:#181818;stroke-width:1;" x1="468.1087" x2="241.0553" y1="308.0002" y2="308.0002"/><polygon fill="#181818" points="237.0553,436.4003,241.0553,446.4003,245.0553,436.4003,241.0553,440.4003" style="stroke:#181818;stroke-width:1;"/><line style="stroke:#181818;stroke-width:1;" x1="241.0553" x2="241.0553" y1="308.0002" y2="572.0005"/><line style="stroke:#181818;stroke-width:1;" x1="241.0553" x2="492.1087" y1="572.0005" y2="572.0005"/><line style="stroke:#181818;stroke-width:1;" x1="492.1087" x2="492.1087" y1="572.0005" y2="592.0005"/><polygon fill="#181818" points="488.1087,582.0005,492.1087,592.0005,496.1087,582.0005,492.1087,586.0005" style="stroke:#181818;stroke-width:1;"/><line style="stroke:#181818;stroke-width:1;" x1="492.1087" x2="492.1087" y1="276.0002" y2="296.0002"/><polygon fill="#181818" points="488.1087,286.0002,492.1087,296.0002,496.1087,286.0002,492.1087,290.0002" style="stroke:#181818;stroke-width:1;"/><line style="stroke:#181818;stroke-width:1;" x1="492.1087" x2="492.1087" y1="626.4006" y2="646.4006"/><polygon fill="#181818" points="488.1087,636.4006,492.1087,646.4006,496.1087,636.4006,492.1087,640.4006" style="stroke:#181818;stroke-width:1;"/><line style="stroke:#181818;stroke-width:1;" x1="492.1087" x2="492.1087" y1="680.8007" y2="700.8007"/><polygon fill="#181818" points="488.1087,690.8007,492.1087,700.8007,496.1087,690.8007,492.1087,694.8007" style="stroke:#181818;stroke-width:1;"/><!--SRC=[ZT71JWCX403GCtp57BUr9dgbtamqlLGFhPTcGv2bXNGBcsMg6ut_xa1san9ZqYCpl65cw5IF3btme5MhvUFJCtnp5f72d8at5Kyh7n7cpdVoWqxmS0khzUjsi-Hi7_eZPqn4zsKaGaovgOhqvvDyRuC-ncgoiz60EYZdB-JS5jGQrKZLzrT0B20grru7TN9tKzRuXeQb2klG60XdtCMQSf_MjGOgkWjnHdYSbucXxDVHXYgxq_K2BXykNoQ5VnN-et97JAHMT5smSQU3NS206OWyZ8ORkASZoTmtpxgWfZcOM54qCV6otT0tfccNwSD3ntz-0G00]--></g></svg>