<svg xmlns="http://www.w3.org/2000/svg" xmlns:xlink="http://www.w3.org/1999/xlink" contentStyleType="text/css" data-diagram-type="ACTIVITY" height="767px" preserveAspectRatio="none" style="width:1192px;height:767px;background:#FFFFFF;" version="1.1" viewBox="0 0 1192 767" width="1192px" zoomAndPan="magnify"><defs/><g><rect fill="none" height="745.3196" style="stroke:#000000;stroke-width:1.5;" width="1170.3215" x="11" y="11"/><path d="M147.0415,11 L147.0415,20.7999 L137.0415,30.7999 L11,30.7999" fill="none" style="stroke:#000000;stroke-width:1.5;"/><text fill="#000000" font-family="sans-serif" font-size="14" lengthAdjust="spacing" textLength="126.0415" x="14" y="25.0059">calc_CFG_head_arr</text><ellipse cx="611.1607" cy="50.7999" fill="#222222" rx="10" ry="10" style="stroke:#222222;stroke-width:1;"/><rect fill="#F1F1F1" height="34.4001" rx="12.5" ry="12.5" style="stroke:#181818;stroke-width:0.5;" width="182.3732" x="519.9742" y="80.7999"/><text fill="#000000" font-family="sans-serif" font-size="12" lengthAdjust="spacing" textLength="162.3732" x="529.9742" y="101.948">VasmInstr inp_vasm &lt;- INPUT</text><rect fill="#555555" height="6" rx="2.5" ry="2.5" style="stroke:#555555;stroke-width:1;" width="575.8111" x="323.2552" y="135.2"/><rect fill="#F1F1F1" height="34.4001" rx="12.5" ry="12.5" style="stroke:#181818;stroke-width:0.5;" width="271.7378" x="337.2552" y="161.2"/><text fill="#000000" font-family="sans-serif" font-size="12" lengthAdjust="spacing" textLength="251.7378" x="347.2552" y="182.3481">size_t s &lt;- calc_CFG_num_blocks(t_inp_vasm)</text><rect fill="#F1F1F1" height="34.4001" rx="12.5" ry="12.5" style="stroke:#181818;stroke-width:0.5;" width="85.0285" x="636.993" y="161.2"/><text fill="#000000" font-family="sans-serif" font-size="12" lengthAdjust="spacing" textLength="65.0285" x="646.993" y="182.3481">size_t c &lt;- 0</text><rect fill="#F1F1F1" height="34.4001" rx="12.5" ry="12.5" style="stroke:#181818;stroke-width:0.5;" width="135.0448" x="750.0214" y="161.2"/><text fill="#000000" font-family="sans-serif" font-size="12" lengthAdjust="spacing" textLength="115.0448" x="760.0214" y="182.3481">size_t curr_index &lt;- 0</text><rect fill="#555555" height="6" rx="2.5" ry="2.5" style="stroke:#555555;stroke-width:1;" width="575.8111" x="323.2552" y="215.6001"/><rect fill="#F1F1F1" height="34.4001" rx="12.5" ry="12.5" style="stroke:#181818;stroke-width:0.5;" width="84.0325" x="569.1445" y="241.6001"/><text fill="#000000" font-family="sans-serif" font-size="12" lengthAdjust="spacing" textLength="64.0325" x="579.1445" y="262.7482">size_t out[s]</text><polygon fill="#F1F1F1" points="177.9,340.0002,292.2221,340.0002,304.2221,352.0002,292.2221,364.0002,177.9,364.0002,165.9,352.0002,177.9,340.0002" style="stroke:#181818;stroke-width:0.5;"/><text fill="#000000" font-family="sans-serif" font-size="11" lengthAdjust="spacing" textLength="29.9418" x="239.0611" y="374.2192">TRUE</text><text fill="#000000" font-family="sans-serif" font-size="11" lengthAdjust="spacing" textLength="114.3222" x="177.9" y="355.6192">inp_vasm is head of list</text><rect fill="#F1F1F1" height="34.4001" rx="12.5" ry="12.5" style="stroke:#181818;stroke-width:0.5;" width="123.0448" x="173.5387" y="395.7192"/><text fill="#000000" font-family="sans-serif" font-size="12" lengthAdjust="spacing" textLength="103.0448" x="183.5387" y="416.8672">out[curr_index] &lt;- c</text><rect fill="#555555" height="6" rx="2.5" ry="2.5" style="stroke:#555555;stroke-width:1;" width="394.1221" x="39" y="465.1193"/><rect fill="#F1F1F1" height="34.4001" rx="12.5" ry="12.5" style="stroke:#181818;stroke-width:0.5;" width="170.0611" x="51" y="491.1193"/><text fill="#000000" font-family="sans-serif" font-size="12" lengthAdjust="spacing" textLength="150.0611" x="61" y="512.2673">curr_index &lt;- curr_index + 1</text><rect fill="#F1F1F1" height="34.4001" rx="12.5" ry="12.5" style="stroke:#181818;stroke-width:0.5;" width="170.0611" x="249.0611" y="491.1193"/><text fill="#000000" font-family="sans-serif" font-size="12" lengthAdjust="spacing" textLength="150.0611" x="259.0611" y="512.2673">inp_vasm = inp_vasm-&gt;next</text><rect fill="#555555" height="6" rx="2.5" ry="2.5" style="stroke:#555555;stroke-width:1;" width="394.1221" x="39" y="545.5194"/><polygon fill="#F1F1F1" points="591.1126,340.0002,711.2537,340.0002,723.2537,352.0002,711.2537,364.0002,591.1126,364.0002,579.1126,352.0002,591.1126,340.0002" style="stroke:#181818;stroke-width:0.5;"/><text fill="#000000" font-family="sans-serif" font-size="11" lengthAdjust="spacing" textLength="29.9418" x="655.1832" y="374.2192">TRUE</text><text fill="#000000" font-family="sans-serif" font-size="11" lengthAdjust="spacing" textLength="120.1411" x="591.1126" y="355.6192">inp_vasm-&gt;type == label</text><rect fill="#F1F1F1" height="34.4001" rx="12.5" ry="12.5" style="stroke:#181818;stroke-width:0.5;" width="123.0448" x="589.6608" y="395.7192"/><text fill="#000000" font-family="sans-serif" font-size="12" lengthAdjust="spacing" textLength="103.0448" x="599.6608" y="416.8672">out[curr_index] &lt;- c</text><rect fill="#555555" height="6" rx="2.5" ry="2.5" style="stroke:#555555;stroke-width:1;" width="396.1221" x="453.1221" y="465.1193"/><rect fill="#F1F1F1" height="34.4001" rx="12.5" ry="12.5" style="stroke:#181818;stroke-width:0.5;" width="170.0611" x="467.1221" y="491.1193"/><text fill="#000000" font-family="sans-serif" font-size="12" lengthAdjust="spacing" textLength="150.0611" x="477.1221" y="512.2673">curr_index &lt;- curr_index + 1</text><rect fill="#F1F1F1" height="34.4001" rx="12.5" ry="12.5" style="stroke:#181818;stroke-width:0.5;" width="170.0611" x="665.1832" y="491.1193"/><text fill="#000000" font-family="sans-serif" font-size="12" lengthAdjust="spacing" textLength="150.0611" x="675.1832" y="512.2673">inp_vasm = inp_vasm-&gt;next</text><rect fill="#555555" height="6" rx="2.5" ry="2.5" style="stroke:#555555;stroke-width:1;" width="396.1221" x="453.1221" y="545.5194"/><polygon fill="#F1F1F1" points="948.3283,340.0002,1056.2375,340.0002,1068.2375,352.0002,1056.2375,364.0002,948.3283,364.0002,936.3283,352.0002,948.3283,340.0002" style="stroke:#181818;stroke-width:0.5;"/><text fill="#000000" font-family="sans-serif" font-size="11" lengthAdjust="spacing" textLength="29.9418" x="1006.2829" y="374.2192">TRUE</text><text fill="#000000" font-family="sans-serif" font-size="11" lengthAdjust="spacing" textLength="107.9092" x="948.3283" y="355.6192">inp_vasm-&gt;type == jle</text><text fill="#000000" font-family="sans-serif" font-size="11" lengthAdjust="spacing" textLength="34.8477" x="1068.2375" y="349.0193">FALSE</text><rect fill="#555555" height="6" rx="2.5" ry="2.5" style="stroke:#555555;stroke-width:1;" width="264.0772" x="869.2443" y="395.7192"/><rect fill="#F1F1F1" height="34.4001" rx="12.5" ry="12.5" style="stroke:#181818;stroke-width:0.5;" width="170.0611" x="883.2443" y="421.7192"/><text fill="#000000" font-family="sans-serif" font-size="12" lengthAdjust="spacing" textLength="150.0611" x="893.2443" y="442.8672">inp_vasm = inp_vasm-&gt;next</text><rect fill="#F1F1F1" height="34.4001" rx="12.5" ry="12.5" style="stroke:#181818;stroke-width:0.5;" width="40.0162" x="1081.3053" y="421.7192"/><text fill="#000000" font-family="sans-serif" font-size="12" lengthAdjust="spacing" textLength="20.0162" x="1091.3053" y="442.8672">c++</text><rect fill="#555555" height="6" rx="2.5" ry="2.5" style="stroke:#555555;stroke-width:1;" width="264.0772" x="869.2443" y="476.1193"/><rect fill="#F1F1F1" height="34.4001" rx="12.5" ry="12.5" style="stroke:#181818;stroke-width:0.5;" width="123.0448" x="940.7605" y="517.1193"/><text fill="#000000" font-family="sans-serif" font-size="12" lengthAdjust="spacing" textLength="103.0448" x="950.7605" y="538.2673">out[curr_index] &lt;- c</text><rect fill="#F1F1F1" height="34.4001" rx="12.5" ry="12.5" style="stroke:#181818;stroke-width:0.5;" width="170.0611" x="917.2523" y="571.5194"/><text fill="#000000" font-family="sans-serif" font-size="12" lengthAdjust="spacing" textLength="150.0611" x="927.2523" y="592.6674">curr_index &lt;- curr_index + 1</text><polygon fill="#F1F1F1" points="565.7696,296.0002,656.5519,296.0002,668.5519,308.0002,656.5519,320.0002,565.7696,320.0002,553.7696,308.0002,565.7696,296.0002" style="stroke:#181818;stroke-width:0.5;"/><text fill="#000000" font-family="sans-serif" font-size="11" lengthAdjust="spacing" textLength="90.7823" x="565.7696" y="311.6192">inp_vasm != NULL</text><rect fill="#F1F1F1" height="34.4001" rx="12.5" ry="12.5" style="stroke:#181818;stroke-width:0.5;" width="89.3485" x="566.4865" y="667.9195"/><text fill="#000000" font-family="sans-serif" font-size="12" lengthAdjust="spacing" textLength="69.3485" x="576.4865" y="689.0675">OUTPUT out</text><ellipse cx="611.1607" cy="733.3196" fill="none" rx="11" ry="11" style="stroke:#222222;stroke-width:1;"/><ellipse cx="611.1607" cy="733.3196" fill="#222222" rx="6" ry="6" style="stroke:#222222;stroke-width:1;"/><line style="stroke:#181818;stroke-width:1;" x1="611.1607" x2="611.1607" y1="60.7999" y2="80.7999"/><polygon fill="#181818" points="607.1607,70.7999,611.1607,80.7999,615.1607,70.7999,611.1607,74.7999" style="stroke:#181818;stroke-width:1;"/><line style="stroke:#181818;stroke-width:1;" x1="473.1241" x2="473.1241" y1="141.2" y2="161.2"/><polygon fill="#181818" points="469.1241,151.2,473.1241,161.2,477.1241,151.2,473.1241,155.2" style="stroke:#181818;stroke-width:1;"/><line style="stroke:#181818;stroke-width:1;" x1="679.5072" x2="679.5072" y1="141.2" y2="161.2"/><polygon fill="#181818" points="675.5072,151.2,679.5072,161.2,683.5072,151.2,679.5072,155.2" style="stroke:#181818;stroke-width:1;"/><line style="stroke:#181818;stroke-width:1;" x1="817.5439" x2="817.5439" y1="141.2" y2="161.2"/><polygon fill="#181818" points="813.5439,151.2,817.5439,161.2,821.5439,151.2,817.5439,155.2" style="stroke:#181818;stroke-width:1;"/><line style="stroke:#181818;stroke-width:1;" x1="473.1241" x2="473.1241" y1="195.6001" y2="215.6001"/><polygon fill="#181818" points="469.1241,205.6001,473.1241,215.6001,477.1241,205.6001,473.1241,209.6001" style="stroke:#181818;stroke-width:1;"/><line style="stroke:#181818;stroke-width:1;" x1="679.5072" x2="679.5072" y1="195.6001" y2="215.6001"/><polygon fill="#181818" points="675.5072,205.6001,679.5072,215.6001,683.5072,205.6001,679.5072,209.6001" style="stroke:#181818;stroke-width:1;"/><line style="stroke:#181818;stroke-width:1;" x1="817.5439" x2="817.5439" y1="195.6001" y2="215.6001"/><polygon fill="#181818" points="813.5439,205.6001,817.5439,215.6001,821.5439,205.6001,817.5439,209.6001" style="stroke:#181818;stroke-width:1;"/><line style="stroke:#181818;stroke-width:1;" x1="611.1607" x2="611.1607" y1="115.2" y2="135.2"/><polygon fill="#181818" points="607.1607,125.2,611.1607,135.2,615.1607,125.2,611.1607,129.2" style="stroke:#181818;stroke-width:1;"/><line style="stroke:#181818;stroke-width:1;" x1="611.1607" x2="611.1607" y1="221.6001" y2="241.6001"/><polygon fill="#181818" points="607.1607,231.6001,611.1607,241.6001,615.1607,231.6001,611.1607,235.6001" style="stroke:#181818;stroke-width:1;"/><line style="stroke:#181818;stroke-width:1;" x1="136.0305" x2="136.0305" y1="471.1193" y2="491.1193"/><polygon fill="#181818" points="132.0305,481.1193,136.0305,491.1193,140.0305,481.1193,136.0305,485.1193" style="stroke:#181818;stroke-width:1;"/><line style="stroke:#181818;stroke-width:1;" x1="334.0916" x2="334.0916" y1="471.1193" y2="491.1193"/><polygon fill="#181818" points="330.0916,481.1193,334.0916,491.1193,338.0916,481.1193,334.0916,485.1193" style="stroke:#181818;stroke-width:1;"/><line style="stroke:#181818;stroke-width:1;" x1="136.0305" x2="136.0305" y1="525.5194" y2="545.5194"/><polygon fill="#181818" points="132.0305,535.5194,136.0305,545.5194,140.0305,535.5194,136.0305,539.5194" style="stroke:#181818;stroke-width:1;"/><line style="stroke:#181818;stroke-width:1;" x1="334.0916" x2="334.0916" y1="525.5194" y2="545.5194"/><polygon fill="#181818" points="330.0916,535.5194,334.0916,545.5194,338.0916,535.5194,334.0916,539.5194" style="stroke:#181818;stroke-width:1;"/><line style="stroke:#181818;stroke-width:1;" x1="235.0611" x2="235.0611" y1="430.1193" y2="465.1193"/><polygon fill="#181818" points="231.0611,455.1193,235.0611,465.1193,239.0611,455.1193,235.0611,459.1193" style="stroke:#181818;stroke-width:1;"/><line style="stroke:#181818;stroke-width:1;" x1="552.1527" x2="552.1527" y1="471.1193" y2="491.1193"/><polygon fill="#181818" points="548.1527,481.1193,552.1527,491.1193,556.1527,481.1193,552.1527,485.1193" style="stroke:#181818;stroke-width:1;"/><line style="stroke:#181818;stroke-width:1;" x1="750.2137" x2="750.2137" y1="471.1193" y2="491.1193"/><polygon fill="#181818" points="746.2137,481.1193,750.2137,491.1193,754.2137,481.1193,750.2137,485.1193" style="stroke:#181818;stroke-width:1;"/><line style="stroke:#181818;stroke-width:1;" x1="552.1527" x2="552.1527" y1="525.5194" y2="545.5194"/><polygon fill="#181818" points="548.1527,535.5194,552.1527,545.5194,556.1527,535.5194,552.1527,539.5194" style="stroke:#181818;stroke-width:1;"/><line style="stroke:#181818;stroke-width:1;" x1="750.2137" x2="750.2137" y1="525.5194" y2="545.5194"/><polygon fill="#181818" points="746.2137,535.5194,750.2137,545.5194,754.2137,535.5194,750.2137,539.5194" style="stroke:#181818;stroke-width:1;"/><line style="stroke:#181818;stroke-width:1;" x1="651.1832" x2="651.1832" y1="430.1193" y2="465.1193"/><polygon fill="#181818" points="647.1832,455.1193,651.1832,465.1193,655.1832,455.1193,651.1832,459.1193" style="stroke:#181818;stroke-width:1;"/><line style="stroke:#181818;stroke-width:1;" x1="968.2748" x2="968.2748" y1="401.7192" y2="421.7192"/><polygon fill="#181818" points="964.2748,411.7192,968.2748,421.7192,972.2748,411.7192,968.2748,415.7192" style="stroke:#181818;stroke-width:1;"/><line style="stroke:#181818;stroke-width:1;" x1="1101.3134" x2="1101.3134" y1="401.7192" y2="421.7192"/><polygon fill="#181818" points="1097.3134,411.7192,1101.3134,421.7192,1105.3134,411.7192,1101.3134,415.7192" style="stroke:#181818;stroke-width:1;"/><line style="stroke:#181818;stroke-width:1;" x1="968.2748" x2="968.2748" y1="456.1193" y2="476.1193"/><polygon fill="#181818" points="964.2748,466.1193,968.2748,476.1193,972.2748,466.1193,968.2748,470.1193" style="stroke:#181818;stroke-width:1;"/><line style="stroke:#181818;stroke-width:1;" x1="1101.3134" x2="1101.3134" y1="456.1193" y2="476.1193"/><polygon fill="#181818" points="1097.3134,466.1193,1101.3134,476.1193,1105.3134,466.1193,1101.3134,470.1193" style="stroke:#181818;stroke-width:1;"/><line style="stroke:#181818;stroke-width:1;" x1="1002.2829" x2="1002.2829" y1="482.1193" y2="517.1193"/><polygon fill="#181818" points="998.2829,507.1193,1002.2829,517.1193,1006.2829,507.1193,1002.2829,511.1193" style="stroke:#181818;stroke-width:1;"/><line style="stroke:#181818;stroke-width:1;" x1="1002.2829" x2="1002.2829" y1="551.5194" y2="571.5194"/><polygon fill="#181818" points="998.2829,561.5194,1002.2829,571.5194,1006.2829,561.5194,1002.2829,565.5194" style="stroke:#181818;stroke-width:1;"/><line style="stroke:#181818;stroke-width:1;" x1="235.0611" x2="235.0611" y1="364.0002" y2="395.7192"/><polygon fill="#181818" points="231.0611,385.7192,235.0611,395.7192,239.0611,385.7192,235.0611,389.7192" style="stroke:#181818;stroke-width:1;"/><line style="stroke:#181818;stroke-width:1;" x1="235.0611" x2="235.0611" y1="551.5194" y2="625.9195"/><polygon fill="#181818" points="231.0611,615.9195,235.0611,625.9195,239.0611,615.9195,235.0611,619.9195" style="stroke:#181818;stroke-width:1;"/><line style="stroke:#181818;stroke-width:1;" x1="651.1832" x2="651.1832" y1="364.0002" y2="395.7192"/><polygon fill="#181818" points="647.1832,385.7192,651.1832,395.7192,655.1832,385.7192,651.1832,389.7192" style="stroke:#181818;stroke-width:1;"/><line style="stroke:#181818;stroke-width:1;" x1="651.1832" x2="651.1832" y1="551.5194" y2="625.9195"/><polygon fill="#181818" points="647.1832,615.9195,651.1832,625.9195,655.1832,615.9195,651.1832,619.9195" style="stroke:#181818;stroke-width:1;"/><line style="stroke:#181818;stroke-width:1;" x1="1002.2829" x2="1002.2829" y1="364.0002" y2="395.7192"/><polygon fill="#181818" points="998.2829,385.7192,1002.2829,395.7192,1006.2829,385.7192,1002.2829,389.7192" style="stroke:#181818;stroke-width:1;"/><line style="stroke:#181818;stroke-width:1;" x1="1002.2829" x2="1002.2829" y1="605.9195" y2="625.9195"/><polygon fill="#181818" points="998.2829,615.9195,1002.2829,625.9195,1006.2829,615.9195,1002.2829,619.9195" style="stroke:#181818;stroke-width:1;"/><line style="stroke:#181818;stroke-width:1;" x1="304.2221" x2="579.1126" y1="352.0002" y2="352.0002"/><polygon fill="#181818" points="569.1126,348.0002,579.1126,352.0002,569.1126,356.0002,573.1126,352.0002" style="stroke:#181818;stroke-width:1;"/><line style="stroke:#181818;stroke-width:1;" x1="723.2537" x2="936.3283" y1="352.0002" y2="352.0002"/><polygon fill="#181818" points="926.3283,348.0002,936.3283,352.0002,926.3283,356.0002,930.3283,352.0002" style="stroke:#181818;stroke-width:1;"/><line style="stroke:#181818;stroke-width:1;" x1="611.1607" x2="611.1607" y1="320.0002" y2="325.0002"/><line style="stroke:#181818;stroke-width:1;" x1="611.1607" x2="235.0611" y1="325.0002" y2="325.0002"/><line style="stroke:#181818;stroke-width:1;" x1="235.0611" x2="235.0611" y1="325.0002" y2="340.0002"/><polygon fill="#181818" points="231.0611,330.0002,235.0611,340.0002,239.0611,330.0002,235.0611,334.0002" style="stroke:#181818;stroke-width:1;"/><line style="stroke:#181818;stroke-width:1;" x1="1068.2375" x2="1147.3215" y1="352.0002" y2="352.0002"/><line style="stroke:#181818;stroke-width:1;" x1="1147.3215" x2="1147.3215" y1="352.0002" y2="625.9195"/><polygon fill="#181818" points="1143.3215,615.9195,1147.3215,625.9195,1151.3215,615.9195,1147.3215,619.9195" style="stroke:#181818;stroke-width:1;"/><line style="stroke:#181818;stroke-width:1;" x1="235.0611" x2="1147.3215" y1="625.9195" y2="625.9195"/><line style="stroke:#181818;stroke-width:1;" x1="611.1607" x2="611.1607" y1="625.9195" y2="635.9195"/><line style="stroke:#181818;stroke-width:1;" x1="611.1607" x2="1165.3215" y1="635.9195" y2="635.9195"/><polygon fill="#181818" points="1161.3215,502.7194,1165.3215,492.7194,1169.3215,502.7194,1165.3215,498.7194" style="stroke:#181818;stroke-width:1;"/><line style="stroke:#181818;stroke-width:1;" x1="1165.3215" x2="1165.3215" y1="308.0002" y2="635.9195"/><line style="stroke:#181818;stroke-width:1;" x1="1165.3215" x2="668.5519" y1="308.0002" y2="308.0002"/><polygon fill="#181818" points="678.5519,304.0002,668.5519,308.0002,678.5519,312.0002,674.5519,308.0002" style="stroke:#181818;stroke-width:1;"/><line style="stroke:#181818;stroke-width:1;" x1="553.7696" x2="27" y1="308.0002" y2="308.0002"/><polygon fill="#181818" points="23,488.7194,27,498.7194,31,488.7194,27,492.7194" style="stroke:#181818;stroke-width:1;"/><line style="stroke:#181818;stroke-width:1;" x1="27" x2="27" y1="308.0002" y2="647.9195"/><line style="stroke:#181818;stroke-width:1;" x1="27" x2="611.1607" y1="647.9195" y2="647.9195"/><line style="stroke:#181818;stroke-width:1;" x1="611.1607" x2="611.1607" y1="647.9195" y2="667.9195"/><polygon fill="#181818" points="607.1607,657.9195,611.1607,667.9195,615.1607,657.9195,611.1607,661.9195" style="stroke:#181818;stroke-width:1;"/><line style="stroke:#181818;stroke-width:1;" x1="611.1607" x2="611.1607" y1="276.0002" y2="296.0002"/><polygon fill="#181818" points="607.1607,286.0002,611.1607,296.0002,615.1607,286.0002,611.1607,290.0002" style="stroke:#181818;stroke-width:1;"/><line style="stroke:#181818;stroke-width:1;" x1="611.1607" x2="611.1607" y1="702.3196" y2="722.3196"/><polygon fill="#181818" points="607.1607,712.3196,611.1607,722.3196,615.1607,712.3196,611.1607,716.3196" style="stroke:#181818;stroke-width:1;"/><!--SRC=[ZPDHIyCm58MVarznVUie0ttjx434oQ1CqTON6I7hKXkNfIN9T2h-TvEoPjr4rwUItdFF_KwugQaotF1AGav5JgudjwHaT4ceKl25aJQsZb7qHFLwAhLHm6LDtkm9BeSmdTrdwGYZeb8hZ52a-ISZ1hIhUJkvMPE5gFAL3WnfkmUxBg0lbCjER-vwp_-iRfIo7aksFP0nkSHUKstCivxRqdl91OF00v_5CCkIP63zUD7vppMuo50L8BWs0p0ban2a3zcDqwB8EUudpvjqrh-DZQ93hCufX8jMwBEWo4-E_MqEnv9jZTSsWH0JcdL9XsFpKJE8On1qmKH_K4zw6lM8zGHiFzfNmNwnxebw3EZWv65uFFY_uAS3Esm89bV9OmDcBNc1tQTP7xjMTrbgjzojrSYzXwh6tpy0]--></g></svg>