<svg xmlns="http://www.w3.org/2000/svg" xmlns:xlink="http://www.w3.org/1999/xlink" contentStyleType="text/css" data-diagram-type="ACTIVITY" height="767px" preserveAspectRatio="none" style="width:1036px;height:767px;background:#FFFFFF;" version="1.1" viewBox="0 0 1036 767" width="1036px" zoomAndPan="magnify"><defs/><g><rect fill="none" height="745.3196" style="stroke:#000000;stroke-width:1.5;" width="1014.3286" x="11" y="11"/><path d="M147.0415,11 L147.0415,20.7999 L137.0415,30.7999 L11,30.7999" fill="none" style="stroke:#000000;stroke-width:1.5;"/><text fill="#000000" font-family="sans-serif" font-size="14" lengthAdjust="spacing" textLength="126.0415" x="14" y="25.0059">calc_CFG_head_arr</text><ellipse cx="529.4964" cy="50.7999" fill="#222222" rx="10" ry="10" style="stroke:#222222;stroke-width:1;"/><rect fill="#F1F1F1" height="34.4001" rx="12.5" ry="12.5" style="stroke:#181818;stroke-width:0.5;" width="188.3852" x="435.3038" y="80.7999"/><text fill="#000000" font-family="sans-serif" font-size="12" lengthAdjust="spacing" textLength="168.3852" x="445.3038" y="101.948">VasmInstr t_inp_vasm = INPUT</text><rect fill="#555555" height="6" rx="2.5" ry="2.5" style="stroke:#555555;stroke-width:1;" width="355.4298" x="351.7815" y="135.2"/><rect fill="#F1F1F1" height="34.4001" rx="12.5" ry="12.5" style="stroke:#181818;stroke-width:0.5;" width="243.0695" x="365.7815" y="161.2"/><text fill="#000000" font-family="sans-serif" font-size="12" lengthAdjust="spacing" textLength="223.0695" x="375.7815" y="182.3481">t_s = calc_CFG_num_blocks(t_inp_vasm)</text><rect fill="#F1F1F1" height="34.4001" rx="12.5" ry="12.5" style="stroke:#181818;stroke-width:0.5;" width="56.3603" x="636.851" y="161.2"/><text fill="#000000" font-family="sans-serif" font-size="12" lengthAdjust="spacing" textLength="36.3603" x="646.851" y="182.3481">t_c = 0</text><rect fill="#555555" height="6" rx="2.5" ry="2.5" style="stroke:#555555;stroke-width:1;" width="355.4298" x="351.7815" y="215.6001"/><rect fill="#F1F1F1" height="34.4001" rx="12.5" ry="12.5" style="stroke:#181818;stroke-width:0.5;" width="69.3684" x="494.8122" y="241.6001"/><text fill="#000000" font-family="sans-serif" font-size="12" lengthAdjust="spacing" textLength="49.3684" x="504.8122" y="262.7482">t_out[t_s]</text><polygon fill="#F1F1F1" points="128.6427,340.0002,252.1388,340.0002,264.1388,352.0002,252.1388,364.0002,128.6427,364.0002,116.6427,352.0002,128.6427,340.0002" style="stroke:#181818;stroke-width:0.5;"/><text fill="#000000" font-family="sans-serif" font-size="11" lengthAdjust="spacing" textLength="29.9418" x="194.3907" y="374.2192">TRUE</text><text fill="#000000" font-family="sans-serif" font-size="11" lengthAdjust="spacing" textLength="123.4961" x="128.6427" y="355.6192">t_inp_vasm is head of list</text><rect fill="#F1F1F1" height="34.4001" rx="12.5" ry="12.5" style="stroke:#181818;stroke-width:0.5;" width="76.3764" x="152.2025" y="395.7192"/><text fill="#000000" font-family="sans-serif" font-size="12" lengthAdjust="spacing" textLength="56.3764" x="162.2025" y="416.8672">t_out = t_c</text><rect fill="#555555" height="6" rx="2.5" ry="2.5" style="stroke:#555555;stroke-width:1;" width="302.7815" x="39" y="465.1193"/><rect fill="#F1F1F1" height="34.4001" rx="12.5" ry="12.5" style="stroke:#181818;stroke-width:0.5;" width="60.7043" x="51" y="491.1193"/><text fill="#000000" font-family="sans-serif" font-size="12" lengthAdjust="spacing" textLength="40.7043" x="61" y="512.2673">t_out++</text><rect fill="#F1F1F1" height="34.4001" rx="12.5" ry="12.5" style="stroke:#181818;stroke-width:0.5;" width="190.0772" x="139.7043" y="491.1193"/><text fill="#000000" font-family="sans-serif" font-size="12" lengthAdjust="spacing" textLength="170.0772" x="149.7043" y="512.2673">t_inp_vasm = t_inp_vasm-&gt;next</text><rect fill="#555555" height="6" rx="2.5" ry="2.5" style="stroke:#555555;stroke-width:1;" width="302.7815" x="39" y="545.5194"/><polygon fill="#F1F1F1" points="445.1789,340.0002,574.494,340.0002,586.494,352.0002,574.494,364.0002,445.1789,364.0002,433.1789,352.0002,445.1789,340.0002" style="stroke:#181818;stroke-width:0.5;"/><text fill="#000000" font-family="sans-serif" font-size="11" lengthAdjust="spacing" textLength="29.9418" x="513.8364" y="374.2192">TRUE</text><text fill="#000000" font-family="sans-serif" font-size="11" lengthAdjust="spacing" textLength="129.315" x="445.1789" y="355.6192">t_inp_vasm-&gt;type == label</text><rect fill="#F1F1F1" height="34.4001" rx="12.5" ry="12.5" style="stroke:#181818;stroke-width:0.5;" width="76.3764" x="471.6482" y="395.7192"/><text fill="#000000" font-family="sans-serif" font-size="12" lengthAdjust="spacing" textLength="56.3764" x="481.6482" y="416.8672">t_out = t_c</text><rect fill="#555555" height="6" rx="2.5" ry="2.5" style="stroke:#555555;stroke-width:1;" width="306.7815" x="356.4457" y="465.1193"/><rect fill="#F1F1F1" height="34.4001" rx="12.5" ry="12.5" style="stroke:#181818;stroke-width:0.5;" width="60.7043" x="370.4457" y="491.1193"/><text fill="#000000" font-family="sans-serif" font-size="12" lengthAdjust="spacing" textLength="40.7043" x="380.4457" y="512.2673">t_out++</text><rect fill="#F1F1F1" height="34.4001" rx="12.5" ry="12.5" style="stroke:#181818;stroke-width:0.5;" width="190.0772" x="459.15" y="491.1193"/><text fill="#000000" font-family="sans-serif" font-size="12" lengthAdjust="spacing" textLength="170.0772" x="469.15" y="512.2673">t_inp_vasm = t_inp_vasm-&gt;next</text><rect fill="#555555" height="6" rx="2.5" ry="2.5" style="stroke:#555555;stroke-width:1;" width="306.7815" x="356.4457" y="545.5194"/><polygon fill="#F1F1F1" points="772.7363,340.0002,889.8195,340.0002,901.8195,352.0002,889.8195,364.0002,772.7363,364.0002,760.7363,352.0002,772.7363,340.0002" style="stroke:#181818;stroke-width:0.5;"/><text fill="#000000" font-family="sans-serif" font-size="11" lengthAdjust="spacing" textLength="29.9418" x="835.2779" y="374.2192">TRUE</text><text fill="#000000" font-family="sans-serif" font-size="11" lengthAdjust="spacing" textLength="117.0831" x="772.7363" y="355.6192">t_inp_vasm-&gt;type == jle</text><text fill="#000000" font-family="sans-serif" font-size="11" lengthAdjust="spacing" textLength="34.8477" x="901.8195" y="349.0193">FALSE</text><rect fill="#555555" height="6" rx="2.5" ry="2.5" style="stroke:#555555;stroke-width:1;" width="294.1014" x="683.2272" y="395.7192"/><rect fill="#F1F1F1" height="34.4001" rx="12.5" ry="12.5" style="stroke:#181818;stroke-width:0.5;" width="190.0772" x="697.2272" y="421.7192"/><text fill="#000000" font-family="sans-serif" font-size="12" lengthAdjust="spacing" textLength="170.0772" x="707.2272" y="442.8672">t_inp_vasm = t_inp_vasm-&gt;next</text><rect fill="#F1F1F1" height="34.4001" rx="12.5" ry="12.5" style="stroke:#181818;stroke-width:0.5;" width="50.0242" x="915.3044" y="421.7192"/><text fill="#000000" font-family="sans-serif" font-size="12" lengthAdjust="spacing" textLength="30.0242" x="925.3044" y="442.8672">t_c++</text><rect fill="#555555" height="6" rx="2.5" ry="2.5" style="stroke:#555555;stroke-width:1;" width="294.1014" x="683.2272" y="476.1193"/><rect fill="#F1F1F1" height="34.4001" rx="12.5" ry="12.5" style="stroke:#181818;stroke-width:0.5;" width="76.3764" x="793.0897" y="517.1193"/><text fill="#000000" font-family="sans-serif" font-size="12" lengthAdjust="spacing" textLength="56.3764" x="803.0897" y="538.2673">t_out = t_c</text><rect fill="#F1F1F1" height="34.4001" rx="12.5" ry="12.5" style="stroke:#181818;stroke-width:0.5;" width="60.7043" x="800.9258" y="571.5194"/><text fill="#000000" font-family="sans-serif" font-size="12" lengthAdjust="spacing" textLength="40.7043" x="810.9258" y="592.6674">t_out++</text><polygon fill="#F1F1F1" points="479.5183,296.0002,579.4745,296.0002,591.4745,308.0002,579.4745,320.0002,479.5183,320.0002,467.5183,308.0002,479.5183,296.0002" style="stroke:#181818;stroke-width:0.5;"/><text fill="#000000" font-family="sans-serif" font-size="11" lengthAdjust="spacing" textLength="99.9563" x="479.5183" y="311.6192">t_inp_vasm != NULL</text><rect fill="#F1F1F1" height="34.4001" rx="12.5" ry="12.5" style="stroke:#181818;stroke-width:0.5;" width="99.3566" x="479.8181" y="667.9195"/><text fill="#000000" font-family="sans-serif" font-size="12" lengthAdjust="spacing" textLength="79.3566" x="489.8181" y="689.0675">OUTPUT t_out</text><ellipse cx="529.4964" cy="733.3196" fill="none" rx="11" ry="11" style="stroke:#222222;stroke-width:1;"/><ellipse cx="529.4964" cy="733.3196" fill="#222222" rx="6" ry="6" style="stroke:#222222;stroke-width:1;"/><line style="stroke:#181818;stroke-width:1;" x1="529.4964" x2="529.4964" y1="60.7999" y2="80.7999"/><polygon fill="#181818" points="525.4964,70.7999,529.4964,80.7999,533.4964,70.7999,529.4964,74.7999" style="stroke:#181818;stroke-width:1;"/><line style="stroke:#181818;stroke-width:1;" x1="487.3163" x2="487.3163" y1="141.2" y2="161.2"/><polygon fill="#181818" points="483.3163,151.2,487.3163,161.2,491.3163,151.2,487.3163,155.2" style="stroke:#181818;stroke-width:1;"/><line style="stroke:#181818;stroke-width:1;" x1="665.0312" x2="665.0312" y1="141.2" y2="161.2"/><polygon fill="#181818" points="661.0312,151.2,665.0312,161.2,669.0312,151.2,665.0312,155.2" style="stroke:#181818;stroke-width:1;"/><line style="stroke:#181818;stroke-width:1;" x1="487.3163" x2="487.3163" y1="195.6001" y2="215.6001"/><polygon fill="#181818" points="483.3163,205.6001,487.3163,215.6001,491.3163,205.6001,487.3163,209.6001" style="stroke:#181818;stroke-width:1;"/><line style="stroke:#181818;stroke-width:1;" x1="665.0312" x2="665.0312" y1="195.6001" y2="215.6001"/><polygon fill="#181818" points="661.0312,205.6001,665.0312,215.6001,669.0312,205.6001,665.0312,209.6001" style="stroke:#181818;stroke-width:1;"/><line style="stroke:#181818;stroke-width:1;" x1="529.4964" x2="529.4964" y1="115.2" y2="135.2"/><polygon fill="#181818" points="525.4964,125.2,529.4964,135.2,533.4964,125.2,529.4964,129.2" style="stroke:#181818;stroke-width:1;"/><line style="stroke:#181818;stroke-width:1;" x1="529.4964" x2="529.4964" y1="221.6001" y2="241.6001"/><polygon fill="#181818" points="525.4964,231.6001,529.4964,241.6001,533.4964,231.6001,529.4964,235.6001" style="stroke:#181818;stroke-width:1;"/><line style="stroke:#181818;stroke-width:1;" x1="81.3521" x2="81.3521" y1="471.1193" y2="491.1193"/><polygon fill="#181818" points="77.3521,481.1193,81.3521,491.1193,85.3521,481.1193,81.3521,485.1193" style="stroke:#181818;stroke-width:1;"/><line style="stroke:#181818;stroke-width:1;" x1="234.7429" x2="234.7429" y1="471.1193" y2="491.1193"/><polygon fill="#181818" points="230.7429,481.1193,234.7429,491.1193,238.7429,481.1193,234.7429,485.1193" style="stroke:#181818;stroke-width:1;"/><line style="stroke:#181818;stroke-width:1;" x1="81.3521" x2="81.3521" y1="525.5194" y2="545.5194"/><polygon fill="#181818" points="77.3521,535.5194,81.3521,545.5194,85.3521,535.5194,81.3521,539.5194" style="stroke:#181818;stroke-width:1;"/><line style="stroke:#181818;stroke-width:1;" x1="234.7429" x2="234.7429" y1="525.5194" y2="545.5194"/><polygon fill="#181818" points="230.7429,535.5194,234.7429,545.5194,238.7429,535.5194,234.7429,539.5194" style="stroke:#181818;stroke-width:1;"/><line style="stroke:#181818;stroke-width:1;" x1="190.3907" x2="190.3907" y1="430.1193" y2="465.1193"/><polygon fill="#181818" points="186.3907,455.1193,190.3907,465.1193,194.3907,455.1193,190.3907,459.1193" style="stroke:#181818;stroke-width:1;"/><line style="stroke:#181818;stroke-width:1;" x1="400.7978" x2="400.7978" y1="471.1193" y2="491.1193"/><polygon fill="#181818" points="396.7978,481.1193,400.7978,491.1193,404.7978,481.1193,400.7978,485.1193" style="stroke:#181818;stroke-width:1;"/><line style="stroke:#181818;stroke-width:1;" x1="554.1886" x2="554.1886" y1="471.1193" y2="491.1193"/><polygon fill="#181818" points="550.1886,481.1193,554.1886,491.1193,558.1886,481.1193,554.1886,485.1193" style="stroke:#181818;stroke-width:1;"/><line style="stroke:#181818;stroke-width:1;" x1="400.7978" x2="400.7978" y1="525.5194" y2="545.5194"/><polygon fill="#181818" points="396.7978,535.5194,400.7978,545.5194,404.7978,535.5194,400.7978,539.5194" style="stroke:#181818;stroke-width:1;"/><line style="stroke:#181818;stroke-width:1;" x1="554.1886" x2="554.1886" y1="525.5194" y2="545.5194"/><polygon fill="#181818" points="550.1886,535.5194,554.1886,545.5194,558.1886,535.5194,554.1886,539.5194" style="stroke:#181818;stroke-width:1;"/><line style="stroke:#181818;stroke-width:1;" x1="509.8364" x2="509.8364" y1="430.1193" y2="465.1193"/><polygon fill="#181818" points="505.8364,455.1193,509.8364,465.1193,513.8364,455.1193,509.8364,459.1193" style="stroke:#181818;stroke-width:1;"/><line style="stroke:#181818;stroke-width:1;" x1="792.2658" x2="792.2658" y1="401.7192" y2="421.7192"/><polygon fill="#181818" points="788.2658,411.7192,792.2658,421.7192,796.2658,411.7192,792.2658,415.7192" style="stroke:#181818;stroke-width:1;"/><line style="stroke:#181818;stroke-width:1;" x1="940.3165" x2="940.3165" y1="401.7192" y2="421.7192"/><polygon fill="#181818" points="936.3165,411.7192,940.3165,421.7192,944.3165,411.7192,940.3165,415.7192" style="stroke:#181818;stroke-width:1;"/><line style="stroke:#181818;stroke-width:1;" x1="792.2658" x2="792.2658" y1="456.1193" y2="476.1193"/><polygon fill="#181818" points="788.2658,466.1193,792.2658,476.1193,796.2658,466.1193,792.2658,470.1193" style="stroke:#181818;stroke-width:1;"/><line style="stroke:#181818;stroke-width:1;" x1="940.3165" x2="940.3165" y1="456.1193" y2="476.1193"/><polygon fill="#181818" points="936.3165,466.1193,940.3165,476.1193,944.3165,466.1193,940.3165,470.1193" style="stroke:#181818;stroke-width:1;"/><line style="stroke:#181818;stroke-width:1;" x1="831.2779" x2="831.2779" y1="482.1193" y2="517.1193"/><polygon fill="#181818" points="827.2779,507.1193,831.2779,517.1193,835.2779,507.1193,831.2779,511.1193" style="stroke:#181818;stroke-width:1;"/><line style="stroke:#181818;stroke-width:1;" x1="831.2779" x2="831.2779" y1="551.5194" y2="571.5194"/><polygon fill="#181818" points="827.2779,561.5194,831.2779,571.5194,835.2779,561.5194,831.2779,565.5194" style="stroke:#181818;stroke-width:1;"/><line style="stroke:#181818;stroke-width:1;" x1="190.3907" x2="190.3907" y1="364.0002" y2="395.7192"/><polygon fill="#181818" points="186.3907,385.7192,190.3907,395.7192,194.3907,385.7192,190.3907,389.7192" style="stroke:#181818;stroke-width:1;"/><line style="stroke:#181818;stroke-width:1;" x1="190.3907" x2="190.3907" y1="551.5194" y2="625.9195"/><polygon fill="#181818" points="186.3907,615.9195,190.3907,625.9195,194.3907,615.9195,190.3907,619.9195" style="stroke:#181818;stroke-width:1;"/><line style="stroke:#181818;stroke-width:1;" x1="509.8364" x2="509.8364" y1="364.0002" y2="395.7192"/><polygon fill="#181818" points="505.8364,385.7192,509.8364,395.7192,513.8364,385.7192,509.8364,389.7192" style="stroke:#181818;stroke-width:1;"/><line style="stroke:#181818;stroke-width:1;" x1="509.8364" x2="509.8364" y1="551.5194" y2="625.9195"/><polygon fill="#181818" points="505.8364,615.9195,509.8364,625.9195,513.8364,615.9195,509.8364,619.9195" style="stroke:#181818;stroke-width:1;"/><line style="stroke:#181818;stroke-width:1;" x1="831.2779" x2="831.2779" y1="364.0002" y2="395.7192"/><polygon fill="#181818" points="827.2779,385.7192,831.2779,395.7192,835.2779,385.7192,831.2779,389.7192" style="stroke:#181818;stroke-width:1;"/><line style="stroke:#181818;stroke-width:1;" x1="831.2779" x2="831.2779" y1="605.9195" y2="625.9195"/><polygon fill="#181818" points="827.2779,615.9195,831.2779,625.9195,835.2779,615.9195,831.2779,619.9195" style="stroke:#181818;stroke-width:1;"/><line style="stroke:#181818;stroke-width:1;" x1="264.1388" x2="433.1789" y1="352.0002" y2="352.0002"/><polygon fill="#181818" points="423.1789,348.0002,433.1789,352.0002,423.1789,356.0002,427.1789,352.0002" style="stroke:#181818;stroke-width:1;"/><line style="stroke:#181818;stroke-width:1;" x1="586.494" x2="760.7363" y1="352.0002" y2="352.0002"/><polygon fill="#181818" points="750.7363,348.0002,760.7363,352.0002,750.7363,356.0002,754.7363,352.0002" style="stroke:#181818;stroke-width:1;"/><line style="stroke:#181818;stroke-width:1;" x1="529.4964" x2="529.4964" y1="320.0002" y2="325.0002"/><line style="stroke:#181818;stroke-width:1;" x1="529.4964" x2="190.3907" y1="325.0002" y2="325.0002"/><line style="stroke:#181818;stroke-width:1;" x1="190.3907" x2="190.3907" y1="325.0002" y2="340.0002"/><polygon fill="#181818" points="186.3907,330.0002,190.3907,340.0002,194.3907,330.0002,190.3907,334.0002" style="stroke:#181818;stroke-width:1;"/><line style="stroke:#181818;stroke-width:1;" x1="901.8195" x2="991.3286" y1="352.0002" y2="352.0002"/><line style="stroke:#181818;stroke-width:1;" x1="991.3286" x2="991.3286" y1="352.0002" y2="625.9195"/><polygon fill="#181818" points="987.3286,615.9195,991.3286,625.9195,995.3286,615.9195,991.3286,619.9195" style="stroke:#181818;stroke-width:1;"/><line style="stroke:#181818;stroke-width:1;" x1="190.3907" x2="991.3286" y1="625.9195" y2="625.9195"/><line style="stroke:#181818;stroke-width:1;" x1="529.4964" x2="529.4964" y1="625.9195" y2="635.9195"/><line style="stroke:#181818;stroke-width:1;" x1="529.4964" x2="1009.3286" y1="635.9195" y2="635.9195"/><polygon fill="#181818" points="1005.3286,502.7194,1009.3286,492.7194,1013.3286,502.7194,1009.3286,498.7194" style="stroke:#181818;stroke-width:1;"/><line style="stroke:#181818;stroke-width:1;" x1="1009.3286" x2="1009.3286" y1="308.0002" y2="635.9195"/><line style="stroke:#181818;stroke-width:1;" x1="1009.3286" x2="591.4745" y1="308.0002" y2="308.0002"/><polygon fill="#181818" points="601.4745,304.0002,591.4745,308.0002,601.4745,312.0002,597.4745,308.0002" style="stroke:#181818;stroke-width:1;"/><line style="stroke:#181818;stroke-width:1;" x1="467.5183" x2="27" y1="308.0002" y2="308.0002"/><polygon fill="#181818" points="23,488.7194,27,498.7194,31,488.7194,27,492.7194" style="stroke:#181818;stroke-width:1;"/><line style="stroke:#181818;stroke-width:1;" x1="27" x2="27" y1="308.0002" y2="647.9195"/><line style="stroke:#181818;stroke-width:1;" x1="27" x2="529.4964" y1="647.9195" y2="647.9195"/><line style="stroke:#181818;stroke-width:1;" x1="529.4964" x2="529.4964" y1="647.9195" y2="667.9195"/><polygon fill="#181818" points="525.4964,657.9195,529.4964,667.9195,533.4964,657.9195,529.4964,661.9195" style="stroke:#181818;stroke-width:1;"/><line style="stroke:#181818;stroke-width:1;" x1="529.4964" x2="529.4964" y1="276.0002" y2="296.0002"/><polygon fill="#181818" points="525.4964,286.0002,529.4964,296.0002,533.4964,286.0002,529.4964,290.0002" style="stroke:#181818;stroke-width:1;"/><line style="stroke:#181818;stroke-width:1;" x1="529.4964" x2="529.4964" y1="702.3196" y2="722.3196"/><polygon fill="#181818" points="525.4964,712.3196,529.4964,722.3196,533.4964,712.3196,529.4964,716.3196" style="stroke:#181818;stroke-width:1;"/><!--SRC=[tLDRIyCm57xlhpY-jOo1pvOEH9mCoXHjVH49MPQkSLbIcZClYF_TDAjhwbR1rvsd4xvBpdT8AbgZGA4LC2ePkPhUa9BJ9Q5r3Py1s39eAQwxUAHcCrC6Qq0YL4LUxHaIcCtlyYnsb4BNQzSuFX9ZuRsnscx8GcgsDc6dZpeXq1KLofSpAp_t25mjWnRIMtoo_iyxzAqKaeDd2sS9pFCqZVPsekZXma0J57G1KXYC04kk8Cpky-jEqzrb1x7Zn3sa5xPF7uqEgR_YUG9lbzrXF57y7O_O_2oXAIuDxmSRJ_2Zuf0a8Ec2onFCzIBvSAgXsVytoc0YTdG1_kH_h_PmYqrI2AUNwOENn1gA8cWxzxPtp_usp-nN0sSIjxzJLy7NDm00]--></g></svg>