<svg xmlns="http://www.w3.org/2000/svg" xmlns:xlink="http://www.w3.org/1999/xlink" contentStyleType="text/css" data-diagram-type="ACTIVITY" height="537px" preserveAspectRatio="none" style="width:1110px;height:537px;background:#FFFFFF;" version="1.1" viewBox="0 0 1110 537" width="1110px" zoomAndPan="magnify"><defs/><g><rect fill="none" height="515.1193" style="stroke:#000000;stroke-width:1.5;" width="1088.3329" x="11" y="11"/><path d="M165.7034,11 L165.7034,20.7999 L155.7034,30.7999 L11,30.7999" fill="none" style="stroke:#000000;stroke-width:1.5;"/><text fill="#000000" font-family="sans-serif" font-size="14" lengthAdjust="spacing" textLength="144.7034" x="14" y="25.0059">calc_CFG_num_blocks</text><ellipse cx="553.1664" cy="50.7999" fill="#222222" rx="10" ry="10" style="stroke:#222222;stroke-width:1;"/><rect fill="#F1F1F1" height="34.4001" rx="12.5" ry="12.5" style="stroke:#181818;stroke-width:0.5;" width="183.0452" x="461.6439" y="80.7999"/><text fill="#000000" font-family="sans-serif" font-size="12" lengthAdjust="spacing" textLength="163.0452" x="471.6439" y="101.948">VasmInstr *inp_vasm = INPUT</text><rect fill="#F1F1F1" height="34.4001" rx="12.5" ry="12.5" style="stroke:#181818;stroke-width:0.5;" width="57.0323" x="524.6503" y="135.2"/><text fill="#000000" font-family="sans-serif" font-size="12" lengthAdjust="spacing" textLength="37.0323" x="534.6503" y="156.3481">out = 0</text><polygon fill="#F1F1F1" points="118.2176,233.6001,232.5397,233.6001,244.5397,245.6001,232.5397,257.6001,118.2176,257.6001,106.2176,245.6001,118.2176,233.6001" style="stroke:#181818;stroke-width:0.5;"/><text fill="#000000" font-family="sans-serif" font-size="11" lengthAdjust="spacing" textLength="29.9418" x="179.3786" y="267.8191">TRUE</text><text fill="#000000" font-family="sans-serif" font-size="11" lengthAdjust="spacing" textLength="114.3222" x="118.2176" y="249.2191">inp_vasm is head of list</text><rect fill="#555555" height="6" rx="2.5" ry="2.5" style="stroke:#555555;stroke-width:1;" width="272.7573" x="39" y="289.3191"/><rect fill="#F1F1F1" height="34.4001" rx="12.5" ry="12.5" style="stroke:#181818;stroke-width:0.5;" width="50.6962" x="51" y="315.3191"/><text fill="#000000" font-family="sans-serif" font-size="12" lengthAdjust="spacing" textLength="30.6962" x="61" y="336.4671">out++</text><rect fill="#F1F1F1" height="34.4001" rx="12.5" ry="12.5" style="stroke:#181818;stroke-width:0.5;" width="170.0611" x="129.6962" y="315.3191"/><text fill="#000000" font-family="sans-serif" font-size="12" lengthAdjust="spacing" textLength="150.0611" x="139.6962" y="336.4671">inp_vasm = inp_vasm-&gt;next</text><rect fill="#555555" height="6" rx="2.5" ry="2.5" style="stroke:#555555;stroke-width:1;" width="272.7573" x="39" y="369.7192"/><polygon fill="#F1F1F1" points="398.0654,233.6001,518.2065,233.6001,530.2065,245.6001,518.2065,257.6001,398.0654,257.6001,386.0654,245.6001,398.0654,233.6001" style="stroke:#181818;stroke-width:0.5;"/><text fill="#000000" font-family="sans-serif" font-size="11" lengthAdjust="spacing" textLength="29.9418" x="462.1359" y="267.8191">TRUE</text><text fill="#000000" font-family="sans-serif" font-size="11" lengthAdjust="spacing" textLength="120.1411" x="398.0654" y="249.2191">inp_vasm-&gt;type == label</text><rect fill="#555555" height="6" rx="2.5" ry="2.5" style="stroke:#555555;stroke-width:1;" width="274.7573" x="321.7573" y="289.3191"/><rect fill="#F1F1F1" height="34.4001" rx="12.5" ry="12.5" style="stroke:#181818;stroke-width:0.5;" width="50.6962" x="333.7573" y="315.3191"/><text fill="#000000" font-family="sans-serif" font-size="12" lengthAdjust="spacing" textLength="30.6962" x="343.7573" y="336.4671">out++</text><rect fill="#F1F1F1" height="34.4001" rx="12.5" ry="12.5" style="stroke:#181818;stroke-width:0.5;" width="170.0611" x="412.4535" y="315.3191"/><text fill="#000000" font-family="sans-serif" font-size="12" lengthAdjust="spacing" textLength="150.0611" x="422.4535" y="336.4671">inp_vasm = inp_vasm-&gt;next</text><rect fill="#555555" height="6" rx="2.5" ry="2.5" style="stroke:#555555;stroke-width:1;" width="274.7573" x="321.7573" y="369.7192"/><polygon fill="#F1F1F1" points="700.9386,233.6001,808.8478,233.6001,820.8478,245.6001,808.8478,257.6001,700.9386,257.6001,688.9386,245.6001,700.9386,233.6001" style="stroke:#181818;stroke-width:0.5;"/><text fill="#000000" font-family="sans-serif" font-size="11" lengthAdjust="spacing" textLength="29.9418" x="758.8932" y="267.8191">TRUE</text><text fill="#000000" font-family="sans-serif" font-size="11" lengthAdjust="spacing" textLength="107.9092" x="700.9386" y="249.2191">inp_vasm-&gt;type == jle</text><text fill="#000000" font-family="sans-serif" font-size="11" lengthAdjust="spacing" textLength="34.8477" x="820.8478" y="242.6192">FALSE</text><rect fill="#555555" height="6" rx="2.5" ry="2.5" style="stroke:#555555;stroke-width:1;" width="274.7573" x="616.5146" y="289.3191"/><rect fill="#F1F1F1" height="34.4001" rx="12.5" ry="12.5" style="stroke:#181818;stroke-width:0.5;" width="50.6962" x="630.5146" y="315.3191"/><text fill="#000000" font-family="sans-serif" font-size="12" lengthAdjust="spacing" textLength="30.6962" x="640.5146" y="336.4671">out++</text><rect fill="#F1F1F1" height="34.4001" rx="12.5" ry="12.5" style="stroke:#181818;stroke-width:0.5;" width="170.0611" x="709.2108" y="315.3191"/><text fill="#000000" font-family="sans-serif" font-size="12" lengthAdjust="spacing" textLength="150.0611" x="719.2108" y="336.4671">inp_vasm = inp_vasm-&gt;next</text><rect fill="#555555" height="6" rx="2.5" ry="2.5" style="stroke:#555555;stroke-width:1;" width="274.7573" x="616.5146" y="369.7192"/><rect fill="#F1F1F1" height="34.4001" rx="12.5" ry="12.5" style="stroke:#181818;stroke-width:0.5;" width="170.0611" x="901.2718" y="311.7191"/><text fill="#000000" font-family="sans-serif" font-size="12" lengthAdjust="spacing" textLength="150.0611" x="911.2718" y="332.8672">inp_vasm = inp_vasm-&gt;next</text><polygon fill="#F1F1F1" points="507.7753,189.6001,598.5576,189.6001,610.5576,201.6001,598.5576,213.6001,507.7753,213.6001,495.7753,201.6001,507.7753,189.6001" style="stroke:#181818;stroke-width:0.5;"/><text fill="#000000" font-family="sans-serif" font-size="11" lengthAdjust="spacing" textLength="90.7823" x="507.7753" y="205.2191">inp_vasm != NULL</text><rect fill="#F1F1F1" height="34.4001" rx="12.5" ry="12.5" style="stroke:#181818;stroke-width:0.5;" width="89.3485" x="508.4922" y="437.7192"/><text fill="#000000" font-family="sans-serif" font-size="12" lengthAdjust="spacing" textLength="69.3485" x="518.4922" y="458.8672">OUTPUT out</text><ellipse cx="553.1664" cy="503.1193" fill="none" rx="11" ry="11" style="stroke:#222222;stroke-width:1;"/><ellipse cx="553.1664" cy="503.1193" fill="#222222" rx="6" ry="6" style="stroke:#222222;stroke-width:1;"/><line style="stroke:#181818;stroke-width:1;" x1="553.1664" x2="553.1664" y1="60.7999" y2="80.7999"/><polygon fill="#181818" points="549.1664,70.7999,553.1664,80.7999,557.1664,70.7999,553.1664,74.7999" style="stroke:#181818;stroke-width:1;"/><line style="stroke:#181818;stroke-width:1;" x1="553.1664" x2="553.1664" y1="115.2" y2="135.2"/><polygon fill="#181818" points="549.1664,125.2,553.1664,135.2,557.1664,125.2,553.1664,129.2" style="stroke:#181818;stroke-width:1;"/><line style="stroke:#181818;stroke-width:1;" x1="76.3481" x2="76.3481" y1="295.3191" y2="315.3191"/><polygon fill="#181818" points="72.3481,305.3191,76.3481,315.3191,80.3481,305.3191,76.3481,309.3191" style="stroke:#181818;stroke-width:1;"/><line style="stroke:#181818;stroke-width:1;" x1="214.7268" x2="214.7268" y1="295.3191" y2="315.3191"/><polygon fill="#181818" points="210.7268,305.3191,214.7268,315.3191,218.7268,305.3191,214.7268,309.3191" style="stroke:#181818;stroke-width:1;"/><line style="stroke:#181818;stroke-width:1;" x1="76.3481" x2="76.3481" y1="349.7192" y2="369.7192"/><polygon fill="#181818" points="72.3481,359.7192,76.3481,369.7192,80.3481,359.7192,76.3481,363.7192" style="stroke:#181818;stroke-width:1;"/><line style="stroke:#181818;stroke-width:1;" x1="214.7268" x2="214.7268" y1="349.7192" y2="369.7192"/><polygon fill="#181818" points="210.7268,359.7192,214.7268,369.7192,218.7268,359.7192,214.7268,363.7192" style="stroke:#181818;stroke-width:1;"/><line style="stroke:#181818;stroke-width:1;" x1="359.1054" x2="359.1054" y1="295.3191" y2="315.3191"/><polygon fill="#181818" points="355.1054,305.3191,359.1054,315.3191,363.1054,305.3191,359.1054,309.3191" style="stroke:#181818;stroke-width:1;"/><line style="stroke:#181818;stroke-width:1;" x1="497.484" x2="497.484" y1="295.3191" y2="315.3191"/><polygon fill="#181818" points="493.484,305.3191,497.484,315.3191,501.484,305.3191,497.484,309.3191" style="stroke:#181818;stroke-width:1;"/><line style="stroke:#181818;stroke-width:1;" x1="359.1054" x2="359.1054" y1="349.7192" y2="369.7192"/><polygon fill="#181818" points="355.1054,359.7192,359.1054,369.7192,363.1054,359.7192,359.1054,363.7192" style="stroke:#181818;stroke-width:1;"/><line style="stroke:#181818;stroke-width:1;" x1="497.484" x2="497.484" y1="349.7192" y2="369.7192"/><polygon fill="#181818" points="493.484,359.7192,497.484,369.7192,501.484,359.7192,497.484,363.7192" style="stroke:#181818;stroke-width:1;"/><line style="stroke:#181818;stroke-width:1;" x1="655.8627" x2="655.8627" y1="295.3191" y2="315.3191"/><polygon fill="#181818" points="651.8627,305.3191,655.8627,315.3191,659.8627,305.3191,655.8627,309.3191" style="stroke:#181818;stroke-width:1;"/><line style="stroke:#181818;stroke-width:1;" x1="794.2413" x2="794.2413" y1="295.3191" y2="315.3191"/><polygon fill="#181818" points="790.2413,305.3191,794.2413,315.3191,798.2413,305.3191,794.2413,309.3191" style="stroke:#181818;stroke-width:1;"/><line style="stroke:#181818;stroke-width:1;" x1="655.8627" x2="655.8627" y1="349.7192" y2="369.7192"/><polygon fill="#181818" points="651.8627,359.7192,655.8627,369.7192,659.8627,359.7192,655.8627,363.7192" style="stroke:#181818;stroke-width:1;"/><line style="stroke:#181818;stroke-width:1;" x1="794.2413" x2="794.2413" y1="349.7192" y2="369.7192"/><polygon fill="#181818" points="790.2413,359.7192,794.2413,369.7192,798.2413,359.7192,794.2413,363.7192" style="stroke:#181818;stroke-width:1;"/><line style="stroke:#181818;stroke-width:1;" x1="175.3786" x2="175.3786" y1="257.6001" y2="289.3191"/><polygon fill="#181818" points="171.3786,279.3191,175.3786,289.3191,179.3786,279.3191,175.3786,283.3191" style="stroke:#181818;stroke-width:1;"/><line style="stroke:#181818;stroke-width:1;" x1="175.3786" x2="175.3786" y1="375.7192" y2="395.7192"/><polygon fill="#181818" points="171.3786,385.7192,175.3786,395.7192,179.3786,385.7192,175.3786,389.7192" style="stroke:#181818;stroke-width:1;"/><line style="stroke:#181818;stroke-width:1;" x1="458.1359" x2="458.1359" y1="257.6001" y2="289.3191"/><polygon fill="#181818" points="454.1359,279.3191,458.1359,289.3191,462.1359,279.3191,458.1359,283.3191" style="stroke:#181818;stroke-width:1;"/><line style="stroke:#181818;stroke-width:1;" x1="458.1359" x2="458.1359" y1="375.7192" y2="395.7192"/><polygon fill="#181818" points="454.1359,385.7192,458.1359,395.7192,462.1359,385.7192,458.1359,389.7192" style="stroke:#181818;stroke-width:1;"/><line style="stroke:#181818;stroke-width:1;" x1="754.8932" x2="754.8932" y1="257.6001" y2="289.3191"/><polygon fill="#181818" points="750.8932,279.3191,754.8932,289.3191,758.8932,279.3191,754.8932,283.3191" style="stroke:#181818;stroke-width:1;"/><line style="stroke:#181818;stroke-width:1;" x1="754.8932" x2="754.8932" y1="375.7192" y2="395.7192"/><polygon fill="#181818" points="750.8932,385.7192,754.8932,395.7192,758.8932,385.7192,754.8932,389.7192" style="stroke:#181818;stroke-width:1;"/><line style="stroke:#181818;stroke-width:1;" x1="244.5397" x2="386.0654" y1="245.6001" y2="245.6001"/><polygon fill="#181818" points="376.0654,241.6001,386.0654,245.6001,376.0654,249.6001,380.0654,245.6001" style="stroke:#181818;stroke-width:1;"/><line style="stroke:#181818;stroke-width:1;" x1="530.2065" x2="688.9386" y1="245.6001" y2="245.6001"/><polygon fill="#181818" points="678.9386,241.6001,688.9386,245.6001,678.9386,249.6001,682.9386,245.6001" style="stroke:#181818;stroke-width:1;"/><line style="stroke:#181818;stroke-width:1;" x1="553.1664" x2="553.1664" y1="213.6001" y2="218.6001"/><line style="stroke:#181818;stroke-width:1;" x1="553.1664" x2="175.3786" y1="218.6001" y2="218.6001"/><line style="stroke:#181818;stroke-width:1;" x1="175.3786" x2="175.3786" y1="218.6001" y2="233.6001"/><polygon fill="#181818" points="171.3786,223.6001,175.3786,233.6001,179.3786,223.6001,175.3786,227.6001" style="stroke:#181818;stroke-width:1;"/><line style="stroke:#181818;stroke-width:1;" x1="820.8478" x2="986.3024" y1="245.6001" y2="245.6001"/><line style="stroke:#181818;stroke-width:1;" x1="986.3024" x2="986.3024" y1="245.6001" y2="311.7191"/><polygon fill="#181818" points="982.3024,301.7191,986.3024,311.7191,990.3024,301.7191,986.3024,305.7191" style="stroke:#181818;stroke-width:1;"/><line style="stroke:#181818;stroke-width:1;" x1="986.3024" x2="986.3024" y1="346.1192" y2="395.7192"/><polygon fill="#181818" points="982.3024,385.7192,986.3024,395.7192,990.3024,385.7192,986.3024,389.7192" style="stroke:#181818;stroke-width:1;"/><line style="stroke:#181818;stroke-width:1;" x1="175.3786" x2="986.3024" y1="395.7192" y2="395.7192"/><line style="stroke:#181818;stroke-width:1;" x1="553.1664" x2="553.1664" y1="395.7192" y2="405.7192"/><line style="stroke:#181818;stroke-width:1;" x1="553.1664" x2="1083.3329" y1="405.7192" y2="405.7192"/><polygon fill="#181818" points="1079.3329,326.9192,1083.3329,316.9192,1087.3329,326.9192,1083.3329,322.9192" style="stroke:#181818;stroke-width:1;"/><line style="stroke:#181818;stroke-width:1;" x1="1083.3329" x2="1083.3329" y1="201.6001" y2="405.7192"/><line style="stroke:#181818;stroke-width:1;" x1="1083.3329" x2="610.5576" y1="201.6001" y2="201.6001"/><polygon fill="#181818" points="620.5576,197.6001,610.5576,201.6001,620.5576,205.6001,616.5576,201.6001" style="stroke:#181818;stroke-width:1;"/><line style="stroke:#181818;stroke-width:1;" x1="495.7753" x2="27" y1="201.6001" y2="201.6001"/><polygon fill="#181818" points="23,312.9192,27,322.9192,31,312.9192,27,316.9192" style="stroke:#181818;stroke-width:1;"/><line style="stroke:#181818;stroke-width:1;" x1="27" x2="27" y1="201.6001" y2="417.7192"/><line style="stroke:#181818;stroke-width:1;" x1="27" x2="553.1664" y1="417.7192" y2="417.7192"/><line style="stroke:#181818;stroke-width:1;" x1="553.1664" x2="553.1664" y1="417.7192" y2="437.7192"/><polygon fill="#181818" points="549.1664,427.7192,553.1664,437.7192,557.1664,427.7192,553.1664,431.7192" style="stroke:#181818;stroke-width:1;"/><line style="stroke:#181818;stroke-width:1;" x1="553.1664" x2="553.1664" y1="169.6001" y2="189.6001"/><polygon fill="#181818" points="549.1664,179.6001,553.1664,189.6001,557.1664,179.6001,553.1664,183.6001" style="stroke:#181818;stroke-width:1;"/><line style="stroke:#181818;stroke-width:1;" x1="553.1664" x2="553.1664" y1="472.1193" y2="492.1193"/><polygon fill="#181818" points="549.1664,482.1193,553.1664,492.1193,557.1664,482.1193,553.1664,486.1193" style="stroke:#181818;stroke-width:1;"/><!--SRC=[rL9DIyD04BtdLpnlgQNWsP22Y9L2gAA9rx1D9sRiTZTaftuW_dUtIJ-YzU1HvpJpvksRj_1grGWBMuD2wIA_d5pdPhtAvzeMIuVt0BwSU5BRdJyejveQ9mrEsTJvinyHOpgxpTAeOzYrUEIicrugreHmJps9CSkIPD0kDyLbRyiE5Qa5R0dDJWQGYWp2z2wxEhpOL6cRvHTWTtauZ8w8K8-ApJ6zvt_NZiQ6NkK72JABFKZQKT_sQ2nlDI6EeTMSzBzp_QJf3tj6EBb8xh-v-esY5-8os7Pj3hjytcIf3oly5w9jk6qTV7m2]--></g></svg>