<svg xmlns="http://www.w3.org/2000/svg" xmlns:xlink="http://www.w3.org/1999/xlink" contentStyleType="text/css" data-diagram-type="ACTIVITY" height="1061px" preserveAspectRatio="none" style="width:946px;height:1061px;background:#FFFFFF;" version="1.1" viewBox="0 0 946 1061" width="946px" zoomAndPan="magnify"><defs/><g><rect fill="none" height="1039.501" style="stroke:#000000;stroke-width:1.5;" width="924.9212" x="11" y="11"/><path d="M242.7591,11 L242.7591,20.7999 L232.7591,30.7999 L11,30.7999" fill="none" style="stroke:#000000;stroke-width:1.5;"/><text fill="#000000" font-family="sans-serif" font-size="14" lengthAdjust="spacing" textLength="221.7591" x="14" y="25.0059">calc_SSA_dominance_frontier_sets</text><ellipse cx="482.4606" cy="50.7999" fill="#222222" rx="10" ry="10" style="stroke:#222222;stroke-width:1;"/><rect fill="#555555" height="6" rx="2.5" ry="2.5" style="stroke:#555555;stroke-width:1;" width="904.9212" x="21" y="80.7999"/><rect fill="#F1F1F1" height="34.4001" rx="12.5" ry="12.5" style="stroke:#181818;stroke-width:0.5;" width="257.7457" x="33" y="106.7999"/><text fill="#000000" font-family="sans-serif" font-size="12" lengthAdjust="spacing" textLength="237.7457" x="43" y="127.948">CFGNode *t_inp_post_order_CFG &lt;- INPUT</text><rect fill="#F1F1F1" height="34.4001" rx="12.5" ry="12.5" style="stroke:#181818;stroke-width:0.5;" width="198.4053" x="318.7457" y="106.7999"/><text fill="#000000" font-family="sans-serif" font-size="12" lengthAdjust="spacing" textLength="178.4053" x="328.7457" y="127.948">PredLL *t_inp_pred_arr &lt;- INPUT</text><rect fill="#F1F1F1" height="34.4001" rx="12.5" ry="12.5" style="stroke:#181818;stroke-width:0.5;" width="196.3893" x="545.1509" y="106.7999"/><text fill="#000000" font-family="sans-serif" font-size="12" lengthAdjust="spacing" textLength="176.3893" x="555.1509" y="127.948">size_t *t_inp_doms_arr &lt;- INPUT</text><rect fill="#F1F1F1" height="34.4001" rx="12.5" ry="12.5" style="stroke:#181818;stroke-width:0.5;" width="162.381" x="751.5402" y="106.7999"/><text fill="#000000" font-family="sans-serif" font-size="12" lengthAdjust="spacing" textLength="142.381" x="761.5402" y="127.948">size_t t_inp_size &lt;- INPUT</text><rect fill="#555555" height="6" rx="2.5" ry="2.5" style="stroke:#555555;stroke-width:1;" width="904.9212" x="21" y="161.2"/><rect fill="#555555" height="6" rx="2.5" ry="2.5" style="stroke:#555555;stroke-width:1;" width="486.1465" x="239.3874" y="187.2"/><rect fill="#F1F1F1" height="34.4001" rx="12.5" ry="12.5" style="stroke:#181818;stroke-width:0.5;" width="95.0366" x="253.3874" y="213.2"/><text fill="#000000" font-family="sans-serif" font-size="12" lengthAdjust="spacing" textLength="75.0366" x="263.3874" y="234.3481">size_t t_c &lt;- 0</text><rect fill="#F1F1F1" height="34.4001" rx="12.5" ry="12.5" style="stroke:#181818;stroke-width:0.5;" width="101.0366" x="376.4239" y="213.2"/><text fill="#000000" font-family="sans-serif" font-size="12" lengthAdjust="spacing" textLength="81.0366" x="386.4239" y="234.3481">size_t t_sc &lt;- 0</text><rect fill="#F1F1F1" height="34.4001" rx="12.5" ry="12.5" style="stroke:#181818;stroke-width:0.5;" width="206.0733" x="505.4605" y="213.2"/><text fill="#000000" font-family="sans-serif" font-size="12" lengthAdjust="spacing" textLength="186.0733" x="515.4605" y="234.3481">DominanceFrontier t_df[t_inp_size]</text><rect fill="#555555" height="6" rx="2.5" ry="2.5" style="stroke:#555555;stroke-width:1;" width="486.1465" x="239.3874" y="267.6001"/><rect fill="#F1F1F1" height="48.8002" rx="12.5" ry="12.5" style="stroke:#181818;stroke-width:0.5;" width="261.1057" x="351.9078" y="337.6001"/><text fill="#000000" font-family="sans-serif" font-size="12" lengthAdjust="spacing" textLength="241.1057" x="361.9078" y="358.7482">size_t t_num_preds &lt;- calc_SSA_num_preds</text><text fill="#000000" font-family="sans-serif" font-size="12" lengthAdjust="spacing" textLength="108.7088" x="361.9078" y="373.1483">(t_inp_pred_arr, t_c)</text><rect fill="#F1F1F1" height="48.8002" rx="12.5" ry="12.5" style="stroke:#181818;stroke-width:0.5;" width="265.1137" x="349.9037" y="499.0003"/><text fill="#000000" font-family="sans-serif" font-size="12" lengthAdjust="spacing" textLength="245.1137" x="359.9037" y="520.1484">size_t t_runner &lt;- calc_SSA_nth_predecessor</text><text fill="#000000" font-family="sans-serif" font-size="12" lengthAdjust="spacing" textLength="137.389" x="359.9037" y="534.5485">(t_inp_pred_arr[t_c], t_sc)</text><rect fill="#F1F1F1" height="48.8002" rx="12.5" ry="12.5" style="stroke:#181818;stroke-width:0.5;" width="241.1376" x="361.8918" y="611.8005"/><text fill="#000000" font-family="sans-serif" font-size="12" lengthAdjust="spacing" textLength="221.1376" x="371.8918" y="632.9486">t_df[t_runner] &lt;- calc_SSA_append_to_df</text><text fill="#000000" font-family="sans-serif" font-size="12" lengthAdjust="spacing" textLength="102.0488" x="371.8918" y="647.3487">(t_df[t_runner], t_c)</text><rect fill="#F1F1F1" height="34.4001" rx="12.5" ry="12.5" style="stroke:#181818;stroke-width:0.5;" width="195.7532" x="384.584" y="688.9006"/><text fill="#000000" font-family="sans-serif" font-size="12" lengthAdjust="spacing" textLength="175.7532" x="394.584" y="710.0487">t_runner &lt;- t_inp_doms[t_runner]</text><polygon fill="#F1F1F1" points="405.5767,567.8005,559.3445,567.8005,571.3445,579.8005,559.3445,591.8005,405.5767,591.8005,393.5767,579.8005,405.5767,567.8005" style="stroke:#181818;stroke-width:0.5;"/><text fill="#000000" font-family="sans-serif" font-size="11" lengthAdjust="spacing" textLength="153.7679" x="405.5767" y="583.4195">t_runner != t_inp_doms_arr[t_c]</text><rect fill="#F1F1F1" height="34.4001" rx="12.5" ry="12.5" style="stroke:#181818;stroke-width:0.5;" width="102.0446" x="431.4383" y="765.3007"/><text fill="#000000" font-family="sans-serif" font-size="12" lengthAdjust="spacing" textLength="82.0446" x="441.4383" y="786.4488">t_sc &lt;- t_sc + 1</text><polygon fill="#F1F1F1" points="434.006,455.0003,530.9152,455.0003,542.9152,467.0003,530.9152,479.0003,434.006,479.0003,422.006,467.0003,434.006,455.0003" style="stroke:#181818;stroke-width:0.5;"/><text fill="#000000" font-family="sans-serif" font-size="11" lengthAdjust="spacing" textLength="96.9093" x="434.006" y="470.6193">t_sc &lt; t_num_preds</text><polygon fill="#F1F1F1" points="441.0349,406.4003,523.8863,406.4003,535.8863,418.4003,523.8863,430.4003,441.0349,430.4003,429.0349,418.4003,441.0349,406.4003" style="stroke:#181818;stroke-width:0.5;"/><text fill="#000000" font-family="sans-serif" font-size="11" lengthAdjust="spacing" textLength="29.9418" x="486.4606" y="440.6193">TRUE</text><text fill="#000000" font-family="sans-serif" font-size="11" lengthAdjust="spacing" textLength="82.8514" x="441.0349" y="422.0193">t_num_preds &gt; 1</text><polygon fill="#F1F1F1" points="482.4606,841.7008,494.4606,853.7008,482.4606,865.7008,470.4606,853.7008,482.4606,841.7008" style="stroke:#181818;stroke-width:0.5;"/><rect fill="#F1F1F1" height="34.4001" rx="12.5" ry="12.5" style="stroke:#181818;stroke-width:0.5;" width="90.0445" x="437.4383" y="885.7008"/><text fill="#000000" font-family="sans-serif" font-size="12" lengthAdjust="spacing" textLength="70.0445" x="447.4383" y="906.8489">t_c &lt;- t_c + 1</text><polygon fill="#F1F1F1" points="444.0929,293.6001,520.8283,293.6001,532.8283,305.6001,520.8283,317.6001,444.0929,317.6001,432.0929,305.6001,444.0929,293.6001" style="stroke:#181818;stroke-width:0.5;"/><text fill="#000000" font-family="sans-serif" font-size="11" lengthAdjust="spacing" textLength="76.7354" x="444.0929" y="309.2191">t_c &lt; t_inp_size</text><rect fill="#F1F1F1" height="34.4001" rx="12.5" ry="12.5" style="stroke:#181818;stroke-width:0.5;" width="92.6845" x="436.1183" y="962.1009"/><text fill="#000000" font-family="sans-serif" font-size="12" lengthAdjust="spacing" textLength="72.6845" x="446.1183" y="983.249">OUTPUT t_df</text><ellipse cx="482.4606" cy="1027.501" fill="none" rx="11" ry="11" style="stroke:#222222;stroke-width:1;"/><ellipse cx="482.4606" cy="1027.501" fill="#222222" rx="6" ry="6" style="stroke:#222222;stroke-width:1;"/><line style="stroke:#181818;stroke-width:1;" x1="161.8728" x2="161.8728" y1="86.7999" y2="106.7999"/><polygon fill="#181818" points="157.8728,96.7999,161.8728,106.7999,165.8728,96.7999,161.8728,100.7999" style="stroke:#181818;stroke-width:1;"/><line style="stroke:#181818;stroke-width:1;" x1="417.9483" x2="417.9483" y1="86.7999" y2="106.7999"/><polygon fill="#181818" points="413.9483,96.7999,417.9483,106.7999,421.9483,96.7999,417.9483,100.7999" style="stroke:#181818;stroke-width:1;"/><line style="stroke:#181818;stroke-width:1;" x1="643.3455" x2="643.3455" y1="86.7999" y2="106.7999"/><polygon fill="#181818" points="639.3455,96.7999,643.3455,106.7999,647.3455,96.7999,643.3455,100.7999" style="stroke:#181818;stroke-width:1;"/><line style="stroke:#181818;stroke-width:1;" x1="832.7307" x2="832.7307" y1="86.7999" y2="106.7999"/><polygon fill="#181818" points="828.7307,96.7999,832.7307,106.7999,836.7307,96.7999,832.7307,100.7999" style="stroke:#181818;stroke-width:1;"/><line style="stroke:#181818;stroke-width:1;" x1="161.8728" x2="161.8728" y1="141.2" y2="161.2"/><polygon fill="#181818" points="157.8728,151.2,161.8728,161.2,165.8728,151.2,161.8728,155.2" style="stroke:#181818;stroke-width:1;"/><line style="stroke:#181818;stroke-width:1;" x1="417.9483" x2="417.9483" y1="141.2" y2="161.2"/><polygon fill="#181818" points="413.9483,151.2,417.9483,161.2,421.9483,151.2,417.9483,155.2" style="stroke:#181818;stroke-width:1;"/><line style="stroke:#181818;stroke-width:1;" x1="643.3455" x2="643.3455" y1="141.2" y2="161.2"/><polygon fill="#181818" points="639.3455,151.2,643.3455,161.2,647.3455,151.2,643.3455,155.2" style="stroke:#181818;stroke-width:1;"/><line style="stroke:#181818;stroke-width:1;" x1="832.7307" x2="832.7307" y1="141.2" y2="161.2"/><polygon fill="#181818" points="828.7307,151.2,832.7307,161.2,836.7307,151.2,832.7307,155.2" style="stroke:#181818;stroke-width:1;"/><line style="stroke:#181818;stroke-width:1;" x1="482.4606" x2="482.4606" y1="60.7999" y2="80.7999"/><polygon fill="#181818" points="478.4606,70.7999,482.4606,80.7999,486.4606,70.7999,482.4606,74.7999" style="stroke:#181818;stroke-width:1;"/><line style="stroke:#181818;stroke-width:1;" x1="300.9056" x2="300.9056" y1="193.2" y2="213.2"/><polygon fill="#181818" points="296.9056,203.2,300.9056,213.2,304.9056,203.2,300.9056,207.2" style="stroke:#181818;stroke-width:1;"/><line style="stroke:#181818;stroke-width:1;" x1="426.9422" x2="426.9422" y1="193.2" y2="213.2"/><polygon fill="#181818" points="422.9422,203.2,426.9422,213.2,430.9422,203.2,426.9422,207.2" style="stroke:#181818;stroke-width:1;"/><line style="stroke:#181818;stroke-width:1;" x1="608.4972" x2="608.4972" y1="193.2" y2="213.2"/><polygon fill="#181818" points="604.4972,203.2,608.4972,213.2,612.4972,203.2,608.4972,207.2" style="stroke:#181818;stroke-width:1;"/><line style="stroke:#181818;stroke-width:1;" x1="300.9056" x2="300.9056" y1="247.6001" y2="267.6001"/><polygon fill="#181818" points="296.9056,257.6001,300.9056,267.6001,304.9056,257.6001,300.9056,261.6001" style="stroke:#181818;stroke-width:1;"/><line style="stroke:#181818;stroke-width:1;" x1="426.9422" x2="426.9422" y1="247.6001" y2="267.6001"/><polygon fill="#181818" points="422.9422,257.6001,426.9422,267.6001,430.9422,257.6001,426.9422,261.6001" style="stroke:#181818;stroke-width:1;"/><line style="stroke:#181818;stroke-width:1;" x1="608.4972" x2="608.4972" y1="247.6001" y2="267.6001"/><polygon fill="#181818" points="604.4972,257.6001,608.4972,267.6001,612.4972,257.6001,608.4972,261.6001" style="stroke:#181818;stroke-width:1;"/><line style="stroke:#181818;stroke-width:1;" x1="482.4606" x2="482.4606" y1="167.2" y2="187.2"/><polygon fill="#181818" points="478.4606,177.2,482.4606,187.2,486.4606,177.2,482.4606,181.2" style="stroke:#181818;stroke-width:1;"/><line style="stroke:#181818;stroke-width:1;" x1="482.4606" x2="482.4606" y1="660.6007" y2="688.9006"/><polygon fill="#181818" points="478.4606,678.9006,482.4606,688.9006,486.4606,678.9006,482.4606,682.9006" style="stroke:#181818;stroke-width:1;"/><line style="stroke:#181818;stroke-width:1;" x1="482.4606" x2="482.4606" y1="591.8005" y2="611.8005"/><polygon fill="#181818" points="478.4606,601.8005,482.4606,611.8005,486.4606,601.8005,482.4606,605.8005" style="stroke:#181818;stroke-width:1;"/><line style="stroke:#181818;stroke-width:1;" x1="482.4606" x2="482.4606" y1="723.3007" y2="733.3007"/><line style="stroke:#181818;stroke-width:1;" x1="482.4606" x2="615.0294" y1="733.3007" y2="733.3007"/><polygon fill="#181818" points="611.0294,668.9006,615.0294,658.9006,619.0294,668.9006,615.0294,664.9006" style="stroke:#181818;stroke-width:1;"/><line style="stroke:#181818;stroke-width:1;" x1="615.0294" x2="615.0294" y1="579.8005" y2="733.3007"/><line style="stroke:#181818;stroke-width:1;" x1="615.0294" x2="571.3445" y1="579.8005" y2="579.8005"/><polygon fill="#181818" points="581.3445,575.8005,571.3445,579.8005,581.3445,583.8005,577.3445,579.8005" style="stroke:#181818;stroke-width:1;"/><line style="stroke:#181818;stroke-width:1;" x1="393.5767" x2="349.8918" y1="579.8005" y2="579.8005"/><polygon fill="#181818" points="345.8918,654.9006,349.8918,664.9006,353.8918,654.9006,349.8918,658.9006" style="stroke:#181818;stroke-width:1;"/><line style="stroke:#181818;stroke-width:1;" x1="349.8918" x2="349.8918" y1="579.8005" y2="745.3007"/><line style="stroke:#181818;stroke-width:1;" x1="349.8918" x2="482.4606" y1="745.3007" y2="745.3007"/><line style="stroke:#181818;stroke-width:1;" x1="482.4606" x2="482.4606" y1="745.3007" y2="765.3007"/><polygon fill="#181818" points="478.4606,755.3007,482.4606,765.3007,486.4606,755.3007,482.4606,759.3007" style="stroke:#181818;stroke-width:1;"/><line style="stroke:#181818;stroke-width:1;" x1="482.4606" x2="482.4606" y1="547.8005" y2="567.8005"/><polygon fill="#181818" points="478.4606,557.8005,482.4606,567.8005,486.4606,557.8005,482.4606,561.8005" style="stroke:#181818;stroke-width:1;"/><line style="stroke:#181818;stroke-width:1;" x1="482.4606" x2="482.4606" y1="479.0003" y2="499.0003"/><polygon fill="#181818" points="478.4606,489.0003,482.4606,499.0003,486.4606,489.0003,482.4606,493.0003" style="stroke:#181818;stroke-width:1;"/><line style="stroke:#181818;stroke-width:1;" x1="482.4606" x2="482.4606" y1="799.7008" y2="809.7008"/><line style="stroke:#181818;stroke-width:1;" x1="482.4606" x2="627.0294" y1="809.7008" y2="809.7008"/><polygon fill="#181818" points="623.0294,649.7006,627.0294,639.7006,631.0294,649.7006,627.0294,645.7006" style="stroke:#181818;stroke-width:1;"/><line style="stroke:#181818;stroke-width:1;" x1="627.0294" x2="627.0294" y1="467.0003" y2="809.7008"/><line style="stroke:#181818;stroke-width:1;" x1="627.0294" x2="542.9152" y1="467.0003" y2="467.0003"/><polygon fill="#181818" points="552.9152,463.0003,542.9152,467.0003,552.9152,471.0003,548.9152,467.0003" style="stroke:#181818;stroke-width:1;"/><line style="stroke:#181818;stroke-width:1;" x1="422.006" x2="325.8918" y1="467.0003" y2="467.0003"/><polygon fill="#181818" points="321.8918,635.7006,325.8918,645.7006,329.8918,635.7006,325.8918,639.7006" style="stroke:#181818;stroke-width:1;"/><line style="stroke:#181818;stroke-width:1;" x1="325.8918" x2="325.8918" y1="467.0003" y2="821.7008"/><line style="stroke:#181818;stroke-width:1;" x1="325.8918" x2="482.4606" y1="821.7008" y2="821.7008"/><line style="stroke:#181818;stroke-width:1;" x1="482.4606" x2="482.4606" y1="821.7008" y2="841.7008"/><polygon fill="#181818" points="478.4606,831.7008,482.4606,841.7008,486.4606,831.7008,482.4606,835.7008" style="stroke:#181818;stroke-width:1;"/><line style="stroke:#181818;stroke-width:1;" x1="482.4606" x2="482.4606" y1="430.4003" y2="455.0003"/><polygon fill="#181818" points="478.4606,445.0003,482.4606,455.0003,486.4606,445.0003,482.4606,449.0003" style="stroke:#181818;stroke-width:1;"/><line style="stroke:#181818;stroke-width:1;" x1="535.8863" x2="637.0294" y1="418.4003" y2="418.4003"/><polygon fill="#181818" points="633.0294,629.7006,637.0294,639.7006,641.0294,629.7006,637.0294,633.7006" style="stroke:#181818;stroke-width:1;"/><line style="stroke:#181818;stroke-width:1;" x1="637.0294" x2="637.0294" y1="418.4003" y2="853.7008"/><line style="stroke:#181818;stroke-width:1;" x1="637.0294" x2="494.4606" y1="853.7008" y2="853.7008"/><polygon fill="#181818" points="504.4606,849.7008,494.4606,853.7008,504.4606,857.7008,500.4606,853.7008" style="stroke:#181818;stroke-width:1;"/><line style="stroke:#181818;stroke-width:1;" x1="482.4606" x2="482.4606" y1="386.4003" y2="406.4003"/><polygon fill="#181818" points="478.4606,396.4003,482.4606,406.4003,486.4606,396.4003,482.4606,400.4003" style="stroke:#181818;stroke-width:1;"/><line style="stroke:#181818;stroke-width:1;" x1="482.4606" x2="482.4606" y1="865.7008" y2="885.7008"/><polygon fill="#181818" points="478.4606,875.7008,482.4606,885.7008,486.4606,875.7008,482.4606,879.7008" style="stroke:#181818;stroke-width:1;"/><line style="stroke:#181818;stroke-width:1;" x1="482.4606" x2="482.4606" y1="317.6001" y2="337.6001"/><polygon fill="#181818" points="478.4606,327.6001,482.4606,337.6001,486.4606,327.6001,482.4606,331.6001" style="stroke:#181818;stroke-width:1;"/><line style="stroke:#181818;stroke-width:1;" x1="482.4606" x2="482.4606" y1="920.1009" y2="930.1009"/><line style="stroke:#181818;stroke-width:1;" x1="482.4606" x2="661.0294" y1="930.1009" y2="930.1009"/><polygon fill="#181818" points="657.0294,630.5005,661.0294,620.5005,665.0294,630.5005,661.0294,626.5005" style="stroke:#181818;stroke-width:1;"/><line style="stroke:#181818;stroke-width:1;" x1="661.0294" x2="661.0294" y1="305.6001" y2="930.1009"/><line style="stroke:#181818;stroke-width:1;" x1="661.0294" x2="532.8283" y1="305.6001" y2="305.6001"/><polygon fill="#181818" points="542.8283,301.6001,532.8283,305.6001,542.8283,309.6001,538.8283,305.6001" style="stroke:#181818;stroke-width:1;"/><line style="stroke:#181818;stroke-width:1;" x1="432.0929" x2="291.8918" y1="305.6001" y2="305.6001"/><polygon fill="#181818" points="287.8918,616.5005,291.8918,626.5005,295.8918,616.5005,291.8918,620.5005" style="stroke:#181818;stroke-width:1;"/><line style="stroke:#181818;stroke-width:1;" x1="291.8918" x2="291.8918" y1="305.6001" y2="942.1009"/><line style="stroke:#181818;stroke-width:1;" x1="291.8918" x2="482.4606" y1="942.1009" y2="942.1009"/><line style="stroke:#181818;stroke-width:1;" x1="482.4606" x2="482.4606" y1="942.1009" y2="962.1009"/><polygon fill="#181818" points="478.4606,952.1009,482.4606,962.1009,486.4606,952.1009,482.4606,956.1009" style="stroke:#181818;stroke-width:1;"/><line style="stroke:#181818;stroke-width:1;" x1="482.4606" x2="482.4606" y1="273.6001" y2="293.6001"/><polygon fill="#181818" points="478.4606,283.6001,482.4606,293.6001,486.4606,283.6001,482.4606,287.6001" style="stroke:#181818;stroke-width:1;"/><line style="stroke:#181818;stroke-width:1;" x1="482.4606" x2="482.4606" y1="996.501" y2="1016.501"/><polygon fill="#181818" points="478.4606,1006.501,482.4606,1016.501,486.4606,1006.501,482.4606,1010.501" style="stroke:#181818;stroke-width:1;"/><!--SRC=[bPHHIyCm483VzolEjqudkDTD1L4dmfZ3RKzIGcXJ6zoIacG8Yl_TIzebIrjmzYLjSb_lkqlQYYh33PS2ChhDo6frHtAvuuAAZ952IM4uKqGpe-5x07XfWuIxAwJwS3VscjpFdXOoPt1k21SLgQGsHAeSOLo1wqjuNYmtwwadWRvJBWA_L2oVppsEJuGgTGAe-HSZvW2YlFuVM7FseOzX8kyfrgEPPQvEoA7_YdmuT7tMD1sXl7WBTccFrMV9jmmIvt5KoB17GEnthglQUlYzzhEUIE8D6DaYXrE_p0iR4Lvs2-CXc989IDQlcyUGETBJjP_7uh1OLEs5O2gsDANZMCQqbge3jvonQLawSaq_Ckz8DOdERY0-EWxl6ZhBPazgD8qaQLNXjX0ZCQGNJcAutTbMdj26O1VWBeQvNMM3ddVLXy-D5p2EsGw74xmkODASRpjuBegVl6pM-BsuepfjVW-o6lpy0W00]--></g></svg>