<svg xmlns="http://www.w3.org/2000/svg" xmlns:xlink="http://www.w3.org/1999/xlink" contentStyleType="text/css" data-diagram-type="ACTIVITY" height="711px" preserveAspectRatio="none" style="width:605px;height:711px;background:#FFFFFF;" version="1.1" viewBox="0 0 605 711" width="605px" zoomAndPan="magnify"><defs/><g><rect fill="none" height="689.3004" style="stroke:#000000;stroke-width:1.5;" width="583.831" x="11" y="11"/><path d="M212.4072,11 L212.4072,20.7999 L202.4072,30.7999 L11,30.7999" fill="none" style="stroke:#000000;stroke-width:1.5;"/><text fill="#000000" font-family="sans-serif" font-size="14" lengthAdjust="spacing" textLength="191.4072" x="14" y="25.0059">calc_SSA_dominator_intersect</text><ellipse cx="302.9155" cy="50.7999" fill="#222222" rx="10" ry="10" style="stroke:#222222;stroke-width:1;"/><rect fill="#555555" height="6" rx="2.5" ry="2.5" style="stroke:#555555;stroke-width:1;" width="563.831" x="21" y="80.7999"/><rect fill="#F1F1F1" height="34.4001" rx="12.5" ry="12.5" style="stroke:#181818;stroke-width:0.5;" width="154.389" x="33" y="106.7999"/><text fill="#000000" font-family="sans-serif" font-size="12" lengthAdjust="spacing" textLength="134.389" x="43" y="127.948">size_t t_inp_b1 &lt;- INPUT</text><rect fill="#F1F1F1" height="34.4001" rx="12.5" ry="12.5" style="stroke:#181818;stroke-width:0.5;" width="154.389" x="215.389" y="106.7999"/><text fill="#000000" font-family="sans-serif" font-size="12" lengthAdjust="spacing" textLength="134.389" x="225.389" y="127.948">size_t t_inp_b2 &lt;- INPUT</text><rect fill="#F1F1F1" height="34.4001" rx="12.5" ry="12.5" style="stroke:#181818;stroke-width:0.5;" width="175.0531" x="397.7779" y="106.7999"/><text fill="#000000" font-family="sans-serif" font-size="12" lengthAdjust="spacing" textLength="155.0531" x="407.7779" y="127.948">size_t *t_inp_doms &lt;- INPUT</text><rect fill="#555555" height="6" rx="2.5" ry="2.5" style="stroke:#555555;stroke-width:1;" width="563.831" x="21" y="161.2"/><rect fill="#555555" height="6" rx="2.5" ry="2.5" style="stroke:#555555;stroke-width:1;" width="438.8544" x="83.4883" y="187.2"/><rect fill="#F1F1F1" height="34.4001" rx="12.5" ry="12.5" style="stroke:#181818;stroke-width:0.5;" width="187.7612" x="97.4883" y="213.2"/><text fill="#000000" font-family="sans-serif" font-size="12" lengthAdjust="spacing" textLength="167.7612" x="107.4883" y="234.3481">size_t t_pointer_left &lt;- t_inp_b1</text><rect fill="#F1F1F1" height="34.4001" rx="12.5" ry="12.5" style="stroke:#181818;stroke-width:0.5;" width="195.0932" x="313.2495" y="213.2"/><text fill="#000000" font-family="sans-serif" font-size="12" lengthAdjust="spacing" textLength="175.0932" x="323.2495" y="234.3481">size_t t_pointer_right &lt;- t_inp_b2</text><rect fill="#555555" height="6" rx="2.5" ry="2.5" style="stroke:#555555;stroke-width:1;" width="438.8544" x="83.4883" y="267.6001"/><rect fill="#F1F1F1" height="34.4001" rx="12.5" ry="12.5" style="stroke:#181818;stroke-width:0.5;" width="245.1216" x="180.3547" y="381.6001"/><text fill="#000000" font-family="sans-serif" font-size="12" lengthAdjust="spacing" textLength="225.1216" x="190.3547" y="402.7482">t_pointer_left &lt;- t_inp_doms[t_pointer_left]</text><polygon fill="#F1F1F1" points="229.6945,337.6001,376.1365,337.6001,388.1365,349.6001,376.1365,361.6001,229.6945,361.6001,217.6945,349.6001,229.6945,337.6001" style="stroke:#181818;stroke-width:0.5;"/><text fill="#000000" font-family="sans-serif" font-size="11" lengthAdjust="spacing" textLength="146.442" x="229.6945" y="353.2191">t_pointer_left &gt; t_pointer_right</text><rect fill="#F1F1F1" height="34.4001" rx="12.5" ry="12.5" style="stroke:#181818;stroke-width:0.5;" width="259.7857" x="173.0227" y="513.5002"/><text fill="#000000" font-family="sans-serif" font-size="12" lengthAdjust="spacing" textLength="239.7857" x="183.0227" y="534.6483">t_pointer_right &lt;- t_inp_doms[t_pointer_right]</text><polygon fill="#F1F1F1" points="229.6945,469.5002,376.1365,469.5002,388.1365,481.5002,376.1365,493.5002,229.6945,493.5002,217.6945,481.5002,229.6945,469.5002" style="stroke:#181818;stroke-width:0.5;"/><text fill="#000000" font-family="sans-serif" font-size="11" lengthAdjust="spacing" textLength="146.442" x="229.6945" y="485.1192">t_pointer_right &gt; t_pointer_left</text><polygon fill="#F1F1F1" points="228.1655,293.6001,377.6655,293.6001,389.6655,305.6001,377.6655,317.6001,228.1655,317.6001,216.1655,305.6001,228.1655,293.6001" style="stroke:#181818;stroke-width:0.5;"/><text fill="#000000" font-family="sans-serif" font-size="11" lengthAdjust="spacing" textLength="149.4999" x="228.1655" y="309.2191">t_pointer_left != t_pointer_right</text><rect fill="#F1F1F1" height="34.4001" rx="12.5" ry="12.5" style="stroke:#181818;stroke-width:0.5;" width="142.0408" x="231.8951" y="611.9003"/><text fill="#000000" font-family="sans-serif" font-size="12" lengthAdjust="spacing" textLength="122.0408" x="241.8951" y="633.0484">OUTPUT t_pointer_left</text><ellipse cx="302.9155" cy="677.3004" fill="none" rx="11" ry="11" style="stroke:#222222;stroke-width:1;"/><ellipse cx="302.9155" cy="677.3004" fill="#222222" rx="6" ry="6" style="stroke:#222222;stroke-width:1;"/><line style="stroke:#181818;stroke-width:1;" x1="110.1945" x2="110.1945" y1="86.7999" y2="106.7999"/><polygon fill="#181818" points="106.1945,96.7999,110.1945,106.7999,114.1945,96.7999,110.1945,100.7999" style="stroke:#181818;stroke-width:1;"/><line style="stroke:#181818;stroke-width:1;" x1="292.5834" x2="292.5834" y1="86.7999" y2="106.7999"/><polygon fill="#181818" points="288.5834,96.7999,292.5834,106.7999,296.5834,96.7999,292.5834,100.7999" style="stroke:#181818;stroke-width:1;"/><line style="stroke:#181818;stroke-width:1;" x1="485.3045" x2="485.3045" y1="86.7999" y2="106.7999"/><polygon fill="#181818" points="481.3045,96.7999,485.3045,106.7999,489.3045,96.7999,485.3045,100.7999" style="stroke:#181818;stroke-width:1;"/><line style="stroke:#181818;stroke-width:1;" x1="110.1945" x2="110.1945" y1="141.2" y2="161.2"/><polygon fill="#181818" points="106.1945,151.2,110.1945,161.2,114.1945,151.2,110.1945,155.2" style="stroke:#181818;stroke-width:1;"/><line style="stroke:#181818;stroke-width:1;" x1="292.5834" x2="292.5834" y1="141.2" y2="161.2"/><polygon fill="#181818" points="288.5834,151.2,292.5834,161.2,296.5834,151.2,292.5834,155.2" style="stroke:#181818;stroke-width:1;"/><line style="stroke:#181818;stroke-width:1;" x1="485.3045" x2="485.3045" y1="141.2" y2="161.2"/><polygon fill="#181818" points="481.3045,151.2,485.3045,161.2,489.3045,151.2,485.3045,155.2" style="stroke:#181818;stroke-width:1;"/><line style="stroke:#181818;stroke-width:1;" x1="302.9155" x2="302.9155" y1="60.7999" y2="80.7999"/><polygon fill="#181818" points="298.9155,70.7999,302.9155,80.7999,306.9155,70.7999,302.9155,74.7999" style="stroke:#181818;stroke-width:1;"/><line style="stroke:#181818;stroke-width:1;" x1="191.3689" x2="191.3689" y1="193.2" y2="213.2"/><polygon fill="#181818" points="187.3689,203.2,191.3689,213.2,195.3689,203.2,191.3689,207.2" style="stroke:#181818;stroke-width:1;"/><line style="stroke:#181818;stroke-width:1;" x1="410.7961" x2="410.7961" y1="193.2" y2="213.2"/><polygon fill="#181818" points="406.7961,203.2,410.7961,213.2,414.7961,203.2,410.7961,207.2" style="stroke:#181818;stroke-width:1;"/><line style="stroke:#181818;stroke-width:1;" x1="191.3689" x2="191.3689" y1="247.6001" y2="267.6001"/><polygon fill="#181818" points="187.3689,257.6001,191.3689,267.6001,195.3689,257.6001,191.3689,261.6001" style="stroke:#181818;stroke-width:1;"/><line style="stroke:#181818;stroke-width:1;" x1="410.7961" x2="410.7961" y1="247.6001" y2="267.6001"/><polygon fill="#181818" points="406.7961,257.6001,410.7961,267.6001,414.7961,257.6001,410.7961,261.6001" style="stroke:#181818;stroke-width:1;"/><line style="stroke:#181818;stroke-width:1;" x1="302.9155" x2="302.9155" y1="167.2" y2="187.2"/><polygon fill="#181818" points="298.9155,177.2,302.9155,187.2,306.9155,177.2,302.9155,181.2" style="stroke:#181818;stroke-width:1;"/><line style="stroke:#181818;stroke-width:1;" x1="302.9155" x2="302.9155" y1="361.6001" y2="381.6001"/><polygon fill="#181818" points="298.9155,371.6001,302.9155,381.6001,306.9155,371.6001,302.9155,375.6001" style="stroke:#181818;stroke-width:1;"/><line style="stroke:#181818;stroke-width:1;" x1="302.9155" x2="302.9155" y1="416.0002" y2="426.0002"/><line style="stroke:#181818;stroke-width:1;" x1="302.9155" x2="437.4763" y1="426.0002" y2="426.0002"/><polygon fill="#181818" points="433.4763,396.8002,437.4763,386.8002,441.4763,396.8002,437.4763,392.8002" style="stroke:#181818;stroke-width:1;"/><line style="stroke:#181818;stroke-width:1;" x1="437.4763" x2="437.4763" y1="349.6001" y2="426.0002"/><line style="stroke:#181818;stroke-width:1;" x1="437.4763" x2="388.1365" y1="349.6001" y2="349.6001"/><polygon fill="#181818" points="398.1365,345.6001,388.1365,349.6001,398.1365,353.6001,394.1365,349.6001" style="stroke:#181818;stroke-width:1;"/><line style="stroke:#181818;stroke-width:1;" x1="217.6945" x2="168.3547" y1="349.6001" y2="349.6001"/><polygon fill="#181818" points="164.3547,382.8002,168.3547,392.8002,172.3547,382.8002,168.3547,386.8002" style="stroke:#181818;stroke-width:1;"/><line style="stroke:#181818;stroke-width:1;" x1="168.3547" x2="168.3547" y1="349.6001" y2="438.0002"/><line style="stroke:#181818;stroke-width:1;" x1="168.3547" x2="302.9155" y1="438.0002" y2="438.0002"/><line style="stroke:#181818;stroke-width:1;" x1="302.9155" x2="302.9155" y1="438.0002" y2="469.5002"/><polygon fill="#181818" points="298.9155,459.5002,302.9155,469.5002,306.9155,459.5002,302.9155,463.5002" style="stroke:#181818;stroke-width:1;"/><line style="stroke:#181818;stroke-width:1;" x1="302.9155" x2="302.9155" y1="493.5002" y2="513.5002"/><polygon fill="#181818" points="298.9155,503.5002,302.9155,513.5002,306.9155,503.5002,302.9155,507.5002" style="stroke:#181818;stroke-width:1;"/><line style="stroke:#181818;stroke-width:1;" x1="302.9155" x2="302.9155" y1="547.9003" y2="557.9003"/><line style="stroke:#181818;stroke-width:1;" x1="302.9155" x2="444.8083" y1="557.9003" y2="557.9003"/><polygon fill="#181818" points="440.8083,528.7003,444.8083,518.7003,448.8083,528.7003,444.8083,524.7003" style="stroke:#181818;stroke-width:1;"/><line style="stroke:#181818;stroke-width:1;" x1="444.8083" x2="444.8083" y1="481.5002" y2="557.9003"/><line style="stroke:#181818;stroke-width:1;" x1="444.8083" x2="388.1365" y1="481.5002" y2="481.5002"/><polygon fill="#181818" points="398.1365,477.5002,388.1365,481.5002,398.1365,485.5002,394.1365,481.5002" style="stroke:#181818;stroke-width:1;"/><line style="stroke:#181818;stroke-width:1;" x1="217.6945" x2="161.0227" y1="481.5002" y2="481.5002"/><polygon fill="#181818" points="157.0227,514.7003,161.0227,524.7003,165.0227,514.7003,161.0227,518.7003" style="stroke:#181818;stroke-width:1;"/><line style="stroke:#181818;stroke-width:1;" x1="161.0227" x2="161.0227" y1="481.5002" y2="569.9003"/><line style="stroke:#181818;stroke-width:1;" x1="161.0227" x2="456.8083" y1="569.9003" y2="569.9003"/><line style="stroke:#181818;stroke-width:1;" x1="456.8083" x2="456.8083" y1="305.6001" y2="569.9003"/><line style="stroke:#181818;stroke-width:1;" x1="456.8083" x2="389.6655" y1="305.6001" y2="305.6001"/><polygon fill="#181818" points="399.6655,301.6001,389.6655,305.6001,399.6655,309.6001,395.6655,305.6001" style="stroke:#181818;stroke-width:1;"/><line style="stroke:#181818;stroke-width:1;" x1="302.9155" x2="302.9155" y1="317.6001" y2="337.6001"/><polygon fill="#181818" points="298.9155,327.6001,302.9155,337.6001,306.9155,327.6001,302.9155,331.6001" style="stroke:#181818;stroke-width:1;"/><line style="stroke:#181818;stroke-width:1;" x1="216.1655" x2="137.0227" y1="305.6001" y2="305.6001"/><polygon fill="#181818" points="133.0227,439.5002,137.0227,449.5002,141.0227,439.5002,137.0227,443.5002" style="stroke:#181818;stroke-width:1;"/><line style="stroke:#181818;stroke-width:1;" x1="137.0227" x2="137.0227" y1="305.6001" y2="591.9003"/><line style="stroke:#181818;stroke-width:1;" x1="137.0227" x2="302.9155" y1="591.9003" y2="591.9003"/><line style="stroke:#181818;stroke-width:1;" x1="302.9155" x2="302.9155" y1="591.9003" y2="611.9003"/><polygon fill="#181818" points="298.9155,601.9003,302.9155,611.9003,306.9155,601.9003,302.9155,605.9003" style="stroke:#181818;stroke-width:1;"/><line style="stroke:#181818;stroke-width:1;" x1="302.9155" x2="302.9155" y1="273.6001" y2="293.6001"/><polygon fill="#181818" points="298.9155,283.6001,302.9155,293.6001,306.9155,283.6001,302.9155,287.6001" style="stroke:#181818;stroke-width:1;"/><line style="stroke:#181818;stroke-width:1;" x1="302.9155" x2="302.9155" y1="646.3004" y2="666.3004"/><polygon fill="#181818" points="298.9155,656.3004,302.9155,666.3004,306.9155,656.3004,302.9155,660.3004" style="stroke:#181818;stroke-width:1;"/><!--SRC=[ZP913u8W68Rl_WgwLLk7F6gvTUnIRUgfDKQAoZ9m-6rjjVvxYEcIIPCJ31wUz_kW8X8OCC5HGie4X-4Ef-BEE04XCUD0PKqJG2y7gL63EgrdcP0tFMc6LxCdnO100HM-hj5cXVQ7Knpv_Lb4SiAuZN2d4yiMKHdhCOZoz5- -IkYIS4apQF0kyOIW7IfPNlooxeZzKR2IehdXcstDQnQzPvm8x80EPokewSvvk7dnUrIbr3gxlAqnC1fcbHijCUnwrwOVBBnZ7AddDBJ-z-k9odb_0000]--></g></svg>