<svg xmlns="http://www.w3.org/2000/svg" xmlns:xlink="http://www.w3.org/1999/xlink" contentStyleType="text/css" data-diagram-type="ACTIVITY" height="954px" preserveAspectRatio="none" style="width:444px;height:954px;background:#FFFFFF;" version="1.1" viewBox="0 0 444 954" width="444px" zoomAndPan="magnify"><defs/><g><rect fill="none" height="932.4005" style="stroke:#000000;stroke-width:1.5;" width="422.1302" x="11" y="11"/><path d="M175.0974,11 L175.0974,20.7999 L165.0974,30.7999 L11,30.7999" fill="none" style="stroke:#000000;stroke-width:1.5;"/><text fill="#000000" font-family="sans-serif" font-size="14" lengthAdjust="spacing" textLength="154.0974" x="14" y="25.0059">calc_SSA_append_to_df</text><ellipse cx="222.0651" cy="50.7999" fill="#222222" rx="10" ry="10" style="stroke:#222222;stroke-width:1;"/><rect fill="#555555" height="6" rx="2.5" ry="2.5" style="stroke:#555555;stroke-width:1;" width="402.1302" x="21" y="80.7999"/><rect fill="#F1F1F1" height="34.4001" rx="12.5" ry="12.5" style="stroke:#181818;stroke-width:0.5;" width="183.7292" x="33" y="106.7999"/><text fill="#000000" font-family="sans-serif" font-size="12" lengthAdjust="spacing" textLength="163.7292" x="43" y="127.948">size_t t_inp_element &lt;- INPUT</text><rect fill="#F1F1F1" height="34.4001" rx="12.5" ry="12.5" style="stroke:#181818;stroke-width:0.5;" width="166.401" x="244.7292" y="106.7999"/><text fill="#000000" font-family="sans-serif" font-size="12" lengthAdjust="spacing" textLength="146.401" x="254.7292" y="127.948">Size_tLL t_inp_df &lt;- INPUT</text><rect fill="#555555" height="6" rx="2.5" ry="2.5" style="stroke:#555555;stroke-width:1;" width="402.1302" x="21" y="161.2"/><rect fill="#555555" height="6" rx="2.5" ry="2.5" style="stroke:#555555;stroke-width:1;" width="372.8299" x="35.6501" y="187.2"/><rect fill="#F1F1F1" height="34.4001" rx="12.5" ry="12.5" style="stroke:#181818;stroke-width:0.5;" width="179.7691" x="49.6501" y="213.2"/><text fill="#000000" font-family="sans-serif" font-size="12" lengthAdjust="spacing" textLength="159.7691" x="59.6501" y="234.3481">Size_tLL *t_head &lt;- &amp;t_inp_df</text><rect fill="#F1F1F1" height="34.4001" rx="12.5" ry="12.5" style="stroke:#181818;stroke-width:0.5;" width="137.0608" x="257.4193" y="213.2"/><text fill="#000000" font-family="sans-serif" font-size="12" lengthAdjust="spacing" textLength="117.0608" x="267.4193" y="234.3481">bool duplicate &lt;- false</text><rect fill="#555555" height="6" rx="2.5" ry="2.5" style="stroke:#555555;stroke-width:1;" width="372.8299" x="35.6501" y="267.6001"/><rect fill="#F1F1F1" height="34.4001" rx="12.5" ry="12.5" style="stroke:#181818;stroke-width:0.5;" width="106.3766" x="168.8768" y="342.2001"/><text fill="#000000" font-family="sans-serif" font-size="12" lengthAdjust="spacing" textLength="86.3766" x="178.8768" y="363.3482">duplicate &lt;- true</text><polygon fill="#F1F1F1" points="139.3622,293.6001,304.768,293.6001,316.768,305.6001,304.768,317.6001,139.3622,317.6001,127.3622,305.6001,139.3622,293.6001" style="stroke:#181818;stroke-width:0.5;"/><text fill="#000000" font-family="sans-serif" font-size="11" lengthAdjust="spacing" textLength="29.9418" x="226.0651" y="327.8191">TRUE</text><text fill="#000000" font-family="sans-serif" font-size="11" lengthAdjust="spacing" textLength="165.4058" x="139.3622" y="309.2191">t_inp_df.contents = t_inp_element</text><polygon fill="#F1F1F1" points="222.0651,396.6002,234.0651,408.6002,222.0651,420.6002,210.0651,408.6002,222.0651,396.6002" style="stroke:#181818;stroke-width:0.5;"/><rect fill="#F1F1F1" height="34.4001" rx="12.5" ry="12.5" style="stroke:#181818;stroke-width:0.5;" width="149.0849" x="147.5226" y="484.6002"/><text fill="#000000" font-family="sans-serif" font-size="12" lengthAdjust="spacing" textLength="129.0849" x="157.5226" y="505.7483">t_inp_df &lt;- t_inp_df.next</text><rect fill="#F1F1F1" height="34.4001" rx="12.5" ry="12.5" style="stroke:#181818;stroke-width:0.5;" width="106.3766" x="168.8768" y="587.6002"/><text fill="#000000" font-family="sans-serif" font-size="12" lengthAdjust="spacing" textLength="86.3766" x="178.8768" y="608.7483">duplicate &lt;- true</text><polygon fill="#F1F1F1" points="139.3622,539.0003,304.768,539.0003,316.768,551.0003,304.768,563.0003,139.3622,563.0003,127.3622,551.0003,139.3622,539.0003" style="stroke:#181818;stroke-width:0.5;"/><text fill="#000000" font-family="sans-serif" font-size="11" lengthAdjust="spacing" textLength="29.9418" x="226.0651" y="573.2192">TRUE</text><text fill="#000000" font-family="sans-serif" font-size="11" lengthAdjust="spacing" textLength="165.4058" x="139.3622" y="554.6193">t_inp_df.contents = t_inp_element</text><polygon fill="#F1F1F1" points="222.0651,642.0003,234.0651,654.0003,222.0651,666.0003,210.0651,654.0003,222.0651,642.0003" style="stroke:#181818;stroke-width:0.5;"/><polygon fill="#F1F1F1" points="168.7155,440.6002,275.4147,440.6002,287.4147,452.6002,275.4147,464.6002,168.7155,464.6002,156.7155,452.6002,168.7155,440.6002" style="stroke:#181818;stroke-width:0.5;"/><text fill="#000000" font-family="sans-serif" font-size="11" lengthAdjust="spacing" textLength="106.6992" x="168.7155" y="456.2192">t_inp_df.next != NULL</text><rect fill="#F1F1F1" height="34.4001" rx="12.5" ry="12.5" style="stroke:#181818;stroke-width:0.5;" width="181.7611" x="131.1845" y="756.6003"/><text fill="#000000" font-family="sans-serif" font-size="12" lengthAdjust="spacing" textLength="161.7611" x="141.1845" y="777.7484">t_inp_df.next &lt;- t_inp_element</text><polygon fill="#F1F1F1" points="182.1684,708.0003,261.9618,708.0003,273.9618,720.0003,261.9618,732.0003,182.1684,732.0003,170.1684,720.0003,182.1684,708.0003" style="stroke:#181818;stroke-width:0.5;"/><text fill="#000000" font-family="sans-serif" font-size="11" lengthAdjust="spacing" textLength="29.9418" x="226.0651" y="742.2193">TRUE</text><text fill="#000000" font-family="sans-serif" font-size="11" lengthAdjust="spacing" textLength="79.7934" x="182.1684" y="723.6193">duplicate = false</text><polygon fill="#F1F1F1" points="222.0651,811.0004,234.0651,823.0004,222.0651,835.0004,210.0651,823.0004,222.0651,811.0004" style="stroke:#181818;stroke-width:0.5;"/><rect fill="#F1F1F1" height="34.4001" rx="12.5" ry="12.5" style="stroke:#181818;stroke-width:0.5;" width="109.3646" x="167.3828" y="855.0004"/><text fill="#000000" font-family="sans-serif" font-size="12" lengthAdjust="spacing" textLength="89.3646" x="177.3828" y="876.1485">OUTPUT t_head</text><ellipse cx="222.0651" cy="920.4005" fill="none" rx="11" ry="11" style="stroke:#222222;stroke-width:1;"/><ellipse cx="222.0651" cy="920.4005" fill="#222222" rx="6" ry="6" style="stroke:#222222;stroke-width:1;"/><line style="stroke:#181818;stroke-width:1;" x1="124.8646" x2="124.8646" y1="86.7999" y2="106.7999"/><polygon fill="#181818" points="120.8646,96.7999,124.8646,106.7999,128.8646,96.7999,124.8646,100.7999" style="stroke:#181818;stroke-width:1;"/><line style="stroke:#181818;stroke-width:1;" x1="327.9297" x2="327.9297" y1="86.7999" y2="106.7999"/><polygon fill="#181818" points="323.9297,96.7999,327.9297,106.7999,331.9297,96.7999,327.9297,100.7999" style="stroke:#181818;stroke-width:1;"/><line style="stroke:#181818;stroke-width:1;" x1="124.8646" x2="124.8646" y1="141.2" y2="161.2"/><polygon fill="#181818" points="120.8646,151.2,124.8646,161.2,128.8646,151.2,124.8646,155.2" style="stroke:#181818;stroke-width:1;"/><line style="stroke:#181818;stroke-width:1;" x1="327.9297" x2="327.9297" y1="141.2" y2="161.2"/><polygon fill="#181818" points="323.9297,151.2,327.9297,161.2,331.9297,151.2,327.9297,155.2" style="stroke:#181818;stroke-width:1;"/><line style="stroke:#181818;stroke-width:1;" x1="222.0651" x2="222.0651" y1="60.7999" y2="80.7999"/><polygon fill="#181818" points="218.0651,70.7999,222.0651,80.7999,226.0651,70.7999,222.0651,74.7999" style="stroke:#181818;stroke-width:1;"/><line style="stroke:#181818;stroke-width:1;" x1="139.5347" x2="139.5347" y1="193.2" y2="213.2"/><polygon fill="#181818" points="135.5347,203.2,139.5347,213.2,143.5347,203.2,139.5347,207.2" style="stroke:#181818;stroke-width:1;"/><line style="stroke:#181818;stroke-width:1;" x1="325.9497" x2="325.9497" y1="193.2" y2="213.2"/><polygon fill="#181818" points="321.9497,203.2,325.9497,213.2,329.9497,203.2,325.9497,207.2" style="stroke:#181818;stroke-width:1;"/><line style="stroke:#181818;stroke-width:1;" x1="139.5347" x2="139.5347" y1="247.6001" y2="267.6001"/><polygon fill="#181818" points="135.5347,257.6001,139.5347,267.6001,143.5347,257.6001,139.5347,261.6001" style="stroke:#181818;stroke-width:1;"/><line style="stroke:#181818;stroke-width:1;" x1="325.9497" x2="325.9497" y1="247.6001" y2="267.6001"/><polygon fill="#181818" points="321.9497,257.6001,325.9497,267.6001,329.9497,257.6001,325.9497,261.6001" style="stroke:#181818;stroke-width:1;"/><line style="stroke:#181818;stroke-width:1;" x1="222.0651" x2="222.0651" y1="167.2" y2="187.2"/><polygon fill="#181818" points="218.0651,177.2,222.0651,187.2,226.0651,177.2,222.0651,181.2" style="stroke:#181818;stroke-width:1;"/><line style="stroke:#181818;stroke-width:1;" x1="222.0651" x2="222.0651" y1="317.6001" y2="342.2001"/><polygon fill="#181818" points="218.0651,332.2001,222.0651,342.2001,226.0651,332.2001,222.0651,336.2001" style="stroke:#181818;stroke-width:1;"/><line style="stroke:#181818;stroke-width:1;" x1="316.768" x2="328.768" y1="305.6001" y2="305.6001"/><polygon fill="#181818" points="324.768,349.4001,328.768,359.4001,332.768,349.4001,328.768,353.4001" style="stroke:#181818;stroke-width:1;"/><line style="stroke:#181818;stroke-width:1;" x1="328.768" x2="328.768" y1="305.6001" y2="408.6002"/><line style="stroke:#181818;stroke-width:1;" x1="328.768" x2="234.0651" y1="408.6002" y2="408.6002"/><polygon fill="#181818" points="244.0651,404.6002,234.0651,408.6002,244.0651,412.6002,240.0651,408.6002" style="stroke:#181818;stroke-width:1;"/><line style="stroke:#181818;stroke-width:1;" x1="222.0651" x2="222.0651" y1="376.6002" y2="396.6002"/><polygon fill="#181818" points="218.0651,386.6002,222.0651,396.6002,226.0651,386.6002,222.0651,390.6002" style="stroke:#181818;stroke-width:1;"/><line style="stroke:#181818;stroke-width:1;" x1="222.0651" x2="222.0651" y1="273.6001" y2="293.6001"/><polygon fill="#181818" points="218.0651,283.6001,222.0651,293.6001,226.0651,283.6001,222.0651,287.6001" style="stroke:#181818;stroke-width:1;"/><line style="stroke:#181818;stroke-width:1;" x1="222.0651" x2="222.0651" y1="563.0003" y2="587.6002"/><polygon fill="#181818" points="218.0651,577.6002,222.0651,587.6002,226.0651,577.6002,222.0651,581.6002" style="stroke:#181818;stroke-width:1;"/><line style="stroke:#181818;stroke-width:1;" x1="316.768" x2="328.768" y1="551.0003" y2="551.0003"/><polygon fill="#181818" points="324.768,594.8003,328.768,604.8003,332.768,594.8003,328.768,598.8003" style="stroke:#181818;stroke-width:1;"/><line style="stroke:#181818;stroke-width:1;" x1="328.768" x2="328.768" y1="551.0003" y2="654.0003"/><line style="stroke:#181818;stroke-width:1;" x1="328.768" x2="234.0651" y1="654.0003" y2="654.0003"/><polygon fill="#181818" points="244.0651,650.0003,234.0651,654.0003,244.0651,658.0003,240.0651,654.0003" style="stroke:#181818;stroke-width:1;"/><line style="stroke:#181818;stroke-width:1;" x1="222.0651" x2="222.0651" y1="622.0003" y2="642.0003"/><polygon fill="#181818" points="218.0651,632.0003,222.0651,642.0003,226.0651,632.0003,222.0651,636.0003" style="stroke:#181818;stroke-width:1;"/><line style="stroke:#181818;stroke-width:1;" x1="222.0651" x2="222.0651" y1="519.0003" y2="539.0003"/><polygon fill="#181818" points="218.0651,529.0003,222.0651,539.0003,226.0651,529.0003,222.0651,533.0003" style="stroke:#181818;stroke-width:1;"/><line style="stroke:#181818;stroke-width:1;" x1="222.0651" x2="222.0651" y1="464.6002" y2="484.6002"/><polygon fill="#181818" points="218.0651,474.6002,222.0651,484.6002,226.0651,474.6002,222.0651,478.6002" style="stroke:#181818;stroke-width:1;"/><line style="stroke:#181818;stroke-width:1;" x1="222.0651" x2="222.0651" y1="666.0003" y2="676.0003"/><line style="stroke:#181818;stroke-width:1;" x1="222.0651" x2="340.768" y1="676.0003" y2="676.0003"/><polygon fill="#181818" points="336.768,568.1002,340.768,558.1002,344.768,568.1002,340.768,564.1002" style="stroke:#181818;stroke-width:1;"/><line style="stroke:#181818;stroke-width:1;" x1="340.768" x2="340.768" y1="452.6002" y2="676.0003"/><line style="stroke:#181818;stroke-width:1;" x1="340.768" x2="287.4147" y1="452.6002" y2="452.6002"/><polygon fill="#181818" points="297.4147,448.6002,287.4147,452.6002,297.4147,456.6002,293.4147,452.6002" style="stroke:#181818;stroke-width:1;"/><line style="stroke:#181818;stroke-width:1;" x1="156.7155" x2="115.3622" y1="452.6002" y2="452.6002"/><polygon fill="#181818" points="111.3622,554.1002,115.3622,564.1002,119.3622,554.1002,115.3622,558.1002" style="stroke:#181818;stroke-width:1;"/><line style="stroke:#181818;stroke-width:1;" x1="115.3622" x2="115.3622" y1="452.6002" y2="688.0003"/><line style="stroke:#181818;stroke-width:1;" x1="115.3622" x2="222.0651" y1="688.0003" y2="688.0003"/><line style="stroke:#181818;stroke-width:1;" x1="222.0651" x2="222.0651" y1="688.0003" y2="708.0003"/><polygon fill="#181818" points="218.0651,698.0003,222.0651,708.0003,226.0651,698.0003,222.0651,702.0003" style="stroke:#181818;stroke-width:1;"/><line style="stroke:#181818;stroke-width:1;" x1="222.0651" x2="222.0651" y1="420.6002" y2="440.6002"/><polygon fill="#181818" points="218.0651,430.6002,222.0651,440.6002,226.0651,430.6002,222.0651,434.6002" style="stroke:#181818;stroke-width:1;"/><line style="stroke:#181818;stroke-width:1;" x1="222.0651" x2="222.0651" y1="732.0003" y2="756.6003"/><polygon fill="#181818" points="218.0651,746.6003,222.0651,756.6003,226.0651,746.6003,222.0651,750.6003" style="stroke:#181818;stroke-width:1;"/><line style="stroke:#181818;stroke-width:1;" x1="273.9618" x2="322.9457" y1="720.0003" y2="720.0003"/><polygon fill="#181818" points="318.9457,763.8003,322.9457,773.8003,326.9457,763.8003,322.9457,767.8003" style="stroke:#181818;stroke-width:1;"/><line style="stroke:#181818;stroke-width:1;" x1="322.9457" x2="322.9457" y1="720.0003" y2="823.0004"/><line style="stroke:#181818;stroke-width:1;" x1="322.9457" x2="234.0651" y1="823.0004" y2="823.0004"/><polygon fill="#181818" points="244.0651,819.0004,234.0651,823.0004,244.0651,827.0004,240.0651,823.0004" style="stroke:#181818;stroke-width:1;"/><line style="stroke:#181818;stroke-width:1;" x1="222.0651" x2="222.0651" y1="791.0004" y2="811.0004"/><polygon fill="#181818" points="218.0651,801.0004,222.0651,811.0004,226.0651,801.0004,222.0651,805.0004" style="stroke:#181818;stroke-width:1;"/><line style="stroke:#181818;stroke-width:1;" x1="222.0651" x2="222.0651" y1="835.0004" y2="855.0004"/><polygon fill="#181818" points="218.0651,845.0004,222.0651,855.0004,226.0651,845.0004,222.0651,849.0004" style="stroke:#181818;stroke-width:1;"/><line style="stroke:#181818;stroke-width:1;" x1="222.0651" x2="222.0651" y1="889.4005" y2="909.4005"/><polygon fill="#181818" points="218.0651,899.4005,222.0651,909.4005,226.0651,899.4005,222.0651,903.4005" style="stroke:#181818;stroke-width:1;"/><!--SRC=[fLAzJiCm4Dxx5CU2MYHuW8OC30n8KOj8CbicEHCBrxQIgq0WtXt7TPrOIbdmTCDzlsVBUv8aZOQ6guQLvGFZrg9k6HdM2lXUWNi3kJK_2TE_-s5ysq5-8ICW9hLbgF20ck3-5fvsptMLHG3mDoxr12izh2W2qCaiO9o71SK8lI7M8Mz7vFMPvhBYgp4AsgDLik648qXmDU22d1ImFlFTDKQJYpH0dcRS07MeOLszr8-RIIKHeFuO-1sr57xwwAJ26R_6JuAh77PrKSnuvhKakrdS-OVDlwocTjta7STY9bH-Al124Md0c2BOYgr0qDdkwyeT7qudpSANCtRrymi0]--></g></svg>