<svg xmlns="http://www.w3.org/2000/svg" xmlns:xlink="http://www.w3.org/1999/xlink" contentStyleType="text/css" data-diagram-type="ACTIVITY" height="640px" preserveAspectRatio="none" style="width:464px;height:640px;background:#FFFFFF;" version="1.1" viewBox="0 0 464 640" width="464px" zoomAndPan="magnify"><defs/><g><rect fill="none" height="618.6006" style="stroke:#000000;stroke-width:1.5;" width="442.8423" x="11" y="11"/><path d="M210.8672,11 L210.8672,20.7999 L200.8672,30.7999 L11,30.7999" fill="none" style="stroke:#000000;stroke-width:1.5;"/><text fill="#000000" font-family="sans-serif" font-size="14" lengthAdjust="spacing" textLength="189.8672" x="14" y="25.0059">calc_SSA_pop_from_Size_tLL</text><ellipse cx="221.5891" cy="50.7999" fill="#222222" rx="10" ry="10" style="stroke:#222222;stroke-width:1;"/><rect fill="#F1F1F1" height="34.4001" rx="12.5" ry="12.5" style="stroke:#181818;stroke-width:0.5;" width="184.4012" x="129.3885" y="80.7999"/><text fill="#000000" font-family="sans-serif" font-size="12" lengthAdjust="spacing" textLength="164.4012" x="139.3885" y="101.948">Size_tLL t_inp_stack &lt;- INPUT</text><rect fill="#F1F1F1" height="34.4001" rx="12.5" ry="12.5" style="stroke:#181818;stroke-width:0.5;" width="109.7127" x="166.7328" y="135.2"/><text fill="#000000" font-family="sans-serif" font-size="12" lengthAdjust="spacing" textLength="89.7127" x="176.7328" y="156.3481">size_t t_out &lt;- -1</text><polygon fill="#F1F1F1" points="161.5186,189.6001,281.6597,189.6001,293.6597,201.6001,281.6597,213.6001,161.5186,213.6001,149.5186,201.6001,161.5186,189.6001" style="stroke:#181818;stroke-width:0.5;"/><text fill="#000000" font-family="sans-serif" font-size="11" lengthAdjust="spacing" textLength="120.1411" x="161.5186" y="205.2191">t_inp_stack.next = NULL</text><text fill="#000000" font-family="sans-serif" font-size="11" lengthAdjust="spacing" textLength="29.9418" x="119.5768" y="198.6192">TRUE</text><text fill="#000000" font-family="sans-serif" font-size="11" lengthAdjust="spacing" textLength="34.8477" x="293.6597" y="198.6192">FALSE</text><rect fill="#F1F1F1" height="34.4001" rx="12.5" ry="12.5" style="stroke:#181818;stroke-width:0.5;" width="173.7571" x="23" y="223.6001"/><text fill="#000000" font-family="sans-serif" font-size="12" lengthAdjust="spacing" textLength="153.7571" x="33" y="244.7482">t_out &lt;- t_inp_stack.contents</text><rect fill="#F1F1F1" height="34.4001" rx="12.5" ry="12.5" style="stroke:#181818;stroke-width:0.5;" width="185.0852" x="240.7571" y="271.6001"/><text fill="#000000" font-family="sans-serif" font-size="12" lengthAdjust="spacing" textLength="165.0852" x="250.7571" y="292.7482">t_inp_stack &lt;- t_inp_stack.next</text><polygon fill="#F1F1F1" points="271.7002,223.6001,394.8992,223.6001,406.8992,235.6001,394.8992,247.6001,271.7002,247.6001,259.7002,235.6001,271.7002,223.6001" style="stroke:#181818;stroke-width:0.5;"/><text fill="#000000" font-family="sans-serif" font-size="11" lengthAdjust="spacing" textLength="123.1991" x="271.7002" y="239.2191">t_inp_stack.next != NULL</text><rect fill="#F1F1F1" height="34.4001" rx="12.5" ry="12.5" style="stroke:#181818;stroke-width:0.5;" width="173.7571" x="246.4212" y="348.0002"/><text fill="#000000" font-family="sans-serif" font-size="12" lengthAdjust="spacing" textLength="153.7571" x="256.4212" y="369.1483">t_out &lt;- t_inp_stack.contents</text><rect fill="#F1F1F1" height="34.4001" rx="12.5" ry="12.5" style="stroke:#181818;stroke-width:0.5;" width="155.061" x="255.7692" y="402.4003"/><text fill="#000000" font-family="sans-serif" font-size="12" lengthAdjust="spacing" textLength="135.061" x="265.7692" y="423.5484">t_inp_stack.next &lt;- NULL</text><rect fill="#F1F1F1" height="34.4001" rx="12.5" ry="12.5" style="stroke:#181818;stroke-width:0.5;" width="109.3646" x="278.6174" y="456.8004"/><text fill="#000000" font-family="sans-serif" font-size="12" lengthAdjust="spacing" textLength="89.3646" x="288.6174" y="477.9485">free(t_inp_stack)</text><polygon fill="#F1F1F1" points="221.5891,497.2005,233.5891,509.2005,221.5891,521.2005,209.5891,509.2005,221.5891,497.2005" style="stroke:#181818;stroke-width:0.5;"/><rect fill="#F1F1F1" height="34.4001" rx="12.5" ry="12.5" style="stroke:#181818;stroke-width:0.5;" width="99.3566" x="171.9109" y="541.2005"/><text fill="#000000" font-family="sans-serif" font-size="12" lengthAdjust="spacing" textLength="79.3566" x="181.9109" y="562.3486">OUTPUT t_out</text><ellipse cx="221.5891" cy="606.6006" fill="none" rx="11" ry="11" style="stroke:#222222;stroke-width:1;"/><ellipse cx="221.5891" cy="606.6006" fill="#222222" rx="6" ry="6" style="stroke:#222222;stroke-width:1;"/><line style="stroke:#181818;stroke-width:1;" x1="221.5891" x2="221.5891" y1="60.7999" y2="80.7999"/><polygon fill="#181818" points="217.5891,70.7999,221.5891,80.7999,225.5891,70.7999,221.5891,74.7999" style="stroke:#181818;stroke-width:1;"/><line style="stroke:#181818;stroke-width:1;" x1="221.5891" x2="221.5891" y1="115.2" y2="135.2"/><polygon fill="#181818" points="217.5891,125.2,221.5891,135.2,225.5891,125.2,221.5891,129.2" style="stroke:#181818;stroke-width:1;"/><line style="stroke:#181818;stroke-width:1;" x1="333.2997" x2="333.2997" y1="247.6001" y2="271.6001"/><polygon fill="#181818" points="329.2997,261.6001,333.2997,271.6001,337.2997,261.6001,333.2997,265.6001" style="stroke:#181818;stroke-width:1;"/><line style="stroke:#181818;stroke-width:1;" x1="333.2997" x2="333.2997" y1="306.0002" y2="316.0002"/><line style="stroke:#181818;stroke-width:1;" x1="333.2997" x2="437.8423" y1="316.0002" y2="316.0002"/><polygon fill="#181818" points="433.8423,286.8002,437.8423,276.8002,441.8423,286.8002,437.8423,282.8002" style="stroke:#181818;stroke-width:1;"/><line style="stroke:#181818;stroke-width:1;" x1="437.8423" x2="437.8423" y1="235.6001" y2="316.0002"/><line style="stroke:#181818;stroke-width:1;" x1="437.8423" x2="406.8992" y1="235.6001" y2="235.6001"/><polygon fill="#181818" points="416.8992,231.6001,406.8992,235.6001,416.8992,239.6001,412.8992,235.6001" style="stroke:#181818;stroke-width:1;"/><line style="stroke:#181818;stroke-width:1;" x1="259.7002" x2="228.7571" y1="235.6001" y2="235.6001"/><polygon fill="#181818" points="224.7571,272.8002,228.7571,282.8002,232.7571,272.8002,228.7571,276.8002" style="stroke:#181818;stroke-width:1;"/><line style="stroke:#181818;stroke-width:1;" x1="228.7571" x2="228.7571" y1="235.6001" y2="328.0002"/><line style="stroke:#181818;stroke-width:1;" x1="228.7571" x2="333.2997" y1="328.0002" y2="328.0002"/><line style="stroke:#181818;stroke-width:1;" x1="333.2997" x2="333.2997" y1="328.0002" y2="348.0002"/><polygon fill="#181818" points="329.2997,338.0002,333.2997,348.0002,337.2997,338.0002,333.2997,342.0002" style="stroke:#181818;stroke-width:1;"/><line style="stroke:#181818;stroke-width:1;" x1="333.2997" x2="333.2997" y1="382.4003" y2="402.4003"/><polygon fill="#181818" points="329.2997,392.4003,333.2997,402.4003,337.2997,392.4003,333.2997,396.4003" style="stroke:#181818;stroke-width:1;"/><line style="stroke:#181818;stroke-width:1;" x1="333.2997" x2="333.2997" y1="436.8004" y2="456.8004"/><polygon fill="#181818" points="329.2997,446.8004,333.2997,456.8004,337.2997,446.8004,333.2997,450.8004" style="stroke:#181818;stroke-width:1;"/><line style="stroke:#181818;stroke-width:1;" x1="149.5186" x2="109.8786" y1="201.6001" y2="201.6001"/><line style="stroke:#181818;stroke-width:1;" x1="109.8786" x2="109.8786" y1="201.6001" y2="223.6001"/><polygon fill="#181818" points="105.8786,213.6001,109.8786,223.6001,113.8786,213.6001,109.8786,217.6001" style="stroke:#181818;stroke-width:1;"/><line style="stroke:#181818;stroke-width:1;" x1="293.6597" x2="333.2997" y1="201.6001" y2="201.6001"/><line style="stroke:#181818;stroke-width:1;" x1="333.2997" x2="333.2997" y1="201.6001" y2="223.6001"/><polygon fill="#181818" points="329.2997,213.6001,333.2997,223.6001,337.2997,213.6001,333.2997,217.6001" style="stroke:#181818;stroke-width:1;"/><line style="stroke:#181818;stroke-width:1;" x1="109.8786" x2="109.8786" y1="258.0002" y2="509.2005"/><line style="stroke:#181818;stroke-width:1;" x1="109.8786" x2="209.5891" y1="509.2005" y2="509.2005"/><polygon fill="#181818" points="199.5891,505.2005,209.5891,509.2005,199.5891,513.2005,203.5891,509.2005" style="stroke:#181818;stroke-width:1;"/><line style="stroke:#181818;stroke-width:1;" x1="333.2997" x2="333.2997" y1="491.2005" y2="509.2005"/><line style="stroke:#181818;stroke-width:1;" x1="333.2997" x2="233.5891" y1="509.2005" y2="509.2005"/><polygon fill="#181818" points="243.5891,505.2005,233.5891,509.2005,243.5891,513.2005,239.5891,509.2005" style="stroke:#181818;stroke-width:1;"/><line style="stroke:#181818;stroke-width:1;" x1="221.5891" x2="221.5891" y1="169.6001" y2="189.6001"/><polygon fill="#181818" points="217.5891,179.6001,221.5891,189.6001,225.5891,179.6001,221.5891,183.6001" style="stroke:#181818;stroke-width:1;"/><line style="stroke:#181818;stroke-width:1;" x1="221.5891" x2="221.5891" y1="521.2005" y2="541.2005"/><polygon fill="#181818" points="217.5891,531.2005,221.5891,541.2005,225.5891,531.2005,221.5891,535.2005" style="stroke:#181818;stroke-width:1;"/><line style="stroke:#181818;stroke-width:1;" x1="221.5891" x2="221.5891" y1="575.6006" y2="595.6006"/><polygon fill="#181818" points="217.5891,585.6006,221.5891,595.6006,225.5891,585.6006,221.5891,589.6006" style="stroke:#181818;stroke-width:1;"/><!--SRC=[ZP2n2i9038RdwrF4hHqKNAqE3Wh2eMBR-P2QqiDwTxGHHV7TpRKYLHnSaozVVdwthqcJjWRoVPMh99ahPvqgQdjIYRwX8YdX7eY660p4v3qZfOrJFCwFC1t2QhtDqfY1fWLuRS_a5yCnJtK1OUzWPF1AC8Dr9cK4LAA1CDrbYoWGOlA-x1_arX0QQjY5LOCGBkSoQVbBgIlyOH-yz8nuvqVORvYj0isXLVqJuKFOlMFOlskNHOtO3nJvrEQW2wvdawLSL5TFx6krBdWy0G00]--></g></svg>