<svg xmlns="http://www.w3.org/2000/svg" xmlns:xlink="http://www.w3.org/1999/xlink" contentStyleType="text/css" data-diagram-type="ACTIVITY" height="500px" preserveAspectRatio="none" style="width:466px;height:500px;background:#FFFFFF;" version="1.1" viewBox="0 0 466 500" width="466px" zoomAndPan="magnify"><defs/><g><rect fill="none" height="478.8004" style="stroke:#000000;stroke-width:1.5;" width="444.1303" x="11" y="11"/><path d="M159.5014,11 L159.5014,20.7999 L149.5014,30.7999 L11,30.7999" fill="none" style="stroke:#000000;stroke-width:1.5;"/><text fill="#000000" font-family="sans-serif" font-size="14" lengthAdjust="spacing" textLength="138.5014" x="14" y="25.0059">calc_SSA_num_preds</text><rect fill="#555555" height="6" rx="2.5" ry="2.5" style="stroke:#555555;stroke-width:1;" width="424.1303" x="21" y="40.7999"/><rect fill="#F1F1F1" height="34.4001" rx="12.5" ry="12.5" style="stroke:#181818;stroke-width:0.5;" width="198.4053" x="35" y="66.7999"/><text fill="#000000" font-family="sans-serif" font-size="12" lengthAdjust="spacing" textLength="178.4053" x="45" y="87.948">PredLL *t_inp_pred_arr &lt;- INPUT</text><rect fill="#F1F1F1" height="34.4001" rx="12.5" ry="12.5" style="stroke:#181818;stroke-width:0.5;" width="169.7251" x="261.4053" y="66.7999"/><text fill="#000000" font-family="sans-serif" font-size="12" lengthAdjust="spacing" textLength="149.7251" x="271.4053" y="87.948">size_t t_inp_index &lt;- INPUT</text><rect fill="#555555" height="6" rx="2.5" ry="2.5" style="stroke:#555555;stroke-width:1;" width="424.1303" x="21" y="121.2"/><rect fill="#555555" height="6" rx="2.5" ry="2.5" style="stroke:#555555;stroke-width:1;" width="401.4862" x="32.3221" y="147.2"/><rect fill="#F1F1F1" height="34.4001" rx="12.5" ry="12.5" style="stroke:#181818;stroke-width:0.5;" width="250.4496" x="46.3221" y="173.2"/><text fill="#000000" font-family="sans-serif" font-size="12" lengthAdjust="spacing" textLength="230.4496" x="56.3221" y="194.3481">PredLL t_list &lt;- t_inp_pred_arr[t_inp_index]</text><rect fill="#F1F1F1" height="34.4001" rx="12.5" ry="12.5" style="stroke:#181818;stroke-width:0.5;" width="95.0366" x="324.7717" y="173.2"/><text fill="#000000" font-family="sans-serif" font-size="12" lengthAdjust="spacing" textLength="75.0366" x="334.7717" y="194.3481">size_t t_c &lt;- 1</text><rect fill="#555555" height="6" rx="2.5" ry="2.5" style="stroke:#555555;stroke-width:1;" width="401.4862" x="32.3221" y="227.6001"/><rect fill="#F1F1F1" height="34.4001" rx="12.5" ry="12.5" style="stroke:#181818;stroke-width:0.5;" width="113.0367" x="176.5468" y="297.6001"/><text fill="#000000" font-family="sans-serif" font-size="12" lengthAdjust="spacing" textLength="93.0367" x="186.5468" y="318.7482">t_list &lt;- t_list.next</text><rect fill="#F1F1F1" height="34.4001" rx="12.5" ry="12.5" style="stroke:#181818;stroke-width:0.5;" width="90.0445" x="188.0429" y="367.0002"/><text fill="#000000" font-family="sans-serif" font-size="12" lengthAdjust="spacing" textLength="70.0445" x="198.0429" y="388.1483">t_c &lt;- t_c + 1</text><polygon fill="#F1F1F1" points="187.9765,253.6001,278.1538,253.6001,290.1538,265.6001,278.1538,277.6001,187.9765,277.6001,175.9765,265.6001,187.9765,253.6001" style="stroke:#181818;stroke-width:0.5;"/><text fill="#000000" font-family="sans-serif" font-size="11" lengthAdjust="spacing" textLength="90.1774" x="187.9765" y="269.2191">t_list.next != NULL</text><rect fill="#F1F1F1" height="34.4001" rx="12.5" ry="12.5" style="stroke:#181818;stroke-width:0.5;" width="88.6765" x="188.7269" y="443.4003"/><text fill="#000000" font-family="sans-serif" font-size="12" lengthAdjust="spacing" textLength="68.6765" x="198.7269" y="464.5484">OUTPUT t_c</text><line style="stroke:#181818;stroke-width:1;" x1="134.2026" x2="134.2026" y1="46.7999" y2="66.7999"/><polygon fill="#181818" points="130.2026,56.7999,134.2026,66.7999,138.2026,56.7999,134.2026,60.7999" style="stroke:#181818;stroke-width:1;"/><line style="stroke:#181818;stroke-width:1;" x1="346.2678" x2="346.2678" y1="46.7999" y2="66.7999"/><polygon fill="#181818" points="342.2678,56.7999,346.2678,66.7999,350.2678,56.7999,346.2678,60.7999" style="stroke:#181818;stroke-width:1;"/><line style="stroke:#181818;stroke-width:1;" x1="134.2026" x2="134.2026" y1="101.2" y2="121.2"/><polygon fill="#181818" points="130.2026,111.2,134.2026,121.2,138.2026,111.2,134.2026,115.2" style="stroke:#181818;stroke-width:1;"/><line style="stroke:#181818;stroke-width:1;" x1="346.2678" x2="346.2678" y1="101.2" y2="121.2"/><polygon fill="#181818" points="342.2678,111.2,346.2678,121.2,350.2678,111.2,346.2678,115.2" style="stroke:#181818;stroke-width:1;"/><line style="stroke:#181818;stroke-width:1;" x1="171.5469" x2="171.5469" y1="153.2" y2="173.2"/><polygon fill="#181818" points="167.5469,163.2,171.5469,173.2,175.5469,163.2,171.5469,167.2" style="stroke:#181818;stroke-width:1;"/><line style="stroke:#181818;stroke-width:1;" x1="372.29" x2="372.29" y1="153.2" y2="173.2"/><polygon fill="#181818" points="368.29,163.2,372.29,173.2,376.29,163.2,372.29,167.2" style="stroke:#181818;stroke-width:1;"/><line style="stroke:#181818;stroke-width:1;" x1="171.5469" x2="171.5469" y1="207.6001" y2="227.6001"/><polygon fill="#181818" points="167.5469,217.6001,171.5469,227.6001,175.5469,217.6001,171.5469,221.6001" style="stroke:#181818;stroke-width:1;"/><line style="stroke:#181818;stroke-width:1;" x1="372.29" x2="372.29" y1="207.6001" y2="227.6001"/><polygon fill="#181818" points="368.29,217.6001,372.29,227.6001,376.29,217.6001,372.29,221.6001" style="stroke:#181818;stroke-width:1;"/><line style="stroke:#181818;stroke-width:1;" x1="233.0652" x2="233.0652" y1="127.2" y2="147.2"/><polygon fill="#181818" points="229.0652,137.2,233.0652,147.2,237.0652,137.2,233.0652,141.2" style="stroke:#181818;stroke-width:1;"/><line style="stroke:#181818;stroke-width:1;" x1="233.0652" x2="233.0652" y1="332.0002" y2="367.0002"/><polygon fill="#181818" points="229.0652,357.0002,233.0652,367.0002,237.0652,357.0002,233.0652,361.0002" style="stroke:#181818;stroke-width:1;"/><line style="stroke:#181818;stroke-width:1;" x1="233.0652" x2="233.0652" y1="277.6001" y2="297.6001"/><polygon fill="#181818" points="229.0652,287.6001,233.0652,297.6001,237.0652,287.6001,233.0652,291.6001" style="stroke:#181818;stroke-width:1;"/><line style="stroke:#181818;stroke-width:1;" x1="233.0652" x2="233.0652" y1="401.4003" y2="411.4003"/><line style="stroke:#181818;stroke-width:1;" x1="233.0652" x2="302.1538" y1="411.4003" y2="411.4003"/><polygon fill="#181818" points="298.1538,347.5002,302.1538,337.5002,306.1538,347.5002,302.1538,343.5002" style="stroke:#181818;stroke-width:1;"/><line style="stroke:#181818;stroke-width:1;" x1="302.1538" x2="302.1538" y1="265.6001" y2="411.4003"/><line style="stroke:#181818;stroke-width:1;" x1="302.1538" x2="290.1538" y1="265.6001" y2="265.6001"/><polygon fill="#181818" points="300.1538,261.6001,290.1538,265.6001,300.1538,269.6001,296.1538,265.6001" style="stroke:#181818;stroke-width:1;"/><line style="stroke:#181818;stroke-width:1;" x1="175.9765" x2="163.9765" y1="265.6001" y2="265.6001"/><polygon fill="#181818" points="159.9765,333.5002,163.9765,343.5002,167.9765,333.5002,163.9765,337.5002" style="stroke:#181818;stroke-width:1;"/><line style="stroke:#181818;stroke-width:1;" x1="163.9765" x2="163.9765" y1="265.6001" y2="423.4003"/><line style="stroke:#181818;stroke-width:1;" x1="163.9765" x2="233.0652" y1="423.4003" y2="423.4003"/><line style="stroke:#181818;stroke-width:1;" x1="233.0652" x2="233.0652" y1="423.4003" y2="443.4003"/><polygon fill="#181818" points="229.0652,433.4003,233.0652,443.4003,237.0652,433.4003,233.0652,437.4003" style="stroke:#181818;stroke-width:1;"/><line style="stroke:#181818;stroke-width:1;" x1="233.0652" x2="233.0652" y1="233.6001" y2="253.6001"/><polygon fill="#181818" points="229.0652,243.6001,233.0652,253.6001,237.0652,243.6001,233.0652,247.6001" style="stroke:#181818;stroke-width:1;"/><!--SRC=[ZO_F2u8m5CVl_XMlMpyewAfrw1WC4zHJn1XprIERCXT9qV_UDaaD37gdZU-FptibKner5X8uopcDumsLjoijbSWgU7fWvbYeYtlOyIEZ409JJL6MpaUPKh2QmpQCqYHe8y1E36KNhF0Xg8OcXp8JzL18oEmtLDCSAsrZt_Hzh_JmnmRSLYm7gFSpvWB63MSXHQrXj8Om9MJIrVItQ7r1N-UDo67seHY0wtOVVvScvchh2BpN6m00]--></g></svg>