<svg xmlns="http://www.w3.org/2000/svg" xmlns:xlink="http://www.w3.org/1999/xlink" contentStyleType="text/css" data-diagram-type="ACTIVITY" height="740px" preserveAspectRatio="none" style="width:963px;height:740px;background:#FFFFFF;" version="1.1" viewBox="0 0 963 740" width="963px" zoomAndPan="magnify"><defs/><g><rect fill="none" height="718.6006" style="stroke:#000000;stroke-width:1.5;" width="941.7569" x="11" y="11"/><path d="M201.5432,11 L201.5432,20.7999 L191.5432,30.7999 L11,30.7999" fill="none" style="stroke:#000000;stroke-width:1.5;"/><text fill="#000000" font-family="sans-serif" font-size="14" lengthAdjust="spacing" textLength="180.5432" x="14" y="25.0059">calc_SSA_push_to_Size_tLL</text><ellipse cx="481.8785" cy="50.7999" fill="#222222" rx="10" ry="10" style="stroke:#222222;stroke-width:1;"/><rect fill="#555555" height="6" rx="2.5" ry="2.5" style="stroke:#555555;stroke-width:1;" width="424.1303" x="269.8133" y="80.7999"/><rect fill="#F1F1F1" height="34.4001" rx="12.5" ry="12.5" style="stroke:#181818;stroke-width:0.5;" width="184.4012" x="283.8133" y="106.7999"/><text fill="#000000" font-family="sans-serif" font-size="12" lengthAdjust="spacing" textLength="164.4012" x="293.8133" y="127.948">Size_tLL t_inp_stack &lt;- INPUT</text><rect fill="#F1F1F1" height="34.4001" rx="12.5" ry="12.5" style="stroke:#181818;stroke-width:0.5;" width="183.7292" x="496.2145" y="106.7999"/><text fill="#000000" font-family="sans-serif" font-size="12" lengthAdjust="spacing" textLength="163.7292" x="506.2145" y="127.948">size_t t_inp_element &lt;- INPUT</text><rect fill="#555555" height="6" rx="2.5" ry="2.5" style="stroke:#555555;stroke-width:1;" width="424.1303" x="269.8133" y="161.2"/><rect fill="#F1F1F1" height="34.4001" rx="12.5" ry="12.5" style="stroke:#181818;stroke-width:0.5;" width="197.7693" x="382.9938" y="187.2"/><text fill="#000000" font-family="sans-serif" font-size="12" lengthAdjust="spacing" textLength="177.7693" x="392.9938" y="208.3481">Size_tLL *t_head &lt;- &amp;t_inp_stack</text><polygon fill="#F1F1F1" points="433.7318,241.6001,530.0251,241.6001,542.0251,253.6001,530.0251,265.6001,433.7318,265.6001,421.7318,253.6001,433.7318,241.6001" style="stroke:#181818;stroke-width:0.5;"/><text fill="#000000" font-family="sans-serif" font-size="11" lengthAdjust="spacing" textLength="96.2933" x="433.7318" y="257.2191">t_inp_stack = NULL</text><text fill="#000000" font-family="sans-serif" font-size="11" lengthAdjust="spacing" textLength="29.9418" x="391.7901" y="250.6192">TRUE</text><text fill="#000000" font-family="sans-serif" font-size="11" lengthAdjust="spacing" textLength="34.8477" x="542.0251" y="250.6192">FALSE</text><rect fill="#F1F1F1" height="34.4001" rx="12.5" ry="12.5" style="stroke:#181818;stroke-width:0.5;" width="308.47" x="92.2042" y="275.6001"/><text fill="#000000" font-family="sans-serif" font-size="12" lengthAdjust="spacing" textLength="288.47" x="102.2042" y="296.7482">Size_tLL t_push_node &lt;- malloc(sizeof(t_push_node))</text><rect fill="#555555" height="6" rx="2.5" ry="2.5" style="stroke:#555555;stroke-width:1;" width="448.8785" x="23" y="330.0002"/><rect fill="#F1F1F1" height="34.4001" rx="12.5" ry="12.5" style="stroke:#181818;stroke-width:0.5;" width="231.1295" x="35" y="356.0002"/><text fill="#000000" font-family="sans-serif" font-size="12" lengthAdjust="spacing" textLength="211.1295" x="45" y="377.1483">t_push_node.contents &lt;- t_inp_element</text><rect fill="#F1F1F1" height="34.4001" rx="12.5" ry="12.5" style="stroke:#181818;stroke-width:0.5;" width="163.749" x="294.1295" y="356.0002"/><text fill="#000000" font-family="sans-serif" font-size="12" lengthAdjust="spacing" textLength="143.749" x="304.1295" y="377.1483">t_push_node.next &lt;- NULL</text><rect fill="#555555" height="6" rx="2.5" ry="2.5" style="stroke:#555555;stroke-width:1;" width="448.8785" x="23" y="410.4003"/><rect fill="#F1F1F1" height="34.4001" rx="12.5" ry="12.5" style="stroke:#181818;stroke-width:0.5;" width="308.47" x="563.0827" y="275.6001"/><text fill="#000000" font-family="sans-serif" font-size="12" lengthAdjust="spacing" textLength="288.47" x="573.0827" y="296.7482">Size_tLL t_push_node &lt;- malloc(sizeof(t_push_node))</text><rect fill="#555555" height="6" rx="2.5" ry="2.5" style="stroke:#555555;stroke-width:1;" width="448.8785" x="491.8785" y="330.0002"/><rect fill="#F1F1F1" height="34.4001" rx="12.5" ry="12.5" style="stroke:#181818;stroke-width:0.5;" width="163.749" x="505.8785" y="356.0002"/><text fill="#000000" font-family="sans-serif" font-size="12" lengthAdjust="spacing" textLength="143.749" x="515.8785" y="377.1483">t_push_node.next &lt;- NULL</text><rect fill="#F1F1F1" height="34.4001" rx="12.5" ry="12.5" style="stroke:#181818;stroke-width:0.5;" width="231.1295" x="697.6275" y="356.0002"/><text fill="#000000" font-family="sans-serif" font-size="12" lengthAdjust="spacing" textLength="211.1295" x="707.6275" y="377.1483">t_push_node.contents &lt;- t_inp_element</text><rect fill="#555555" height="6" rx="2.5" ry="2.5" style="stroke:#555555;stroke-width:1;" width="448.8785" x="491.8785" y="410.4003"/><rect fill="#F1F1F1" height="34.4001" rx="12.5" ry="12.5" style="stroke:#181818;stroke-width:0.5;" width="185.0852" x="624.7751" y="480.4003"/><text fill="#000000" font-family="sans-serif" font-size="12" lengthAdjust="spacing" textLength="165.0852" x="634.7751" y="501.5484">t_inp_stack &lt;- t_inp_stack.next</text><polygon fill="#F1F1F1" points="655.7182,436.4003,778.9172,436.4003,790.9172,448.4003,778.9172,460.4003,655.7182,460.4003,643.7182,448.4003,655.7182,436.4003" style="stroke:#181818;stroke-width:0.5;"/><text fill="#000000" font-family="sans-serif" font-size="11" lengthAdjust="spacing" textLength="123.1991" x="655.7182" y="452.0193">t_inp_stack.next != NULL</text><rect fill="#F1F1F1" height="34.4001" rx="12.5" ry="12.5" style="stroke:#181818;stroke-width:0.5;" width="193.7732" x="620.4311" y="556.8004"/><text fill="#000000" font-family="sans-serif" font-size="12" lengthAdjust="spacing" textLength="173.7732" x="630.4311" y="577.9485">t_inp_stack.next &lt;- t_push_node</text><polygon fill="#F1F1F1" points="481.8785,597.2005,493.8785,609.2005,481.8785,621.2005,469.8785,609.2005,481.8785,597.2005" style="stroke:#181818;stroke-width:0.5;"/><rect fill="#F1F1F1" height="34.4001" rx="12.5" ry="12.5" style="stroke:#181818;stroke-width:0.5;" width="109.3646" x="427.1962" y="641.2005"/><text fill="#000000" font-family="sans-serif" font-size="12" lengthAdjust="spacing" textLength="89.3646" x="437.1962" y="662.3486">OUTPUT t_head</text><ellipse cx="481.8785" cy="706.6006" fill="none" rx="11" ry="11" style="stroke:#222222;stroke-width:1;"/><ellipse cx="481.8785" cy="706.6006" fill="#222222" rx="6" ry="6" style="stroke:#222222;stroke-width:1;"/><line style="stroke:#181818;stroke-width:1;" x1="376.0139" x2="376.0139" y1="86.7999" y2="106.7999"/><polygon fill="#181818" points="372.0139,96.7999,376.0139,106.7999,380.0139,96.7999,376.0139,100.7999" style="stroke:#181818;stroke-width:1;"/><line style="stroke:#181818;stroke-width:1;" x1="588.0791" x2="588.0791" y1="86.7999" y2="106.7999"/><polygon fill="#181818" points="584.0791,96.7999,588.0791,106.7999,592.0791,96.7999,588.0791,100.7999" style="stroke:#181818;stroke-width:1;"/><line style="stroke:#181818;stroke-width:1;" x1="376.0139" x2="376.0139" y1="141.2" y2="161.2"/><polygon fill="#181818" points="372.0139,151.2,376.0139,161.2,380.0139,151.2,376.0139,155.2" style="stroke:#181818;stroke-width:1;"/><line style="stroke:#181818;stroke-width:1;" x1="588.0791" x2="588.0791" y1="141.2" y2="161.2"/><polygon fill="#181818" points="584.0791,151.2,588.0791,161.2,592.0791,151.2,588.0791,155.2" style="stroke:#181818;stroke-width:1;"/><line style="stroke:#181818;stroke-width:1;" x1="481.8785" x2="481.8785" y1="60.7999" y2="80.7999"/><polygon fill="#181818" points="477.8785,70.7999,481.8785,80.7999,485.8785,70.7999,481.8785,74.7999" style="stroke:#181818;stroke-width:1;"/><line style="stroke:#181818;stroke-width:1;" x1="481.8785" x2="481.8785" y1="167.2" y2="187.2"/><polygon fill="#181818" points="477.8785,177.2,481.8785,187.2,485.8785,177.2,481.8785,181.2" style="stroke:#181818;stroke-width:1;"/><line style="stroke:#181818;stroke-width:1;" x1="150.5647" x2="150.5647" y1="336.0002" y2="356.0002"/><polygon fill="#181818" points="146.5647,346.0002,150.5647,356.0002,154.5647,346.0002,150.5647,350.0002" style="stroke:#181818;stroke-width:1;"/><line style="stroke:#181818;stroke-width:1;" x1="376.004" x2="376.004" y1="336.0002" y2="356.0002"/><polygon fill="#181818" points="372.004,346.0002,376.004,356.0002,380.004,346.0002,376.004,350.0002" style="stroke:#181818;stroke-width:1;"/><line style="stroke:#181818;stroke-width:1;" x1="150.5647" x2="150.5647" y1="390.4003" y2="410.4003"/><polygon fill="#181818" points="146.5647,400.4003,150.5647,410.4003,154.5647,400.4003,150.5647,404.4003" style="stroke:#181818;stroke-width:1;"/><line style="stroke:#181818;stroke-width:1;" x1="376.004" x2="376.004" y1="390.4003" y2="410.4003"/><polygon fill="#181818" points="372.004,400.4003,376.004,410.4003,380.004,400.4003,376.004,404.4003" style="stroke:#181818;stroke-width:1;"/><line style="stroke:#181818;stroke-width:1;" x1="246.4392" x2="246.4392" y1="310.0002" y2="330.0002"/><polygon fill="#181818" points="242.4392,320.0002,246.4392,330.0002,250.4392,320.0002,246.4392,324.0002" style="stroke:#181818;stroke-width:1;"/><line style="stroke:#181818;stroke-width:1;" x1="587.753" x2="587.753" y1="336.0002" y2="356.0002"/><polygon fill="#181818" points="583.753,346.0002,587.753,356.0002,591.753,346.0002,587.753,350.0002" style="stroke:#181818;stroke-width:1;"/><line style="stroke:#181818;stroke-width:1;" x1="813.1922" x2="813.1922" y1="336.0002" y2="356.0002"/><polygon fill="#181818" points="809.1922,346.0002,813.1922,356.0002,817.1922,346.0002,813.1922,350.0002" style="stroke:#181818;stroke-width:1;"/><line style="stroke:#181818;stroke-width:1;" x1="587.753" x2="587.753" y1="390.4003" y2="410.4003"/><polygon fill="#181818" points="583.753,400.4003,587.753,410.4003,591.753,400.4003,587.753,404.4003" style="stroke:#181818;stroke-width:1;"/><line style="stroke:#181818;stroke-width:1;" x1="813.1922" x2="813.1922" y1="390.4003" y2="410.4003"/><polygon fill="#181818" points="809.1922,400.4003,813.1922,410.4003,817.1922,400.4003,813.1922,404.4003" style="stroke:#181818;stroke-width:1;"/><line style="stroke:#181818;stroke-width:1;" x1="717.3177" x2="717.3177" y1="310.0002" y2="330.0002"/><polygon fill="#181818" points="713.3177,320.0002,717.3177,330.0002,721.3177,320.0002,717.3177,324.0002" style="stroke:#181818;stroke-width:1;"/><line style="stroke:#181818;stroke-width:1;" x1="717.3177" x2="717.3177" y1="460.4003" y2="480.4003"/><polygon fill="#181818" points="713.3177,470.4003,717.3177,480.4003,721.3177,470.4003,717.3177,474.4003" style="stroke:#181818;stroke-width:1;"/><line style="stroke:#181818;stroke-width:1;" x1="717.3177" x2="717.3177" y1="514.8004" y2="524.8004"/><line style="stroke:#181818;stroke-width:1;" x1="717.3177" x2="821.8603" y1="524.8004" y2="524.8004"/><polygon fill="#181818" points="817.8603,495.6004,821.8603,485.6004,825.8603,495.6004,821.8603,491.6004" style="stroke:#181818;stroke-width:1;"/><line style="stroke:#181818;stroke-width:1;" x1="821.8603" x2="821.8603" y1="448.4003" y2="524.8004"/><line style="stroke:#181818;stroke-width:1;" x1="821.8603" x2="790.9172" y1="448.4003" y2="448.4003"/><polygon fill="#181818" points="800.9172,444.4003,790.9172,448.4003,800.9172,452.4003,796.9172,448.4003" style="stroke:#181818;stroke-width:1;"/><line style="stroke:#181818;stroke-width:1;" x1="643.7182" x2="612.7751" y1="448.4003" y2="448.4003"/><polygon fill="#181818" points="608.7751,481.6004,612.7751,491.6004,616.7751,481.6004,612.7751,485.6004" style="stroke:#181818;stroke-width:1;"/><line style="stroke:#181818;stroke-width:1;" x1="612.7751" x2="612.7751" y1="448.4003" y2="536.8004"/><line style="stroke:#181818;stroke-width:1;" x1="612.7751" x2="717.3177" y1="536.8004" y2="536.8004"/><line style="stroke:#181818;stroke-width:1;" x1="717.3177" x2="717.3177" y1="536.8004" y2="556.8004"/><polygon fill="#181818" points="713.3177,546.8004,717.3177,556.8004,721.3177,546.8004,717.3177,550.8004" style="stroke:#181818;stroke-width:1;"/><line style="stroke:#181818;stroke-width:1;" x1="717.3177" x2="717.3177" y1="416.4003" y2="436.4003"/><polygon fill="#181818" points="713.3177,426.4003,717.3177,436.4003,721.3177,426.4003,717.3177,430.4003" style="stroke:#181818;stroke-width:1;"/><line style="stroke:#181818;stroke-width:1;" x1="421.7318" x2="246.4392" y1="253.6001" y2="253.6001"/><line style="stroke:#181818;stroke-width:1;" x1="246.4392" x2="246.4392" y1="253.6001" y2="275.6001"/><polygon fill="#181818" points="242.4392,265.6001,246.4392,275.6001,250.4392,265.6001,246.4392,269.6001" style="stroke:#181818;stroke-width:1;"/><line style="stroke:#181818;stroke-width:1;" x1="542.0251" x2="717.3177" y1="253.6001" y2="253.6001"/><line style="stroke:#181818;stroke-width:1;" x1="717.3177" x2="717.3177" y1="253.6001" y2="275.6001"/><polygon fill="#181818" points="713.3177,265.6001,717.3177,275.6001,721.3177,265.6001,717.3177,269.6001" style="stroke:#181818;stroke-width:1;"/><line style="stroke:#181818;stroke-width:1;" x1="246.4392" x2="246.4392" y1="416.4003" y2="609.2005"/><line style="stroke:#181818;stroke-width:1;" x1="246.4392" x2="469.8785" y1="609.2005" y2="609.2005"/><polygon fill="#181818" points="459.8785,605.2005,469.8785,609.2005,459.8785,613.2005,463.8785,609.2005" style="stroke:#181818;stroke-width:1;"/><line style="stroke:#181818;stroke-width:1;" x1="717.3177" x2="717.3177" y1="591.2005" y2="609.2005"/><line style="stroke:#181818;stroke-width:1;" x1="717.3177" x2="493.8785" y1="609.2005" y2="609.2005"/><polygon fill="#181818" points="503.8785,605.2005,493.8785,609.2005,503.8785,613.2005,499.8785,609.2005" style="stroke:#181818;stroke-width:1;"/><line style="stroke:#181818;stroke-width:1;" x1="481.8785" x2="481.8785" y1="221.6001" y2="241.6001"/><polygon fill="#181818" points="477.8785,231.6001,481.8785,241.6001,485.8785,231.6001,481.8785,235.6001" style="stroke:#181818;stroke-width:1;"/><line style="stroke:#181818;stroke-width:1;" x1="481.8785" x2="481.8785" y1="621.2005" y2="641.2005"/><polygon fill="#181818" points="477.8785,631.2005,481.8785,641.2005,485.8785,631.2005,481.8785,635.2005" style="stroke:#181818;stroke-width:1;"/><line style="stroke:#181818;stroke-width:1;" x1="481.8785" x2="481.8785" y1="675.6006" y2="695.6006"/><polygon fill="#181818" points="477.8785,685.6006,481.8785,695.6006,485.8785,685.6006,481.8785,689.6006" style="stroke:#181818;stroke-width:1;"/><!--SRC=[hP91IyGm48NFoQyOBv8A-WDszR071Q6iOjjp2EdKXiqcPHjH5F-xITejoRhWnVDyy-QzuGtYu9HJre0KMlAgsl3XRUovixnIdyXTMS8N9QFp72MTFUme8QjbvBWo0_TJkOFRQtZSFZVrUk90l0fb0Zr6UcPHunwD-qMZQMaYVELuZw8Ds6LonDEg0vQUlODjKvO5k1uDiFgbkIzEBCP0nhOOrFP2QojPy6GxbWoBmeiV4v9LChcHrZZlUGpxMOhZnf8rtpFu4OC6WmiQWw8U4TZ3fgp-t-tPg-SD_XqikYNllTAOlNswSZ4_VnREkd0A1qcl5gLeZY-M4syUzxJgV2cUcjeN1QP6h4CPxK2_Vm00]--></g></svg>