<svg xmlns="http://www.w3.org/2000/svg" xmlns:xlink="http://www.w3.org/1999/xlink" contentStyleType="text/css" data-diagram-type="ACTIVITY" height="883px" preserveAspectRatio="none" style="width:542px;height:883px;background:#FFFFFF;" version="1.1" viewBox="0 0 542 883" width="542px" zoomAndPan="magnify"><defs/><g><rect fill="none" height="861.0008" style="stroke:#000000;stroke-width:1.5;" width="520.1829" x="11" y="11"/><path d="M214.7592,11 L214.7592,20.7999 L204.7592,30.7999 L11,30.7999" fill="none" style="stroke:#000000;stroke-width:1.5;"/><text fill="#000000" font-family="sans-serif" font-size="14" lengthAdjust="spacing" textLength="193.7592" x="14" y="25.0059">calc_SSA_operation_block_set</text><ellipse cx="271.0915" cy="50.7999" fill="#222222" rx="10" ry="10" style="stroke:#222222;stroke-width:1;"/><rect fill="#555555" height="6" rx="2.5" ry="2.5" style="stroke:#555555;stroke-width:1;" width="421.4183" x="60.3823" y="80.7999"/><rect fill="#F1F1F1" height="34.4001" rx="12.5" ry="12.5" style="stroke:#181818;stroke-width:0.5;" width="193.7132" x="74.3823" y="106.7999"/><text fill="#000000" font-family="sans-serif" font-size="12" lengthAdjust="spacing" textLength="173.7132" x="84.3823" y="127.948">CFGNode *t_inp_CFG &lt;- INPUT</text><rect fill="#F1F1F1" height="34.4001" rx="12.5" ry="12.5" style="stroke:#181818;stroke-width:0.5;" width="171.7051" x="296.0955" y="106.7999"/><text fill="#000000" font-family="sans-serif" font-size="12" lengthAdjust="spacing" textLength="151.7051" x="306.0955" y="127.948">size_t t_CFG_size &lt;- INPUT</text><rect fill="#555555" height="6" rx="2.5" ry="2.5" style="stroke:#555555;stroke-width:1;" width="421.4183" x="60.3823" y="161.2"/><rect fill="#555555" height="6" rx="2.5" ry="2.5" style="stroke:#555555;stroke-width:1;" width="500.1829" x="21" y="187.2"/><rect fill="#F1F1F1" height="48.8002" rx="12.5" ry="12.5" style="stroke:#181818;stroke-width:0.5;" width="295.114" x="33" y="213.2"/><text fill="#000000" font-family="sans-serif" font-size="12" lengthAdjust="spacing" textLength="275.114" x="43" y="234.3481">size_t t_set_size &lt;- calc_SSA_block_set_num_vars</text><text fill="#000000" font-family="sans-serif" font-size="12" lengthAdjust="spacing" textLength="136.0329" x="43" y="248.7482">(t_inp_CFG, t_CFG_size)</text><rect fill="#F1F1F1" height="34.4001" rx="12.5" ry="12.5" style="stroke:#181818;stroke-width:0.5;" width="153.069" x="356.114" y="220.4001"/><text fill="#000000" font-family="sans-serif" font-size="12" lengthAdjust="spacing" textLength="133.069" x="366.114" y="241.5482">size_t t_block_count &lt;- 0</text><rect fill="#555555" height="6" rx="2.5" ry="2.5" style="stroke:#555555;stroke-width:1;" width="500.1829" x="21" y="282.0002"/><rect fill="#F1F1F1" height="34.4001" rx="12.5" ry="12.5" style="stroke:#181818;stroke-width:0.5;" width="157.413" x="192.385" y="308.0002"/><text fill="#000000" font-family="sans-serif" font-size="12" lengthAdjust="spacing" textLength="137.413" x="202.385" y="329.1483">Size_tLL t_out[t_set_size]</text><rect fill="#F1F1F1" height="63.2003" rx="12.5" ry="12.5" style="stroke:#181818;stroke-width:0.5;" width="304.138" x="119.0224" y="499.0003"/><text fill="#000000" font-family="sans-serif" font-size="12" lengthAdjust="spacing" textLength="209.7735" x="129.0224" y="520.1484">t_out[t_inp_CFG[t_block_count].regl] &lt;-</text><text fill="#000000" font-family="sans-serif" font-size="12" lengthAdjust="spacing" textLength="170.0892" x="129.0224" y="534.5485">calc_SSA_append_to_ll_sparse</text><text fill="#000000" font-family="sans-serif" font-size="12" lengthAdjust="spacing" textLength="284.138" x="129.0224" y="548.9486">(t_block_count, t_out[t_inp_CFG[t_block_count].regl])</text><polygon fill="#F1F1F1" points="170.0572,450.4003,372.1257,450.4003,384.1257,462.4003,372.1257,474.4003,170.0572,474.4003,158.0572,462.4003,170.0572,450.4003" style="stroke:#181818;stroke-width:0.5;"/><text fill="#000000" font-family="sans-serif" font-size="11" lengthAdjust="spacing" textLength="29.9418" x="275.0915" y="484.6193">TRUE</text><text fill="#000000" font-family="sans-serif" font-size="11" lengthAdjust="spacing" textLength="202.0685" x="170.0572" y="466.0193">t_inp_CFG[t_block_count].regl_reg = true</text><polygon fill="#F1F1F1" points="271.0915,586.8005,283.0915,598.8005,271.0915,610.8005,259.0915,598.8005,271.0915,586.8005" style="stroke:#181818;stroke-width:0.5;"/><rect fill="#F1F1F1" height="34.4001" rx="12.5" ry="12.5" style="stroke:#181818;stroke-width:0.5;" width="341.1583" x="100.5123" y="630.8005"/><text fill="#000000" font-family="sans-serif" font-size="12" lengthAdjust="spacing" textLength="321.1583" x="110.5123" y="651.9486">t_inp_CFG[t_block_count] &lt;- t_inp_CFG[t_block_count].next</text><polygon fill="#F1F1F1" points="173.7257,406.4003,368.4572,406.4003,380.4572,418.4003,368.4572,430.4003,173.7257,430.4003,161.7257,418.4003,173.7257,406.4003" style="stroke:#181818;stroke-width:0.5;"/><text fill="#000000" font-family="sans-serif" font-size="11" lengthAdjust="spacing" textLength="194.7316" x="173.7257" y="422.0193">t_inp_CFG[t_block_count].next != NULL</text><rect fill="#F1F1F1" height="34.4001" rx="12.5" ry="12.5" style="stroke:#181818;stroke-width:0.5;" width="206.1093" x="168.0368" y="707.2006"/><text fill="#000000" font-family="sans-serif" font-size="12" lengthAdjust="spacing" textLength="186.1093" x="178.0368" y="728.3487">t_block_count &lt;- t_block_count + 1</text><polygon fill="#F1F1F1" points="201.8525,362.4003,340.3304,362.4003,352.3304,374.4003,340.3304,386.4003,201.8525,386.4003,189.8525,374.4003,201.8525,362.4003" style="stroke:#181818;stroke-width:0.5;"/><text fill="#000000" font-family="sans-serif" font-size="11" lengthAdjust="spacing" textLength="138.478" x="201.8525" y="378.0193">t_block_count &lt; t_CFG_size</text><rect fill="#F1F1F1" height="34.4001" rx="12.5" ry="12.5" style="stroke:#181818;stroke-width:0.5;" width="99.3566" x="221.4132" y="783.6007"/><text fill="#000000" font-family="sans-serif" font-size="12" lengthAdjust="spacing" textLength="79.3566" x="231.4132" y="804.7488">OUTPUT t_out</text><ellipse cx="271.0915" cy="849.0008" fill="none" rx="11" ry="11" style="stroke:#222222;stroke-width:1;"/><ellipse cx="271.0915" cy="849.0008" fill="#222222" rx="6" ry="6" style="stroke:#222222;stroke-width:1;"/><line style="stroke:#181818;stroke-width:1;" x1="171.2389" x2="171.2389" y1="86.7999" y2="106.7999"/><polygon fill="#181818" points="167.2389,96.7999,171.2389,106.7999,175.2389,96.7999,171.2389,100.7999" style="stroke:#181818;stroke-width:1;"/><line style="stroke:#181818;stroke-width:1;" x1="381.9481" x2="381.9481" y1="86.7999" y2="106.7999"/><polygon fill="#181818" points="377.9481,96.7999,381.9481,106.7999,385.9481,96.7999,381.9481,100.7999" style="stroke:#181818;stroke-width:1;"/><line style="stroke:#181818;stroke-width:1;" x1="171.2389" x2="171.2389" y1="141.2" y2="161.2"/><polygon fill="#181818" points="167.2389,151.2,171.2389,161.2,175.2389,151.2,171.2389,155.2" style="stroke:#181818;stroke-width:1;"/><line style="stroke:#181818;stroke-width:1;" x1="381.9481" x2="381.9481" y1="141.2" y2="161.2"/><polygon fill="#181818" points="377.9481,151.2,381.9481,161.2,385.9481,151.2,381.9481,155.2" style="stroke:#181818;stroke-width:1;"/><line style="stroke:#181818;stroke-width:1;" x1="271.0915" x2="271.0915" y1="60.7999" y2="80.7999"/><polygon fill="#181818" points="267.0915,70.7999,271.0915,80.7999,275.0915,70.7999,271.0915,74.7999" style="stroke:#181818;stroke-width:1;"/><line style="stroke:#181818;stroke-width:1;" x1="180.557" x2="180.557" y1="193.2" y2="213.2"/><polygon fill="#181818" points="176.557,203.2,180.557,213.2,184.557,203.2,180.557,207.2" style="stroke:#181818;stroke-width:1;"/><line style="stroke:#181818;stroke-width:1;" x1="432.6484" x2="432.6484" y1="193.2" y2="220.4001"/><polygon fill="#181818" points="428.6484,210.4001,432.6484,220.4001,436.6484,210.4001,432.6484,214.4001" style="stroke:#181818;stroke-width:1;"/><line style="stroke:#181818;stroke-width:1;" x1="180.557" x2="180.557" y1="262.0002" y2="282.0002"/><polygon fill="#181818" points="176.557,272.0002,180.557,282.0002,184.557,272.0002,180.557,276.0002" style="stroke:#181818;stroke-width:1;"/><line style="stroke:#181818;stroke-width:1;" x1="432.6484" x2="432.6484" y1="254.8002" y2="282.0002"/><polygon fill="#181818" points="428.6484,272.0002,432.6484,282.0002,436.6484,272.0002,432.6484,276.0002" style="stroke:#181818;stroke-width:1;"/><line style="stroke:#181818;stroke-width:1;" x1="271.0915" x2="271.0915" y1="167.2" y2="187.2"/><polygon fill="#181818" points="267.0915,177.2,271.0915,187.2,275.0915,177.2,271.0915,181.2" style="stroke:#181818;stroke-width:1;"/><line style="stroke:#181818;stroke-width:1;" x1="271.0915" x2="271.0915" y1="288.0002" y2="308.0002"/><polygon fill="#181818" points="267.0915,298.0002,271.0915,308.0002,275.0915,298.0002,271.0915,302.0002" style="stroke:#181818;stroke-width:1;"/><line style="stroke:#181818;stroke-width:1;" x1="271.0915" x2="271.0915" y1="474.4003" y2="499.0003"/><polygon fill="#181818" points="267.0915,489.0003,271.0915,499.0003,275.0915,489.0003,271.0915,493.0003" style="stroke:#181818;stroke-width:1;"/><line style="stroke:#181818;stroke-width:1;" x1="384.1257" x2="433.1605" y1="462.4003" y2="462.4003"/><polygon fill="#181818" points="429.1605,520.6004,433.1605,530.6004,437.1605,520.6004,433.1605,524.6004" style="stroke:#181818;stroke-width:1;"/><line style="stroke:#181818;stroke-width:1;" x1="433.1605" x2="433.1605" y1="462.4003" y2="598.8005"/><line style="stroke:#181818;stroke-width:1;" x1="433.1605" x2="283.0915" y1="598.8005" y2="598.8005"/><polygon fill="#181818" points="293.0915,594.8005,283.0915,598.8005,293.0915,602.8005,289.0915,598.8005" style="stroke:#181818;stroke-width:1;"/><line style="stroke:#181818;stroke-width:1;" x1="271.0915" x2="271.0915" y1="562.2006" y2="586.8005"/><polygon fill="#181818" points="267.0915,576.8005,271.0915,586.8005,275.0915,576.8005,271.0915,580.8005" style="stroke:#181818;stroke-width:1;"/><line style="stroke:#181818;stroke-width:1;" x1="271.0915" x2="271.0915" y1="610.8005" y2="630.8005"/><polygon fill="#181818" points="267.0915,620.8005,271.0915,630.8005,275.0915,620.8005,271.0915,624.8005" style="stroke:#181818;stroke-width:1;"/><line style="stroke:#181818;stroke-width:1;" x1="271.0915" x2="271.0915" y1="430.4003" y2="450.4003"/><polygon fill="#181818" points="267.0915,440.4003,271.0915,450.4003,275.0915,440.4003,271.0915,444.4003" style="stroke:#181818;stroke-width:1;"/><line style="stroke:#181818;stroke-width:1;" x1="271.0915" x2="271.0915" y1="665.2006" y2="675.2006"/><line style="stroke:#181818;stroke-width:1;" x1="271.0915" x2="457.1605" y1="675.2006" y2="675.2006"/><polygon fill="#181818" points="453.1605,563.3005,457.1605,553.3005,461.1605,563.3005,457.1605,559.3005" style="stroke:#181818;stroke-width:1;"/><line style="stroke:#181818;stroke-width:1;" x1="457.1605" x2="457.1605" y1="418.4003" y2="675.2006"/><line style="stroke:#181818;stroke-width:1;" x1="457.1605" x2="380.4572" y1="418.4003" y2="418.4003"/><polygon fill="#181818" points="390.4572,414.4003,380.4572,418.4003,390.4572,422.4003,386.4572,418.4003" style="stroke:#181818;stroke-width:1;"/><line style="stroke:#181818;stroke-width:1;" x1="161.7257" x2="88.5123" y1="418.4003" y2="418.4003"/><polygon fill="#181818" points="84.5123,549.3005,88.5123,559.3005,92.5123,549.3005,88.5123,553.3005" style="stroke:#181818;stroke-width:1;"/><line style="stroke:#181818;stroke-width:1;" x1="88.5123" x2="88.5123" y1="418.4003" y2="687.2006"/><line style="stroke:#181818;stroke-width:1;" x1="88.5123" x2="271.0915" y1="687.2006" y2="687.2006"/><line style="stroke:#181818;stroke-width:1;" x1="271.0915" x2="271.0915" y1="687.2006" y2="707.2006"/><polygon fill="#181818" points="267.0915,697.2006,271.0915,707.2006,275.0915,697.2006,271.0915,701.2006" style="stroke:#181818;stroke-width:1;"/><line style="stroke:#181818;stroke-width:1;" x1="271.0915" x2="271.0915" y1="386.4003" y2="406.4003"/><polygon fill="#181818" points="267.0915,396.4003,271.0915,406.4003,275.0915,396.4003,271.0915,400.4003" style="stroke:#181818;stroke-width:1;"/><line style="stroke:#181818;stroke-width:1;" x1="271.0915" x2="271.0915" y1="741.6007" y2="751.6007"/><line style="stroke:#181818;stroke-width:1;" x1="271.0915" x2="469.1605" y1="751.6007" y2="751.6007"/><polygon fill="#181818" points="465.1605,586.0005,469.1605,576.0005,473.1605,586.0005,469.1605,582.0005" style="stroke:#181818;stroke-width:1;"/><line style="stroke:#181818;stroke-width:1;" x1="469.1605" x2="469.1605" y1="374.4003" y2="751.6007"/><line style="stroke:#181818;stroke-width:1;" x1="469.1605" x2="352.3304" y1="374.4003" y2="374.4003"/><polygon fill="#181818" points="362.3304,370.4003,352.3304,374.4003,362.3304,378.4003,358.3304,374.4003" style="stroke:#181818;stroke-width:1;"/><line style="stroke:#181818;stroke-width:1;" x1="189.8525" x2="64.5123" y1="374.4003" y2="374.4003"/><polygon fill="#181818" points="60.5123,572.0005,64.5123,582.0005,68.5123,572.0005,64.5123,576.0005" style="stroke:#181818;stroke-width:1;"/><line style="stroke:#181818;stroke-width:1;" x1="64.5123" x2="64.5123" y1="374.4003" y2="763.6007"/><line style="stroke:#181818;stroke-width:1;" x1="64.5123" x2="271.0915" y1="763.6007" y2="763.6007"/><line style="stroke:#181818;stroke-width:1;" x1="271.0915" x2="271.0915" y1="763.6007" y2="783.6007"/><polygon fill="#181818" points="267.0915,773.6007,271.0915,783.6007,275.0915,773.6007,271.0915,777.6007" style="stroke:#181818;stroke-width:1;"/><line style="stroke:#181818;stroke-width:1;" x1="271.0915" x2="271.0915" y1="342.4003" y2="362.4003"/><polygon fill="#181818" points="267.0915,352.4003,271.0915,362.4003,275.0915,352.4003,271.0915,356.4003" style="stroke:#181818;stroke-width:1;"/><line style="stroke:#181818;stroke-width:1;" x1="271.0915" x2="271.0915" y1="818.0008" y2="838.0008"/><polygon fill="#181818" points="267.0915,828.0008,271.0915,838.0008,275.0915,828.0008,271.0915,832.0008" style="stroke:#181818;stroke-width:1;"/><!--SRC=[ZLF1Ji9043tJhnXle6Zq2d8mHer9WqReYJIJjMnXGztTj5Cr6l_TsHQsb3I4EJIxs_VUl7dRMf6J8cKq929BS3QxGsDbBjmHlcScsM0X2Nu3u2g8qTKgDVccMhWQtJy-JSrImZcXqXPv2xUNy3nzZUPZ3mUn4aetf4BzI2GW1qUtwU98lUpevwbipLEzV-yQTVc1do8lFBFl3Gxt6WzEC5cB9gRKv9fTTtWSpIfm63BSbBHexCKr-ckjCkayjCJsZVZ67hgrksYHuYijlmdE9Z2Dmh1XkLBf4LekLndo0oP0UIa7G6kfeJz_YnxQAjKykp6EYCKSHj3h-Uo5jHm7ai4imy9ozf9VjqSUmYd2sqlP5QkgD3YmryrtztCqk4QPLQkaWptHWvjk7rp0JSrkCKSlqPo_stgkyVPNCJRu-mS0]--></g></svg>