<svg xmlns="http://www.w3.org/2000/svg" xmlns:xlink="http://www.w3.org/1999/xlink" contentStyleType="text/css" data-diagram-type="ACTIVITY" height="1061px" preserveAspectRatio="none" style="width:954px;height:1061px;background:#FFFFFF;" version="1.1" viewBox="0 0 954 1061" width="954px" zoomAndPan="magnify"><defs/><g><rect fill="none" height="1039.501" style="stroke:#000000;stroke-width:1.5;" width="932.9252" x="11" y="11"/><path d="M242.7591,11 L242.7591,20.7999 L232.7591,30.7999 L11,30.7999" fill="none" style="stroke:#000000;stroke-width:1.5;"/><text fill="#000000" font-family="sans-serif" font-size="14" lengthAdjust="spacing" textLength="221.7591" x="14" y="25.0059">calc_SSA_dominance_frontier_sets</text><ellipse cx="486.4626" cy="50.7999" fill="#222222" rx="10" ry="10" style="stroke:#222222;stroke-width:1;"/><rect fill="#555555" height="6" rx="2.5" ry="2.5" style="stroke:#555555;stroke-width:1;" width="912.9252" x="21" y="80.7999"/><rect fill="#F1F1F1" height="34.4001" rx="12.5" ry="12.5" style="stroke:#181818;stroke-width:0.5;" width="257.7457" x="33" y="106.7999"/><text fill="#000000" font-family="sans-serif" font-size="12" lengthAdjust="spacing" textLength="237.7457" x="43" y="127.948">CFGNode *t_inp_post_order_CFG &lt;- INPUT</text><rect fill="#F1F1F1" height="34.4001" rx="12.5" ry="12.5" style="stroke:#181818;stroke-width:0.5;" width="206.4093" x="318.7457" y="106.7999"/><text fill="#000000" font-family="sans-serif" font-size="12" lengthAdjust="spacing" textLength="186.4093" x="328.7457" y="127.948">Size_tLL *t_inp_pred_arr &lt;- INPUT</text><rect fill="#F1F1F1" height="34.4001" rx="12.5" ry="12.5" style="stroke:#181818;stroke-width:0.5;" width="196.3893" x="553.155" y="106.7999"/><text fill="#000000" font-family="sans-serif" font-size="12" lengthAdjust="spacing" textLength="176.3893" x="563.155" y="127.948">size_t *t_inp_doms_arr &lt;- INPUT</text><rect fill="#F1F1F1" height="34.4001" rx="12.5" ry="12.5" style="stroke:#181818;stroke-width:0.5;" width="162.381" x="759.5442" y="106.7999"/><text fill="#000000" font-family="sans-serif" font-size="12" lengthAdjust="spacing" textLength="142.381" x="769.5442" y="127.948">size_t t_inp_size &lt;- INPUT</text><rect fill="#555555" height="6" rx="2.5" ry="2.5" style="stroke:#555555;stroke-width:1;" width="912.9252" x="21" y="161.2"/><rect fill="#555555" height="6" rx="2.5" ry="2.5" style="stroke:#555555;stroke-width:1;" width="430.8141" x="271.0556" y="187.2"/><rect fill="#F1F1F1" height="34.4001" rx="12.5" ry="12.5" style="stroke:#181818;stroke-width:0.5;" width="95.0366" x="285.0556" y="213.2"/><text fill="#000000" font-family="sans-serif" font-size="12" lengthAdjust="spacing" textLength="75.0366" x="295.0556" y="234.3481">size_t t_c &lt;- 0</text><rect fill="#F1F1F1" height="34.4001" rx="12.5" ry="12.5" style="stroke:#181818;stroke-width:0.5;" width="101.0366" x="408.0921" y="213.2"/><text fill="#000000" font-family="sans-serif" font-size="12" lengthAdjust="spacing" textLength="81.0366" x="418.0921" y="234.3481">size_t t_sc &lt;- 0</text><rect fill="#F1F1F1" height="34.4001" rx="12.5" ry="12.5" style="stroke:#181818;stroke-width:0.5;" width="150.7409" x="537.1287" y="213.2"/><text fill="#000000" font-family="sans-serif" font-size="12" lengthAdjust="spacing" textLength="130.7409" x="547.1287" y="234.3481">Size_tLL t_df[t_inp_size]</text><rect fill="#555555" height="6" rx="2.5" ry="2.5" style="stroke:#555555;stroke-width:1;" width="430.8141" x="271.0556" y="267.6001"/><rect fill="#F1F1F1" height="48.8002" rx="12.5" ry="12.5" style="stroke:#181818;stroke-width:0.5;" width="261.1057" x="355.9098" y="337.6001"/><text fill="#000000" font-family="sans-serif" font-size="12" lengthAdjust="spacing" textLength="241.1057" x="365.9098" y="358.7482">size_t t_num_preds &lt;- calc_SSA_num_preds</text><text fill="#000000" font-family="sans-serif" font-size="12" lengthAdjust="spacing" textLength="108.7088" x="365.9098" y="373.1483">(t_inp_pred_arr, t_c)</text><rect fill="#F1F1F1" height="48.8002" rx="12.5" ry="12.5" style="stroke:#181818;stroke-width:0.5;" width="265.1137" x="353.9058" y="499.0003"/><text fill="#000000" font-family="sans-serif" font-size="12" lengthAdjust="spacing" textLength="245.1137" x="363.9058" y="520.1484">size_t t_runner &lt;- calc_SSA_nth_predecessor</text><text fill="#000000" font-family="sans-serif" font-size="12" lengthAdjust="spacing" textLength="137.389" x="363.9058" y="534.5485">(t_inp_pred_arr[t_c], t_sc)</text><rect fill="#F1F1F1" height="48.8002" rx="12.5" ry="12.5" style="stroke:#181818;stroke-width:0.5;" width="241.1376" x="365.8938" y="611.8005"/><text fill="#000000" font-family="sans-serif" font-size="12" lengthAdjust="spacing" textLength="221.1376" x="375.8938" y="632.9486">t_df[t_runner] &lt;- calc_SSA_append_to_df</text><text fill="#000000" font-family="sans-serif" font-size="12" lengthAdjust="spacing" textLength="102.0488" x="375.8938" y="647.3487">(t_df[t_runner], t_c)</text><rect fill="#F1F1F1" height="34.4001" rx="12.5" ry="12.5" style="stroke:#181818;stroke-width:0.5;" width="195.7532" x="388.586" y="688.9006"/><text fill="#000000" font-family="sans-serif" font-size="12" lengthAdjust="spacing" textLength="175.7532" x="398.586" y="710.0487">t_runner &lt;- t_inp_doms[t_runner]</text><polygon fill="#F1F1F1" points="409.5787,567.8005,563.3466,567.8005,575.3466,579.8005,563.3466,591.8005,409.5787,591.8005,397.5787,579.8005,409.5787,567.8005" style="stroke:#181818;stroke-width:0.5;"/><text fill="#000000" font-family="sans-serif" font-size="11" lengthAdjust="spacing" textLength="153.7679" x="409.5787" y="583.4195">t_runner != t_inp_doms_arr[t_c]</text><rect fill="#F1F1F1" height="34.4001" rx="12.5" ry="12.5" style="stroke:#181818;stroke-width:0.5;" width="102.0446" x="435.4403" y="765.3007"/><text fill="#000000" font-family="sans-serif" font-size="12" lengthAdjust="spacing" textLength="82.0446" x="445.4403" y="786.4488">t_sc &lt;- t_sc + 1</text><polygon fill="#F1F1F1" points="438.008,455.0003,534.9173,455.0003,546.9173,467.0003,534.9173,479.0003,438.008,479.0003,426.008,467.0003,438.008,455.0003" style="stroke:#181818;stroke-width:0.5;"/><text fill="#000000" font-family="sans-serif" font-size="11" lengthAdjust="spacing" textLength="96.9093" x="438.008" y="470.6193">t_sc &lt; t_num_preds</text><polygon fill="#F1F1F1" points="445.0369,406.4003,527.8883,406.4003,539.8883,418.4003,527.8883,430.4003,445.0369,430.4003,433.0369,418.4003,445.0369,406.4003" style="stroke:#181818;stroke-width:0.5;"/><text fill="#000000" font-family="sans-serif" font-size="11" lengthAdjust="spacing" textLength="29.9418" x="490.4626" y="440.6193">TRUE</text><text fill="#000000" font-family="sans-serif" font-size="11" lengthAdjust="spacing" textLength="82.8514" x="445.0369" y="422.0193">t_num_preds &gt; 1</text><polygon fill="#F1F1F1" points="486.4626,841.7008,498.4626,853.7008,486.4626,865.7008,474.4626,853.7008,486.4626,841.7008" style="stroke:#181818;stroke-width:0.5;"/><rect fill="#F1F1F1" height="34.4001" rx="12.5" ry="12.5" style="stroke:#181818;stroke-width:0.5;" width="90.0445" x="441.4404" y="885.7008"/><text fill="#000000" font-family="sans-serif" font-size="12" lengthAdjust="spacing" textLength="70.0445" x="451.4404" y="906.8489">t_c &lt;- t_c + 1</text><polygon fill="#F1F1F1" points="448.0949,293.6001,524.8303,293.6001,536.8303,305.6001,524.8303,317.6001,448.0949,317.6001,436.0949,305.6001,448.0949,293.6001" style="stroke:#181818;stroke-width:0.5;"/><text fill="#000000" font-family="sans-serif" font-size="11" lengthAdjust="spacing" textLength="76.7354" x="448.0949" y="309.2191">t_c &lt; t_inp_size</text><rect fill="#F1F1F1" height="34.4001" rx="12.5" ry="12.5" style="stroke:#181818;stroke-width:0.5;" width="92.6845" x="440.1204" y="962.1009"/><text fill="#000000" font-family="sans-serif" font-size="12" lengthAdjust="spacing" textLength="72.6845" x="450.1204" y="983.249">OUTPUT t_df</text><ellipse cx="486.4626" cy="1027.501" fill="none" rx="11" ry="11" style="stroke:#222222;stroke-width:1;"/><ellipse cx="486.4626" cy="1027.501" fill="#222222" rx="6" ry="6" style="stroke:#222222;stroke-width:1;"/><line style="stroke:#181818;stroke-width:1;" x1="161.8728" x2="161.8728" y1="86.7999" y2="106.7999"/><polygon fill="#181818" points="157.8728,96.7999,161.8728,106.7999,165.8728,96.7999,161.8728,100.7999" style="stroke:#181818;stroke-width:1;"/><line style="stroke:#181818;stroke-width:1;" x1="421.9503" x2="421.9503" y1="86.7999" y2="106.7999"/><polygon fill="#181818" points="417.9503,96.7999,421.9503,106.7999,425.9503,96.7999,421.9503,100.7999" style="stroke:#181818;stroke-width:1;"/><line style="stroke:#181818;stroke-width:1;" x1="651.3496" x2="651.3496" y1="86.7999" y2="106.7999"/><polygon fill="#181818" points="647.3496,96.7999,651.3496,106.7999,655.3496,96.7999,651.3496,100.7999" style="stroke:#181818;stroke-width:1;"/><line style="stroke:#181818;stroke-width:1;" x1="840.7347" x2="840.7347" y1="86.7999" y2="106.7999"/><polygon fill="#181818" points="836.7347,96.7999,840.7347,106.7999,844.7347,96.7999,840.7347,100.7999" style="stroke:#181818;stroke-width:1;"/><line style="stroke:#181818;stroke-width:1;" x1="161.8728" x2="161.8728" y1="141.2" y2="161.2"/><polygon fill="#181818" points="157.8728,151.2,161.8728,161.2,165.8728,151.2,161.8728,155.2" style="stroke:#181818;stroke-width:1;"/><line style="stroke:#181818;stroke-width:1;" x1="421.9503" x2="421.9503" y1="141.2" y2="161.2"/><polygon fill="#181818" points="417.9503,151.2,421.9503,161.2,425.9503,151.2,421.9503,155.2" style="stroke:#181818;stroke-width:1;"/><line style="stroke:#181818;stroke-width:1;" x1="651.3496" x2="651.3496" y1="141.2" y2="161.2"/><polygon fill="#181818" points="647.3496,151.2,651.3496,161.2,655.3496,151.2,651.3496,155.2" style="stroke:#181818;stroke-width:1;"/><line style="stroke:#181818;stroke-width:1;" x1="840.7347" x2="840.7347" y1="141.2" y2="161.2"/><polygon fill="#181818" points="836.7347,151.2,840.7347,161.2,844.7347,151.2,840.7347,155.2" style="stroke:#181818;stroke-width:1;"/><line style="stroke:#181818;stroke-width:1;" x1="486.4626" x2="486.4626" y1="60.7999" y2="80.7999"/><polygon fill="#181818" points="482.4626,70.7999,486.4626,80.7999,490.4626,70.7999,486.4626,74.7999" style="stroke:#181818;stroke-width:1;"/><line style="stroke:#181818;stroke-width:1;" x1="332.5739" x2="332.5739" y1="193.2" y2="213.2"/><polygon fill="#181818" points="328.5739,203.2,332.5739,213.2,336.5739,203.2,332.5739,207.2" style="stroke:#181818;stroke-width:1;"/><line style="stroke:#181818;stroke-width:1;" x1="458.6104" x2="458.6104" y1="193.2" y2="213.2"/><polygon fill="#181818" points="454.6104,203.2,458.6104,213.2,462.6104,203.2,458.6104,207.2" style="stroke:#181818;stroke-width:1;"/><line style="stroke:#181818;stroke-width:1;" x1="612.4992" x2="612.4992" y1="193.2" y2="213.2"/><polygon fill="#181818" points="608.4992,203.2,612.4992,213.2,616.4992,203.2,612.4992,207.2" style="stroke:#181818;stroke-width:1;"/><line style="stroke:#181818;stroke-width:1;" x1="332.5739" x2="332.5739" y1="247.6001" y2="267.6001"/><polygon fill="#181818" points="328.5739,257.6001,332.5739,267.6001,336.5739,257.6001,332.5739,261.6001" style="stroke:#181818;stroke-width:1;"/><line style="stroke:#181818;stroke-width:1;" x1="458.6104" x2="458.6104" y1="247.6001" y2="267.6001"/><polygon fill="#181818" points="454.6104,257.6001,458.6104,267.6001,462.6104,257.6001,458.6104,261.6001" style="stroke:#181818;stroke-width:1;"/><line style="stroke:#181818;stroke-width:1;" x1="612.4992" x2="612.4992" y1="247.6001" y2="267.6001"/><polygon fill="#181818" points="608.4992,257.6001,612.4992,267.6001,616.4992,257.6001,612.4992,261.6001" style="stroke:#181818;stroke-width:1;"/><line style="stroke:#181818;stroke-width:1;" x1="486.4626" x2="486.4626" y1="167.2" y2="187.2"/><polygon fill="#181818" points="482.4626,177.2,486.4626,187.2,490.4626,177.2,486.4626,181.2" style="stroke:#181818;stroke-width:1;"/><line style="stroke:#181818;stroke-width:1;" x1="486.4626" x2="486.4626" y1="660.6007" y2="688.9006"/><polygon fill="#181818" points="482.4626,678.9006,486.4626,688.9006,490.4626,678.9006,486.4626,682.9006" style="stroke:#181818;stroke-width:1;"/><line style="stroke:#181818;stroke-width:1;" x1="486.4626" x2="486.4626" y1="591.8005" y2="611.8005"/><polygon fill="#181818" points="482.4626,601.8005,486.4626,611.8005,490.4626,601.8005,486.4626,605.8005" style="stroke:#181818;stroke-width:1;"/><line style="stroke:#181818;stroke-width:1;" x1="486.4626" x2="486.4626" y1="723.3007" y2="733.3007"/><line style="stroke:#181818;stroke-width:1;" x1="486.4626" x2="619.0314" y1="733.3007" y2="733.3007"/><polygon fill="#181818" points="615.0314,668.9006,619.0314,658.9006,623.0314,668.9006,619.0314,664.9006" style="stroke:#181818;stroke-width:1;"/><line style="stroke:#181818;stroke-width:1;" x1="619.0314" x2="619.0314" y1="579.8005" y2="733.3007"/><line style="stroke:#181818;stroke-width:1;" x1="619.0314" x2="575.3466" y1="579.8005" y2="579.8005"/><polygon fill="#181818" points="585.3466,575.8005,575.3466,579.8005,585.3466,583.8005,581.3466,579.8005" style="stroke:#181818;stroke-width:1;"/><line style="stroke:#181818;stroke-width:1;" x1="397.5787" x2="353.8938" y1="579.8005" y2="579.8005"/><polygon fill="#181818" points="349.8938,654.9006,353.8938,664.9006,357.8938,654.9006,353.8938,658.9006" style="stroke:#181818;stroke-width:1;"/><line style="stroke:#181818;stroke-width:1;" x1="353.8938" x2="353.8938" y1="579.8005" y2="745.3007"/><line style="stroke:#181818;stroke-width:1;" x1="353.8938" x2="486.4626" y1="745.3007" y2="745.3007"/><line style="stroke:#181818;stroke-width:1;" x1="486.4626" x2="486.4626" y1="745.3007" y2="765.3007"/><polygon fill="#181818" points="482.4626,755.3007,486.4626,765.3007,490.4626,755.3007,486.4626,759.3007" style="stroke:#181818;stroke-width:1;"/><line style="stroke:#181818;stroke-width:1;" x1="486.4626" x2="486.4626" y1="547.8005" y2="567.8005"/><polygon fill="#181818" points="482.4626,557.8005,486.4626,567.8005,490.4626,557.8005,486.4626,561.8005" style="stroke:#181818;stroke-width:1;"/><line style="stroke:#181818;stroke-width:1;" x1="486.4626" x2="486.4626" y1="479.0003" y2="499.0003"/><polygon fill="#181818" points="482.4626,489.0003,486.4626,499.0003,490.4626,489.0003,486.4626,493.0003" style="stroke:#181818;stroke-width:1;"/><line style="stroke:#181818;stroke-width:1;" x1="486.4626" x2="486.4626" y1="799.7008" y2="809.7008"/><line style="stroke:#181818;stroke-width:1;" x1="486.4626" x2="631.0314" y1="809.7008" y2="809.7008"/><polygon fill="#181818" points="627.0314,649.7006,631.0314,639.7006,635.0314,649.7006,631.0314,645.7006" style="stroke:#181818;stroke-width:1;"/><line style="stroke:#181818;stroke-width:1;" x1="631.0314" x2="631.0314" y1="467.0003" y2="809.7008"/><line style="stroke:#181818;stroke-width:1;" x1="631.0314" x2="546.9173" y1="467.0003" y2="467.0003"/><polygon fill="#181818" points="556.9173,463.0003,546.9173,467.0003,556.9173,471.0003,552.9173,467.0003" style="stroke:#181818;stroke-width:1;"/><line style="stroke:#181818;stroke-width:1;" x1="426.008" x2="329.8938" y1="467.0003" y2="467.0003"/><polygon fill="#181818" points="325.8938,635.7006,329.8938,645.7006,333.8938,635.7006,329.8938,639.7006" style="stroke:#181818;stroke-width:1;"/><line style="stroke:#181818;stroke-width:1;" x1="329.8938" x2="329.8938" y1="467.0003" y2="821.7008"/><line style="stroke:#181818;stroke-width:1;" x1="329.8938" x2="486.4626" y1="821.7008" y2="821.7008"/><line style="stroke:#181818;stroke-width:1;" x1="486.4626" x2="486.4626" y1="821.7008" y2="841.7008"/><polygon fill="#181818" points="482.4626,831.7008,486.4626,841.7008,490.4626,831.7008,486.4626,835.7008" style="stroke:#181818;stroke-width:1;"/><line style="stroke:#181818;stroke-width:1;" x1="486.4626" x2="486.4626" y1="430.4003" y2="455.0003"/><polygon fill="#181818" points="482.4626,445.0003,486.4626,455.0003,490.4626,445.0003,486.4626,449.0003" style="stroke:#181818;stroke-width:1;"/><line style="stroke:#181818;stroke-width:1;" x1="539.8883" x2="641.0314" y1="418.4003" y2="418.4003"/><polygon fill="#181818" points="637.0314,629.7006,641.0314,639.7006,645.0314,629.7006,641.0314,633.7006" style="stroke:#181818;stroke-width:1;"/><line style="stroke:#181818;stroke-width:1;" x1="641.0314" x2="641.0314" y1="418.4003" y2="853.7008"/><line style="stroke:#181818;stroke-width:1;" x1="641.0314" x2="498.4626" y1="853.7008" y2="853.7008"/><polygon fill="#181818" points="508.4626,849.7008,498.4626,853.7008,508.4626,857.7008,504.4626,853.7008" style="stroke:#181818;stroke-width:1;"/><line style="stroke:#181818;stroke-width:1;" x1="486.4626" x2="486.4626" y1="386.4003" y2="406.4003"/><polygon fill="#181818" points="482.4626,396.4003,486.4626,406.4003,490.4626,396.4003,486.4626,400.4003" style="stroke:#181818;stroke-width:1;"/><line style="stroke:#181818;stroke-width:1;" x1="486.4626" x2="486.4626" y1="865.7008" y2="885.7008"/><polygon fill="#181818" points="482.4626,875.7008,486.4626,885.7008,490.4626,875.7008,486.4626,879.7008" style="stroke:#181818;stroke-width:1;"/><line style="stroke:#181818;stroke-width:1;" x1="486.4626" x2="486.4626" y1="317.6001" y2="337.6001"/><polygon fill="#181818" points="482.4626,327.6001,486.4626,337.6001,490.4626,327.6001,486.4626,331.6001" style="stroke:#181818;stroke-width:1;"/><line style="stroke:#181818;stroke-width:1;" x1="486.4626" x2="486.4626" y1="920.1009" y2="930.1009"/><line style="stroke:#181818;stroke-width:1;" x1="486.4626" x2="665.0314" y1="930.1009" y2="930.1009"/><polygon fill="#181818" points="661.0314,630.5005,665.0314,620.5005,669.0314,630.5005,665.0314,626.5005" style="stroke:#181818;stroke-width:1;"/><line style="stroke:#181818;stroke-width:1;" x1="665.0314" x2="665.0314" y1="305.6001" y2="930.1009"/><line style="stroke:#181818;stroke-width:1;" x1="665.0314" x2="536.8303" y1="305.6001" y2="305.6001"/><polygon fill="#181818" points="546.8303,301.6001,536.8303,305.6001,546.8303,309.6001,542.8303,305.6001" style="stroke:#181818;stroke-width:1;"/><line style="stroke:#181818;stroke-width:1;" x1="436.0949" x2="295.8938" y1="305.6001" y2="305.6001"/><polygon fill="#181818" points="291.8938,616.5005,295.8938,626.5005,299.8938,616.5005,295.8938,620.5005" style="stroke:#181818;stroke-width:1;"/><line style="stroke:#181818;stroke-width:1;" x1="295.8938" x2="295.8938" y1="305.6001" y2="942.1009"/><line style="stroke:#181818;stroke-width:1;" x1="295.8938" x2="486.4626" y1="942.1009" y2="942.1009"/><line style="stroke:#181818;stroke-width:1;" x1="486.4626" x2="486.4626" y1="942.1009" y2="962.1009"/><polygon fill="#181818" points="482.4626,952.1009,486.4626,962.1009,490.4626,952.1009,486.4626,956.1009" style="stroke:#181818;stroke-width:1;"/><line style="stroke:#181818;stroke-width:1;" x1="486.4626" x2="486.4626" y1="273.6001" y2="293.6001"/><polygon fill="#181818" points="482.4626,283.6001,486.4626,293.6001,490.4626,283.6001,486.4626,287.6001" style="stroke:#181818;stroke-width:1;"/><line style="stroke:#181818;stroke-width:1;" x1="486.4626" x2="486.4626" y1="996.501" y2="1016.501"/><polygon fill="#181818" points="482.4626,1006.501,486.4626,1016.501,490.4626,1006.501,486.4626,1010.501" style="stroke:#181818;stroke-width:1;"/><!--SRC=[bPJ1IiGm48Rl-nJZhTKLt6khWeYAiAnYsvEK4DhK1dUJacGH5D_T9At9fYsuvf8scI__FvDfEomKLPGpgF2sGbbsWsg-emopYg16SAOe4KWI9U5h0Nf8fGdxr73nRX_CI6xl7pQy9d2g46KTwhXKY8jQmte7Bi_XSVDSvAaZ0RzXoZoVqK-2r7hj3X2aHbY88r1fqLzGsvV_0tlElCmnXDKpwJgqCip54HhohqXN0ONgvjMRAcVCVBHqIo2oyWV-unbTjj_POaeZxoxPhJeY2kk-DBd5gTkcZOdmXrt3AWRL4WPH_bBSUUN0dkpzEImC2usAFMD4X2vLQpbI4IcvcC0ZpxfeLRcqjJvmFZ4r29rSGTWn5fywj2w7E-dHCZ29kqvV2r9SXyp2KGYFAplIyMNmxZmynRIspMmnSrRVStO-WrN8JZYzGFi4ag6jpUIu83vvAdBzcTXMJOV_0kyMtpy0]--></g></svg>