<svg xmlns="http://www.w3.org/2000/svg" xmlns:xlink="http://www.w3.org/1999/xlink" contentStyleType="text/css" data-diagram-type="ACTIVITY" height="583px" preserveAspectRatio="none" style="width:450px;height:583px;background:#FFFFFF;" version="1.1" viewBox="0 0 450 583" width="450px" zoomAndPan="magnify"><defs/><g><rect fill="none" height="561.4004" style="stroke:#000000;stroke-width:1.5;" width="428.1302" x="11" y="11"/><path d="M229.5291,11 L229.5291,20.7999 L219.5291,30.7999 L11,30.7999" fill="none" style="stroke:#000000;stroke-width:1.5;"/><text fill="#000000" font-family="sans-serif" font-size="14" lengthAdjust="spacing" textLength="208.5291" x="14" y="25.0059">calc_SSA_Size_tLL_set_member</text><ellipse cx="225.0651" cy="50.7999" fill="#222222" rx="10" ry="10" style="stroke:#222222;stroke-width:1;"/><rect fill="#555555" height="6" rx="2.5" ry="2.5" style="stroke:#555555;stroke-width:1;" width="408.1302" x="21" y="80.7999"/><rect fill="#F1F1F1" height="34.4001" rx="12.5" ry="12.5" style="stroke:#181818;stroke-width:0.5;" width="172.4011" x="33" y="106.7999"/><text fill="#000000" font-family="sans-serif" font-size="12" lengthAdjust="spacing" textLength="152.4011" x="43" y="127.948">Size_tLL t_inp_set &lt;- INPUT</text><rect fill="#F1F1F1" height="34.4001" rx="12.5" ry="12.5" style="stroke:#181818;stroke-width:0.5;" width="183.7292" x="233.4011" y="106.7999"/><text fill="#000000" font-family="sans-serif" font-size="12" lengthAdjust="spacing" textLength="163.7292" x="243.4011" y="127.948">size_t t_inp_element &lt;- INPUT</text><rect fill="#555555" height="6" rx="2.5" ry="2.5" style="stroke:#555555;stroke-width:1;" width="408.1302" x="21" y="161.2"/><rect fill="#F1F1F1" height="34.4001" rx="12.5" ry="12.5" style="stroke:#181818;stroke-width:0.5;" width="115.7247" x="167.2028" y="187.2"/><text fill="#000000" font-family="sans-serif" font-size="12" lengthAdjust="spacing" textLength="95.7247" x="177.2028" y="208.3481">bool t_out &lt;- false</text><rect fill="#F1F1F1" height="34.4001" rx="12.5" ry="12.5" style="stroke:#181818;stroke-width:0.5;" width="85.0405" x="182.5449" y="334.2001"/><text fill="#000000" font-family="sans-serif" font-size="12" lengthAdjust="spacing" textLength="65.0405" x="192.5449" y="355.3482">t_out &lt;- true</text><polygon fill="#F1F1F1" points="139.6123,285.6001,310.518,285.6001,322.518,297.6001,310.518,309.6001,139.6123,309.6001,127.6123,297.6001,139.6123,285.6001" style="stroke:#181818;stroke-width:0.5;"/><text fill="#000000" font-family="sans-serif" font-size="11" lengthAdjust="spacing" textLength="29.9418" x="229.0651" y="319.8191">TRUE</text><text fill="#000000" font-family="sans-serif" font-size="11" lengthAdjust="spacing" textLength="170.9057" x="139.6123" y="301.2191">t_inp_element = t_inp_set.contents</text><rect fill="#F1F1F1" height="34.4001" rx="12.5" ry="12.5" style="stroke:#181818;stroke-width:0.5;" width="161.085" x="144.5226" y="449.6002"/><text fill="#000000" font-family="sans-serif" font-size="12" lengthAdjust="spacing" textLength="141.085" x="154.5226" y="470.7483">t_inp_set &lt;- t_inp_set.next</text><polygon fill="#F1F1F1" points="168.9655,241.6001,281.1647,241.6001,293.1647,253.6001,281.1647,265.6001,168.9655,265.6001,156.9655,253.6001,168.9655,241.6001" style="stroke:#181818;stroke-width:0.5;"/><text fill="#000000" font-family="sans-serif" font-size="11" lengthAdjust="spacing" textLength="112.1992" x="168.9655" y="257.2191">t_inp_set.next != NULL</text><rect fill="#F1F1F1" height="34.4001" rx="12.5" ry="12.5" style="stroke:#181818;stroke-width:0.5;" width="99.3566" x="175.3868" y="526.0003"/><text fill="#000000" font-family="sans-serif" font-size="12" lengthAdjust="spacing" textLength="79.3566" x="185.3868" y="547.1484">OUTPUT t_out</text><line style="stroke:#181818;stroke-width:1;" x1="119.2005" x2="119.2005" y1="86.7999" y2="106.7999"/><polygon fill="#181818" points="115.2005,96.7999,119.2005,106.7999,123.2005,96.7999,119.2005,100.7999" style="stroke:#181818;stroke-width:1;"/><line style="stroke:#181818;stroke-width:1;" x1="325.2657" x2="325.2657" y1="86.7999" y2="106.7999"/><polygon fill="#181818" points="321.2657,96.7999,325.2657,106.7999,329.2657,96.7999,325.2657,100.7999" style="stroke:#181818;stroke-width:1;"/><line style="stroke:#181818;stroke-width:1;" x1="119.2005" x2="119.2005" y1="141.2" y2="161.2"/><polygon fill="#181818" points="115.2005,151.2,119.2005,161.2,123.2005,151.2,119.2005,155.2" style="stroke:#181818;stroke-width:1;"/><line style="stroke:#181818;stroke-width:1;" x1="325.2657" x2="325.2657" y1="141.2" y2="161.2"/><polygon fill="#181818" points="321.2657,151.2,325.2657,161.2,329.2657,151.2,325.2657,155.2" style="stroke:#181818;stroke-width:1;"/><line style="stroke:#181818;stroke-width:1;" x1="225.0651" x2="225.0651" y1="60.7999" y2="80.7999"/><polygon fill="#181818" points="221.0651,70.7999,225.0651,80.7999,229.0651,70.7999,225.0651,74.7999" style="stroke:#181818;stroke-width:1;"/><line style="stroke:#181818;stroke-width:1;" x1="225.0651" x2="225.0651" y1="167.2" y2="187.2"/><polygon fill="#181818" points="221.0651,177.2,225.0651,187.2,229.0651,177.2,225.0651,181.2" style="stroke:#181818;stroke-width:1;"/><line style="stroke:#181818;stroke-width:1;" x1="225.0651" x2="225.0651" y1="368.6002" y2="403.6002"/><line style="stroke:#181818;stroke-width:1;" x1="225.0651" x2="115.6123" y1="403.6002" y2="403.6002"/><polygon fill="#181818" points="125.6123,399.6002,115.6123,403.6002,125.6123,407.6002,121.6123,403.6002" style="stroke:#181818;stroke-width:1;"/><line style="stroke:#181818;stroke-width:1;" x1="225.0651" x2="225.0651" y1="309.6001" y2="334.2001"/><polygon fill="#181818" points="221.0651,324.2001,225.0651,334.2001,229.0651,324.2001,225.0651,328.2001" style="stroke:#181818;stroke-width:1;"/><line style="stroke:#181818;stroke-width:1;" x1="322.518" x2="334.518" y1="297.6001" y2="297.6001"/><polygon fill="#181818" points="330.518,355.9001,334.518,365.9001,338.518,355.9001,334.518,359.9001" style="stroke:#181818;stroke-width:1;"/><line style="stroke:#181818;stroke-width:1;" x1="334.518" x2="334.518" y1="297.6001" y2="429.6002"/><line style="stroke:#181818;stroke-width:1;" x1="334.518" x2="225.0651" y1="429.6002" y2="429.6002"/><line style="stroke:#181818;stroke-width:1;" x1="225.0651" x2="225.0651" y1="429.6002" y2="449.6002"/><polygon fill="#181818" points="221.0651,439.6002,225.0651,449.6002,229.0651,439.6002,225.0651,443.6002" style="stroke:#181818;stroke-width:1;"/><line style="stroke:#181818;stroke-width:1;" x1="225.0651" x2="225.0651" y1="265.6001" y2="285.6001"/><polygon fill="#181818" points="221.0651,275.6001,225.0651,285.6001,229.0651,275.6001,225.0651,279.6001" style="stroke:#181818;stroke-width:1;"/><line style="stroke:#181818;stroke-width:1;" x1="225.0651" x2="225.0651" y1="484.0003" y2="494.0003"/><line style="stroke:#181818;stroke-width:1;" x1="225.0651" x2="346.518" y1="494.0003" y2="494.0003"/><polygon fill="#181818" points="342.518,392.6002,346.518,382.6002,350.518,392.6002,346.518,388.6002" style="stroke:#181818;stroke-width:1;"/><line style="stroke:#181818;stroke-width:1;" x1="346.518" x2="346.518" y1="253.6001" y2="494.0003"/><line style="stroke:#181818;stroke-width:1;" x1="346.518" x2="293.1647" y1="253.6001" y2="253.6001"/><polygon fill="#181818" points="303.1647,249.6001,293.1647,253.6001,303.1647,257.6001,299.1647,253.6001" style="stroke:#181818;stroke-width:1;"/><line style="stroke:#181818;stroke-width:1;" x1="156.9655" x2="115.6123" y1="253.6001" y2="253.6001"/><polygon fill="#181818" points="111.6123,378.6002,115.6123,388.6002,119.6123,378.6002,115.6123,382.6002" style="stroke:#181818;stroke-width:1;"/><line style="stroke:#181818;stroke-width:1;" x1="115.6123" x2="115.6123" y1="253.6001" y2="506.0003"/><line style="stroke:#181818;stroke-width:1;" x1="115.6123" x2="225.0651" y1="506.0003" y2="506.0003"/><line style="stroke:#181818;stroke-width:1;" x1="225.0651" x2="225.0651" y1="506.0003" y2="526.0003"/><polygon fill="#181818" points="221.0651,516.0003,225.0651,526.0003,229.0651,516.0003,225.0651,520.0003" style="stroke:#181818;stroke-width:1;"/><line style="stroke:#181818;stroke-width:1;" x1="225.0651" x2="225.0651" y1="221.6001" y2="241.6001"/><polygon fill="#181818" points="221.0651,231.6001,225.0651,241.6001,229.0651,231.6001,225.0651,235.6001" style="stroke:#181818;stroke-width:1;"/><!--SRC=[PS-nRi8m40RWsNwAOuC17Y30q841AQ8LIMRBIIzWuTZ8FjGAnBjp3eGMiThVtV_VKGSoPBo3Hjj65SM7AimP5UMvYaYgmwx601Sf8Z6LelNX88N81WMaZ3ic2uifh3TVLJc_Az0xRLooiRSFYHOxTEyQtRSKMUszPUXFFMYrZSZWPsyimlWPDNFuIp1QmgRAymb7c7Ru7TOl_uhD6k-8t-84Q8yEnkMsMgKfaJsJA9nIa11rG9qEv3gcbJtvTzzh0nvWrfVZwfzLoUVSoy_bzGO0]--></g></svg>