<svg xmlns="http://www.w3.org/2000/svg" xmlns:xlink="http://www.w3.org/1999/xlink" contentStyleType="text/css" data-diagram-type="ACTIVITY" height="500px" preserveAspectRatio="none" style="width:474px;height:500px;background:#FFFFFF;" version="1.1" viewBox="0 0 474 500" width="474px" zoomAndPan="magnify"><defs/><g><rect fill="none" height="478.8004" style="stroke:#000000;stroke-width:1.5;" width="452.1344" x="11" y="11"/><path d="M159.5014,11 L159.5014,20.7999 L149.5014,30.7999 L11,30.7999" fill="none" style="stroke:#000000;stroke-width:1.5;"/><text fill="#000000" font-family="sans-serif" font-size="14" lengthAdjust="spacing" textLength="138.5014" x="14" y="25.0059">calc_SSA_num_preds</text><rect fill="#555555" height="6" rx="2.5" ry="2.5" style="stroke:#555555;stroke-width:1;" width="432.1344" x="21" y="40.7999"/><rect fill="#F1F1F1" height="34.4001" rx="12.5" ry="12.5" style="stroke:#181818;stroke-width:0.5;" width="206.4093" x="35" y="66.7999"/><text fill="#000000" font-family="sans-serif" font-size="12" lengthAdjust="spacing" textLength="186.4093" x="45" y="87.948">Size_tLL *t_inp_pred_arr &lt;- INPUT</text><rect fill="#F1F1F1" height="34.4001" rx="12.5" ry="12.5" style="stroke:#181818;stroke-width:0.5;" width="169.7251" x="269.4093" y="66.7999"/><text fill="#000000" font-family="sans-serif" font-size="12" lengthAdjust="spacing" textLength="149.7251" x="279.4093" y="87.948">size_t t_inp_index &lt;- INPUT</text><rect fill="#555555" height="6" rx="2.5" ry="2.5" style="stroke:#555555;stroke-width:1;" width="432.1344" x="21" y="121.2"/><rect fill="#555555" height="6" rx="2.5" ry="2.5" style="stroke:#555555;stroke-width:1;" width="409.4902" x="32.3221" y="147.2"/><rect fill="#F1F1F1" height="34.4001" rx="12.5" ry="12.5" style="stroke:#181818;stroke-width:0.5;" width="258.4537" x="46.3221" y="173.2"/><text fill="#000000" font-family="sans-serif" font-size="12" lengthAdjust="spacing" textLength="238.4537" x="56.3221" y="194.3481">Size_tLL t_list &lt;- t_inp_pred_arr[t_inp_index]</text><rect fill="#F1F1F1" height="34.4001" rx="12.5" ry="12.5" style="stroke:#181818;stroke-width:0.5;" width="95.0366" x="332.7757" y="173.2"/><text fill="#000000" font-family="sans-serif" font-size="12" lengthAdjust="spacing" textLength="75.0366" x="342.7757" y="194.3481">size_t t_c &lt;- 1</text><rect fill="#555555" height="6" rx="2.5" ry="2.5" style="stroke:#555555;stroke-width:1;" width="409.4902" x="32.3221" y="227.6001"/><rect fill="#F1F1F1" height="34.4001" rx="12.5" ry="12.5" style="stroke:#181818;stroke-width:0.5;" width="113.0367" x="180.5488" y="297.6001"/><text fill="#000000" font-family="sans-serif" font-size="12" lengthAdjust="spacing" textLength="93.0367" x="190.5488" y="318.7482">t_list &lt;- t_list.next</text><rect fill="#F1F1F1" height="34.4001" rx="12.5" ry="12.5" style="stroke:#181818;stroke-width:0.5;" width="90.0445" x="192.0449" y="367.0002"/><text fill="#000000" font-family="sans-serif" font-size="12" lengthAdjust="spacing" textLength="70.0445" x="202.0449" y="388.1483">t_c &lt;- t_c + 1</text><polygon fill="#F1F1F1" points="191.9785,253.6001,282.1559,253.6001,294.1559,265.6001,282.1559,277.6001,191.9785,277.6001,179.9785,265.6001,191.9785,253.6001" style="stroke:#181818;stroke-width:0.5;"/><text fill="#000000" font-family="sans-serif" font-size="11" lengthAdjust="spacing" textLength="90.1774" x="191.9785" y="269.2191">t_list.next != NULL</text><rect fill="#F1F1F1" height="34.4001" rx="12.5" ry="12.5" style="stroke:#181818;stroke-width:0.5;" width="88.6765" x="192.729" y="443.4003"/><text fill="#000000" font-family="sans-serif" font-size="12" lengthAdjust="spacing" textLength="68.6765" x="202.729" y="464.5484">OUTPUT t_c</text><line style="stroke:#181818;stroke-width:1;" x1="138.2047" x2="138.2047" y1="46.7999" y2="66.7999"/><polygon fill="#181818" points="134.2047,56.7999,138.2047,66.7999,142.2047,56.7999,138.2047,60.7999" style="stroke:#181818;stroke-width:1;"/><line style="stroke:#181818;stroke-width:1;" x1="354.2719" x2="354.2719" y1="46.7999" y2="66.7999"/><polygon fill="#181818" points="350.2719,56.7999,354.2719,66.7999,358.2719,56.7999,354.2719,60.7999" style="stroke:#181818;stroke-width:1;"/><line style="stroke:#181818;stroke-width:1;" x1="138.2047" x2="138.2047" y1="101.2" y2="121.2"/><polygon fill="#181818" points="134.2047,111.2,138.2047,121.2,142.2047,111.2,138.2047,115.2" style="stroke:#181818;stroke-width:1;"/><line style="stroke:#181818;stroke-width:1;" x1="354.2719" x2="354.2719" y1="101.2" y2="121.2"/><polygon fill="#181818" points="350.2719,111.2,354.2719,121.2,358.2719,111.2,354.2719,115.2" style="stroke:#181818;stroke-width:1;"/><line style="stroke:#181818;stroke-width:1;" x1="175.5489" x2="175.5489" y1="153.2" y2="173.2"/><polygon fill="#181818" points="171.5489,163.2,175.5489,173.2,179.5489,163.2,175.5489,167.2" style="stroke:#181818;stroke-width:1;"/><line style="stroke:#181818;stroke-width:1;" x1="380.294" x2="380.294" y1="153.2" y2="173.2"/><polygon fill="#181818" points="376.294,163.2,380.294,173.2,384.294,163.2,380.294,167.2" style="stroke:#181818;stroke-width:1;"/><line style="stroke:#181818;stroke-width:1;" x1="175.5489" x2="175.5489" y1="207.6001" y2="227.6001"/><polygon fill="#181818" points="171.5489,217.6001,175.5489,227.6001,179.5489,217.6001,175.5489,221.6001" style="stroke:#181818;stroke-width:1;"/><line style="stroke:#181818;stroke-width:1;" x1="380.294" x2="380.294" y1="207.6001" y2="227.6001"/><polygon fill="#181818" points="376.294,217.6001,380.294,227.6001,384.294,217.6001,380.294,221.6001" style="stroke:#181818;stroke-width:1;"/><line style="stroke:#181818;stroke-width:1;" x1="237.0672" x2="237.0672" y1="127.2" y2="147.2"/><polygon fill="#181818" points="233.0672,137.2,237.0672,147.2,241.0672,137.2,237.0672,141.2" style="stroke:#181818;stroke-width:1;"/><line style="stroke:#181818;stroke-width:1;" x1="237.0672" x2="237.0672" y1="332.0002" y2="367.0002"/><polygon fill="#181818" points="233.0672,357.0002,237.0672,367.0002,241.0672,357.0002,237.0672,361.0002" style="stroke:#181818;stroke-width:1;"/><line style="stroke:#181818;stroke-width:1;" x1="237.0672" x2="237.0672" y1="277.6001" y2="297.6001"/><polygon fill="#181818" points="233.0672,287.6001,237.0672,297.6001,241.0672,287.6001,237.0672,291.6001" style="stroke:#181818;stroke-width:1;"/><line style="stroke:#181818;stroke-width:1;" x1="237.0672" x2="237.0672" y1="401.4003" y2="411.4003"/><line style="stroke:#181818;stroke-width:1;" x1="237.0672" x2="306.1559" y1="411.4003" y2="411.4003"/><polygon fill="#181818" points="302.1559,347.5002,306.1559,337.5002,310.1559,347.5002,306.1559,343.5002" style="stroke:#181818;stroke-width:1;"/><line style="stroke:#181818;stroke-width:1;" x1="306.1559" x2="306.1559" y1="265.6001" y2="411.4003"/><line style="stroke:#181818;stroke-width:1;" x1="306.1559" x2="294.1559" y1="265.6001" y2="265.6001"/><polygon fill="#181818" points="304.1559,261.6001,294.1559,265.6001,304.1559,269.6001,300.1559,265.6001" style="stroke:#181818;stroke-width:1;"/><line style="stroke:#181818;stroke-width:1;" x1="179.9785" x2="167.9785" y1="265.6001" y2="265.6001"/><polygon fill="#181818" points="163.9785,333.5002,167.9785,343.5002,171.9785,333.5002,167.9785,337.5002" style="stroke:#181818;stroke-width:1;"/><line style="stroke:#181818;stroke-width:1;" x1="167.9785" x2="167.9785" y1="265.6001" y2="423.4003"/><line style="stroke:#181818;stroke-width:1;" x1="167.9785" x2="237.0672" y1="423.4003" y2="423.4003"/><line style="stroke:#181818;stroke-width:1;" x1="237.0672" x2="237.0672" y1="423.4003" y2="443.4003"/><polygon fill="#181818" points="233.0672,433.4003,237.0672,443.4003,241.0672,433.4003,237.0672,437.4003" style="stroke:#181818;stroke-width:1;"/><line style="stroke:#181818;stroke-width:1;" x1="237.0672" x2="237.0672" y1="233.6001" y2="253.6001"/><polygon fill="#181818" points="233.0672,243.6001,237.0672,253.6001,241.0672,243.6001,237.0672,247.6001" style="stroke:#181818;stroke-width:1;"/><!--SRC=[ZOzD2y8m38Rl_efuymC5hviUF0fb2jjE8gLqLOEp6rt4eVZVNJlS9WmnfvRaUPya5uQGCDCWHIfv6AwvlbrvRbHIm7C0LHqpSt4FMrw83yM9CPWGHvsxIIwCWUKCDi4kZlm60d4Ig5kqS2ZK7Ef4bNsGqialBV4K2xBWjt_VYJtyiOEq4OiUx_sCgO9HxPbhLH8CLn34Z8tRcEuMpPpVxSkwAM7wiLG2b-q-tZQEghljX3zulG40]--></g></svg>