<svg xmlns="http://www.w3.org/2000/svg" xmlns:xlink="http://www.w3.org/1999/xlink" contentStyleType="text/css" data-diagram-type="ACTIVITY" height="1127px" preserveAspectRatio="none" style="width:479px;height:1127px;background:#FFFFFF;" version="1.1" viewBox="0 0 479 1127" width="479px" zoomAndPan="magnify"><defs/><g><rect fill="none" height="1105.0013" style="stroke:#000000;stroke-width:1.5;" width="457.2903" x="11" y="11"/><path d="M196.8673,11 L196.8673,20.7999 L186.8673,30.7999 L11,30.7999" fill="none" style="stroke:#000000;stroke-width:1.5;"/><text fill="#000000" font-family="sans-serif" font-size="14" lengthAdjust="spacing" textLength="175.8673" x="14" y="25.0059">calc_SSA_pred_set_of_sets</text><ellipse cx="234.3832" cy="50.7999" fill="#222222" rx="10" ry="10" style="stroke:#222222;stroke-width:1;"/><rect fill="#555555" height="6" rx="2.5" ry="2.5" style="stroke:#555555;stroke-width:1;" width="426.7664" x="21" y="80.7999"/><rect fill="#F1F1F1" height="34.4001" rx="12.5" ry="12.5" style="stroke:#181818;stroke-width:0.5;" width="235.0655" x="33" y="106.7999"/><text fill="#000000" font-family="sans-serif" font-size="12" lengthAdjust="spacing" textLength="215.0655" x="43" y="127.948">CFGNode *t_post_order_CFG &lt;- INPUT</text><rect fill="#F1F1F1" height="34.4001" rx="12.5" ry="12.5" style="stroke:#181818;stroke-width:0.5;" width="139.7009" x="296.0655" y="106.7999"/><text fill="#000000" font-family="sans-serif" font-size="12" lengthAdjust="spacing" textLength="119.7009" x="306.0655" y="127.948">size_t t_size &lt;- INPUT</text><rect fill="#555555" height="6" rx="2.5" ry="2.5" style="stroke:#555555;stroke-width:1;" width="426.7664" x="21" y="161.2"/><rect fill="#555555" height="6" rx="2.5" ry="2.5" style="stroke:#555555;stroke-width:1;" width="277.7653" x="95.5005" y="187.2"/><rect fill="#F1F1F1" height="34.4001" rx="12.5" ry="12.5" style="stroke:#181818;stroke-width:0.5;" width="126.7288" x="109.5005" y="213.2"/><text fill="#000000" font-family="sans-serif" font-size="12" lengthAdjust="spacing" textLength="106.7288" x="119.5005" y="234.3481">PredLL t_out[t_size]</text><rect fill="#F1F1F1" height="34.4001" rx="12.5" ry="12.5" style="stroke:#181818;stroke-width:0.5;" width="95.0366" x="264.2293" y="213.2"/><text fill="#000000" font-family="sans-serif" font-size="12" lengthAdjust="spacing" textLength="75.0366" x="274.2293" y="234.3481">size_t t_c &lt;- 0</text><rect fill="#555555" height="6" rx="2.5" ry="2.5" style="stroke:#555555;stroke-width:1;" width="277.7653" x="95.5005" y="267.6001"/><rect fill="#F1F1F1" height="34.4001" rx="12.5" ry="12.5" style="stroke:#181818;stroke-width:0.5;" width="252.4176" x="108.1744" y="337.6001"/><text fill="#000000" font-family="sans-serif" font-size="12" lengthAdjust="spacing" textLength="232.4176" x="118.1744" y="358.7482">CFGNode *t_curr &lt;- t_post_order_CFG[t_c]</text><rect fill="#F1F1F1" height="48.8002" rx="12.5" ry="12.5" style="stroke:#181818;stroke-width:0.5;" width="295.774" x="86.4962" y="392.0002"/><text fill="#000000" font-family="sans-serif" font-size="12" lengthAdjust="spacing" textLength="275.774" x="96.4962" y="413.1483">size_t t_i_curr &lt;- calc_SSA_CFG_post_order_index</text><text fill="#000000" font-family="sans-serif" font-size="12" lengthAdjust="spacing" textLength="144.709" x="96.4962" y="427.5484">(t_post_order_CFG, t_curr)</text><rect fill="#F1F1F1" height="48.8002" rx="12.5" ry="12.5" style="stroke:#181818;stroke-width:0.5;" width="327.8142" x="70.4761" y="509.4004"/><text fill="#000000" font-family="sans-serif" font-size="12" lengthAdjust="spacing" textLength="307.8142" x="80.4761" y="530.5485">size_t t_node_index &lt;- calc_SSA_CFG_post_order_index</text><text fill="#000000" font-family="sans-serif" font-size="12" lengthAdjust="spacing" textLength="164.0532" x="80.4761" y="544.9486">(t_post_order_CFG, t_curr.left)</text><rect fill="#F1F1F1" height="48.8002" rx="12.5" ry="12.5" style="stroke:#181818;stroke-width:0.5;" width="310.51" x="79.1282" y="578.2006"/><text fill="#000000" font-family="sans-serif" font-size="12" lengthAdjust="spacing" textLength="290.51" x="89.1282" y="599.3487">t_out[t_node_index] &lt;- calc_SSA_append_to_pred_list</text><text fill="#000000" font-family="sans-serif" font-size="12" lengthAdjust="spacing" textLength="160.0811" x="89.1282" y="613.7488">(t_out[t_node_index], t_i_curr)</text><rect fill="#F1F1F1" height="48.8002" rx="12.5" ry="12.5" style="stroke:#181818;stroke-width:0.5;" width="327.8142" x="70.4761" y="710.6007"/><text fill="#000000" font-family="sans-serif" font-size="12" lengthAdjust="spacing" textLength="307.8142" x="80.4761" y="731.7488">size_t t_node_index &lt;- calc_SSA_CFG_post_order_index</text><text fill="#000000" font-family="sans-serif" font-size="12" lengthAdjust="spacing" textLength="171.3852" x="80.4761" y="746.1489">(t_post_order_CFG, t_curr.right)</text><rect fill="#F1F1F1" height="48.8002" rx="12.5" ry="12.5" style="stroke:#181818;stroke-width:0.5;" width="310.51" x="79.1282" y="794.4009"/><text fill="#000000" font-family="sans-serif" font-size="12" lengthAdjust="spacing" textLength="290.51" x="89.1282" y="815.549">t_out[t_node_index] &lt;- calc_SSA_append_to_pred_list</text><text fill="#000000" font-family="sans-serif" font-size="12" lengthAdjust="spacing" textLength="160.0811" x="89.1282" y="829.9491">(t_out[t_node_index], t_i_curr)</text><polygon fill="#F1F1F1" points="186.242,662.0008,282.5244,662.0008,294.5244,674.0008,282.5244,686.0008,186.242,686.0008,174.242,674.0008,186.242,662.0008" style="stroke:#181818;stroke-width:0.5;"/><text fill="#000000" font-family="sans-serif" font-size="11" lengthAdjust="spacing" textLength="29.9418" x="238.3832" y="696.2197">TRUE</text><text fill="#000000" font-family="sans-serif" font-size="11" lengthAdjust="spacing" textLength="96.2823" x="186.242" y="677.6198">t_curr.right != NULL</text><polygon fill="#F1F1F1" points="234.3832,863.2011,246.3832,875.2011,234.3832,887.2011,222.3832,875.2011,234.3832,863.2011" style="stroke:#181818;stroke-width:0.5;"/><polygon fill="#F1F1F1" points="189.6025,460.8004,279.1639,460.8004,291.1639,472.8004,279.1639,484.8004,189.6025,484.8004,177.6025,472.8004,189.6025,460.8004" style="stroke:#181818;stroke-width:0.5;"/><text fill="#000000" font-family="sans-serif" font-size="11" lengthAdjust="spacing" textLength="29.9418" x="238.3832" y="495.0194">TRUE</text><text fill="#000000" font-family="sans-serif" font-size="11" lengthAdjust="spacing" textLength="89.5614" x="189.6025" y="476.4194">t_curr.left != NULL</text><polygon fill="#F1F1F1" points="234.3832,907.2011,246.3832,919.2011,234.3832,931.2011,222.3832,919.2011,234.3832,907.2011" style="stroke:#181818;stroke-width:0.5;"/><rect fill="#F1F1F1" height="34.4001" rx="12.5" ry="12.5" style="stroke:#181818;stroke-width:0.5;" width="90.0445" x="189.3609" y="951.2011"/><text fill="#000000" font-family="sans-serif" font-size="12" lengthAdjust="spacing" textLength="70.0445" x="199.3609" y="972.3492">t_c &lt;- t_c + 1</text><polygon fill="#F1F1F1" points="206.4104,293.6001,262.356,293.6001,274.356,305.6001,262.356,317.6001,206.4104,317.6001,194.4104,305.6001,206.4104,293.6001" style="stroke:#181818;stroke-width:0.5;"/><text fill="#000000" font-family="sans-serif" font-size="11" lengthAdjust="spacing" textLength="55.9456" x="206.4104" y="309.2191">t_c &lt; t_size</text><rect fill="#F1F1F1" height="34.4001" rx="12.5" ry="12.5" style="stroke:#181818;stroke-width:0.5;" width="99.3566" x="184.7049" y="1027.6012"/><text fill="#000000" font-family="sans-serif" font-size="12" lengthAdjust="spacing" textLength="79.3566" x="194.7049" y="1048.7493">OUTPUT t_out</text><ellipse cx="234.3832" cy="1093.0013" fill="none" rx="11" ry="11" style="stroke:#222222;stroke-width:1;"/><ellipse cx="234.3832" cy="1093.0013" fill="#222222" rx="6" ry="6" style="stroke:#222222;stroke-width:1;"/><line style="stroke:#181818;stroke-width:1;" x1="150.5328" x2="150.5328" y1="86.7999" y2="106.7999"/><polygon fill="#181818" points="146.5328,96.7999,150.5328,106.7999,154.5328,96.7999,150.5328,100.7999" style="stroke:#181818;stroke-width:1;"/><line style="stroke:#181818;stroke-width:1;" x1="365.9159" x2="365.9159" y1="86.7999" y2="106.7999"/><polygon fill="#181818" points="361.9159,96.7999,365.9159,106.7999,369.9159,96.7999,365.9159,100.7999" style="stroke:#181818;stroke-width:1;"/><line style="stroke:#181818;stroke-width:1;" x1="150.5328" x2="150.5328" y1="141.2" y2="161.2"/><polygon fill="#181818" points="146.5328,151.2,150.5328,161.2,154.5328,151.2,150.5328,155.2" style="stroke:#181818;stroke-width:1;"/><line style="stroke:#181818;stroke-width:1;" x1="365.9159" x2="365.9159" y1="141.2" y2="161.2"/><polygon fill="#181818" points="361.9159,151.2,365.9159,161.2,369.9159,151.2,365.9159,155.2" style="stroke:#181818;stroke-width:1;"/><line style="stroke:#181818;stroke-width:1;" x1="234.3832" x2="234.3832" y1="60.7999" y2="80.7999"/><polygon fill="#181818" points="230.3832,70.7999,234.3832,80.7999,238.3832,70.7999,234.3832,74.7999" style="stroke:#181818;stroke-width:1;"/><line style="stroke:#181818;stroke-width:1;" x1="172.8649" x2="172.8649" y1="193.2" y2="213.2"/><polygon fill="#181818" points="168.8649,203.2,172.8649,213.2,176.8649,203.2,172.8649,207.2" style="stroke:#181818;stroke-width:1;"/><line style="stroke:#181818;stroke-width:1;" x1="311.7476" x2="311.7476" y1="193.2" y2="213.2"/><polygon fill="#181818" points="307.7476,203.2,311.7476,213.2,315.7476,203.2,311.7476,207.2" style="stroke:#181818;stroke-width:1;"/><line style="stroke:#181818;stroke-width:1;" x1="172.8649" x2="172.8649" y1="247.6001" y2="267.6001"/><polygon fill="#181818" points="168.8649,257.6001,172.8649,267.6001,176.8649,257.6001,172.8649,261.6001" style="stroke:#181818;stroke-width:1;"/><line style="stroke:#181818;stroke-width:1;" x1="311.7476" x2="311.7476" y1="247.6001" y2="267.6001"/><polygon fill="#181818" points="307.7476,257.6001,311.7476,267.6001,315.7476,257.6001,311.7476,261.6001" style="stroke:#181818;stroke-width:1;"/><line style="stroke:#181818;stroke-width:1;" x1="234.3832" x2="234.3832" y1="167.2" y2="187.2"/><polygon fill="#181818" points="230.3832,177.2,234.3832,187.2,238.3832,177.2,234.3832,181.2" style="stroke:#181818;stroke-width:1;"/><line style="stroke:#181818;stroke-width:1;" x1="234.3832" x2="234.3832" y1="372.0002" y2="392.0002"/><polygon fill="#181818" points="230.3832,382.0002,234.3832,392.0002,238.3832,382.0002,234.3832,386.0002" style="stroke:#181818;stroke-width:1;"/><line style="stroke:#181818;stroke-width:1;" x1="234.3832" x2="234.3832" y1="558.2006" y2="578.2006"/><polygon fill="#181818" points="230.3832,568.2006,234.3832,578.2006,238.3832,568.2006,234.3832,572.2006" style="stroke:#181818;stroke-width:1;"/><line style="stroke:#181818;stroke-width:1;" x1="234.3832" x2="234.3832" y1="759.4009" y2="794.4009"/><polygon fill="#181818" points="230.3832,784.4009,234.3832,794.4009,238.3832,784.4009,234.3832,788.4009" style="stroke:#181818;stroke-width:1;"/><line style="stroke:#181818;stroke-width:1;" x1="234.3832" x2="234.3832" y1="686.0008" y2="710.6007"/><polygon fill="#181818" points="230.3832,700.6007,234.3832,710.6007,238.3832,700.6007,234.3832,704.6007" style="stroke:#181818;stroke-width:1;"/><line style="stroke:#181818;stroke-width:1;" x1="294.5244" x2="408.2903" y1="674.0008" y2="674.0008"/><polygon fill="#181818" points="404.2903,766.9009,408.2903,776.9009,412.2903,766.9009,408.2903,770.9009" style="stroke:#181818;stroke-width:1;"/><line style="stroke:#181818;stroke-width:1;" x1="408.2903" x2="408.2903" y1="674.0008" y2="875.2011"/><line style="stroke:#181818;stroke-width:1;" x1="408.2903" x2="246.3832" y1="875.2011" y2="875.2011"/><polygon fill="#181818" points="256.3832,871.2011,246.3832,875.2011,256.3832,879.2011,252.3832,875.2011" style="stroke:#181818;stroke-width:1;"/><line style="stroke:#181818;stroke-width:1;" x1="234.3832" x2="234.3832" y1="843.2011" y2="863.2011"/><polygon fill="#181818" points="230.3832,853.2011,234.3832,863.2011,238.3832,853.2011,234.3832,857.2011" style="stroke:#181818;stroke-width:1;"/><line style="stroke:#181818;stroke-width:1;" x1="234.3832" x2="234.3832" y1="627.0008" y2="662.0008"/><polygon fill="#181818" points="230.3832,652.0008,234.3832,662.0008,238.3832,652.0008,234.3832,656.0008" style="stroke:#181818;stroke-width:1;"/><line style="stroke:#181818;stroke-width:1;" x1="234.3832" x2="234.3832" y1="484.8004" y2="509.4004"/><polygon fill="#181818" points="230.3832,499.4004,234.3832,509.4004,238.3832,499.4004,234.3832,503.4004" style="stroke:#181818;stroke-width:1;"/><line style="stroke:#181818;stroke-width:1;" x1="291.1639" x2="430.2903" y1="472.8004" y2="472.8004"/><polygon fill="#181818" points="426.2903,683.1007,430.2903,693.1007,434.2903,683.1007,430.2903,687.1007" style="stroke:#181818;stroke-width:1;"/><line style="stroke:#181818;stroke-width:1;" x1="430.2903" x2="430.2903" y1="472.8004" y2="919.2011"/><line style="stroke:#181818;stroke-width:1;" x1="430.2903" x2="246.3832" y1="919.2011" y2="919.2011"/><polygon fill="#181818" points="256.3832,915.2011,246.3832,919.2011,256.3832,923.2011,252.3832,919.2011" style="stroke:#181818;stroke-width:1;"/><line style="stroke:#181818;stroke-width:1;" x1="234.3832" x2="234.3832" y1="887.2011" y2="907.2011"/><polygon fill="#181818" points="230.3832,897.2011,234.3832,907.2011,238.3832,897.2011,234.3832,901.2011" style="stroke:#181818;stroke-width:1;"/><line style="stroke:#181818;stroke-width:1;" x1="234.3832" x2="234.3832" y1="440.8004" y2="460.8004"/><polygon fill="#181818" points="230.3832,450.8004,234.3832,460.8004,238.3832,450.8004,234.3832,454.8004" style="stroke:#181818;stroke-width:1;"/><line style="stroke:#181818;stroke-width:1;" x1="234.3832" x2="234.3832" y1="931.2011" y2="951.2011"/><polygon fill="#181818" points="230.3832,941.2011,234.3832,951.2011,238.3832,941.2011,234.3832,945.2011" style="stroke:#181818;stroke-width:1;"/><line style="stroke:#181818;stroke-width:1;" x1="234.3832" x2="234.3832" y1="317.6001" y2="337.6001"/><polygon fill="#181818" points="230.3832,327.6001,234.3832,337.6001,238.3832,327.6001,234.3832,331.6001" style="stroke:#181818;stroke-width:1;"/><line style="stroke:#181818;stroke-width:1;" x1="234.3832" x2="234.3832" y1="985.6012" y2="995.6012"/><line style="stroke:#181818;stroke-width:1;" x1="234.3832" x2="452.2903" y1="995.6012" y2="995.6012"/><polygon fill="#181818" points="448.2903,649.2006,452.2903,639.2006,456.2903,649.2006,452.2903,645.2006" style="stroke:#181818;stroke-width:1;"/><line style="stroke:#181818;stroke-width:1;" x1="452.2903" x2="452.2903" y1="305.6001" y2="995.6012"/><line style="stroke:#181818;stroke-width:1;" x1="452.2903" x2="274.356" y1="305.6001" y2="305.6001"/><polygon fill="#181818" points="284.356,301.6001,274.356,305.6001,284.356,309.6001,280.356,305.6001" style="stroke:#181818;stroke-width:1;"/><line style="stroke:#181818;stroke-width:1;" x1="194.4104" x2="38.4761" y1="305.6001" y2="305.6001"/><polygon fill="#181818" points="34.4761,635.2006,38.4761,645.2006,42.4761,635.2006,38.4761,639.2006" style="stroke:#181818;stroke-width:1;"/><line style="stroke:#181818;stroke-width:1;" x1="38.4761" x2="38.4761" y1="305.6001" y2="1007.6012"/><line style="stroke:#181818;stroke-width:1;" x1="38.4761" x2="234.3832" y1="1007.6012" y2="1007.6012"/><line style="stroke:#181818;stroke-width:1;" x1="234.3832" x2="234.3832" y1="1007.6012" y2="1027.6012"/><polygon fill="#181818" points="230.3832,1017.6012,234.3832,1027.6012,238.3832,1017.6012,234.3832,1021.6012" style="stroke:#181818;stroke-width:1;"/><line style="stroke:#181818;stroke-width:1;" x1="234.3832" x2="234.3832" y1="273.6001" y2="293.6001"/><polygon fill="#181818" points="230.3832,283.6001,234.3832,293.6001,238.3832,283.6001,234.3832,287.6001" style="stroke:#181818;stroke-width:1;"/><line style="stroke:#181818;stroke-width:1;" x1="234.3832" x2="234.3832" y1="1062.0013" y2="1082.0013"/><polygon fill="#181818" points="230.3832,1072.0013,234.3832,1082.0013,238.3832,1072.0013,234.3832,1076.0013" style="stroke:#181818;stroke-width:1;"/><!--SRC=[nLDBJuD04BxtLumtq6hqsjg3CMfC23Qsd4op8R2KZMHtipkDHkD_TzX5A8YFMxdiiCptc656fmO52YKXIwkChLPNJ1kUCykHgQ8-BBnFW1wBbEgYGfbd5yokR-zYbNCuHgQL9OJ9kM5q2vUdS1yla_MyHK2wJONqE2lUE4D0LWTZkLpc0wabkOeYWgWTFddWvW_oh6O-7s5zAKN58N0PZOdGVHWMbUsCgKc6vP61h57lIueMqhQJqlVHGkRyjKK6G-OfUDMmOnU5iqgNPnKl48uM42TH50AMN4AmVankElTzEvBgy8h_j_IhBUTWpvkJ-_eddTgc9vTgJPrdgFneLSBYKEqRmRHjvdWdZDYM1sw5it2mNX2BA7vucpMpNnydSE51bEBctY_9GxAcZVFhD6_sM-d9noS0]--></g></svg>