<svg xmlns="http://www.w3.org/2000/svg" xmlns:xlink="http://www.w3.org/1999/xlink" contentStyleType="text/css" data-diagram-type="ACTIVITY" height="1497px" preserveAspectRatio="none" style="width:618px;height:1497px;background:#FFFFFF;" version="1.1" viewBox="0 0 618 1497" width="618px" zoomAndPan="magnify"><defs/><g><rect fill="none" height="1475.0013" style="stroke:#000000;stroke-width:1.5;" width="596.2151" x="11" y="11"/><path d="M176.6094,11 L176.6094,20.7999 L166.6094,30.7999 L11,30.7999" fill="none" style="stroke:#000000;stroke-width:1.5;"/><text fill="#000000" font-family="sans-serif" font-size="14" lengthAdjust="spacing" textLength="155.6094" x="14" y="25.0059">calc_SSA_dominator_arr</text><ellipse cx="309.1076" cy="50.7999" fill="#222222" rx="10" ry="10" style="stroke:#222222;stroke-width:1;"/><rect fill="#555555" height="6" rx="2.5" ry="2.5" style="stroke:#555555;stroke-width:1;" width="430.7664" x="93.7244" y="80.7999"/><rect fill="#F1F1F1" height="34.4001" rx="12.5" ry="12.5" style="stroke:#181818;stroke-width:0.5;" width="235.0655" x="107.7244" y="106.7999"/><text fill="#000000" font-family="sans-serif" font-size="12" lengthAdjust="spacing" textLength="215.0655" x="117.7244" y="127.948">CFGNode *t_post_order_CFG &lt;- INPUT</text><rect fill="#F1F1F1" height="34.4001" rx="12.5" ry="12.5" style="stroke:#181818;stroke-width:0.5;" width="139.7009" x="370.7899" y="106.7999"/><text fill="#000000" font-family="sans-serif" font-size="12" lengthAdjust="spacing" textLength="119.7009" x="380.7899" y="127.948">size_t t_size &lt;- INPUT</text><rect fill="#555555" height="6" rx="2.5" ry="2.5" style="stroke:#555555;stroke-width:1;" width="430.7664" x="93.7244" y="161.2"/><rect fill="#555555" height="6" rx="2.5" ry="2.5" style="stroke:#555555;stroke-width:1;" width="576.2151" x="21" y="187.2"/><rect fill="#F1F1F1" height="34.4001" rx="12.5" ry="12.5" style="stroke:#181818;stroke-width:0.5;" width="132.0448" x="33" y="220.4001"/><text fill="#000000" font-family="sans-serif" font-size="12" lengthAdjust="spacing" textLength="112.0448" x="43" y="241.5482">size_t t_doms[t_size]</text><rect fill="#F1F1F1" height="34.4001" rx="12.5" ry="12.5" style="stroke:#181818;stroke-width:0.5;" width="95.0366" x="193.0448" y="220.4001"/><text fill="#000000" font-family="sans-serif" font-size="12" lengthAdjust="spacing" textLength="75.0366" x="203.0448" y="241.5482">size_t t_c &lt;- 0</text><rect fill="#F1F1F1" height="48.8002" rx="12.5" ry="12.5" style="stroke:#181818;stroke-width:0.5;" width="269.1338" x="316.0814" y="213.2"/><text fill="#000000" font-family="sans-serif" font-size="12" lengthAdjust="spacing" textLength="249.1338" x="326.0814" y="234.3481">PredLL *t_pred &lt;- calc_SSA_pred_set_of_sets</text><text fill="#000000" font-family="sans-serif" font-size="12" lengthAdjust="spacing" textLength="145.381" x="326.0814" y="248.7482">(t_post_order_CFG, t_size)</text><rect fill="#555555" height="6" rx="2.5" ry="2.5" style="stroke:#555555;stroke-width:1;" width="576.2151" x="21" y="282.0002"/><rect fill="#F1F1F1" height="34.4001" rx="12.5" ry="12.5" style="stroke:#181818;stroke-width:0.5;" width="130.3768" x="243.9192" y="352.0002"/><text fill="#000000" font-family="sans-serif" font-size="12" lengthAdjust="spacing" textLength="110.3768" x="253.9192" y="373.1483">t_doms[t_c] &lt;- NULL</text><rect fill="#F1F1F1" height="34.4001" rx="12.5" ry="12.5" style="stroke:#181818;stroke-width:0.5;" width="90.0445" x="264.0853" y="421.4003"/><text fill="#000000" font-family="sans-serif" font-size="12" lengthAdjust="spacing" textLength="70.0445" x="274.0853" y="442.5484">t_c &lt;- t_c + 1</text><polygon fill="#F1F1F1" points="281.1348,308.0002,337.0804,308.0002,349.0804,320.0002,337.0804,332.0002,281.1348,332.0002,269.1348,320.0002,281.1348,308.0002" style="stroke:#181818;stroke-width:0.5;"/><text fill="#000000" font-family="sans-serif" font-size="11" lengthAdjust="spacing" textLength="55.9456" x="281.1348" y="323.6192">t_c &lt; t_size</text><rect fill="#555555" height="6" rx="2.5" ry="2.5" style="stroke:#555555;stroke-width:1;" width="521.1503" x="48.5324" y="497.8004"/><rect fill="#F1F1F1" height="34.4001" rx="12.5" ry="12.5" style="stroke:#181818;stroke-width:0.5;" width="97.0406" x="62.5324" y="523.8004"/><text fill="#000000" font-family="sans-serif" font-size="12" lengthAdjust="spacing" textLength="77.0406" x="72.5324" y="544.9485">t_doms[0] &lt;- 0</text><rect fill="#F1F1F1" height="34.4001" rx="12.5" ry="12.5" style="stroke:#181818;stroke-width:0.5;" width="60.3563" x="187.573" y="523.8004"/><text fill="#000000" font-family="sans-serif" font-size="12" lengthAdjust="spacing" textLength="40.3563" x="197.573" y="544.9485">t_c &lt;- 1</text><rect fill="#F1F1F1" height="34.4001" rx="12.5" ry="12.5" style="stroke:#181818;stroke-width:0.5;" width="142.3889" x="275.9293" y="523.8004"/><text fill="#000000" font-family="sans-serif" font-size="12" lengthAdjust="spacing" textLength="122.3889" x="285.9293" y="544.9485">bool changed &lt;- TRUE</text><rect fill="#F1F1F1" height="34.4001" rx="12.5" ry="12.5" style="stroke:#181818;stroke-width:0.5;" width="109.3646" x="446.3181" y="523.8004"/><text fill="#000000" font-family="sans-serif" font-size="12" lengthAdjust="spacing" textLength="89.3646" x="456.3181" y="544.9485">size_t new_idom</text><rect fill="#555555" height="6" rx="2.5" ry="2.5" style="stroke:#555555;stroke-width:1;" width="521.1503" x="48.5324" y="578.2005"/><rect fill="#F1F1F1" height="34.4001" rx="12.5" ry="12.5" style="stroke:#181818;stroke-width:0.5;" width="121.7247" x="248.2452" y="648.2005"/><text fill="#000000" font-family="sans-serif" font-size="12" lengthAdjust="spacing" textLength="101.7247" x="258.2452" y="669.3486">changed &lt;- FALSE</text><rect fill="#F1F1F1" height="34.4001" rx="12.5" ry="12.5" style="stroke:#181818;stroke-width:0.5;" width="131.0608" x="243.5772" y="746.6006"/><text fill="#000000" font-family="sans-serif" font-size="12" lengthAdjust="spacing" textLength="111.0608" x="253.5772" y="767.7487">t_temp &lt;- t_pred[t_c]</text><rect fill="#F1F1F1" height="34.4001" rx="12.5" ry="12.5" style="stroke:#181818;stroke-width:0.5;" width="187.7492" x="215.233" y="801.0007"/><text fill="#000000" font-family="sans-serif" font-size="12" lengthAdjust="spacing" textLength="167.7492" x="225.233" y="822.1488">t_new_idom &lt;- t_temp.contents</text><rect fill="#F1F1F1" height="34.4001" rx="12.5" ry="12.5" style="stroke:#181818;stroke-width:0.5;" width="137.0608" x="240.5771" y="899.4008"/><text fill="#000000" font-family="sans-serif" font-size="12" lengthAdjust="spacing" textLength="117.0608" x="250.5771" y="920.5489">t_temp &lt;- t_temp.next</text><rect fill="#F1F1F1" height="48.8002" rx="12.5" ry="12.5" style="stroke:#181818;stroke-width:0.5;" width="266.4337" x="175.8907" y="1002.4009"/><text fill="#000000" font-family="sans-serif" font-size="12" lengthAdjust="spacing" textLength="246.4337" x="185.8907" y="1023.549">t_new_idom &lt;- calc_SSA_dominator_intersect</text><text fill="#000000" font-family="sans-serif" font-size="12" lengthAdjust="spacing" textLength="210.7575" x="185.8907" y="1037.9491">(t_doms, t_temp.contents, t_new_idom)</text><polygon fill="#F1F1F1" points="227.0262,953.8009,391.189,953.8009,403.189,965.8009,391.189,977.8009,227.0262,977.8009,215.0262,965.8009,227.0262,953.8009" style="stroke:#181818;stroke-width:0.5;"/><text fill="#000000" font-family="sans-serif" font-size="11" lengthAdjust="spacing" textLength="29.9418" x="313.1076" y="988.0199">TRUE</text><text fill="#000000" font-family="sans-serif" font-size="11" lengthAdjust="spacing" textLength="164.1628" x="227.0262" y="969.4199">t_doms[t_temp.contents] != NULL</text><polygon fill="#F1F1F1" points="309.1076,1071.2011,321.1076,1083.2011,309.1076,1095.2011,297.1076,1083.2011,309.1076,1071.2011" style="stroke:#181818;stroke-width:0.5;"/><polygon fill="#F1F1F1" points="258.5134,855.4008,359.7017,855.4008,371.7017,867.4008,359.7017,879.4008,258.5134,879.4008,246.5134,867.4008,258.5134,855.4008" style="stroke:#181818;stroke-width:0.5;"/><text fill="#000000" font-family="sans-serif" font-size="11" lengthAdjust="spacing" textLength="101.1883" x="258.5134" y="871.0198">t_temp.next != NULL</text><rect fill="#F1F1F1" height="34.4001" rx="12.5" ry="12.5" style="stroke:#181818;stroke-width:0.5;" width="164.397" x="226.909" y="1185.801"/><text fill="#000000" font-family="sans-serif" font-size="12" lengthAdjust="spacing" textLength="144.397" x="236.909" y="1206.9491">t_doms[t_c] &lt;- t_new_idom</text><rect fill="#F1F1F1" height="34.4001" rx="12.5" ry="12.5" style="stroke:#181818;stroke-width:0.5;" width="116.3727" x="250.9212" y="1255.2011"/><text fill="#000000" font-family="sans-serif" font-size="12" lengthAdjust="spacing" textLength="96.3727" x="260.9212" y="1276.3492">changed &lt;- TRUE</text><polygon fill="#F1F1F1" points="243.229,1137.2011,374.9861,1137.2011,386.9861,1149.2011,374.9861,1161.2011,243.229,1161.2011,231.229,1149.2011,243.229,1137.2011" style="stroke:#181818;stroke-width:0.5;"/><text fill="#000000" font-family="sans-serif" font-size="11" lengthAdjust="spacing" textLength="34.8477" x="313.1076" y="1171.42">FALSE</text><text fill="#000000" font-family="sans-serif" font-size="11" lengthAdjust="spacing" textLength="131.757" x="243.229" y="1152.8201">t_doms[t_c] != t_new_idom</text><polygon fill="#F1F1F1" points="309.1076,1309.6012,321.1076,1321.6012,309.1076,1333.6012,297.1076,1321.6012,309.1076,1309.6012" style="stroke:#181818;stroke-width:0.5;"/><polygon fill="#F1F1F1" points="232.5316,702.6006,385.6835,702.6006,397.6835,714.6006,385.6835,726.6006,232.5316,726.6006,220.5316,714.6006,232.5316,702.6006" style="stroke:#181818;stroke-width:0.5;"/><text fill="#000000" font-family="sans-serif" font-size="11" lengthAdjust="spacing" textLength="153.1519" x="232.5316" y="718.2196">t_post_order_CFG[t_c] &lt; t_size</text><polygon fill="#F1F1F1" points="266.7689,604.2005,351.4462,604.2005,363.4462,616.2005,351.4462,628.2005,266.7689,628.2005,254.7689,616.2005,266.7689,604.2005" style="stroke:#181818;stroke-width:0.5;"/><text fill="#000000" font-family="sans-serif" font-size="11" lengthAdjust="spacing" textLength="84.6774" x="266.7689" y="619.8195">changed = TRUE</text><rect fill="#F1F1F1" height="34.4001" rx="12.5" ry="12.5" style="stroke:#181818;stroke-width:0.5;" width="112.0166" x="253.0992" y="1397.6012"/><text fill="#000000" font-family="sans-serif" font-size="12" lengthAdjust="spacing" textLength="92.0166" x="263.0992" y="1418.7493">OUTPUT t_doms</text><ellipse cx="309.1076" cy="1463.0013" fill="none" rx="11" ry="11" style="stroke:#222222;stroke-width:1;"/><ellipse cx="309.1076" cy="1463.0013" fill="#222222" rx="6" ry="6" style="stroke:#222222;stroke-width:1;"/><line style="stroke:#181818;stroke-width:1;" x1="225.2571" x2="225.2571" y1="86.7999" y2="106.7999"/><polygon fill="#181818" points="221.2571,96.7999,225.2571,106.7999,229.2571,96.7999,225.2571,100.7999" style="stroke:#181818;stroke-width:1;"/><line style="stroke:#181818;stroke-width:1;" x1="440.6403" x2="440.6403" y1="86.7999" y2="106.7999"/><polygon fill="#181818" points="436.6403,96.7999,440.6403,106.7999,444.6403,96.7999,440.6403,100.7999" style="stroke:#181818;stroke-width:1;"/><line style="stroke:#181818;stroke-width:1;" x1="225.2571" x2="225.2571" y1="141.2" y2="161.2"/><polygon fill="#181818" points="221.2571,151.2,225.2571,161.2,229.2571,151.2,225.2571,155.2" style="stroke:#181818;stroke-width:1;"/><line style="stroke:#181818;stroke-width:1;" x1="440.6403" x2="440.6403" y1="141.2" y2="161.2"/><polygon fill="#181818" points="436.6403,151.2,440.6403,161.2,444.6403,151.2,440.6403,155.2" style="stroke:#181818;stroke-width:1;"/><line style="stroke:#181818;stroke-width:1;" x1="309.1076" x2="309.1076" y1="60.7999" y2="80.7999"/><polygon fill="#181818" points="305.1076,70.7999,309.1076,80.7999,313.1076,70.7999,309.1076,74.7999" style="stroke:#181818;stroke-width:1;"/><line style="stroke:#181818;stroke-width:1;" x1="99.0224" x2="99.0224" y1="193.2" y2="220.4001"/><polygon fill="#181818" points="95.0224,210.4001,99.0224,220.4001,103.0224,210.4001,99.0224,214.4001" style="stroke:#181818;stroke-width:1;"/><line style="stroke:#181818;stroke-width:1;" x1="240.5631" x2="240.5631" y1="193.2" y2="220.4001"/><polygon fill="#181818" points="236.5631,210.4001,240.5631,220.4001,244.5631,210.4001,240.5631,214.4001" style="stroke:#181818;stroke-width:1;"/><line style="stroke:#181818;stroke-width:1;" x1="450.6482" x2="450.6482" y1="193.2" y2="213.2"/><polygon fill="#181818" points="446.6482,203.2,450.6482,213.2,454.6482,203.2,450.6482,207.2" style="stroke:#181818;stroke-width:1;"/><line style="stroke:#181818;stroke-width:1;" x1="99.0224" x2="99.0224" y1="254.8002" y2="282.0002"/><polygon fill="#181818" points="95.0224,272.0002,99.0224,282.0002,103.0224,272.0002,99.0224,276.0002" style="stroke:#181818;stroke-width:1;"/><line style="stroke:#181818;stroke-width:1;" x1="240.5631" x2="240.5631" y1="254.8002" y2="282.0002"/><polygon fill="#181818" points="236.5631,272.0002,240.5631,282.0002,244.5631,272.0002,240.5631,276.0002" style="stroke:#181818;stroke-width:1;"/><line style="stroke:#181818;stroke-width:1;" x1="450.6482" x2="450.6482" y1="262.0002" y2="282.0002"/><polygon fill="#181818" points="446.6482,272.0002,450.6482,282.0002,454.6482,272.0002,450.6482,276.0002" style="stroke:#181818;stroke-width:1;"/><line style="stroke:#181818;stroke-width:1;" x1="309.1076" x2="309.1076" y1="167.2" y2="187.2"/><polygon fill="#181818" points="305.1076,177.2,309.1076,187.2,313.1076,177.2,309.1076,181.2" style="stroke:#181818;stroke-width:1;"/><line style="stroke:#181818;stroke-width:1;" x1="309.1076" x2="309.1076" y1="386.4003" y2="421.4003"/><polygon fill="#181818" points="305.1076,411.4003,309.1076,421.4003,313.1076,411.4003,309.1076,415.4003" style="stroke:#181818;stroke-width:1;"/><line style="stroke:#181818;stroke-width:1;" x1="309.1076" x2="309.1076" y1="332.0002" y2="352.0002"/><polygon fill="#181818" points="305.1076,342.0002,309.1076,352.0002,313.1076,342.0002,309.1076,346.0002" style="stroke:#181818;stroke-width:1;"/><line style="stroke:#181818;stroke-width:1;" x1="309.1076" x2="309.1076" y1="455.8004" y2="465.8004"/><line style="stroke:#181818;stroke-width:1;" x1="309.1076" x2="386.296" y1="465.8004" y2="465.8004"/><polygon fill="#181818" points="382.296,401.9003,386.296,391.9003,390.296,401.9003,386.296,397.9003" style="stroke:#181818;stroke-width:1;"/><line style="stroke:#181818;stroke-width:1;" x1="386.296" x2="386.296" y1="320.0002" y2="465.8004"/><line style="stroke:#181818;stroke-width:1;" x1="386.296" x2="349.0804" y1="320.0002" y2="320.0002"/><polygon fill="#181818" points="359.0804,316.0002,349.0804,320.0002,359.0804,324.0002,355.0804,320.0002" style="stroke:#181818;stroke-width:1;"/><line style="stroke:#181818;stroke-width:1;" x1="269.1348" x2="231.9192" y1="320.0002" y2="320.0002"/><polygon fill="#181818" points="227.9192,387.9003,231.9192,397.9003,235.9192,387.9003,231.9192,391.9003" style="stroke:#181818;stroke-width:1;"/><line style="stroke:#181818;stroke-width:1;" x1="231.9192" x2="231.9192" y1="320.0002" y2="477.8004"/><line style="stroke:#181818;stroke-width:1;" x1="231.9192" x2="309.1076" y1="477.8004" y2="477.8004"/><line style="stroke:#181818;stroke-width:1;" x1="309.1076" x2="309.1076" y1="477.8004" y2="497.8004"/><polygon fill="#181818" points="305.1076,487.8004,309.1076,497.8004,313.1076,487.8004,309.1076,491.8004" style="stroke:#181818;stroke-width:1;"/><line style="stroke:#181818;stroke-width:1;" x1="309.1076" x2="309.1076" y1="288.0002" y2="308.0002"/><polygon fill="#181818" points="305.1076,298.0002,309.1076,308.0002,313.1076,298.0002,309.1076,302.0002" style="stroke:#181818;stroke-width:1;"/><line style="stroke:#181818;stroke-width:1;" x1="111.0527" x2="111.0527" y1="503.8004" y2="523.8004"/><polygon fill="#181818" points="107.0527,513.8004,111.0527,523.8004,115.0527,513.8004,111.0527,517.8004" style="stroke:#181818;stroke-width:1;"/><line style="stroke:#181818;stroke-width:1;" x1="217.7511" x2="217.7511" y1="503.8004" y2="523.8004"/><polygon fill="#181818" points="213.7511,513.8004,217.7511,523.8004,221.7511,513.8004,217.7511,517.8004" style="stroke:#181818;stroke-width:1;"/><line style="stroke:#181818;stroke-width:1;" x1="347.1237" x2="347.1237" y1="503.8004" y2="523.8004"/><polygon fill="#181818" points="343.1237,513.8004,347.1237,523.8004,351.1237,513.8004,347.1237,517.8004" style="stroke:#181818;stroke-width:1;"/><line style="stroke:#181818;stroke-width:1;" x1="501.0004" x2="501.0004" y1="503.8004" y2="523.8004"/><polygon fill="#181818" points="497.0004,513.8004,501.0004,523.8004,505.0004,513.8004,501.0004,517.8004" style="stroke:#181818;stroke-width:1;"/><line style="stroke:#181818;stroke-width:1;" x1="111.0527" x2="111.0527" y1="558.2005" y2="578.2005"/><polygon fill="#181818" points="107.0527,568.2005,111.0527,578.2005,115.0527,568.2005,111.0527,572.2005" style="stroke:#181818;stroke-width:1;"/><line style="stroke:#181818;stroke-width:1;" x1="217.7511" x2="217.7511" y1="558.2005" y2="578.2005"/><polygon fill="#181818" points="213.7511,568.2005,217.7511,578.2005,221.7511,568.2005,217.7511,572.2005" style="stroke:#181818;stroke-width:1;"/><line style="stroke:#181818;stroke-width:1;" x1="347.1237" x2="347.1237" y1="558.2005" y2="578.2005"/><polygon fill="#181818" points="343.1237,568.2005,347.1237,578.2005,351.1237,568.2005,347.1237,572.2005" style="stroke:#181818;stroke-width:1;"/><line style="stroke:#181818;stroke-width:1;" x1="501.0004" x2="501.0004" y1="558.2005" y2="578.2005"/><polygon fill="#181818" points="497.0004,568.2005,501.0004,578.2005,505.0004,568.2005,501.0004,572.2005" style="stroke:#181818;stroke-width:1;"/><line style="stroke:#181818;stroke-width:1;" x1="309.1076" x2="309.1076" y1="781.0007" y2="801.0007"/><polygon fill="#181818" points="305.1076,791.0007,309.1076,801.0007,313.1076,791.0007,309.1076,795.0007" style="stroke:#181818;stroke-width:1;"/><line style="stroke:#181818;stroke-width:1;" x1="309.1076" x2="309.1076" y1="977.8009" y2="1002.4009"/><polygon fill="#181818" points="305.1076,992.4009,309.1076,1002.4009,313.1076,992.4009,309.1076,996.4009" style="stroke:#181818;stroke-width:1;"/><line style="stroke:#181818;stroke-width:1;" x1="403.189" x2="452.3244" y1="965.8009" y2="965.8009"/><polygon fill="#181818" points="448.3244,1016.801,452.3244,1026.801,456.3244,1016.801,452.3244,1020.801" style="stroke:#181818;stroke-width:1;"/><line style="stroke:#181818;stroke-width:1;" x1="452.3244" x2="452.3244" y1="965.8009" y2="1083.2011"/><line style="stroke:#181818;stroke-width:1;" x1="452.3244" x2="321.1076" y1="1083.2011" y2="1083.2011"/><polygon fill="#181818" points="331.1076,1079.2011,321.1076,1083.2011,331.1076,1087.2011,327.1076,1083.2011" style="stroke:#181818;stroke-width:1;"/><line style="stroke:#181818;stroke-width:1;" x1="309.1076" x2="309.1076" y1="1051.2011" y2="1071.2011"/><polygon fill="#181818" points="305.1076,1061.2011,309.1076,1071.2011,313.1076,1061.2011,309.1076,1065.2011" style="stroke:#181818;stroke-width:1;"/><line style="stroke:#181818;stroke-width:1;" x1="309.1076" x2="309.1076" y1="933.8009" y2="953.8009"/><polygon fill="#181818" points="305.1076,943.8009,309.1076,953.8009,313.1076,943.8009,309.1076,947.8009" style="stroke:#181818;stroke-width:1;"/><line style="stroke:#181818;stroke-width:1;" x1="309.1076" x2="309.1076" y1="879.4008" y2="899.4008"/><polygon fill="#181818" points="305.1076,889.4008,309.1076,899.4008,313.1076,889.4008,309.1076,893.4008" style="stroke:#181818;stroke-width:1;"/><line style="stroke:#181818;stroke-width:1;" x1="309.1076" x2="309.1076" y1="1095.2011" y2="1105.2011"/><line style="stroke:#181818;stroke-width:1;" x1="309.1076" x2="476.3244" y1="1105.2011" y2="1105.2011"/><polygon fill="#181818" points="472.3244,990.1009,476.3244,980.1009,480.3244,990.1009,476.3244,986.1009" style="stroke:#181818;stroke-width:1;"/><line style="stroke:#181818;stroke-width:1;" x1="476.3244" x2="476.3244" y1="867.4008" y2="1105.2011"/><line style="stroke:#181818;stroke-width:1;" x1="476.3244" x2="371.7017" y1="867.4008" y2="867.4008"/><polygon fill="#181818" points="381.7017,863.4008,371.7017,867.4008,381.7017,871.4008,377.7017,867.4008" style="stroke:#181818;stroke-width:1;"/><line style="stroke:#181818;stroke-width:1;" x1="246.5134" x2="153.8907" y1="867.4008" y2="867.4008"/><polygon fill="#181818" points="149.8907,976.1009,153.8907,986.1009,157.8907,976.1009,153.8907,980.1009" style="stroke:#181818;stroke-width:1;"/><line style="stroke:#181818;stroke-width:1;" x1="153.8907" x2="153.8907" y1="867.4008" y2="1117.2011"/><line style="stroke:#181818;stroke-width:1;" x1="153.8907" x2="309.1076" y1="1117.2011" y2="1117.2011"/><line style="stroke:#181818;stroke-width:1;" x1="309.1076" x2="309.1076" y1="1117.2011" y2="1137.2011"/><polygon fill="#181818" points="305.1076,1127.2011,309.1076,1137.2011,313.1076,1127.2011,309.1076,1131.2011" style="stroke:#181818;stroke-width:1;"/><line style="stroke:#181818;stroke-width:1;" x1="309.1076" x2="309.1076" y1="835.4008" y2="855.4008"/><polygon fill="#181818" points="305.1076,845.4008,309.1076,855.4008,313.1076,845.4008,309.1076,849.4008" style="stroke:#181818;stroke-width:1;"/><line style="stroke:#181818;stroke-width:1;" x1="309.1076" x2="309.1076" y1="1220.2011" y2="1255.2011"/><polygon fill="#181818" points="305.1076,1245.2011,309.1076,1255.2011,313.1076,1245.2011,309.1076,1249.2011" style="stroke:#181818;stroke-width:1;"/><line style="stroke:#181818;stroke-width:1;" x1="309.1076" x2="309.1076" y1="1161.2011" y2="1185.801"/><polygon fill="#181818" points="305.1076,1175.801,309.1076,1185.801,313.1076,1175.801,309.1076,1179.801" style="stroke:#181818;stroke-width:1;"/><line style="stroke:#181818;stroke-width:1;" x1="386.9861" x2="401.3061" y1="1149.2011" y2="1149.2011"/><polygon fill="#181818" points="397.3061,1227.7011,401.3061,1237.7011,405.3061,1227.7011,401.3061,1231.7011" style="stroke:#181818;stroke-width:1;"/><line style="stroke:#181818;stroke-width:1;" x1="401.3061" x2="401.3061" y1="1149.2011" y2="1321.6012"/><line style="stroke:#181818;stroke-width:1;" x1="401.3061" x2="321.1076" y1="1321.6012" y2="1321.6012"/><polygon fill="#181818" points="331.1076,1317.6012,321.1076,1321.6012,331.1076,1325.6012,327.1076,1321.6012" style="stroke:#181818;stroke-width:1;"/><line style="stroke:#181818;stroke-width:1;" x1="309.1076" x2="309.1076" y1="1289.6012" y2="1309.6012"/><polygon fill="#181818" points="305.1076,1299.6012,309.1076,1309.6012,313.1076,1299.6012,309.1076,1303.6012" style="stroke:#181818;stroke-width:1;"/><line style="stroke:#181818;stroke-width:1;" x1="309.1076" x2="309.1076" y1="726.6006" y2="746.6006"/><polygon fill="#181818" points="305.1076,736.6006,309.1076,746.6006,313.1076,736.6006,309.1076,740.6006" style="stroke:#181818;stroke-width:1;"/><line style="stroke:#181818;stroke-width:1;" x1="309.1076" x2="309.1076" y1="1333.6012" y2="1343.6012"/><line style="stroke:#181818;stroke-width:1;" x1="309.1076" x2="488.3244" y1="1343.6012" y2="1343.6012"/><polygon fill="#181818" points="484.3244,1026.7009,488.3244,1016.7009,492.3244,1026.7009,488.3244,1022.7009" style="stroke:#181818;stroke-width:1;"/><line style="stroke:#181818;stroke-width:1;" x1="488.3244" x2="488.3244" y1="714.6006" y2="1343.6012"/><line style="stroke:#181818;stroke-width:1;" x1="488.3244" x2="397.6835" y1="714.6006" y2="714.6006"/><polygon fill="#181818" points="407.6835,710.6006,397.6835,714.6006,407.6835,718.6006,403.6835,714.6006" style="stroke:#181818;stroke-width:1;"/><line style="stroke:#181818;stroke-width:1;" x1="220.5316" x2="129.8907" y1="714.6006" y2="714.6006"/><polygon fill="#181818" points="125.8907,1012.7009,129.8907,1022.7009,133.8907,1012.7009,129.8907,1016.7009" style="stroke:#181818;stroke-width:1;"/><line style="stroke:#181818;stroke-width:1;" x1="129.8907" x2="129.8907" y1="714.6006" y2="1355.6012"/><line style="stroke:#181818;stroke-width:1;" x1="129.8907" x2="500.3244" y1="1355.6012" y2="1355.6012"/><line style="stroke:#181818;stroke-width:1;" x1="500.3244" x2="500.3244" y1="616.2005" y2="1355.6012"/><line style="stroke:#181818;stroke-width:1;" x1="500.3244" x2="363.4462" y1="616.2005" y2="616.2005"/><polygon fill="#181818" points="373.4462,612.2005,363.4462,616.2005,373.4462,620.2005,369.4462,616.2005" style="stroke:#181818;stroke-width:1;"/><line style="stroke:#181818;stroke-width:1;" x1="309.1076" x2="309.1076" y1="682.6006" y2="702.6006"/><polygon fill="#181818" points="305.1076,692.6006,309.1076,702.6006,313.1076,692.6006,309.1076,696.6006" style="stroke:#181818;stroke-width:1;"/><line style="stroke:#181818;stroke-width:1;" x1="309.1076" x2="309.1076" y1="628.2005" y2="648.2005"/><polygon fill="#181818" points="305.1076,638.2005,309.1076,648.2005,313.1076,638.2005,309.1076,642.2005" style="stroke:#181818;stroke-width:1;"/><line style="stroke:#181818;stroke-width:1;" x1="254.7689" x2="105.8907" y1="616.2005" y2="616.2005"/><polygon fill="#181818" points="101.8907,966.0008,105.8907,976.0008,109.8907,966.0008,105.8907,970.0008" style="stroke:#181818;stroke-width:1;"/><line style="stroke:#181818;stroke-width:1;" x1="105.8907" x2="105.8907" y1="616.2005" y2="1377.6012"/><line style="stroke:#181818;stroke-width:1;" x1="105.8907" x2="309.1076" y1="1377.6012" y2="1377.6012"/><line style="stroke:#181818;stroke-width:1;" x1="309.1076" x2="309.1076" y1="1377.6012" y2="1397.6012"/><polygon fill="#181818" points="305.1076,1387.6012,309.1076,1397.6012,313.1076,1387.6012,309.1076,1391.6012" style="stroke:#181818;stroke-width:1;"/><line style="stroke:#181818;stroke-width:1;" x1="309.1076" x2="309.1076" y1="584.2005" y2="604.2005"/><polygon fill="#181818" points="305.1076,594.2005,309.1076,604.2005,313.1076,594.2005,309.1076,598.2005" style="stroke:#181818;stroke-width:1;"/><line style="stroke:#181818;stroke-width:1;" x1="309.1076" x2="309.1076" y1="1432.0013" y2="1452.0013"/><polygon fill="#181818" points="305.1076,1442.0013,309.1076,1452.0013,313.1076,1442.0013,309.1076,1446.0013" style="stroke:#181818;stroke-width:1;"/><!--SRC=[XLH1Jy8m6BtpA-eD50rScHoC0MEo815sCajJkmuQeLtQ9XYD_zsswygwLUIoqhxlVU-zRsk5XAAASWOmEc2usJp0WXyfGueBY8G0tmEWVr9fd5sLN7pOnUnn-RJY1G7N2bPSAiX5GGJKk-3-5ZolrjasyHK0xH1bTPsaNmGgeA1PnB245PrMlaHhaszrPVuFEpRKapXeBKYHfbQvNXcWTsyse2JQJcaUqXOCknR7Jlue8lkqfmTYIhI21cOFR6ll0UUcxofBqwHzQcMRnmsOrWUQrr9sCd54a_o2JqStZP- -Stu0U8_OhivW-vejBeRAo0bItVLlqmtRt9ArRBVQB1_IpUBisSSL9kmIwWNeV2bohEgapC0iEEbY6harpbJSOSuKOKg6M2_1OXZvLE1gRaSJzktrzlYaXwEb8NIp3dhddXoeFM5W64PrmKJa4wMQKqY2LRJUAHXtxPkDXdZKrww7Iij1P-Vy3aOjOckhHUlCsMb7Omo-WtDXNyui-ex6nGP2Wp-pbsohxnbtYIJkMkFLuESN]--></g></svg>