<svg xmlns="http://www.w3.org/2000/svg" xmlns:xlink="http://www.w3.org/1999/xlink" contentStyleType="text/css" data-diagram-type="ACTIVITY" height="588px" preserveAspectRatio="none" style="width:464px;height:588px;background:#FFFFFF;" version="1.1" viewBox="0 0 464 588" width="464px" zoomAndPan="magnify"><defs/><g><rect fill="none" height="566.4003" style="stroke:#000000;stroke-width:1.5;" width="442.1573" x="11" y="11"/><path d="M216.3272,11 L216.3272,20.7999 L206.3272,30.7999 L11,30.7999" fill="none" style="stroke:#000000;stroke-width:1.5;"/><text fill="#000000" font-family="sans-serif" font-size="14" lengthAdjust="spacing" textLength="195.3272" x="14" y="25.0059">calc_SSA_append_to_pred_list</text><ellipse cx="233.4302" cy="50.7999" fill="#222222" rx="10" ry="10" style="stroke:#222222;stroke-width:1;"/><rect fill="#555555" height="6" rx="2.5" ry="2.5" style="stroke:#555555;stroke-width:1;" width="415.4543" x="25.703" y="80.7999"/><rect fill="#F1F1F1" height="34.4001" rx="12.5" ry="12.5" style="stroke:#181818;stroke-width:0.5;" width="175.7251" x="39.703" y="106.7999"/><text fill="#000000" font-family="sans-serif" font-size="12" lengthAdjust="spacing" textLength="155.7251" x="49.703" y="127.948">Size_tLL *t_inp_list &lt;- INPUT</text><rect fill="#F1F1F1" height="34.4001" rx="12.5" ry="12.5" style="stroke:#181818;stroke-width:0.5;" width="183.7292" x="243.4282" y="106.7999"/><text fill="#000000" font-family="sans-serif" font-size="12" lengthAdjust="spacing" textLength="163.7292" x="253.4282" y="127.948">size_t t_inp_element &lt;- INPUT</text><rect fill="#555555" height="6" rx="2.5" ry="2.5" style="stroke:#555555;stroke-width:1;" width="415.4543" x="25.703" y="161.2"/><rect fill="#F1F1F1" height="34.4001" rx="12.5" ry="12.5" style="stroke:#181818;stroke-width:0.5;" width="176.4211" x="145.2196" y="187.2"/><text fill="#000000" font-family="sans-serif" font-size="12" lengthAdjust="spacing" textLength="156.4211" x="155.2196" y="208.3481">Size_tLL *t_head &lt;- t_inp_list</text><polygon fill="#F1F1F1" points="196.2835,241.6001,270.5769,241.6001,282.5769,253.6001,270.5769,265.6001,196.2835,265.6001,184.2835,253.6001,196.2835,241.6001" style="stroke:#181818;stroke-width:0.5;"/><text fill="#000000" font-family="sans-serif" font-size="11" lengthAdjust="spacing" textLength="74.2934" x="196.2835" y="257.2191">t_head = NULL</text><text fill="#000000" font-family="sans-serif" font-size="11" lengthAdjust="spacing" textLength="29.9418" x="154.3417" y="250.6192">TRUE</text><text fill="#000000" font-family="sans-serif" font-size="11" lengthAdjust="spacing" textLength="34.8477" x="282.5769" y="250.6192">FALSE</text><rect fill="#F1F1F1" height="34.4001" rx="12.5" ry="12.5" style="stroke:#181818;stroke-width:0.5;" width="193.0652" x="25.688" y="275.6001"/><text fill="#000000" font-family="sans-serif" font-size="12" lengthAdjust="spacing" textLength="173.0652" x="35.688" y="296.7482">t_head &lt;- malloc(sizeof(t_head))</text><rect fill="#F1F1F1" height="34.4001" rx="12.5" ry="12.5" style="stroke:#181818;stroke-width:0.5;" width="131.0608" x="56.6902" y="345.0002"/><text fill="#000000" font-family="sans-serif" font-size="12" lengthAdjust="spacing" textLength="111.0608" x="66.6902" y="366.1483">t_head.next &lt;- NULL</text><rect fill="#F1F1F1" height="34.4001" rx="12.5" ry="12.5" style="stroke:#181818;stroke-width:0.5;" width="198.4412" x="23" y="402.0002"/><text fill="#000000" font-family="sans-serif" font-size="12" lengthAdjust="spacing" textLength="178.4412" x="33" y="423.1483">t_head.contents &lt;- t_inp_element</text><rect fill="#F1F1F1" height="34.4001" rx="12.5" ry="12.5" style="stroke:#181818;stroke-width:0.5;" width="158.397" x="265.4412" y="323.6001"/><text fill="#000000" font-family="sans-serif" font-size="12" lengthAdjust="spacing" textLength="138.397" x="275.4412" y="344.7482">t_inp_list &lt;- t_inp_list.next</text><polygon fill="#F1F1F1" points="289.1561,275.6001,400.1233,275.6001,412.1233,287.6001,400.1233,299.6001,289.1561,299.6001,277.1561,287.6001,289.1561,275.6001" style="stroke:#181818;stroke-width:0.5;"/><text fill="#000000" font-family="sans-serif" font-size="11" lengthAdjust="spacing" textLength="110.9672" x="289.1561" y="291.2191">t_inp_list.next != NULL</text><rect fill="#F1F1F1" height="34.4001" rx="12.5" ry="12.5" style="stroke:#181818;stroke-width:0.5;" width="186.4172" x="251.4312" y="404.6001"/><text fill="#000000" font-family="sans-serif" font-size="12" lengthAdjust="spacing" textLength="166.4172" x="261.4312" y="425.7482">t_inp_list.next &lt;- t_inp_element</text><polygon fill="#F1F1F1" points="233.4302,445.0002,245.4302,457.0002,233.4302,469.0002,221.4302,457.0002,233.4302,445.0002" style="stroke:#181818;stroke-width:0.5;"/><rect fill="#F1F1F1" height="34.4001" rx="12.5" ry="12.5" style="stroke:#181818;stroke-width:0.5;" width="109.3646" x="178.7479" y="489.0002"/><text fill="#000000" font-family="sans-serif" font-size="12" lengthAdjust="spacing" textLength="89.3646" x="188.7479" y="510.1483">OUTPUT t_head</text><ellipse cx="233.4302" cy="554.4003" fill="none" rx="11" ry="11" style="stroke:#222222;stroke-width:1;"/><ellipse cx="233.4302" cy="554.4003" fill="#222222" rx="6" ry="6" style="stroke:#222222;stroke-width:1;"/><line style="stroke:#181818;stroke-width:1;" x1="127.5656" x2="127.5656" y1="86.7999" y2="106.7999"/><polygon fill="#181818" points="123.5656,96.7999,127.5656,106.7999,131.5656,96.7999,127.5656,100.7999" style="stroke:#181818;stroke-width:1;"/><line style="stroke:#181818;stroke-width:1;" x1="335.2927" x2="335.2927" y1="86.7999" y2="106.7999"/><polygon fill="#181818" points="331.2927,96.7999,335.2927,106.7999,339.2927,96.7999,335.2927,100.7999" style="stroke:#181818;stroke-width:1;"/><line style="stroke:#181818;stroke-width:1;" x1="127.5656" x2="127.5656" y1="141.2" y2="161.2"/><polygon fill="#181818" points="123.5656,151.2,127.5656,161.2,131.5656,151.2,127.5656,155.2" style="stroke:#181818;stroke-width:1;"/><line style="stroke:#181818;stroke-width:1;" x1="335.2927" x2="335.2927" y1="141.2" y2="161.2"/><polygon fill="#181818" points="331.2927,151.2,335.2927,161.2,339.2927,151.2,335.2927,155.2" style="stroke:#181818;stroke-width:1;"/><line style="stroke:#181818;stroke-width:1;" x1="233.4302" x2="233.4302" y1="60.7999" y2="80.7999"/><polygon fill="#181818" points="229.4302,70.7999,233.4302,80.7999,237.4302,70.7999,233.4302,74.7999" style="stroke:#181818;stroke-width:1;"/><line style="stroke:#181818;stroke-width:1;" x1="233.4302" x2="233.4302" y1="167.2" y2="187.2"/><polygon fill="#181818" points="229.4302,177.2,233.4302,187.2,237.4302,177.2,233.4302,181.2" style="stroke:#181818;stroke-width:1;"/><line style="stroke:#181818;stroke-width:1;" x1="122.2206" x2="122.2206" y1="310.0002" y2="345.0002"/><polygon fill="#181818" points="118.2206,335.0002,122.2206,345.0002,126.2206,335.0002,122.2206,339.0002" style="stroke:#181818;stroke-width:1;"/><line style="stroke:#181818;stroke-width:1;" x1="122.2206" x2="122.2206" y1="379.4003" y2="402.0002"/><polygon fill="#181818" points="118.2206,392.0002,122.2206,402.0002,126.2206,392.0002,122.2206,396.0002" style="stroke:#181818;stroke-width:1;"/><line style="stroke:#181818;stroke-width:1;" x1="344.6397" x2="344.6397" y1="299.6001" y2="323.6001"/><polygon fill="#181818" points="340.6397,313.6001,344.6397,323.6001,348.6397,313.6001,344.6397,317.6001" style="stroke:#181818;stroke-width:1;"/><line style="stroke:#181818;stroke-width:1;" x1="344.6397" x2="344.6397" y1="358.0002" y2="370.0002"/><line style="stroke:#181818;stroke-width:1;" x1="344.6397" x2="435.8382" y1="370.0002" y2="370.0002"/><polygon fill="#181818" points="431.8382,338.8002,435.8382,328.8002,439.8382,338.8002,435.8382,334.8002" style="stroke:#181818;stroke-width:1;"/><line style="stroke:#181818;stroke-width:1;" x1="435.8382" x2="435.8382" y1="287.6001" y2="370.0002"/><line style="stroke:#181818;stroke-width:1;" x1="435.8382" x2="412.1233" y1="287.6001" y2="287.6001"/><polygon fill="#181818" points="422.1233,283.6001,412.1233,287.6001,422.1233,291.6001,418.1233,287.6001" style="stroke:#181818;stroke-width:1;"/><line style="stroke:#181818;stroke-width:1;" x1="277.1561" x2="253.4412" y1="287.6001" y2="287.6001"/><polygon fill="#181818" points="249.4412,324.8002,253.4412,334.8002,257.4412,324.8002,253.4412,328.8002" style="stroke:#181818;stroke-width:1;"/><line style="stroke:#181818;stroke-width:1;" x1="253.4412" x2="253.4412" y1="287.6001" y2="382.0002"/><line style="stroke:#181818;stroke-width:1;" x1="253.4412" x2="344.6397" y1="382.0002" y2="382.0002"/><line style="stroke:#181818;stroke-width:1;" x1="344.6397" x2="344.6397" y1="382.0002" y2="404.6001"/><polygon fill="#181818" points="340.6397,394.6001,344.6397,404.6001,348.6397,394.6001,344.6397,398.6001" style="stroke:#181818;stroke-width:1;"/><line style="stroke:#181818;stroke-width:1;" x1="184.2835" x2="122.2206" y1="253.6001" y2="253.6001"/><line style="stroke:#181818;stroke-width:1;" x1="122.2206" x2="122.2206" y1="253.6001" y2="275.6001"/><polygon fill="#181818" points="118.2206,265.6001,122.2206,275.6001,126.2206,265.6001,122.2206,269.6001" style="stroke:#181818;stroke-width:1;"/><line style="stroke:#181818;stroke-width:1;" x1="282.5769" x2="344.6397" y1="253.6001" y2="253.6001"/><line style="stroke:#181818;stroke-width:1;" x1="344.6397" x2="344.6397" y1="253.6001" y2="275.6001"/><polygon fill="#181818" points="340.6397,265.6001,344.6397,275.6001,348.6397,265.6001,344.6397,269.6001" style="stroke:#181818;stroke-width:1;"/><line style="stroke:#181818;stroke-width:1;" x1="122.2206" x2="122.2206" y1="436.4003" y2="457.0002"/><line style="stroke:#181818;stroke-width:1;" x1="122.2206" x2="221.4302" y1="457.0002" y2="457.0002"/><polygon fill="#181818" points="211.4302,453.0002,221.4302,457.0002,211.4302,461.0002,215.4302,457.0002" style="stroke:#181818;stroke-width:1;"/><line style="stroke:#181818;stroke-width:1;" x1="344.6397" x2="344.6397" y1="439.0002" y2="457.0002"/><line style="stroke:#181818;stroke-width:1;" x1="344.6397" x2="245.4302" y1="457.0002" y2="457.0002"/><polygon fill="#181818" points="255.4302,453.0002,245.4302,457.0002,255.4302,461.0002,251.4302,457.0002" style="stroke:#181818;stroke-width:1;"/><line style="stroke:#181818;stroke-width:1;" x1="233.4302" x2="233.4302" y1="221.6001" y2="241.6001"/><polygon fill="#181818" points="229.4302,231.6001,233.4302,241.6001,237.4302,231.6001,233.4302,235.6001" style="stroke:#181818;stroke-width:1;"/><line style="stroke:#181818;stroke-width:1;" x1="233.4302" x2="233.4302" y1="469.0002" y2="489.0002"/><polygon fill="#181818" points="229.4302,479.0002,233.4302,489.0002,237.4302,479.0002,233.4302,483.0002" style="stroke:#181818;stroke-width:1;"/><line style="stroke:#181818;stroke-width:1;" x1="233.4302" x2="233.4302" y1="523.4003" y2="543.4003"/><polygon fill="#181818" points="229.4302,533.4003,233.4302,543.4003,237.4302,533.4003,233.4302,537.4003" style="stroke:#181818;stroke-width:1;"/><!--SRC=[RP5DQiCm44RtFiLqPnVQ0yJj8eiM2Y8DjRqMmXxNeeeaB453GkvU_TKAYRKIw7ipRqQQpPPRhYJqJFIqQRQKQOroe5PHFUD01JSMpWMuOwnBXzkevfzmyMVJy1DIImWyMigbZiZB4tpizbrRBm2mRyPbnap0838ey81o5NCsnLsV2TdWmxbZ9FW8PNfzXLr7I0LsGWbb-zMzLRbvhd1WGgY-z3PgJ6nLrRVHPud7eEUBth_sIbhdRx9JcYX6KHY4ydrBcYk9tuaBzBh_8yGU3qbyoQK-rwkzORAFMrOeMwo0omXhWdBWOrppPzUw3u0uM9r-NkdYyWS0]--></g></svg>