<svg xmlns="http://www.w3.org/2000/svg" xmlns:xlink="http://www.w3.org/1999/xlink" contentStyleType="text/css" data-diagram-type="ACTIVITY" height="286px" preserveAspectRatio="none" style="width:440px;height:286px;background:#FFFFFF;" version="1.1" viewBox="0 0 440 286" width="440px" zoomAndPan="magnify"><defs/><g><rect fill="none" height="264.6001" style="stroke:#000000;stroke-width:1.5;" width="418.0862" x="11" y="11"/><path d="M214.7592,11 L214.7592,20.7999 L204.7592,30.7999 L11,30.7999" fill="none" style="stroke:#000000;stroke-width:1.5;"/><text fill="#000000" font-family="sans-serif" font-size="14" lengthAdjust="spacing" textLength="193.7592" x="14" y="25.0059">calc_SSA_operation_block_set</text><ellipse cx="220.0431" cy="50.7999" fill="#222222" rx="10" ry="10" style="stroke:#222222;stroke-width:1;"/><rect fill="#555555" height="6" rx="2.5" ry="2.5" style="stroke:#555555;stroke-width:1;" width="398.0862" x="21" y="80.7999"/><rect fill="#F1F1F1" height="34.4001" rx="12.5" ry="12.5" style="stroke:#181818;stroke-width:0.5;" width="193.7132" x="33" y="106.7999"/><text fill="#000000" font-family="sans-serif" font-size="12" lengthAdjust="spacing" textLength="173.7132" x="43" y="127.948">CFGNode *t_inp_CFG &lt;- INPUT</text><rect fill="#F1F1F1" height="34.4001" rx="12.5" ry="12.5" style="stroke:#181818;stroke-width:0.5;" width="152.373" x="254.7132" y="106.7999"/><text fill="#000000" font-family="sans-serif" font-size="12" lengthAdjust="spacing" textLength="132.373" x="264.7132" y="127.948">size_t cfg_size &lt;- INPUT</text><rect fill="#555555" height="6" rx="2.5" ry="2.5" style="stroke:#555555;stroke-width:1;" width="398.0862" x="21" y="161.2"/><rect fill="#F1F1F1" height="34.4001" rx="12.5" ry="12.5" style="stroke:#181818;stroke-width:0.5;" width="361.1264" x="39.4799" y="187.2"/><text fill="#000000" font-family="sans-serif" font-size="12" lengthAdjust="spacing" textLength="341.1264" x="49.4799" y="208.3481">size_t t_set_size &lt;- calc_SSA_block_set_num_vars(t_inp_CFG)</text><ellipse cx="220.0431" cy="252.6001" fill="none" rx="11" ry="11" style="stroke:#222222;stroke-width:1;"/><ellipse cx="220.0431" cy="252.6001" fill="#222222" rx="6" ry="6" style="stroke:#222222;stroke-width:1;"/><line style="stroke:#181818;stroke-width:1;" x1="129.8566" x2="129.8566" y1="86.7999" y2="106.7999"/><polygon fill="#181818" points="125.8566,96.7999,129.8566,106.7999,133.8566,96.7999,129.8566,100.7999" style="stroke:#181818;stroke-width:1;"/><line style="stroke:#181818;stroke-width:1;" x1="330.8997" x2="330.8997" y1="86.7999" y2="106.7999"/><polygon fill="#181818" points="326.8997,96.7999,330.8997,106.7999,334.8997,96.7999,330.8997,100.7999" style="stroke:#181818;stroke-width:1;"/><line style="stroke:#181818;stroke-width:1;" x1="129.8566" x2="129.8566" y1="141.2" y2="161.2"/><polygon fill="#181818" points="125.8566,151.2,129.8566,161.2,133.8566,151.2,129.8566,155.2" style="stroke:#181818;stroke-width:1;"/><line style="stroke:#181818;stroke-width:1;" x1="330.8997" x2="330.8997" y1="141.2" y2="161.2"/><polygon fill="#181818" points="326.8997,151.2,330.8997,161.2,334.8997,151.2,330.8997,155.2" style="stroke:#181818;stroke-width:1;"/><line style="stroke:#181818;stroke-width:1;" x1="220.0431" x2="220.0431" y1="60.7999" y2="80.7999"/><polygon fill="#181818" points="216.0431,70.7999,220.0431,80.7999,224.0431,70.7999,220.0431,74.7999" style="stroke:#181818;stroke-width:1;"/><line style="stroke:#181818;stroke-width:1;" x1="220.0431" x2="220.0431" y1="167.2" y2="187.2"/><polygon fill="#181818" points="216.0431,177.2,220.0431,187.2,224.0431,177.2,220.0431,181.2" style="stroke:#181818;stroke-width:1;"/><line style="stroke:#181818;stroke-width:1;" x1="220.0431" x2="220.0431" y1="221.6001" y2="241.6001"/><polygon fill="#181818" points="216.0431,231.6001,220.0431,241.6001,224.0431,231.6001,220.0431,235.6001" style="stroke:#181818;stroke-width:1;"/><!--SRC=[ROv12i8m44NtESKiLV02req8YfiYLDV3cAObj6P2ChfGlBj9aUZ2l_epl0_FKn0hbXre6ZKspGRPcq3vXPUHzO3H23mLf4H9zDGw3iDKSbRRtRxcri12q3gFwOJr4WxryNog2WxKatNVKRGFWmAwwp7NVmlZMlNBIdOfT14kckXkLxnJYBCYCgy-vkpLwmq0]--></g></svg>