<svg xmlns="http://www.w3.org/2000/svg" xmlns:xlink="http://www.w3.org/1999/xlink" contentStyleType="text/css" data-diagram-type="ACTIVITY" height="1154px" preserveAspectRatio="none" style="width:1188px;height:1154px;background:#FFFFFF;" version="1.1" viewBox="0 0 1188 1154" width="1188px" zoomAndPan="magnify"><defs/><g><rect fill="none" height="1132.92" style="stroke:#000000;stroke-width:1.5;" width="1166.0578" x="11" y="11"/><path d="M117.4736,11 L117.4736,20.7999 L107.4736,30.7999 L11,30.7999" fill="none" style="stroke:#000000;stroke-width:1.5;"/><text fill="#000000" font-family="sans-serif" font-size="14" lengthAdjust="spacing" textLength="96.4736" x="14" y="25.0059">calc_SSA_DFS</text><ellipse cx="599.0289" cy="50.7999" fill="#222222" rx="10" ry="10" style="stroke:#222222;stroke-width:1;"/><rect fill="#555555" height="6" rx="2.5" ry="2.5" style="stroke:#555555;stroke-width:1;" width="357.4099" x="420.3239" y="80.7999"/><rect fill="#F1F1F1" height="34.4001" rx="12.5" ry="12.5" style="stroke:#181818;stroke-width:0.5;" width="139.7009" x="434.3239" y="106.7999"/><text fill="#000000" font-family="sans-serif" font-size="12" lengthAdjust="spacing" textLength="119.7009" x="444.3239" y="127.948">size_t t_size &lt;- INPUT</text><rect fill="#F1F1F1" height="34.4001" rx="12.5" ry="12.5" style="stroke:#181818;stroke-width:0.5;" width="161.709" x="602.0248" y="106.7999"/><text fill="#000000" font-family="sans-serif" font-size="12" lengthAdjust="spacing" textLength="141.709" x="612.0248" y="127.948">CFGNode *t_cfg &lt;- INPUT</text><rect fill="#555555" height="6" rx="2.5" ry="2.5" style="stroke:#555555;stroke-width:1;" width="357.4099" x="420.3239" y="161.2"/><rect fill="#555555" height="6" rx="2.5" ry="2.5" style="stroke:#555555;stroke-width:1;" width="489.4705" x="354.2937" y="187.2"/><rect fill="#F1F1F1" height="34.4001" rx="12.5" ry="12.5" style="stroke:#181818;stroke-width:0.5;" width="95.0366" x="368.2937" y="213.2"/><text fill="#000000" font-family="sans-serif" font-size="12" lengthAdjust="spacing" textLength="75.0366" x="378.2937" y="234.3481">size_t t_c &lt;- 0</text><rect fill="#F1F1F1" height="34.4001" rx="12.5" ry="12.5" style="stroke:#181818;stroke-width:0.5;" width="142.0529" x="491.3302" y="213.2"/><text fill="#000000" font-family="sans-serif" font-size="12" lengthAdjust="spacing" textLength="122.0529" x="501.3302" y="234.3481">CFGNode t_out[t_size]</text><rect fill="#F1F1F1" height="34.4001" rx="12.5" ry="12.5" style="stroke:#181818;stroke-width:0.5;" width="168.3811" x="661.3831" y="213.2"/><text fill="#000000" font-family="sans-serif" font-size="12" lengthAdjust="spacing" textLength="148.3811" x="671.3831" y="234.3481">CFGNode *t_stack &lt;- NULL</text><rect fill="#555555" height="6" rx="2.5" ry="2.5" style="stroke:#555555;stroke-width:1;" width="489.4705" x="354.2937" y="267.6001"/><rect fill="#F1F1F1" height="34.4001" rx="12.5" ry="12.5" style="stroke:#181818;stroke-width:0.5;" width="124.3768" x="536.8405" y="337.6001"/><text fill="#000000" font-family="sans-serif" font-size="12" lengthAdjust="spacing" textLength="104.3768" x="546.8405" y="358.7482">t_cfg[t_c].color &lt;- w</text><rect fill="#F1F1F1" height="34.4001" rx="12.5" ry="12.5" style="stroke:#181818;stroke-width:0.5;" width="90.0445" x="554.0066" y="407.0002"/><text fill="#000000" font-family="sans-serif" font-size="12" lengthAdjust="spacing" textLength="70.0445" x="564.0066" y="428.1483">t_c &lt;- t_c + 1</text><polygon fill="#F1F1F1" points="571.0561,293.6001,627.0017,293.6001,639.0017,305.6001,627.0017,317.6001,571.0561,317.6001,559.0561,305.6001,571.0561,293.6001" style="stroke:#181818;stroke-width:0.5;"/><text fill="#000000" font-family="sans-serif" font-size="11" lengthAdjust="spacing" textLength="55.9456" x="571.0561" y="309.2191">t_c &lt; t_size</text><rect fill="#555555" height="6" rx="2.5" ry="2.5" style="stroke:#555555;stroke-width:1;" width="424.4661" x="386.7958" y="483.4003"/><rect fill="#F1F1F1" height="34.4001" rx="12.5" ry="12.5" style="stroke:#181818;stroke-width:0.5;" width="60.3563" x="400.7958" y="509.4003"/><text fill="#000000" font-family="sans-serif" font-size="12" lengthAdjust="spacing" textLength="40.3563" x="410.7958" y="530.5484">t_c &lt;- 0</text><rect fill="#F1F1F1" height="34.4001" rx="12.5" ry="12.5" style="stroke:#181818;stroke-width:0.5;" width="99.7046" x="489.1522" y="509.4003"/><text fill="#000000" font-family="sans-serif" font-size="12" lengthAdjust="spacing" textLength="79.7046" x="499.1522" y="530.5484">t_cfg.color &lt;- b</text><rect fill="#F1F1F1" height="34.4001" rx="12.5" ry="12.5" style="stroke:#181818;stroke-width:0.5;" width="180.4052" x="616.8567" y="509.4003"/><text fill="#000000" font-family="sans-serif" font-size="12" lengthAdjust="spacing" textLength="160.4052" x="626.8567" y="530.5484">t_stack &lt;- push(t_stack, t_cfg)</text><rect fill="#555555" height="6" rx="2.5" ry="2.5" style="stroke:#555555;stroke-width:1;" width="424.4661" x="386.7958" y="563.8004"/><rect fill="#F1F1F1" height="34.4001" rx="12.5" ry="12.5" style="stroke:#181818;stroke-width:0.5;" width="113.0607" x="542.4985" y="589.8004"/><text fill="#000000" font-family="sans-serif" font-size="12" lengthAdjust="spacing" textLength="93.0607" x="552.4985" y="610.9485">t_out[t_c] &lt;- t_cfg</text><rect fill="#F1F1F1" height="34.4001" rx="12.5" ry="12.5" style="stroke:#181818;stroke-width:0.5;" width="90.0445" x="554.0066" y="644.2005"/><text fill="#000000" font-family="sans-serif" font-size="12" lengthAdjust="spacing" textLength="70.0445" x="564.0066" y="665.3486">t_c &lt;- t_c + 1</text><polygon fill="#F1F1F1" points="170.1235,742.6006,381.047,742.6006,393.047,754.6006,381.047,766.6006,170.1235,766.6006,158.1235,754.6006,170.1235,742.6006" style="stroke:#181818;stroke-width:0.5;"/><text fill="#000000" font-family="sans-serif" font-size="11" lengthAdjust="spacing" textLength="29.9418" x="279.5852" y="776.8196">TRUE</text><text fill="#000000" font-family="sans-serif" font-size="11" lengthAdjust="spacing" textLength="210.9235" x="170.1235" y="758.2196">(t_cfg.left != NULL) &amp;&amp; (t_cfg.left.color != b)</text><rect fill="#F1F1F1" height="34.4001" rx="12.5" ry="12.5" style="stroke:#181818;stroke-width:0.5;" width="109.0527" x="221.0589" y="798.3196"/><text fill="#000000" font-family="sans-serif" font-size="12" lengthAdjust="spacing" textLength="89.0527" x="231.0589" y="819.4676">t_cfg &lt;- t_cfg.left</text><rect fill="#555555" height="6" rx="2.5" ry="2.5" style="stroke:#555555;stroke-width:1;" width="475.1705" x="39" y="852.7197"/><rect fill="#F1F1F1" height="34.4001" rx="12.5" ry="12.5" style="stroke:#181818;stroke-width:0.5;" width="99.7046" x="51" y="878.7197"/><text fill="#000000" font-family="sans-serif" font-size="12" lengthAdjust="spacing" textLength="79.7046" x="61" y="899.8677">t_cfg.color &lt;- b</text><rect fill="#F1F1F1" height="34.4001" rx="12.5" ry="12.5" style="stroke:#181818;stroke-width:0.5;" width="113.0607" x="178.7046" y="878.7197"/><text fill="#000000" font-family="sans-serif" font-size="12" lengthAdjust="spacing" textLength="93.0607" x="188.7046" y="899.8677">t_out[t_c] &lt;- t_cfg</text><rect fill="#F1F1F1" height="34.4001" rx="12.5" ry="12.5" style="stroke:#181818;stroke-width:0.5;" width="180.4052" x="319.7653" y="878.7197"/><text fill="#000000" font-family="sans-serif" font-size="12" lengthAdjust="spacing" textLength="160.4052" x="329.7653" y="899.8677">t_stack &lt;- push(t_stack, t_cfg)</text><rect fill="#555555" height="6" rx="2.5" ry="2.5" style="stroke:#555555;stroke-width:1;" width="475.1705" x="39" y="933.1198"/><rect fill="#F1F1F1" height="34.4001" rx="12.5" ry="12.5" style="stroke:#181818;stroke-width:0.5;" width="90.0445" x="230.563" y="959.1198"/><text fill="#000000" font-family="sans-serif" font-size="12" lengthAdjust="spacing" textLength="70.0445" x="240.563" y="980.2678">t_c &lt;- t_c + 1</text><polygon fill="#F1F1F1" points="660.573,742.6006,884.9384,742.6006,896.9384,754.6006,884.9384,766.6006,660.573,766.6006,648.573,754.6006,660.573,742.6006" style="stroke:#181818;stroke-width:0.5;"/><text fill="#000000" font-family="sans-serif" font-size="11" lengthAdjust="spacing" textLength="29.9418" x="776.7557" y="776.8196">TRUE</text><text fill="#000000" font-family="sans-serif" font-size="11" lengthAdjust="spacing" textLength="224.3654" x="660.573" y="758.2196">(t_cfg.right != NULL) &amp;&amp; (t_cfg.right.color != b)</text><text fill="#000000" font-family="sans-serif" font-size="11" lengthAdjust="spacing" textLength="34.8477" x="896.9384" y="751.6197">FALSE</text><rect fill="#F1F1F1" height="34.4001" rx="12.5" ry="12.5" style="stroke:#181818;stroke-width:0.5;" width="116.3847" x="714.5634" y="798.3196"/><text fill="#000000" font-family="sans-serif" font-size="12" lengthAdjust="spacing" textLength="96.3847" x="724.5634" y="819.4676">t_cfg &lt;- t_cfg.right</text><rect fill="#555555" height="6" rx="2.5" ry="2.5" style="stroke:#555555;stroke-width:1;" width="475.1705" x="534.1705" y="852.7197"/><rect fill="#F1F1F1" height="34.4001" rx="12.5" ry="12.5" style="stroke:#181818;stroke-width:0.5;" width="99.7046" x="548.1705" y="878.7197"/><text fill="#000000" font-family="sans-serif" font-size="12" lengthAdjust="spacing" textLength="79.7046" x="558.1705" y="899.8677">t_cfg.color &lt;- b</text><rect fill="#F1F1F1" height="34.4001" rx="12.5" ry="12.5" style="stroke:#181818;stroke-width:0.5;" width="113.0607" x="675.8751" y="878.7197"/><text fill="#000000" font-family="sans-serif" font-size="12" lengthAdjust="spacing" textLength="93.0607" x="685.8751" y="899.8677">t_out[t_c] &lt;- t_cfg</text><rect fill="#F1F1F1" height="34.4001" rx="12.5" ry="12.5" style="stroke:#181818;stroke-width:0.5;" width="180.4052" x="816.9358" y="878.7197"/><text fill="#000000" font-family="sans-serif" font-size="12" lengthAdjust="spacing" textLength="160.4052" x="826.9358" y="899.8677">t_stack &lt;- push(t_stack, t_cfg)</text><rect fill="#555555" height="6" rx="2.5" ry="2.5" style="stroke:#555555;stroke-width:1;" width="475.1705" x="534.1705" y="933.1198"/><rect fill="#F1F1F1" height="34.4001" rx="12.5" ry="12.5" style="stroke:#181818;stroke-width:0.5;" width="90.0445" x="727.7335" y="959.1198"/><text fill="#000000" font-family="sans-serif" font-size="12" lengthAdjust="spacing" textLength="70.0445" x="737.7335" y="980.2678">t_c &lt;- t_c + 1</text><rect fill="#F1F1F1" height="34.4001" rx="12.5" ry="12.5" style="stroke:#181818;stroke-width:0.5;" width="129.7168" x="1019.341" y="875.1197"/><text fill="#000000" font-family="sans-serif" font-size="12" lengthAdjust="spacing" textLength="109.7168" x="1029.341" y="896.2678">t_cfg &lt;- pop(t_stack)</text><polygon fill="#F1F1F1" points="559.7482,698.6006,638.3096,698.6006,650.3096,710.6006,638.3096,722.6006,559.7482,722.6006,547.7482,710.6006,559.7482,698.6006" style="stroke:#181818;stroke-width:0.5;"/><text fill="#000000" font-family="sans-serif" font-size="11" lengthAdjust="spacing" textLength="78.5614" x="559.7482" y="714.2196">t_stack != NULL</text><rect fill="#F1F1F1" height="34.4001" rx="12.5" ry="12.5" style="stroke:#181818;stroke-width:0.5;" width="99.3566" x="549.3506" y="1055.5199"/><text fill="#000000" font-family="sans-serif" font-size="12" lengthAdjust="spacing" textLength="79.3566" x="559.3506" y="1076.6679">OUTPUT t_out</text><ellipse cx="599.0289" cy="1120.92" fill="none" rx="11" ry="11" style="stroke:#222222;stroke-width:1;"/><ellipse cx="599.0289" cy="1120.92" fill="#222222" rx="6" ry="6" style="stroke:#222222;stroke-width:1;"/><line style="stroke:#181818;stroke-width:1;" x1="504.1744" x2="504.1744" y1="86.7999" y2="106.7999"/><polygon fill="#181818" points="500.1744,96.7999,504.1744,106.7999,508.1744,96.7999,504.1744,100.7999" style="stroke:#181818;stroke-width:1;"/><line style="stroke:#181818;stroke-width:1;" x1="682.8793" x2="682.8793" y1="86.7999" y2="106.7999"/><polygon fill="#181818" points="678.8793,96.7999,682.8793,106.7999,686.8793,96.7999,682.8793,100.7999" style="stroke:#181818;stroke-width:1;"/><line style="stroke:#181818;stroke-width:1;" x1="504.1744" x2="504.1744" y1="141.2" y2="161.2"/><polygon fill="#181818" points="500.1744,151.2,504.1744,161.2,508.1744,151.2,504.1744,155.2" style="stroke:#181818;stroke-width:1;"/><line style="stroke:#181818;stroke-width:1;" x1="682.8793" x2="682.8793" y1="141.2" y2="161.2"/><polygon fill="#181818" points="678.8793,151.2,682.8793,161.2,686.8793,151.2,682.8793,155.2" style="stroke:#181818;stroke-width:1;"/><line style="stroke:#181818;stroke-width:1;" x1="599.0289" x2="599.0289" y1="60.7999" y2="80.7999"/><polygon fill="#181818" points="595.0289,70.7999,599.0289,80.7999,603.0289,70.7999,599.0289,74.7999" style="stroke:#181818;stroke-width:1;"/><line style="stroke:#181818;stroke-width:1;" x1="415.8119" x2="415.8119" y1="193.2" y2="213.2"/><polygon fill="#181818" points="411.8119,203.2,415.8119,213.2,419.8119,203.2,415.8119,207.2" style="stroke:#181818;stroke-width:1;"/><line style="stroke:#181818;stroke-width:1;" x1="562.3566" x2="562.3566" y1="193.2" y2="213.2"/><polygon fill="#181818" points="558.3566,203.2,562.3566,213.2,566.3566,203.2,562.3566,207.2" style="stroke:#181818;stroke-width:1;"/><line style="stroke:#181818;stroke-width:1;" x1="745.5736" x2="745.5736" y1="193.2" y2="213.2"/><polygon fill="#181818" points="741.5736,203.2,745.5736,213.2,749.5736,203.2,745.5736,207.2" style="stroke:#181818;stroke-width:1;"/><line style="stroke:#181818;stroke-width:1;" x1="415.8119" x2="415.8119" y1="247.6001" y2="267.6001"/><polygon fill="#181818" points="411.8119,257.6001,415.8119,267.6001,419.8119,257.6001,415.8119,261.6001" style="stroke:#181818;stroke-width:1;"/><line style="stroke:#181818;stroke-width:1;" x1="562.3566" x2="562.3566" y1="247.6001" y2="267.6001"/><polygon fill="#181818" points="558.3566,257.6001,562.3566,267.6001,566.3566,257.6001,562.3566,261.6001" style="stroke:#181818;stroke-width:1;"/><line style="stroke:#181818;stroke-width:1;" x1="745.5736" x2="745.5736" y1="247.6001" y2="267.6001"/><polygon fill="#181818" points="741.5736,257.6001,745.5736,267.6001,749.5736,257.6001,745.5736,261.6001" style="stroke:#181818;stroke-width:1;"/><line style="stroke:#181818;stroke-width:1;" x1="599.0289" x2="599.0289" y1="167.2" y2="187.2"/><polygon fill="#181818" points="595.0289,177.2,599.0289,187.2,603.0289,177.2,599.0289,181.2" style="stroke:#181818;stroke-width:1;"/><line style="stroke:#181818;stroke-width:1;" x1="599.0289" x2="599.0289" y1="372.0002" y2="407.0002"/><polygon fill="#181818" points="595.0289,397.0002,599.0289,407.0002,603.0289,397.0002,599.0289,401.0002" style="stroke:#181818;stroke-width:1;"/><line style="stroke:#181818;stroke-width:1;" x1="599.0289" x2="599.0289" y1="317.6001" y2="337.6001"/><polygon fill="#181818" points="595.0289,327.6001,599.0289,337.6001,603.0289,327.6001,599.0289,331.6001" style="stroke:#181818;stroke-width:1;"/><line style="stroke:#181818;stroke-width:1;" x1="599.0289" x2="599.0289" y1="441.4003" y2="451.4003"/><line style="stroke:#181818;stroke-width:1;" x1="599.0289" x2="673.2173" y1="451.4003" y2="451.4003"/><polygon fill="#181818" points="669.2173,387.5002,673.2173,377.5002,677.2173,387.5002,673.2173,383.5002" style="stroke:#181818;stroke-width:1;"/><line style="stroke:#181818;stroke-width:1;" x1="673.2173" x2="673.2173" y1="305.6001" y2="451.4003"/><line style="stroke:#181818;stroke-width:1;" x1="673.2173" x2="639.0017" y1="305.6001" y2="305.6001"/><polygon fill="#181818" points="649.0017,301.6001,639.0017,305.6001,649.0017,309.6001,645.0017,305.6001" style="stroke:#181818;stroke-width:1;"/><line style="stroke:#181818;stroke-width:1;" x1="559.0561" x2="524.8405" y1="305.6001" y2="305.6001"/><polygon fill="#181818" points="520.8405,373.5002,524.8405,383.5002,528.8405,373.5002,524.8405,377.5002" style="stroke:#181818;stroke-width:1;"/><line style="stroke:#181818;stroke-width:1;" x1="524.8405" x2="524.8405" y1="305.6001" y2="463.4003"/><line style="stroke:#181818;stroke-width:1;" x1="524.8405" x2="599.0289" y1="463.4003" y2="463.4003"/><line style="stroke:#181818;stroke-width:1;" x1="599.0289" x2="599.0289" y1="463.4003" y2="483.4003"/><polygon fill="#181818" points="595.0289,473.4003,599.0289,483.4003,603.0289,473.4003,599.0289,477.4003" style="stroke:#181818;stroke-width:1;"/><line style="stroke:#181818;stroke-width:1;" x1="599.0289" x2="599.0289" y1="273.6001" y2="293.6001"/><polygon fill="#181818" points="595.0289,283.6001,599.0289,293.6001,603.0289,283.6001,599.0289,287.6001" style="stroke:#181818;stroke-width:1;"/><line style="stroke:#181818;stroke-width:1;" x1="430.974" x2="430.974" y1="489.4003" y2="509.4003"/><polygon fill="#181818" points="426.974,499.4003,430.974,509.4003,434.974,499.4003,430.974,503.4003" style="stroke:#181818;stroke-width:1;"/><line style="stroke:#181818;stroke-width:1;" x1="539.0044" x2="539.0044" y1="489.4003" y2="509.4003"/><polygon fill="#181818" points="535.0044,499.4003,539.0044,509.4003,543.0044,499.4003,539.0044,503.4003" style="stroke:#181818;stroke-width:1;"/><line style="stroke:#181818;stroke-width:1;" x1="707.0593" x2="707.0593" y1="489.4003" y2="509.4003"/><polygon fill="#181818" points="703.0593,499.4003,707.0593,509.4003,711.0593,499.4003,707.0593,503.4003" style="stroke:#181818;stroke-width:1;"/><line style="stroke:#181818;stroke-width:1;" x1="430.974" x2="430.974" y1="543.8004" y2="563.8004"/><polygon fill="#181818" points="426.974,553.8004,430.974,563.8004,434.974,553.8004,430.974,557.8004" style="stroke:#181818;stroke-width:1;"/><line style="stroke:#181818;stroke-width:1;" x1="539.0044" x2="539.0044" y1="543.8004" y2="563.8004"/><polygon fill="#181818" points="535.0044,553.8004,539.0044,563.8004,543.0044,553.8004,539.0044,557.8004" style="stroke:#181818;stroke-width:1;"/><line style="stroke:#181818;stroke-width:1;" x1="707.0593" x2="707.0593" y1="543.8004" y2="563.8004"/><polygon fill="#181818" points="703.0593,553.8004,707.0593,563.8004,711.0593,553.8004,707.0593,557.8004" style="stroke:#181818;stroke-width:1;"/><line style="stroke:#181818;stroke-width:1;" x1="599.0289" x2="599.0289" y1="569.8004" y2="589.8004"/><polygon fill="#181818" points="595.0289,579.8004,599.0289,589.8004,603.0289,579.8004,599.0289,583.8004" style="stroke:#181818;stroke-width:1;"/><line style="stroke:#181818;stroke-width:1;" x1="599.0289" x2="599.0289" y1="624.2005" y2="644.2005"/><polygon fill="#181818" points="595.0289,634.2005,599.0289,644.2005,603.0289,634.2005,599.0289,638.2005" style="stroke:#181818;stroke-width:1;"/><line style="stroke:#181818;stroke-width:1;" x1="100.8523" x2="100.8523" y1="858.7197" y2="878.7197"/><polygon fill="#181818" points="96.8523,868.7197,100.8523,878.7197,104.8523,868.7197,100.8523,872.7197" style="stroke:#181818;stroke-width:1;"/><line style="stroke:#181818;stroke-width:1;" x1="235.2349" x2="235.2349" y1="858.7197" y2="878.7197"/><polygon fill="#181818" points="231.2349,868.7197,235.2349,878.7197,239.2349,868.7197,235.2349,872.7197" style="stroke:#181818;stroke-width:1;"/><line style="stroke:#181818;stroke-width:1;" x1="409.9679" x2="409.9679" y1="858.7197" y2="878.7197"/><polygon fill="#181818" points="405.9679,868.7197,409.9679,878.7197,413.9679,868.7197,409.9679,872.7197" style="stroke:#181818;stroke-width:1;"/><line style="stroke:#181818;stroke-width:1;" x1="100.8523" x2="100.8523" y1="913.1198" y2="933.1198"/><polygon fill="#181818" points="96.8523,923.1198,100.8523,933.1198,104.8523,923.1198,100.8523,927.1198" style="stroke:#181818;stroke-width:1;"/><line style="stroke:#181818;stroke-width:1;" x1="235.2349" x2="235.2349" y1="913.1198" y2="933.1198"/><polygon fill="#181818" points="231.2349,923.1198,235.2349,933.1198,239.2349,923.1198,235.2349,927.1198" style="stroke:#181818;stroke-width:1;"/><line style="stroke:#181818;stroke-width:1;" x1="409.9679" x2="409.9679" y1="913.1198" y2="933.1198"/><polygon fill="#181818" points="405.9679,923.1198,409.9679,933.1198,413.9679,923.1198,409.9679,927.1198" style="stroke:#181818;stroke-width:1;"/><line style="stroke:#181818;stroke-width:1;" x1="275.5852" x2="275.5852" y1="832.7197" y2="852.7197"/><polygon fill="#181818" points="271.5852,842.7197,275.5852,852.7197,279.5852,842.7197,275.5852,846.7197" style="stroke:#181818;stroke-width:1;"/><line style="stroke:#181818;stroke-width:1;" x1="275.5852" x2="275.5852" y1="939.1198" y2="959.1198"/><polygon fill="#181818" points="271.5852,949.1198,275.5852,959.1198,279.5852,949.1198,275.5852,953.1198" style="stroke:#181818;stroke-width:1;"/><line style="stroke:#181818;stroke-width:1;" x1="598.0228" x2="598.0228" y1="858.7197" y2="878.7197"/><polygon fill="#181818" points="594.0228,868.7197,598.0228,878.7197,602.0228,868.7197,598.0228,872.7197" style="stroke:#181818;stroke-width:1;"/><line style="stroke:#181818;stroke-width:1;" x1="732.4054" x2="732.4054" y1="858.7197" y2="878.7197"/><polygon fill="#181818" points="728.4054,868.7197,732.4054,878.7197,736.4054,868.7197,732.4054,872.7197" style="stroke:#181818;stroke-width:1;"/><line style="stroke:#181818;stroke-width:1;" x1="907.1384" x2="907.1384" y1="858.7197" y2="878.7197"/><polygon fill="#181818" points="903.1384,868.7197,907.1384,878.7197,911.1384,868.7197,907.1384,872.7197" style="stroke:#181818;stroke-width:1;"/><line style="stroke:#181818;stroke-width:1;" x1="598.0228" x2="598.0228" y1="913.1198" y2="933.1198"/><polygon fill="#181818" points="594.0228,923.1198,598.0228,933.1198,602.0228,923.1198,598.0228,927.1198" style="stroke:#181818;stroke-width:1;"/><line style="stroke:#181818;stroke-width:1;" x1="732.4054" x2="732.4054" y1="913.1198" y2="933.1198"/><polygon fill="#181818" points="728.4054,923.1198,732.4054,933.1198,736.4054,923.1198,732.4054,927.1198" style="stroke:#181818;stroke-width:1;"/><line style="stroke:#181818;stroke-width:1;" x1="907.1384" x2="907.1384" y1="913.1198" y2="933.1198"/><polygon fill="#181818" points="903.1384,923.1198,907.1384,933.1198,911.1384,923.1198,907.1384,927.1198" style="stroke:#181818;stroke-width:1;"/><line style="stroke:#181818;stroke-width:1;" x1="772.7557" x2="772.7557" y1="832.7197" y2="852.7197"/><polygon fill="#181818" points="768.7557,842.7197,772.7557,852.7197,776.7557,842.7197,772.7557,846.7197" style="stroke:#181818;stroke-width:1;"/><line style="stroke:#181818;stroke-width:1;" x1="772.7557" x2="772.7557" y1="939.1198" y2="959.1198"/><polygon fill="#181818" points="768.7557,949.1198,772.7557,959.1198,776.7557,949.1198,772.7557,953.1198" style="stroke:#181818;stroke-width:1;"/><line style="stroke:#181818;stroke-width:1;" x1="275.5852" x2="275.5852" y1="766.6006" y2="798.3196"/><polygon fill="#181818" points="271.5852,788.3196,275.5852,798.3196,279.5852,788.3196,275.5852,792.3196" style="stroke:#181818;stroke-width:1;"/><line style="stroke:#181818;stroke-width:1;" x1="275.5852" x2="275.5852" y1="993.5199" y2="1013.5199"/><polygon fill="#181818" points="271.5852,1003.5199,275.5852,1013.5199,279.5852,1003.5199,275.5852,1007.5199" style="stroke:#181818;stroke-width:1;"/><line style="stroke:#181818;stroke-width:1;" x1="772.7557" x2="772.7557" y1="766.6006" y2="798.3196"/><polygon fill="#181818" points="768.7557,788.3196,772.7557,798.3196,776.7557,788.3196,772.7557,792.3196" style="stroke:#181818;stroke-width:1;"/><line style="stroke:#181818;stroke-width:1;" x1="772.7557" x2="772.7557" y1="993.5199" y2="1013.5199"/><polygon fill="#181818" points="768.7557,1003.5199,772.7557,1013.5199,776.7557,1003.5199,772.7557,1007.5199" style="stroke:#181818;stroke-width:1;"/><line style="stroke:#181818;stroke-width:1;" x1="393.047" x2="648.573" y1="754.6006" y2="754.6006"/><polygon fill="#181818" points="638.573,750.6006,648.573,754.6006,638.573,758.6006,642.573,754.6006" style="stroke:#181818;stroke-width:1;"/><line style="stroke:#181818;stroke-width:1;" x1="599.0289" x2="599.0289" y1="722.6006" y2="727.6006"/><line style="stroke:#181818;stroke-width:1;" x1="599.0289" x2="275.5852" y1="727.6006" y2="727.6006"/><line style="stroke:#181818;stroke-width:1;" x1="275.5852" x2="275.5852" y1="727.6006" y2="742.6006"/><polygon fill="#181818" points="271.5852,732.6006,275.5852,742.6006,279.5852,732.6006,275.5852,736.6006" style="stroke:#181818;stroke-width:1;"/><line style="stroke:#181818;stroke-width:1;" x1="896.9384" x2="1084.1994" y1="754.6006" y2="754.6006"/><line style="stroke:#181818;stroke-width:1;" x1="1084.1994" x2="1084.1994" y1="754.6006" y2="875.1197"/><polygon fill="#181818" points="1080.1994,865.1197,1084.1994,875.1197,1088.1994,865.1197,1084.1994,869.1197" style="stroke:#181818;stroke-width:1;"/><line style="stroke:#181818;stroke-width:1;" x1="1084.1994" x2="1084.1994" y1="909.5198" y2="1013.5199"/><polygon fill="#181818" points="1080.1994,1003.5199,1084.1994,1013.5199,1088.1994,1003.5199,1084.1994,1007.5199" style="stroke:#181818;stroke-width:1;"/><line style="stroke:#181818;stroke-width:1;" x1="275.5852" x2="1084.1994" y1="1013.5199" y2="1013.5199"/><line style="stroke:#181818;stroke-width:1;" x1="599.0289" x2="599.0289" y1="1013.5199" y2="1023.5199"/><line style="stroke:#181818;stroke-width:1;" x1="599.0289" x2="1161.0578" y1="1023.5199" y2="1023.5199"/><polygon fill="#181818" points="1157.0578,890.3198,1161.0578,880.3198,1165.0578,890.3198,1161.0578,886.3198" style="stroke:#181818;stroke-width:1;"/><line style="stroke:#181818;stroke-width:1;" x1="1161.0578" x2="1161.0578" y1="710.6006" y2="1023.5199"/><line style="stroke:#181818;stroke-width:1;" x1="1161.0578" x2="650.3096" y1="710.6006" y2="710.6006"/><polygon fill="#181818" points="660.3096,706.6006,650.3096,710.6006,660.3096,714.6006,656.3096,710.6006" style="stroke:#181818;stroke-width:1;"/><line style="stroke:#181818;stroke-width:1;" x1="547.7482" x2="27" y1="710.6006" y2="710.6006"/><polygon fill="#181818" points="23,876.3198,27,886.3198,31,876.3198,27,880.3198" style="stroke:#181818;stroke-width:1;"/><line style="stroke:#181818;stroke-width:1;" x1="27" x2="27" y1="710.6006" y2="1035.5199"/><line style="stroke:#181818;stroke-width:1;" x1="27" x2="599.0289" y1="1035.5199" y2="1035.5199"/><line style="stroke:#181818;stroke-width:1;" x1="599.0289" x2="599.0289" y1="1035.5199" y2="1055.5199"/><polygon fill="#181818" points="595.0289,1045.5199,599.0289,1055.5199,603.0289,1045.5199,599.0289,1049.5199" style="stroke:#181818;stroke-width:1;"/><line style="stroke:#181818;stroke-width:1;" x1="599.0289" x2="599.0289" y1="678.6006" y2="698.6006"/><polygon fill="#181818" points="595.0289,688.6006,599.0289,698.6006,603.0289,688.6006,599.0289,692.6006" style="stroke:#181818;stroke-width:1;"/><line style="stroke:#181818;stroke-width:1;" x1="599.0289" x2="599.0289" y1="1089.92" y2="1109.92"/><polygon fill="#181818" points="595.0289,1099.92,599.0289,1109.92,603.0289,1099.92,599.0289,1103.92" style="stroke:#181818;stroke-width:1;"/><!--SRC=[xPHDJuGm48Rl-ol6omRyYbv13niLOqBG29mC8MotGBE44kXc4ut_tLBO0hi2ZMUvm7G-tfcdP000YgXaX16Q0ueo5BhkAdoqNFXQGFjKZ4T8AwRbLXf6HJvno825zGVSNS6By-PxvY0QeYGYUPVpO3qxT8FXd8KeJiQISBwPqqHrxesQ60lfZdqqVGRA_V7HqRPMSNpRdcXmdv8CWoPQQc7eqYcAYbcvFWgk4SreMHVTcoSnzN7zke3RpicLXC083pKGee5EUpqNBKSlTbMgjVObY3Bw10hZG1e5xJ1nOYvcPvG46zspUu5y2974e6dD71cEcGo2vH9wv-sGtBlMTM0fpa7ptlsdOR4EYcnJP9idKGFQ2ZmdkAf1KYkWU46Z5pLx9UBNoohSmrwI9FsLkt3y7Rn8_oT_J1uqQsMxa_mAMXmwE9BcYYGUto76g-_nhTiiHhEtx6aXZEyV]--></g></svg>