<svg xmlns="http://www.w3.org/2000/svg" xmlns:xlink="http://www.w3.org/1999/xlink" contentStyleType="text/css" data-diagram-type="ACTIVITY" height="760px" preserveAspectRatio="none" style="width:408px;height:760px;background:#FFFFFF;" version="1.1" viewBox="0 0 408 760" width="408px" zoomAndPan="magnify"><defs/><g><rect fill="none" height="738.0007" style="stroke:#000000;stroke-width:1.5;" width="386.4782" x="11" y="11"/><path d="M189.8673,11 L189.8673,20.7999 L179.8673,30.7999 L11,30.7999" fill="none" style="stroke:#000000;stroke-width:1.5;"/><text fill="#000000" font-family="sans-serif" font-size="14" lengthAdjust="spacing" textLength="168.8673" x="14" y="25.0059">calc_SSA_delete_Size_tLL</text><ellipse cx="204.2391" cy="50.7999" fill="#222222" rx="10" ry="10" style="stroke:#222222;stroke-width:1;"/><rect fill="#F1F1F1" height="34.4001" rx="12.5" ry="12.5" style="stroke:#181818;stroke-width:0.5;" width="171.0571" x="118.7106" y="80.7999"/><text fill="#000000" font-family="sans-serif" font-size="12" lengthAdjust="spacing" textLength="151.0571" x="128.7106" y="101.948">Size_tLL t_inp_list &lt;- INPUT</text><rect fill="#555555" height="6" rx="2.5" ry="2.5" style="stroke:#555555;stroke-width:1;" width="357.4459" x="25.5162" y="135.2"/><rect fill="#F1F1F1" height="34.4001" rx="12.5" ry="12.5" style="stroke:#181818;stroke-width:0.5;" width="156.393" x="39.5162" y="161.2"/><text fill="#000000" font-family="sans-serif" font-size="12" lengthAdjust="spacing" textLength="136.393" x="49.5162" y="182.3481">Size_tLL t_stack &lt;- NULL</text><rect fill="#F1F1F1" height="34.4001" rx="12.5" ry="12.5" style="stroke:#181818;stroke-width:0.5;" width="145.0529" x="223.9092" y="161.2"/><text fill="#000000" font-family="sans-serif" font-size="12" lengthAdjust="spacing" textLength="125.0529" x="233.9092" y="182.3481">Size_tLL temp &lt;- NULL</text><rect fill="#555555" height="6" rx="2.5" ry="2.5" style="stroke:#555555;stroke-width:1;" width="357.4459" x="25.5162" y="215.6001"/><rect fill="#F1F1F1" height="34.4001" rx="12.5" ry="12.5" style="stroke:#181818;stroke-width:0.5;" width="330.4782" x="39" y="285.6001"/><text fill="#000000" font-family="sans-serif" font-size="12" lengthAdjust="spacing" textLength="310.4782" x="49" y="306.7482">t_stack &lt;- calc_SSA_push_to_Size_tLL(t_stack, t_inp_list)</text><rect fill="#F1F1F1" height="34.4001" rx="12.5" ry="12.5" style="stroke:#181818;stroke-width:0.5;" width="158.397" x="125.0406" y="355.0002"/><text fill="#000000" font-family="sans-serif" font-size="12" lengthAdjust="spacing" textLength="138.397" x="135.0406" y="376.1483">t_inp_list &lt;- t_inp_list.next</text><polygon fill="#F1F1F1" points="148.7555,241.6001,259.7227,241.6001,271.7227,253.6001,259.7227,265.6001,148.7555,265.6001,136.7555,253.6001,148.7555,241.6001" style="stroke:#181818;stroke-width:0.5;"/><text fill="#000000" font-family="sans-serif" font-size="11" lengthAdjust="spacing" textLength="110.9672" x="148.7555" y="257.2191">t_inp_list.next != NULL</text><rect fill="#F1F1F1" height="34.4001" rx="12.5" ry="12.5" style="stroke:#181818;stroke-width:0.5;" width="330.4782" x="39" y="431.4003"/><text fill="#000000" font-family="sans-serif" font-size="12" lengthAdjust="spacing" textLength="310.4782" x="49" y="452.5484">t_stack &lt;- calc_SSA_push_to_Size_tLL(t_stack, t_inp_list)</text><rect fill="#F1F1F1" height="34.4001" rx="12.5" ry="12.5" style="stroke:#181818;stroke-width:0.5;" width="273.1058" x="67.6862" y="529.8004"/><text fill="#000000" font-family="sans-serif" font-size="12" lengthAdjust="spacing" textLength="253.1058" x="77.6862" y="550.9485">temp &lt;- calc_SSA_pop_from_Size_tLL(t_stack)</text><rect fill="#F1F1F1" height="34.4001" rx="12.5" ry="12.5" style="stroke:#181818;stroke-width:0.5;" width="121.0407" x="143.7188" y="584.2005"/><text fill="#000000" font-family="sans-serif" font-size="12" lengthAdjust="spacing" textLength="101.0407" x="153.7188" y="605.3486">temp.next &lt;- NULL</text><rect fill="#F1F1F1" height="34.4001" rx="12.5" ry="12.5" style="stroke:#181818;stroke-width:0.5;" width="75.3444" x="166.5669" y="638.6006"/><text fill="#000000" font-family="sans-serif" font-size="12" lengthAdjust="spacing" textLength="55.3444" x="176.5669" y="659.7487">free(temp)</text><polygon fill="#F1F1F1" points="164.9584,485.8004,243.5198,485.8004,255.5198,497.8004,243.5198,509.8004,164.9584,509.8004,152.9584,497.8004,164.9584,485.8004" style="stroke:#181818;stroke-width:0.5;"/><text fill="#000000" font-family="sans-serif" font-size="11" lengthAdjust="spacing" textLength="78.5614" x="164.9584" y="501.4194">t_stack != NULL</text><ellipse cx="204.2391" cy="726.0007" fill="none" rx="11" ry="11" style="stroke:#222222;stroke-width:1;"/><ellipse cx="204.2391" cy="726.0007" fill="#222222" rx="6" ry="6" style="stroke:#222222;stroke-width:1;"/><line style="stroke:#181818;stroke-width:1;" x1="204.2391" x2="204.2391" y1="60.7999" y2="80.7999"/><polygon fill="#181818" points="200.2391,70.7999,204.2391,80.7999,208.2391,70.7999,204.2391,74.7999" style="stroke:#181818;stroke-width:1;"/><line style="stroke:#181818;stroke-width:1;" x1="117.7127" x2="117.7127" y1="141.2" y2="161.2"/><polygon fill="#181818" points="113.7127,151.2,117.7127,161.2,121.7127,151.2,117.7127,155.2" style="stroke:#181818;stroke-width:1;"/><line style="stroke:#181818;stroke-width:1;" x1="296.4356" x2="296.4356" y1="141.2" y2="161.2"/><polygon fill="#181818" points="292.4356,151.2,296.4356,161.2,300.4356,151.2,296.4356,155.2" style="stroke:#181818;stroke-width:1;"/><line style="stroke:#181818;stroke-width:1;" x1="117.7127" x2="117.7127" y1="195.6001" y2="215.6001"/><polygon fill="#181818" points="113.7127,205.6001,117.7127,215.6001,121.7127,205.6001,117.7127,209.6001" style="stroke:#181818;stroke-width:1;"/><line style="stroke:#181818;stroke-width:1;" x1="296.4356" x2="296.4356" y1="195.6001" y2="215.6001"/><polygon fill="#181818" points="292.4356,205.6001,296.4356,215.6001,300.4356,205.6001,296.4356,209.6001" style="stroke:#181818;stroke-width:1;"/><line style="stroke:#181818;stroke-width:1;" x1="204.2391" x2="204.2391" y1="115.2" y2="135.2"/><polygon fill="#181818" points="200.2391,125.2,204.2391,135.2,208.2391,125.2,204.2391,129.2" style="stroke:#181818;stroke-width:1;"/><line style="stroke:#181818;stroke-width:1;" x1="204.2391" x2="204.2391" y1="320.0002" y2="355.0002"/><polygon fill="#181818" points="200.2391,345.0002,204.2391,355.0002,208.2391,345.0002,204.2391,349.0002" style="stroke:#181818;stroke-width:1;"/><line style="stroke:#181818;stroke-width:1;" x1="204.2391" x2="204.2391" y1="265.6001" y2="285.6001"/><polygon fill="#181818" points="200.2391,275.6001,204.2391,285.6001,208.2391,275.6001,204.2391,279.6001" style="stroke:#181818;stroke-width:1;"/><line style="stroke:#181818;stroke-width:1;" x1="204.2391" x2="204.2391" y1="389.4003" y2="399.4003"/><line style="stroke:#181818;stroke-width:1;" x1="204.2391" x2="381.4782" y1="399.4003" y2="399.4003"/><polygon fill="#181818" points="377.4782,335.5002,381.4782,325.5002,385.4782,335.5002,381.4782,331.5002" style="stroke:#181818;stroke-width:1;"/><line style="stroke:#181818;stroke-width:1;" x1="381.4782" x2="381.4782" y1="253.6001" y2="399.4003"/><line style="stroke:#181818;stroke-width:1;" x1="381.4782" x2="271.7227" y1="253.6001" y2="253.6001"/><polygon fill="#181818" points="281.7227,249.6001,271.7227,253.6001,281.7227,257.6001,277.7227,253.6001" style="stroke:#181818;stroke-width:1;"/><line style="stroke:#181818;stroke-width:1;" x1="136.7555" x2="27" y1="253.6001" y2="253.6001"/><polygon fill="#181818" points="23,321.5002,27,331.5002,31,321.5002,27,325.5002" style="stroke:#181818;stroke-width:1;"/><line style="stroke:#181818;stroke-width:1;" x1="27" x2="27" y1="253.6001" y2="411.4003"/><line style="stroke:#181818;stroke-width:1;" x1="27" x2="204.2391" y1="411.4003" y2="411.4003"/><line style="stroke:#181818;stroke-width:1;" x1="204.2391" x2="204.2391" y1="411.4003" y2="431.4003"/><polygon fill="#181818" points="200.2391,421.4003,204.2391,431.4003,208.2391,421.4003,204.2391,425.4003" style="stroke:#181818;stroke-width:1;"/><line style="stroke:#181818;stroke-width:1;" x1="204.2391" x2="204.2391" y1="221.6001" y2="241.6001"/><polygon fill="#181818" points="200.2391,231.6001,204.2391,241.6001,208.2391,231.6001,204.2391,235.6001" style="stroke:#181818;stroke-width:1;"/><line style="stroke:#181818;stroke-width:1;" x1="204.2391" x2="204.2391" y1="564.2005" y2="584.2005"/><polygon fill="#181818" points="200.2391,574.2005,204.2391,584.2005,208.2391,574.2005,204.2391,578.2005" style="stroke:#181818;stroke-width:1;"/><line style="stroke:#181818;stroke-width:1;" x1="204.2391" x2="204.2391" y1="618.6006" y2="638.6006"/><polygon fill="#181818" points="200.2391,628.6006,204.2391,638.6006,208.2391,628.6006,204.2391,632.6006" style="stroke:#181818;stroke-width:1;"/><line style="stroke:#181818;stroke-width:1;" x1="204.2391" x2="204.2391" y1="509.8004" y2="529.8004"/><polygon fill="#181818" points="200.2391,519.8004,204.2391,529.8004,208.2391,519.8004,204.2391,523.8004" style="stroke:#181818;stroke-width:1;"/><line style="stroke:#181818;stroke-width:1;" x1="204.2391" x2="204.2391" y1="673.0007" y2="683.0007"/><line style="stroke:#181818;stroke-width:1;" x1="204.2391" x2="352.792" y1="683.0007" y2="683.0007"/><polygon fill="#181818" points="348.792,599.4006,352.792,589.4006,356.792,599.4006,352.792,595.4006" style="stroke:#181818;stroke-width:1;"/><line style="stroke:#181818;stroke-width:1;" x1="352.792" x2="352.792" y1="497.8004" y2="683.0007"/><line style="stroke:#181818;stroke-width:1;" x1="352.792" x2="255.5198" y1="497.8004" y2="497.8004"/><polygon fill="#181818" points="265.5198,493.8004,255.5198,497.8004,265.5198,501.8004,261.5198,497.8004" style="stroke:#181818;stroke-width:1;"/><line style="stroke:#181818;stroke-width:1;" x1="152.9584" x2="55.6862" y1="497.8004" y2="497.8004"/><polygon fill="#181818" points="51.6862,585.4006,55.6862,595.4006,59.6862,585.4006,55.6862,589.4006" style="stroke:#181818;stroke-width:1;"/><line style="stroke:#181818;stroke-width:1;" x1="55.6862" x2="55.6862" y1="497.8004" y2="695.0007"/><line style="stroke:#181818;stroke-width:1;" x1="55.6862" x2="204.2391" y1="695.0007" y2="695.0007"/><line style="stroke:#181818;stroke-width:1;" x1="204.2391" x2="204.2391" y1="695.0007" y2="715.0007"/><polygon fill="#181818" points="200.2391,705.0007,204.2391,715.0007,208.2391,705.0007,204.2391,709.0007" style="stroke:#181818;stroke-width:1;"/><line style="stroke:#181818;stroke-width:1;" x1="204.2391" x2="204.2391" y1="465.8004" y2="485.8004"/><polygon fill="#181818" points="200.2391,475.8004,204.2391,485.8004,208.2391,475.8004,204.2391,479.8004" style="stroke:#181818;stroke-width:1;"/><!--SRC=[fP393e8m48RFxLFK6oJg0u0UF9eGOeAS6mA3D9IsWJ4QZUzkMSBcqUlCD_yo9gbHeD2AfObCUHITU0OI47WaNi0n2DYRaWOjHeatpf0BPRWK3RB3Zft3ItprASbrNLAomEnbMhPC60V1WB3abWYr1A4oQmfKHicZ41AOC_dj5JoHROuTwhOYCvEnWxat1KSzbd06Q3jBxlhzzRp9oiSIDaMNWVvdDFRe9HRvX-wJfZOyhtNr8peajdp_XUbXnCjh0ATTkOlG3Mf3Fry0]--></g></svg>