<svg xmlns="http://www.w3.org/2000/svg" xmlns:xlink="http://www.w3.org/1999/xlink" contentStyleType="text/css" data-diagram-type="ACTIVITY" height="1497px" preserveAspectRatio="none" style="width:626px;height:1497px;background:#FFFFFF;" version="1.1" viewBox="0 0 626 1497" width="626px" zoomAndPan="magnify"><defs/><g><rect fill="none" height="1475.0013" style="stroke:#000000;stroke-width:1.5;" width="604.2192" x="11" y="11"/><path d="M176.6094,11 L176.6094,20.7999 L166.6094,30.7999 L11,30.7999" fill="none" style="stroke:#000000;stroke-width:1.5;"/><text fill="#000000" font-family="sans-serif" font-size="14" lengthAdjust="spacing" textLength="155.6094" x="14" y="25.0059">calc_SSA_dominator_arr</text><ellipse cx="313.1096" cy="50.7999" fill="#222222" rx="10" ry="10" style="stroke:#222222;stroke-width:1;"/><rect fill="#555555" height="6" rx="2.5" ry="2.5" style="stroke:#555555;stroke-width:1;" width="430.7664" x="97.7264" y="80.7999"/><rect fill="#F1F1F1" height="34.4001" rx="12.5" ry="12.5" style="stroke:#181818;stroke-width:0.5;" width="235.0655" x="111.7264" y="106.7999"/><text fill="#000000" font-family="sans-serif" font-size="12" lengthAdjust="spacing" textLength="215.0655" x="121.7264" y="127.948">CFGNode *t_post_order_CFG &lt;- INPUT</text><rect fill="#F1F1F1" height="34.4001" rx="12.5" ry="12.5" style="stroke:#181818;stroke-width:0.5;" width="139.7009" x="374.7919" y="106.7999"/><text fill="#000000" font-family="sans-serif" font-size="12" lengthAdjust="spacing" textLength="119.7009" x="384.7919" y="127.948">size_t t_size &lt;- INPUT</text><rect fill="#555555" height="6" rx="2.5" ry="2.5" style="stroke:#555555;stroke-width:1;" width="430.7664" x="97.7264" y="161.2"/><rect fill="#555555" height="6" rx="2.5" ry="2.5" style="stroke:#555555;stroke-width:1;" width="584.2192" x="21" y="187.2"/><rect fill="#F1F1F1" height="34.4001" rx="12.5" ry="12.5" style="stroke:#181818;stroke-width:0.5;" width="132.0448" x="33" y="220.4001"/><text fill="#000000" font-family="sans-serif" font-size="12" lengthAdjust="spacing" textLength="112.0448" x="43" y="241.5482">size_t t_doms[t_size]</text><rect fill="#F1F1F1" height="34.4001" rx="12.5" ry="12.5" style="stroke:#181818;stroke-width:0.5;" width="95.0366" x="193.0448" y="220.4001"/><text fill="#000000" font-family="sans-serif" font-size="12" lengthAdjust="spacing" textLength="75.0366" x="203.0448" y="241.5482">size_t t_c &lt;- 0</text><rect fill="#F1F1F1" height="48.8002" rx="12.5" ry="12.5" style="stroke:#181818;stroke-width:0.5;" width="277.1378" x="316.0814" y="213.2"/><text fill="#000000" font-family="sans-serif" font-size="12" lengthAdjust="spacing" textLength="257.1378" x="326.0814" y="234.3481">Size_tLL *t_pred &lt;- calc_SSA_pred_set_of_sets</text><text fill="#000000" font-family="sans-serif" font-size="12" lengthAdjust="spacing" textLength="145.381" x="326.0814" y="248.7482">(t_post_order_CFG, t_size)</text><rect fill="#555555" height="6" rx="2.5" ry="2.5" style="stroke:#555555;stroke-width:1;" width="584.2192" x="21" y="282.0002"/><rect fill="#F1F1F1" height="34.4001" rx="12.5" ry="12.5" style="stroke:#181818;stroke-width:0.5;" width="130.3768" x="247.9212" y="352.0002"/><text fill="#000000" font-family="sans-serif" font-size="12" lengthAdjust="spacing" textLength="110.3768" x="257.9212" y="373.1483">t_doms[t_c] &lt;- NULL</text><rect fill="#F1F1F1" height="34.4001" rx="12.5" ry="12.5" style="stroke:#181818;stroke-width:0.5;" width="90.0445" x="268.0873" y="421.4003"/><text fill="#000000" font-family="sans-serif" font-size="12" lengthAdjust="spacing" textLength="70.0445" x="278.0873" y="442.5484">t_c &lt;- t_c + 1</text><polygon fill="#F1F1F1" points="285.1368,308.0002,341.0824,308.0002,353.0824,320.0002,341.0824,332.0002,285.1368,332.0002,273.1368,320.0002,285.1368,308.0002" style="stroke:#181818;stroke-width:0.5;"/><text fill="#000000" font-family="sans-serif" font-size="11" lengthAdjust="spacing" textLength="55.9456" x="285.1368" y="323.6192">t_c &lt; t_size</text><rect fill="#555555" height="6" rx="2.5" ry="2.5" style="stroke:#555555;stroke-width:1;" width="521.1503" x="52.5344" y="497.8004"/><rect fill="#F1F1F1" height="34.4001" rx="12.5" ry="12.5" style="stroke:#181818;stroke-width:0.5;" width="97.0406" x="66.5344" y="523.8004"/><text fill="#000000" font-family="sans-serif" font-size="12" lengthAdjust="spacing" textLength="77.0406" x="76.5344" y="544.9485">t_doms[0] &lt;- 0</text><rect fill="#F1F1F1" height="34.4001" rx="12.5" ry="12.5" style="stroke:#181818;stroke-width:0.5;" width="60.3563" x="191.575" y="523.8004"/><text fill="#000000" font-family="sans-serif" font-size="12" lengthAdjust="spacing" textLength="40.3563" x="201.575" y="544.9485">t_c &lt;- 1</text><rect fill="#F1F1F1" height="34.4001" rx="12.5" ry="12.5" style="stroke:#181818;stroke-width:0.5;" width="142.3889" x="279.9313" y="523.8004"/><text fill="#000000" font-family="sans-serif" font-size="12" lengthAdjust="spacing" textLength="122.3889" x="289.9313" y="544.9485">bool changed &lt;- TRUE</text><rect fill="#F1F1F1" height="34.4001" rx="12.5" ry="12.5" style="stroke:#181818;stroke-width:0.5;" width="109.3646" x="450.3201" y="523.8004"/><text fill="#000000" font-family="sans-serif" font-size="12" lengthAdjust="spacing" textLength="89.3646" x="460.3201" y="544.9485">size_t new_idom</text><rect fill="#555555" height="6" rx="2.5" ry="2.5" style="stroke:#555555;stroke-width:1;" width="521.1503" x="52.5344" y="578.2005"/><rect fill="#F1F1F1" height="34.4001" rx="12.5" ry="12.5" style="stroke:#181818;stroke-width:0.5;" width="121.7247" x="252.2472" y="648.2005"/><text fill="#000000" font-family="sans-serif" font-size="12" lengthAdjust="spacing" textLength="101.7247" x="262.2472" y="669.3486">changed &lt;- FALSE</text><rect fill="#F1F1F1" height="34.4001" rx="12.5" ry="12.5" style="stroke:#181818;stroke-width:0.5;" width="131.0608" x="247.5792" y="746.6006"/><text fill="#000000" font-family="sans-serif" font-size="12" lengthAdjust="spacing" textLength="111.0608" x="257.5792" y="767.7487">t_temp &lt;- t_pred[t_c]</text><rect fill="#F1F1F1" height="34.4001" rx="12.5" ry="12.5" style="stroke:#181818;stroke-width:0.5;" width="187.7492" x="219.235" y="801.0007"/><text fill="#000000" font-family="sans-serif" font-size="12" lengthAdjust="spacing" textLength="167.7492" x="229.235" y="822.1488">t_new_idom &lt;- t_temp.contents</text><rect fill="#F1F1F1" height="34.4001" rx="12.5" ry="12.5" style="stroke:#181818;stroke-width:0.5;" width="137.0608" x="244.5792" y="899.4008"/><text fill="#000000" font-family="sans-serif" font-size="12" lengthAdjust="spacing" textLength="117.0608" x="254.5792" y="920.5489">t_temp &lt;- t_temp.next</text><rect fill="#F1F1F1" height="48.8002" rx="12.5" ry="12.5" style="stroke:#181818;stroke-width:0.5;" width="266.4337" x="179.8927" y="1002.4009"/><text fill="#000000" font-family="sans-serif" font-size="12" lengthAdjust="spacing" textLength="246.4337" x="189.8927" y="1023.549">t_new_idom &lt;- calc_SSA_dominator_intersect</text><text fill="#000000" font-family="sans-serif" font-size="12" lengthAdjust="spacing" textLength="210.7575" x="189.8927" y="1037.9491">(t_doms, t_temp.contents, t_new_idom)</text><polygon fill="#F1F1F1" points="231.0282,953.8009,395.191,953.8009,407.191,965.8009,395.191,977.8009,231.0282,977.8009,219.0282,965.8009,231.0282,953.8009" style="stroke:#181818;stroke-width:0.5;"/><text fill="#000000" font-family="sans-serif" font-size="11" lengthAdjust="spacing" textLength="29.9418" x="317.1096" y="988.0199">TRUE</text><text fill="#000000" font-family="sans-serif" font-size="11" lengthAdjust="spacing" textLength="164.1628" x="231.0282" y="969.4199">t_doms[t_temp.contents] != NULL</text><polygon fill="#F1F1F1" points="313.1096,1071.2011,325.1096,1083.2011,313.1096,1095.2011,301.1096,1083.2011,313.1096,1071.2011" style="stroke:#181818;stroke-width:0.5;"/><polygon fill="#F1F1F1" points="262.5155,855.4008,363.7037,855.4008,375.7037,867.4008,363.7037,879.4008,262.5155,879.4008,250.5155,867.4008,262.5155,855.4008" style="stroke:#181818;stroke-width:0.5;"/><text fill="#000000" font-family="sans-serif" font-size="11" lengthAdjust="spacing" textLength="101.1883" x="262.5155" y="871.0198">t_temp.next != NULL</text><rect fill="#F1F1F1" height="34.4001" rx="12.5" ry="12.5" style="stroke:#181818;stroke-width:0.5;" width="164.397" x="230.9111" y="1185.801"/><text fill="#000000" font-family="sans-serif" font-size="12" lengthAdjust="spacing" textLength="144.397" x="240.9111" y="1206.9491">t_doms[t_c] &lt;- t_new_idom</text><rect fill="#F1F1F1" height="34.4001" rx="12.5" ry="12.5" style="stroke:#181818;stroke-width:0.5;" width="116.3727" x="254.9232" y="1255.2011"/><text fill="#000000" font-family="sans-serif" font-size="12" lengthAdjust="spacing" textLength="96.3727" x="264.9232" y="1276.3492">changed &lt;- TRUE</text><polygon fill="#F1F1F1" points="247.2311,1137.2011,378.9881,1137.2011,390.9881,1149.2011,378.9881,1161.2011,247.2311,1161.2011,235.2311,1149.2011,247.2311,1137.2011" style="stroke:#181818;stroke-width:0.5;"/><text fill="#000000" font-family="sans-serif" font-size="11" lengthAdjust="spacing" textLength="34.8477" x="317.1096" y="1171.42">FALSE</text><text fill="#000000" font-family="sans-serif" font-size="11" lengthAdjust="spacing" textLength="131.757" x="247.2311" y="1152.8201">t_doms[t_c] != t_new_idom</text><polygon fill="#F1F1F1" points="313.1096,1309.6012,325.1096,1321.6012,313.1096,1333.6012,301.1096,1321.6012,313.1096,1309.6012" style="stroke:#181818;stroke-width:0.5;"/><polygon fill="#F1F1F1" points="236.5337,702.6006,389.6855,702.6006,401.6855,714.6006,389.6855,726.6006,236.5337,726.6006,224.5337,714.6006,236.5337,702.6006" style="stroke:#181818;stroke-width:0.5;"/><text fill="#000000" font-family="sans-serif" font-size="11" lengthAdjust="spacing" textLength="153.1519" x="236.5337" y="718.2196">t_post_order_CFG[t_c] &lt; t_size</text><polygon fill="#F1F1F1" points="270.7709,604.2005,355.4483,604.2005,367.4483,616.2005,355.4483,628.2005,270.7709,628.2005,258.7709,616.2005,270.7709,604.2005" style="stroke:#181818;stroke-width:0.5;"/><text fill="#000000" font-family="sans-serif" font-size="11" lengthAdjust="spacing" textLength="84.6774" x="270.7709" y="619.8195">changed = TRUE</text><rect fill="#F1F1F1" height="34.4001" rx="12.5" ry="12.5" style="stroke:#181818;stroke-width:0.5;" width="112.0166" x="257.1013" y="1397.6012"/><text fill="#000000" font-family="sans-serif" font-size="12" lengthAdjust="spacing" textLength="92.0166" x="267.1013" y="1418.7493">OUTPUT t_doms</text><ellipse cx="313.1096" cy="1463.0013" fill="none" rx="11" ry="11" style="stroke:#222222;stroke-width:1;"/><ellipse cx="313.1096" cy="1463.0013" fill="#222222" rx="6" ry="6" style="stroke:#222222;stroke-width:1;"/><line style="stroke:#181818;stroke-width:1;" x1="229.2591" x2="229.2591" y1="86.7999" y2="106.7999"/><polygon fill="#181818" points="225.2591,96.7999,229.2591,106.7999,233.2591,96.7999,229.2591,100.7999" style="stroke:#181818;stroke-width:1;"/><line style="stroke:#181818;stroke-width:1;" x1="444.6423" x2="444.6423" y1="86.7999" y2="106.7999"/><polygon fill="#181818" points="440.6423,96.7999,444.6423,106.7999,448.6423,96.7999,444.6423,100.7999" style="stroke:#181818;stroke-width:1;"/><line style="stroke:#181818;stroke-width:1;" x1="229.2591" x2="229.2591" y1="141.2" y2="161.2"/><polygon fill="#181818" points="225.2591,151.2,229.2591,161.2,233.2591,151.2,229.2591,155.2" style="stroke:#181818;stroke-width:1;"/><line style="stroke:#181818;stroke-width:1;" x1="444.6423" x2="444.6423" y1="141.2" y2="161.2"/><polygon fill="#181818" points="440.6423,151.2,444.6423,161.2,448.6423,151.2,444.6423,155.2" style="stroke:#181818;stroke-width:1;"/><line style="stroke:#181818;stroke-width:1;" x1="313.1096" x2="313.1096" y1="60.7999" y2="80.7999"/><polygon fill="#181818" points="309.1096,70.7999,313.1096,80.7999,317.1096,70.7999,313.1096,74.7999" style="stroke:#181818;stroke-width:1;"/><line style="stroke:#181818;stroke-width:1;" x1="99.0224" x2="99.0224" y1="193.2" y2="220.4001"/><polygon fill="#181818" points="95.0224,210.4001,99.0224,220.4001,103.0224,210.4001,99.0224,214.4001" style="stroke:#181818;stroke-width:1;"/><line style="stroke:#181818;stroke-width:1;" x1="240.5631" x2="240.5631" y1="193.2" y2="220.4001"/><polygon fill="#181818" points="236.5631,210.4001,240.5631,220.4001,244.5631,210.4001,240.5631,214.4001" style="stroke:#181818;stroke-width:1;"/><line style="stroke:#181818;stroke-width:1;" x1="454.6503" x2="454.6503" y1="193.2" y2="213.2"/><polygon fill="#181818" points="450.6503,203.2,454.6503,213.2,458.6503,203.2,454.6503,207.2" style="stroke:#181818;stroke-width:1;"/><line style="stroke:#181818;stroke-width:1;" x1="99.0224" x2="99.0224" y1="254.8002" y2="282.0002"/><polygon fill="#181818" points="95.0224,272.0002,99.0224,282.0002,103.0224,272.0002,99.0224,276.0002" style="stroke:#181818;stroke-width:1;"/><line style="stroke:#181818;stroke-width:1;" x1="240.5631" x2="240.5631" y1="254.8002" y2="282.0002"/><polygon fill="#181818" points="236.5631,272.0002,240.5631,282.0002,244.5631,272.0002,240.5631,276.0002" style="stroke:#181818;stroke-width:1;"/><line style="stroke:#181818;stroke-width:1;" x1="454.6503" x2="454.6503" y1="262.0002" y2="282.0002"/><polygon fill="#181818" points="450.6503,272.0002,454.6503,282.0002,458.6503,272.0002,454.6503,276.0002" style="stroke:#181818;stroke-width:1;"/><line style="stroke:#181818;stroke-width:1;" x1="313.1096" x2="313.1096" y1="167.2" y2="187.2"/><polygon fill="#181818" points="309.1096,177.2,313.1096,187.2,317.1096,177.2,313.1096,181.2" style="stroke:#181818;stroke-width:1;"/><line style="stroke:#181818;stroke-width:1;" x1="313.1096" x2="313.1096" y1="386.4003" y2="421.4003"/><polygon fill="#181818" points="309.1096,411.4003,313.1096,421.4003,317.1096,411.4003,313.1096,415.4003" style="stroke:#181818;stroke-width:1;"/><line style="stroke:#181818;stroke-width:1;" x1="313.1096" x2="313.1096" y1="332.0002" y2="352.0002"/><polygon fill="#181818" points="309.1096,342.0002,313.1096,352.0002,317.1096,342.0002,313.1096,346.0002" style="stroke:#181818;stroke-width:1;"/><line style="stroke:#181818;stroke-width:1;" x1="313.1096" x2="313.1096" y1="455.8004" y2="465.8004"/><line style="stroke:#181818;stroke-width:1;" x1="313.1096" x2="390.298" y1="465.8004" y2="465.8004"/><polygon fill="#181818" points="386.298,401.9003,390.298,391.9003,394.298,401.9003,390.298,397.9003" style="stroke:#181818;stroke-width:1;"/><line style="stroke:#181818;stroke-width:1;" x1="390.298" x2="390.298" y1="320.0002" y2="465.8004"/><line style="stroke:#181818;stroke-width:1;" x1="390.298" x2="353.0824" y1="320.0002" y2="320.0002"/><polygon fill="#181818" points="363.0824,316.0002,353.0824,320.0002,363.0824,324.0002,359.0824,320.0002" style="stroke:#181818;stroke-width:1;"/><line style="stroke:#181818;stroke-width:1;" x1="273.1368" x2="235.9212" y1="320.0002" y2="320.0002"/><polygon fill="#181818" points="231.9212,387.9003,235.9212,397.9003,239.9212,387.9003,235.9212,391.9003" style="stroke:#181818;stroke-width:1;"/><line style="stroke:#181818;stroke-width:1;" x1="235.9212" x2="235.9212" y1="320.0002" y2="477.8004"/><line style="stroke:#181818;stroke-width:1;" x1="235.9212" x2="313.1096" y1="477.8004" y2="477.8004"/><line style="stroke:#181818;stroke-width:1;" x1="313.1096" x2="313.1096" y1="477.8004" y2="497.8004"/><polygon fill="#181818" points="309.1096,487.8004,313.1096,497.8004,317.1096,487.8004,313.1096,491.8004" style="stroke:#181818;stroke-width:1;"/><line style="stroke:#181818;stroke-width:1;" x1="313.1096" x2="313.1096" y1="288.0002" y2="308.0002"/><polygon fill="#181818" points="309.1096,298.0002,313.1096,308.0002,317.1096,298.0002,313.1096,302.0002" style="stroke:#181818;stroke-width:1;"/><line style="stroke:#181818;stroke-width:1;" x1="115.0547" x2="115.0547" y1="503.8004" y2="523.8004"/><polygon fill="#181818" points="111.0547,513.8004,115.0547,523.8004,119.0547,513.8004,115.0547,517.8004" style="stroke:#181818;stroke-width:1;"/><line style="stroke:#181818;stroke-width:1;" x1="221.7531" x2="221.7531" y1="503.8004" y2="523.8004"/><polygon fill="#181818" points="217.7531,513.8004,221.7531,523.8004,225.7531,513.8004,221.7531,517.8004" style="stroke:#181818;stroke-width:1;"/><line style="stroke:#181818;stroke-width:1;" x1="351.1257" x2="351.1257" y1="503.8004" y2="523.8004"/><polygon fill="#181818" points="347.1257,513.8004,351.1257,523.8004,355.1257,513.8004,351.1257,517.8004" style="stroke:#181818;stroke-width:1;"/><line style="stroke:#181818;stroke-width:1;" x1="505.0024" x2="505.0024" y1="503.8004" y2="523.8004"/><polygon fill="#181818" points="501.0024,513.8004,505.0024,523.8004,509.0024,513.8004,505.0024,517.8004" style="stroke:#181818;stroke-width:1;"/><line style="stroke:#181818;stroke-width:1;" x1="115.0547" x2="115.0547" y1="558.2005" y2="578.2005"/><polygon fill="#181818" points="111.0547,568.2005,115.0547,578.2005,119.0547,568.2005,115.0547,572.2005" style="stroke:#181818;stroke-width:1;"/><line style="stroke:#181818;stroke-width:1;" x1="221.7531" x2="221.7531" y1="558.2005" y2="578.2005"/><polygon fill="#181818" points="217.7531,568.2005,221.7531,578.2005,225.7531,568.2005,221.7531,572.2005" style="stroke:#181818;stroke-width:1;"/><line style="stroke:#181818;stroke-width:1;" x1="351.1257" x2="351.1257" y1="558.2005" y2="578.2005"/><polygon fill="#181818" points="347.1257,568.2005,351.1257,578.2005,355.1257,568.2005,351.1257,572.2005" style="stroke:#181818;stroke-width:1;"/><line style="stroke:#181818;stroke-width:1;" x1="505.0024" x2="505.0024" y1="558.2005" y2="578.2005"/><polygon fill="#181818" points="501.0024,568.2005,505.0024,578.2005,509.0024,568.2005,505.0024,572.2005" style="stroke:#181818;stroke-width:1;"/><line style="stroke:#181818;stroke-width:1;" x1="313.1096" x2="313.1096" y1="781.0007" y2="801.0007"/><polygon fill="#181818" points="309.1096,791.0007,313.1096,801.0007,317.1096,791.0007,313.1096,795.0007" style="stroke:#181818;stroke-width:1;"/><line style="stroke:#181818;stroke-width:1;" x1="313.1096" x2="313.1096" y1="977.8009" y2="1002.4009"/><polygon fill="#181818" points="309.1096,992.4009,313.1096,1002.4009,317.1096,992.4009,313.1096,996.4009" style="stroke:#181818;stroke-width:1;"/><line style="stroke:#181818;stroke-width:1;" x1="407.191" x2="456.3264" y1="965.8009" y2="965.8009"/><polygon fill="#181818" points="452.3264,1016.801,456.3264,1026.801,460.3264,1016.801,456.3264,1020.801" style="stroke:#181818;stroke-width:1;"/><line style="stroke:#181818;stroke-width:1;" x1="456.3264" x2="456.3264" y1="965.8009" y2="1083.2011"/><line style="stroke:#181818;stroke-width:1;" x1="456.3264" x2="325.1096" y1="1083.2011" y2="1083.2011"/><polygon fill="#181818" points="335.1096,1079.2011,325.1096,1083.2011,335.1096,1087.2011,331.1096,1083.2011" style="stroke:#181818;stroke-width:1;"/><line style="stroke:#181818;stroke-width:1;" x1="313.1096" x2="313.1096" y1="1051.2011" y2="1071.2011"/><polygon fill="#181818" points="309.1096,1061.2011,313.1096,1071.2011,317.1096,1061.2011,313.1096,1065.2011" style="stroke:#181818;stroke-width:1;"/><line style="stroke:#181818;stroke-width:1;" x1="313.1096" x2="313.1096" y1="933.8009" y2="953.8009"/><polygon fill="#181818" points="309.1096,943.8009,313.1096,953.8009,317.1096,943.8009,313.1096,947.8009" style="stroke:#181818;stroke-width:1;"/><line style="stroke:#181818;stroke-width:1;" x1="313.1096" x2="313.1096" y1="879.4008" y2="899.4008"/><polygon fill="#181818" points="309.1096,889.4008,313.1096,899.4008,317.1096,889.4008,313.1096,893.4008" style="stroke:#181818;stroke-width:1;"/><line style="stroke:#181818;stroke-width:1;" x1="313.1096" x2="313.1096" y1="1095.2011" y2="1105.2011"/><line style="stroke:#181818;stroke-width:1;" x1="313.1096" x2="480.3264" y1="1105.2011" y2="1105.2011"/><polygon fill="#181818" points="476.3264,990.1009,480.3264,980.1009,484.3264,990.1009,480.3264,986.1009" style="stroke:#181818;stroke-width:1;"/><line style="stroke:#181818;stroke-width:1;" x1="480.3264" x2="480.3264" y1="867.4008" y2="1105.2011"/><line style="stroke:#181818;stroke-width:1;" x1="480.3264" x2="375.7037" y1="867.4008" y2="867.4008"/><polygon fill="#181818" points="385.7037,863.4008,375.7037,867.4008,385.7037,871.4008,381.7037,867.4008" style="stroke:#181818;stroke-width:1;"/><line style="stroke:#181818;stroke-width:1;" x1="250.5155" x2="157.8927" y1="867.4008" y2="867.4008"/><polygon fill="#181818" points="153.8927,976.1009,157.8927,986.1009,161.8927,976.1009,157.8927,980.1009" style="stroke:#181818;stroke-width:1;"/><line style="stroke:#181818;stroke-width:1;" x1="157.8927" x2="157.8927" y1="867.4008" y2="1117.2011"/><line style="stroke:#181818;stroke-width:1;" x1="157.8927" x2="313.1096" y1="1117.2011" y2="1117.2011"/><line style="stroke:#181818;stroke-width:1;" x1="313.1096" x2="313.1096" y1="1117.2011" y2="1137.2011"/><polygon fill="#181818" points="309.1096,1127.2011,313.1096,1137.2011,317.1096,1127.2011,313.1096,1131.2011" style="stroke:#181818;stroke-width:1;"/><line style="stroke:#181818;stroke-width:1;" x1="313.1096" x2="313.1096" y1="835.4008" y2="855.4008"/><polygon fill="#181818" points="309.1096,845.4008,313.1096,855.4008,317.1096,845.4008,313.1096,849.4008" style="stroke:#181818;stroke-width:1;"/><line style="stroke:#181818;stroke-width:1;" x1="313.1096" x2="313.1096" y1="1220.2011" y2="1255.2011"/><polygon fill="#181818" points="309.1096,1245.2011,313.1096,1255.2011,317.1096,1245.2011,313.1096,1249.2011" style="stroke:#181818;stroke-width:1;"/><line style="stroke:#181818;stroke-width:1;" x1="313.1096" x2="313.1096" y1="1161.2011" y2="1185.801"/><polygon fill="#181818" points="309.1096,1175.801,313.1096,1185.801,317.1096,1175.801,313.1096,1179.801" style="stroke:#181818;stroke-width:1;"/><line style="stroke:#181818;stroke-width:1;" x1="390.9881" x2="405.3081" y1="1149.2011" y2="1149.2011"/><polygon fill="#181818" points="401.3081,1227.7011,405.3081,1237.7011,409.3081,1227.7011,405.3081,1231.7011" style="stroke:#181818;stroke-width:1;"/><line style="stroke:#181818;stroke-width:1;" x1="405.3081" x2="405.3081" y1="1149.2011" y2="1321.6012"/><line style="stroke:#181818;stroke-width:1;" x1="405.3081" x2="325.1096" y1="1321.6012" y2="1321.6012"/><polygon fill="#181818" points="335.1096,1317.6012,325.1096,1321.6012,335.1096,1325.6012,331.1096,1321.6012" style="stroke:#181818;stroke-width:1;"/><line style="stroke:#181818;stroke-width:1;" x1="313.1096" x2="313.1096" y1="1289.6012" y2="1309.6012"/><polygon fill="#181818" points="309.1096,1299.6012,313.1096,1309.6012,317.1096,1299.6012,313.1096,1303.6012" style="stroke:#181818;stroke-width:1;"/><line style="stroke:#181818;stroke-width:1;" x1="313.1096" x2="313.1096" y1="726.6006" y2="746.6006"/><polygon fill="#181818" points="309.1096,736.6006,313.1096,746.6006,317.1096,736.6006,313.1096,740.6006" style="stroke:#181818;stroke-width:1;"/><line style="stroke:#181818;stroke-width:1;" x1="313.1096" x2="313.1096" y1="1333.6012" y2="1343.6012"/><line style="stroke:#181818;stroke-width:1;" x1="313.1096" x2="492.3264" y1="1343.6012" y2="1343.6012"/><polygon fill="#181818" points="488.3264,1026.7009,492.3264,1016.7009,496.3264,1026.7009,492.3264,1022.7009" style="stroke:#181818;stroke-width:1;"/><line style="stroke:#181818;stroke-width:1;" x1="492.3264" x2="492.3264" y1="714.6006" y2="1343.6012"/><line style="stroke:#181818;stroke-width:1;" x1="492.3264" x2="401.6855" y1="714.6006" y2="714.6006"/><polygon fill="#181818" points="411.6855,710.6006,401.6855,714.6006,411.6855,718.6006,407.6855,714.6006" style="stroke:#181818;stroke-width:1;"/><line style="stroke:#181818;stroke-width:1;" x1="224.5337" x2="133.8927" y1="714.6006" y2="714.6006"/><polygon fill="#181818" points="129.8927,1012.7009,133.8927,1022.7009,137.8927,1012.7009,133.8927,1016.7009" style="stroke:#181818;stroke-width:1;"/><line style="stroke:#181818;stroke-width:1;" x1="133.8927" x2="133.8927" y1="714.6006" y2="1355.6012"/><line style="stroke:#181818;stroke-width:1;" x1="133.8927" x2="504.3264" y1="1355.6012" y2="1355.6012"/><line style="stroke:#181818;stroke-width:1;" x1="504.3264" x2="504.3264" y1="616.2005" y2="1355.6012"/><line style="stroke:#181818;stroke-width:1;" x1="504.3264" x2="367.4483" y1="616.2005" y2="616.2005"/><polygon fill="#181818" points="377.4483,612.2005,367.4483,616.2005,377.4483,620.2005,373.4483,616.2005" style="stroke:#181818;stroke-width:1;"/><line style="stroke:#181818;stroke-width:1;" x1="313.1096" x2="313.1096" y1="682.6006" y2="702.6006"/><polygon fill="#181818" points="309.1096,692.6006,313.1096,702.6006,317.1096,692.6006,313.1096,696.6006" style="stroke:#181818;stroke-width:1;"/><line style="stroke:#181818;stroke-width:1;" x1="313.1096" x2="313.1096" y1="628.2005" y2="648.2005"/><polygon fill="#181818" points="309.1096,638.2005,313.1096,648.2005,317.1096,638.2005,313.1096,642.2005" style="stroke:#181818;stroke-width:1;"/><line style="stroke:#181818;stroke-width:1;" x1="258.7709" x2="109.8927" y1="616.2005" y2="616.2005"/><polygon fill="#181818" points="105.8927,966.0008,109.8927,976.0008,113.8927,966.0008,109.8927,970.0008" style="stroke:#181818;stroke-width:1;"/><line style="stroke:#181818;stroke-width:1;" x1="109.8927" x2="109.8927" y1="616.2005" y2="1377.6012"/><line style="stroke:#181818;stroke-width:1;" x1="109.8927" x2="313.1096" y1="1377.6012" y2="1377.6012"/><line style="stroke:#181818;stroke-width:1;" x1="313.1096" x2="313.1096" y1="1377.6012" y2="1397.6012"/><polygon fill="#181818" points="309.1096,1387.6012,313.1096,1397.6012,317.1096,1387.6012,313.1096,1391.6012" style="stroke:#181818;stroke-width:1;"/><line style="stroke:#181818;stroke-width:1;" x1="313.1096" x2="313.1096" y1="584.2005" y2="604.2005"/><polygon fill="#181818" points="309.1096,594.2005,313.1096,604.2005,317.1096,594.2005,313.1096,598.2005" style="stroke:#181818;stroke-width:1;"/><line style="stroke:#181818;stroke-width:1;" x1="313.1096" x2="313.1096" y1="1432.0013" y2="1452.0013"/><polygon fill="#181818" points="309.1096,1442.0013,313.1096,1452.0013,317.1096,1442.0013,313.1096,1446.0013" style="stroke:#181818;stroke-width:1;"/><!--SRC=[XLH1Jy8m6BtpA-eD50rScHo80MEoe77iP9PcTXqqGhkqJJ0Q_xjjrtNhLf7BIlk-zxttlgrLpYMHX560yYE2IRA21JiHcal6OSuv-1u1zHDIuSogPFp3B1OFcySjAp2ubh1YGaB62yoXsWNtj-1f-vBk8bS1ydrEQ5qdo1U64aYe5o4ifaMlbIjHsiHRNPdzmuuqzImCIWmeZersZWiDTVxr1XHO6IhrGvYIST_ar1gO18IV3-I8TOdIqC3CWMdkNA1CzzscSHnrJurm_RW1y_f0yHhANYgMQ9PTS6hfvk7JTyQE01rokgypsBscwuknKdo6H7NzstJ3jZHa7TkTDfjLdAnRpoukFs6Rq210wqlYKrKdfGTcm54VqyYjSRhY3Z4gCPN2npe91aFnfmHNIpCQl- -WjyD70nmfDQ6TjTSxS-H07Z05Op-g2oO27obHd5nW98FrLi6qRrzlDCIJeNOrL5AEUZljEnYqY8oj3gqrPwOTZD7x3jh2ePn5y1qDY_M4UdyMp-bEtJJs6edinSQgqSyl]--></g></svg>