<svg xmlns="http://www.w3.org/2000/svg" xmlns:xlink="http://www.w3.org/1999/xlink" contentStyleType="text/css" data-diagram-type="ACTIVITY" height="530px" preserveAspectRatio="none" style="width:426px;height:530px;background:#FFFFFF;" version="1.1" viewBox="0 0 426 530" width="426px" zoomAndPan="magnify"><defs/><g><rect fill="none" height="508.8004" style="stroke:#000000;stroke-width:1.5;" width="404.7781" x="11" y="11"/><path d="M193.7453,11 L193.7453,20.7999 L183.7453,30.7999 L11,30.7999" fill="none" style="stroke:#000000;stroke-width:1.5;"/><text fill="#000000" font-family="sans-serif" font-size="14" lengthAdjust="spacing" textLength="172.7453" x="14" y="25.0059">calc_SSA_nth_predecessor</text><ellipse cx="213.389" cy="50.7999" fill="#222222" rx="10" ry="10" style="stroke:#222222;stroke-width:1;"/><rect fill="#555555" height="6" rx="2.5" ry="2.5" style="stroke:#555555;stroke-width:1;" width="384.7781" x="21" y="80.7999"/><rect fill="#F1F1F1" height="34.4001" rx="12.5" ry="12.5" style="stroke:#181818;stroke-width:0.5;" width="169.7251" x="33" y="106.7999"/><text fill="#000000" font-family="sans-serif" font-size="12" lengthAdjust="spacing" textLength="149.7251" x="43" y="127.948">size_t t_inp_index &lt;- INPUT</text><rect fill="#F1F1F1" height="34.4001" rx="12.5" ry="12.5" style="stroke:#181818;stroke-width:0.5;" width="163.053" x="230.7251" y="106.7999"/><text fill="#000000" font-family="sans-serif" font-size="12" lengthAdjust="spacing" textLength="143.053" x="240.7251" y="127.948">PredLL t_inp_list &lt;- INPUT</text><rect fill="#555555" height="6" rx="2.5" ry="2.5" style="stroke:#555555;stroke-width:1;" width="384.7781" x="21" y="161.2"/><rect fill="#F1F1F1" height="34.4001" rx="12.5" ry="12.5" style="stroke:#181818;stroke-width:0.5;" width="95.0366" x="165.8708" y="187.2"/><text fill="#000000" font-family="sans-serif" font-size="12" lengthAdjust="spacing" textLength="75.0366" x="175.8708" y="208.3481">size_t t_c &lt;- 0</text><rect fill="#F1F1F1" height="34.4001" rx="12.5" ry="12.5" style="stroke:#181818;stroke-width:0.5;" width="90.0445" x="168.3668" y="285.6001"/><text fill="#000000" font-family="sans-serif" font-size="12" lengthAdjust="spacing" textLength="70.0445" x="178.3668" y="306.7482">t_c &lt;- t_c + 1</text><rect fill="#F1F1F1" height="34.4001" rx="12.5" ry="12.5" style="stroke:#181818;stroke-width:0.5;" width="158.397" x="134.1906" y="355.0002"/><text fill="#000000" font-family="sans-serif" font-size="12" lengthAdjust="spacing" textLength="138.397" x="144.1906" y="376.1483">t_inp_list &lt;- t_inp_list.next</text><polygon fill="#F1F1F1" points="170.1264,241.6001,256.6517,241.6001,268.6517,253.6001,256.6517,265.6001,170.1264,265.6001,158.1264,253.6001,170.1264,241.6001" style="stroke:#181818;stroke-width:0.5;"/><text fill="#000000" font-family="sans-serif" font-size="11" lengthAdjust="spacing" textLength="86.5254" x="170.1264" y="257.2191">t_c != t_inp_index</text><rect fill="#F1F1F1" height="34.4001" rx="12.5" ry="12.5" style="stroke:#181818;stroke-width:0.5;" width="168.717" x="129.0305" y="431.4003"/><text fill="#000000" font-family="sans-serif" font-size="12" lengthAdjust="spacing" textLength="148.717" x="139.0305" y="452.5484">OUTPUT t_inp_list.contents</text><ellipse cx="213.389" cy="496.8004" fill="none" rx="11" ry="11" style="stroke:#222222;stroke-width:1;"/><ellipse cx="213.389" cy="496.8004" fill="#222222" rx="6" ry="6" style="stroke:#222222;stroke-width:1;"/><line style="stroke:#181818;stroke-width:1;" x1="117.8625" x2="117.8625" y1="86.7999" y2="106.7999"/><polygon fill="#181818" points="113.8625,96.7999,117.8625,106.7999,121.8625,96.7999,117.8625,100.7999" style="stroke:#181818;stroke-width:1;"/><line style="stroke:#181818;stroke-width:1;" x1="312.2516" x2="312.2516" y1="86.7999" y2="106.7999"/><polygon fill="#181818" points="308.2516,96.7999,312.2516,106.7999,316.2516,96.7999,312.2516,100.7999" style="stroke:#181818;stroke-width:1;"/><line style="stroke:#181818;stroke-width:1;" x1="117.8625" x2="117.8625" y1="141.2" y2="161.2"/><polygon fill="#181818" points="113.8625,151.2,117.8625,161.2,121.8625,151.2,117.8625,155.2" style="stroke:#181818;stroke-width:1;"/><line style="stroke:#181818;stroke-width:1;" x1="312.2516" x2="312.2516" y1="141.2" y2="161.2"/><polygon fill="#181818" points="308.2516,151.2,312.2516,161.2,316.2516,151.2,312.2516,155.2" style="stroke:#181818;stroke-width:1;"/><line style="stroke:#181818;stroke-width:1;" x1="213.389" x2="213.389" y1="60.7999" y2="80.7999"/><polygon fill="#181818" points="209.389,70.7999,213.389,80.7999,217.389,70.7999,213.389,74.7999" style="stroke:#181818;stroke-width:1;"/><line style="stroke:#181818;stroke-width:1;" x1="213.389" x2="213.389" y1="167.2" y2="187.2"/><polygon fill="#181818" points="209.389,177.2,213.389,187.2,217.389,177.2,213.389,181.2" style="stroke:#181818;stroke-width:1;"/><line style="stroke:#181818;stroke-width:1;" x1="213.389" x2="213.389" y1="320.0002" y2="355.0002"/><polygon fill="#181818" points="209.389,345.0002,213.389,355.0002,217.389,345.0002,213.389,349.0002" style="stroke:#181818;stroke-width:1;"/><line style="stroke:#181818;stroke-width:1;" x1="213.389" x2="213.389" y1="265.6001" y2="285.6001"/><polygon fill="#181818" points="209.389,275.6001,213.389,285.6001,217.389,275.6001,213.389,279.6001" style="stroke:#181818;stroke-width:1;"/><line style="stroke:#181818;stroke-width:1;" x1="213.389" x2="213.389" y1="389.4003" y2="399.4003"/><line style="stroke:#181818;stroke-width:1;" x1="213.389" x2="304.5875" y1="399.4003" y2="399.4003"/><polygon fill="#181818" points="300.5875,335.5002,304.5875,325.5002,308.5875,335.5002,304.5875,331.5002" style="stroke:#181818;stroke-width:1;"/><line style="stroke:#181818;stroke-width:1;" x1="304.5875" x2="304.5875" y1="253.6001" y2="399.4003"/><line style="stroke:#181818;stroke-width:1;" x1="304.5875" x2="268.6517" y1="253.6001" y2="253.6001"/><polygon fill="#181818" points="278.6517,249.6001,268.6517,253.6001,278.6517,257.6001,274.6517,253.6001" style="stroke:#181818;stroke-width:1;"/><line style="stroke:#181818;stroke-width:1;" x1="158.1264" x2="122.1906" y1="253.6001" y2="253.6001"/><polygon fill="#181818" points="118.1906,321.5002,122.1906,331.5002,126.1906,321.5002,122.1906,325.5002" style="stroke:#181818;stroke-width:1;"/><line style="stroke:#181818;stroke-width:1;" x1="122.1906" x2="122.1906" y1="253.6001" y2="411.4003"/><line style="stroke:#181818;stroke-width:1;" x1="122.1906" x2="213.389" y1="411.4003" y2="411.4003"/><line style="stroke:#181818;stroke-width:1;" x1="213.389" x2="213.389" y1="411.4003" y2="431.4003"/><polygon fill="#181818" points="209.389,421.4003,213.389,431.4003,217.389,421.4003,213.389,425.4003" style="stroke:#181818;stroke-width:1;"/><line style="stroke:#181818;stroke-width:1;" x1="213.389" x2="213.389" y1="221.6001" y2="241.6001"/><polygon fill="#181818" points="209.389,231.6001,213.389,241.6001,217.389,231.6001,213.389,235.6001" style="stroke:#181818;stroke-width:1;"/><line style="stroke:#181818;stroke-width:1;" x1="213.389" x2="213.389" y1="465.8004" y2="485.8004"/><polygon fill="#181818" points="209.389,475.8004,213.389,485.8004,217.389,475.8004,213.389,479.8004" style="stroke:#181818;stroke-width:1;"/><!--SRC=[RP112y8W5CVl-nIlMn55NLiTEWQZ1jlE8kxLfA6Y3nf5tptTHZD849_w-_jxQBWbIL8h4BmLh2YEJ573ZCKQ1JgdBRmIyCEH9_lggkszByBOEVb4Ha1CAkDdZHtiLt0wvrMPVd7WDoxL5ChzyrasXbhfw5y6LPtyAaJ0DWFoQ6IBC0-7iqEiNqoQCH6M9MpJ-28MJxkrmeu6pjjxnT32fIfzSp4fj29KvDBnTxH9tXy0]--></g></svg>