<svg xmlns="http://www.w3.org/2000/svg" xmlns:xlink="http://www.w3.org/1999/xlink" contentStyleType="text/css" data-diagram-type="ACTIVITY" height="530px" preserveAspectRatio="none" style="width:513px;height:530px;background:#FFFFFF;" version="1.1" viewBox="0 0 513 530" width="513px" zoomAndPan="magnify"><defs/><g><rect fill="none" height="508.8004" style="stroke:#000000;stroke-width:1.5;" width="491.4667" x="11" y="11"/><path d="M234.9751,11 L234.9751,20.7999 L224.9751,30.7999 L11,30.7999" fill="none" style="stroke:#000000;stroke-width:1.5;"/><text fill="#000000" font-family="sans-serif" font-size="14" lengthAdjust="spacing" textLength="213.9751" x="14" y="25.0059">calc_SSA_CFG_post_order_index</text><ellipse cx="256.7333" cy="50.7999" fill="#222222" rx="10" ry="10" style="stroke:#222222;stroke-width:1;"/><rect fill="#555555" height="6" rx="2.5" ry="2.5" style="stroke:#555555;stroke-width:1;" width="471.4667" x="21" y="80.7999"/><rect fill="#F1F1F1" height="34.4001" rx="12.5" ry="12.5" style="stroke:#181818;stroke-width:0.5;" width="224.3974" x="33" y="106.7999"/><text fill="#000000" font-family="sans-serif" font-size="12" lengthAdjust="spacing" textLength="204.3974" x="43" y="127.948">CFGNode *t_post_order_arr &lt;- INPUT</text><rect fill="#F1F1F1" height="34.4001" rx="12.5" ry="12.5" style="stroke:#181818;stroke-width:0.5;" width="195.0692" x="285.3974" y="106.7999"/><text fill="#000000" font-family="sans-serif" font-size="12" lengthAdjust="spacing" textLength="175.0692" x="295.3974" y="127.948">CFGNode *t_inp_node &lt;- INPUT</text><rect fill="#555555" height="6" rx="2.5" ry="2.5" style="stroke:#555555;stroke-width:1;" width="471.4667" x="21" y="161.2"/><rect fill="#F1F1F1" height="34.4001" rx="12.5" ry="12.5" style="stroke:#181818;stroke-width:0.5;" width="95.0366" x="209.215" y="187.2"/><text fill="#000000" font-family="sans-serif" font-size="12" lengthAdjust="spacing" textLength="75.0366" x="219.215" y="208.3481">size_t t_c &lt;- 0</text><rect fill="#F1F1F1" height="34.4001" rx="12.5" ry="12.5" style="stroke:#181818;stroke-width:0.5;" width="90.0445" x="211.7111" y="285.6001"/><text fill="#000000" font-family="sans-serif" font-size="12" lengthAdjust="spacing" textLength="70.0445" x="221.7111" y="306.7482">t_c &lt;- t_c + 1</text><rect fill="#F1F1F1" height="34.4001" rx="12.5" ry="12.5" style="stroke:#181818;stroke-width:0.5;" width="122.7207" x="195.373" y="355.0002"/><text fill="#000000" font-family="sans-serif" font-size="12" lengthAdjust="spacing" textLength="102.7207" x="205.373" y="376.1483">t_post_order_arr++</text><polygon fill="#F1F1F1" points="181.0649,241.6001,332.4018,241.6001,344.4018,253.6001,332.4018,265.6001,181.0649,265.6001,169.0649,253.6001,181.0649,241.6001" style="stroke:#181818;stroke-width:0.5;"/><text fill="#000000" font-family="sans-serif" font-size="11" lengthAdjust="spacing" textLength="151.3369" x="181.0649" y="257.2191">t_post_order_arr != t_inp_node</text><rect fill="#F1F1F1" height="34.4001" rx="12.5" ry="12.5" style="stroke:#181818;stroke-width:0.5;" width="88.6765" x="212.3951" y="431.4003"/><text fill="#000000" font-family="sans-serif" font-size="12" lengthAdjust="spacing" textLength="68.6765" x="222.3951" y="452.5484">OUTPUT t_c</text><ellipse cx="256.7333" cy="496.8004" fill="none" rx="11" ry="11" style="stroke:#222222;stroke-width:1;"/><ellipse cx="256.7333" cy="496.8004" fill="#222222" rx="6" ry="6" style="stroke:#222222;stroke-width:1;"/><line style="stroke:#181818;stroke-width:1;" x1="145.1987" x2="145.1987" y1="86.7999" y2="106.7999"/><polygon fill="#181818" points="141.1987,96.7999,145.1987,106.7999,149.1987,96.7999,145.1987,100.7999" style="stroke:#181818;stroke-width:1;"/><line style="stroke:#181818;stroke-width:1;" x1="382.9321" x2="382.9321" y1="86.7999" y2="106.7999"/><polygon fill="#181818" points="378.9321,96.7999,382.9321,106.7999,386.9321,96.7999,382.9321,100.7999" style="stroke:#181818;stroke-width:1;"/><line style="stroke:#181818;stroke-width:1;" x1="145.1987" x2="145.1987" y1="141.2" y2="161.2"/><polygon fill="#181818" points="141.1987,151.2,145.1987,161.2,149.1987,151.2,145.1987,155.2" style="stroke:#181818;stroke-width:1;"/><line style="stroke:#181818;stroke-width:1;" x1="382.9321" x2="382.9321" y1="141.2" y2="161.2"/><polygon fill="#181818" points="378.9321,151.2,382.9321,161.2,386.9321,151.2,382.9321,155.2" style="stroke:#181818;stroke-width:1;"/><line style="stroke:#181818;stroke-width:1;" x1="256.7333" x2="256.7333" y1="60.7999" y2="80.7999"/><polygon fill="#181818" points="252.7333,70.7999,256.7333,80.7999,260.7333,70.7999,256.7333,74.7999" style="stroke:#181818;stroke-width:1;"/><line style="stroke:#181818;stroke-width:1;" x1="256.7333" x2="256.7333" y1="167.2" y2="187.2"/><polygon fill="#181818" points="252.7333,177.2,256.7333,187.2,260.7333,177.2,256.7333,181.2" style="stroke:#181818;stroke-width:1;"/><line style="stroke:#181818;stroke-width:1;" x1="256.7333" x2="256.7333" y1="320.0002" y2="355.0002"/><polygon fill="#181818" points="252.7333,345.0002,256.7333,355.0002,260.7333,345.0002,256.7333,349.0002" style="stroke:#181818;stroke-width:1;"/><line style="stroke:#181818;stroke-width:1;" x1="256.7333" x2="256.7333" y1="265.6001" y2="285.6001"/><polygon fill="#181818" points="252.7333,275.6001,256.7333,285.6001,260.7333,275.6001,256.7333,279.6001" style="stroke:#181818;stroke-width:1;"/><line style="stroke:#181818;stroke-width:1;" x1="256.7333" x2="256.7333" y1="389.4003" y2="399.4003"/><line style="stroke:#181818;stroke-width:1;" x1="256.7333" x2="356.4018" y1="399.4003" y2="399.4003"/><polygon fill="#181818" points="352.4018,335.5002,356.4018,325.5002,360.4018,335.5002,356.4018,331.5002" style="stroke:#181818;stroke-width:1;"/><line style="stroke:#181818;stroke-width:1;" x1="356.4018" x2="356.4018" y1="253.6001" y2="399.4003"/><line style="stroke:#181818;stroke-width:1;" x1="356.4018" x2="344.4018" y1="253.6001" y2="253.6001"/><polygon fill="#181818" points="354.4018,249.6001,344.4018,253.6001,354.4018,257.6001,350.4018,253.6001" style="stroke:#181818;stroke-width:1;"/><line style="stroke:#181818;stroke-width:1;" x1="169.0649" x2="157.0649" y1="253.6001" y2="253.6001"/><polygon fill="#181818" points="153.0649,321.5002,157.0649,331.5002,161.0649,321.5002,157.0649,325.5002" style="stroke:#181818;stroke-width:1;"/><line style="stroke:#181818;stroke-width:1;" x1="157.0649" x2="157.0649" y1="253.6001" y2="411.4003"/><line style="stroke:#181818;stroke-width:1;" x1="157.0649" x2="256.7333" y1="411.4003" y2="411.4003"/><line style="stroke:#181818;stroke-width:1;" x1="256.7333" x2="256.7333" y1="411.4003" y2="431.4003"/><polygon fill="#181818" points="252.7333,421.4003,256.7333,431.4003,260.7333,421.4003,256.7333,425.4003" style="stroke:#181818;stroke-width:1;"/><line style="stroke:#181818;stroke-width:1;" x1="256.7333" x2="256.7333" y1="221.6001" y2="241.6001"/><polygon fill="#181818" points="252.7333,231.6001,256.7333,241.6001,260.7333,231.6001,256.7333,235.6001" style="stroke:#181818;stroke-width:1;"/><line style="stroke:#181818;stroke-width:1;" x1="256.7333" x2="256.7333" y1="465.8004" y2="485.8004"/><polygon fill="#181818" points="252.7333,475.8004,256.7333,485.8004,260.7333,475.8004,256.7333,479.8004" style="stroke:#181818;stroke-width:1;"/><!--SRC=[RP112y8m38Nl_efuKuUWrqqF8YXUfh3j7CfQDJZQqXKKnVzksmqtSRdqXRmlBrGpOycIab2ogiGis-1sjqUjQelAS66G91SFU8t0LMsTFQYpChSWVCKEIHKNCBDzaXa3gpaSqbEH9ryAs8MH76H9QfHU3r12yj34DJq5Mh1OUjkYiTolL0cO_CMFrz2jdNQXBUsV29P9V_2x8OgQeOiF6SqDno9trtayQVz5wT7x0m00]--></g></svg>