<svg xmlns="http://www.w3.org/2000/svg" xmlns:xlink="http://www.w3.org/1999/xlink" contentStyleType="text/css" data-diagram-type="ACTIVITY" height="530px" preserveAspectRatio="none" style="width:434px;height:530px;background:#FFFFFF;" version="1.1" viewBox="0 0 434 530" width="434px" zoomAndPan="magnify"><defs/><g><rect fill="none" height="508.8004" style="stroke:#000000;stroke-width:1.5;" width="412.7822" x="11" y="11"/><path d="M193.7453,11 L193.7453,20.7999 L183.7453,30.7999 L11,30.7999" fill="none" style="stroke:#000000;stroke-width:1.5;"/><text fill="#000000" font-family="sans-serif" font-size="14" lengthAdjust="spacing" textLength="172.7453" x="14" y="25.0059">calc_SSA_nth_predecessor</text><ellipse cx="217.3911" cy="50.7999" fill="#222222" rx="10" ry="10" style="stroke:#222222;stroke-width:1;"/><rect fill="#555555" height="6" rx="2.5" ry="2.5" style="stroke:#555555;stroke-width:1;" width="392.7822" x="21" y="80.7999"/><rect fill="#F1F1F1" height="34.4001" rx="12.5" ry="12.5" style="stroke:#181818;stroke-width:0.5;" width="169.7251" x="33" y="106.7999"/><text fill="#000000" font-family="sans-serif" font-size="12" lengthAdjust="spacing" textLength="149.7251" x="43" y="127.948">size_t t_inp_index &lt;- INPUT</text><rect fill="#F1F1F1" height="34.4001" rx="12.5" ry="12.5" style="stroke:#181818;stroke-width:0.5;" width="171.0571" x="230.7251" y="106.7999"/><text fill="#000000" font-family="sans-serif" font-size="12" lengthAdjust="spacing" textLength="151.0571" x="240.7251" y="127.948">Size_tLL t_inp_list &lt;- INPUT</text><rect fill="#555555" height="6" rx="2.5" ry="2.5" style="stroke:#555555;stroke-width:1;" width="392.7822" x="21" y="161.2"/><rect fill="#F1F1F1" height="34.4001" rx="12.5" ry="12.5" style="stroke:#181818;stroke-width:0.5;" width="95.0366" x="169.8728" y="187.2"/><text fill="#000000" font-family="sans-serif" font-size="12" lengthAdjust="spacing" textLength="75.0366" x="179.8728" y="208.3481">size_t t_c &lt;- 0</text><rect fill="#F1F1F1" height="34.4001" rx="12.5" ry="12.5" style="stroke:#181818;stroke-width:0.5;" width="90.0445" x="172.3688" y="285.6001"/><text fill="#000000" font-family="sans-serif" font-size="12" lengthAdjust="spacing" textLength="70.0445" x="182.3688" y="306.7482">t_c &lt;- t_c + 1</text><rect fill="#F1F1F1" height="34.4001" rx="12.5" ry="12.5" style="stroke:#181818;stroke-width:0.5;" width="158.397" x="138.1926" y="355.0002"/><text fill="#000000" font-family="sans-serif" font-size="12" lengthAdjust="spacing" textLength="138.397" x="148.1926" y="376.1483">t_inp_list &lt;- t_inp_list.next</text><polygon fill="#F1F1F1" points="174.1284,241.6001,260.6538,241.6001,272.6538,253.6001,260.6538,265.6001,174.1284,265.6001,162.1284,253.6001,174.1284,241.6001" style="stroke:#181818;stroke-width:0.5;"/><text fill="#000000" font-family="sans-serif" font-size="11" lengthAdjust="spacing" textLength="86.5254" x="174.1284" y="257.2191">t_c != t_inp_index</text><rect fill="#F1F1F1" height="34.4001" rx="12.5" ry="12.5" style="stroke:#181818;stroke-width:0.5;" width="168.717" x="133.0326" y="431.4003"/><text fill="#000000" font-family="sans-serif" font-size="12" lengthAdjust="spacing" textLength="148.717" x="143.0326" y="452.5484">OUTPUT t_inp_list.contents</text><ellipse cx="217.3911" cy="496.8004" fill="none" rx="11" ry="11" style="stroke:#222222;stroke-width:1;"/><ellipse cx="217.3911" cy="496.8004" fill="#222222" rx="6" ry="6" style="stroke:#222222;stroke-width:1;"/><line style="stroke:#181818;stroke-width:1;" x1="117.8625" x2="117.8625" y1="86.7999" y2="106.7999"/><polygon fill="#181818" points="113.8625,96.7999,117.8625,106.7999,121.8625,96.7999,117.8625,100.7999" style="stroke:#181818;stroke-width:1;"/><line style="stroke:#181818;stroke-width:1;" x1="316.2536" x2="316.2536" y1="86.7999" y2="106.7999"/><polygon fill="#181818" points="312.2536,96.7999,316.2536,106.7999,320.2536,96.7999,316.2536,100.7999" style="stroke:#181818;stroke-width:1;"/><line style="stroke:#181818;stroke-width:1;" x1="117.8625" x2="117.8625" y1="141.2" y2="161.2"/><polygon fill="#181818" points="113.8625,151.2,117.8625,161.2,121.8625,151.2,117.8625,155.2" style="stroke:#181818;stroke-width:1;"/><line style="stroke:#181818;stroke-width:1;" x1="316.2536" x2="316.2536" y1="141.2" y2="161.2"/><polygon fill="#181818" points="312.2536,151.2,316.2536,161.2,320.2536,151.2,316.2536,155.2" style="stroke:#181818;stroke-width:1;"/><line style="stroke:#181818;stroke-width:1;" x1="217.3911" x2="217.3911" y1="60.7999" y2="80.7999"/><polygon fill="#181818" points="213.3911,70.7999,217.3911,80.7999,221.3911,70.7999,217.3911,74.7999" style="stroke:#181818;stroke-width:1;"/><line style="stroke:#181818;stroke-width:1;" x1="217.3911" x2="217.3911" y1="167.2" y2="187.2"/><polygon fill="#181818" points="213.3911,177.2,217.3911,187.2,221.3911,177.2,217.3911,181.2" style="stroke:#181818;stroke-width:1;"/><line style="stroke:#181818;stroke-width:1;" x1="217.3911" x2="217.3911" y1="320.0002" y2="355.0002"/><polygon fill="#181818" points="213.3911,345.0002,217.3911,355.0002,221.3911,345.0002,217.3911,349.0002" style="stroke:#181818;stroke-width:1;"/><line style="stroke:#181818;stroke-width:1;" x1="217.3911" x2="217.3911" y1="265.6001" y2="285.6001"/><polygon fill="#181818" points="213.3911,275.6001,217.3911,285.6001,221.3911,275.6001,217.3911,279.6001" style="stroke:#181818;stroke-width:1;"/><line style="stroke:#181818;stroke-width:1;" x1="217.3911" x2="217.3911" y1="389.4003" y2="399.4003"/><line style="stroke:#181818;stroke-width:1;" x1="217.3911" x2="308.5896" y1="399.4003" y2="399.4003"/><polygon fill="#181818" points="304.5896,335.5002,308.5896,325.5002,312.5896,335.5002,308.5896,331.5002" style="stroke:#181818;stroke-width:1;"/><line style="stroke:#181818;stroke-width:1;" x1="308.5896" x2="308.5896" y1="253.6001" y2="399.4003"/><line style="stroke:#181818;stroke-width:1;" x1="308.5896" x2="272.6538" y1="253.6001" y2="253.6001"/><polygon fill="#181818" points="282.6538,249.6001,272.6538,253.6001,282.6538,257.6001,278.6538,253.6001" style="stroke:#181818;stroke-width:1;"/><line style="stroke:#181818;stroke-width:1;" x1="162.1284" x2="126.1926" y1="253.6001" y2="253.6001"/><polygon fill="#181818" points="122.1926,321.5002,126.1926,331.5002,130.1926,321.5002,126.1926,325.5002" style="stroke:#181818;stroke-width:1;"/><line style="stroke:#181818;stroke-width:1;" x1="126.1926" x2="126.1926" y1="253.6001" y2="411.4003"/><line style="stroke:#181818;stroke-width:1;" x1="126.1926" x2="217.3911" y1="411.4003" y2="411.4003"/><line style="stroke:#181818;stroke-width:1;" x1="217.3911" x2="217.3911" y1="411.4003" y2="431.4003"/><polygon fill="#181818" points="213.3911,421.4003,217.3911,431.4003,221.3911,421.4003,217.3911,425.4003" style="stroke:#181818;stroke-width:1;"/><line style="stroke:#181818;stroke-width:1;" x1="217.3911" x2="217.3911" y1="221.6001" y2="241.6001"/><polygon fill="#181818" points="213.3911,231.6001,217.3911,241.6001,221.3911,231.6001,217.3911,235.6001" style="stroke:#181818;stroke-width:1;"/><line style="stroke:#181818;stroke-width:1;" x1="217.3911" x2="217.3911" y1="465.8004" y2="485.8004"/><polygon fill="#181818" points="213.3911,475.8004,217.3911,485.8004,221.3911,475.8004,217.3911,479.8004" style="stroke:#181818;stroke-width:1;"/><!--SRC=[RP112y8m38Nl-nNnfeYYLwS7Zy9GOTkvb2vgSRIb3JWK_xjjDrm50wLfyZtUeuPRaYIr0i5RmSfopnJTcB7Oe43dj8LN1huSUJ9s5stliGcrSVA9Z82OLCQV1ZlOBk1mFDTL_iM1NxbKewYCeg8OPArqz4-5gib-JKJ0LZtokCaMOHg6arqQO3OQ3OfmpM6TfulKU7mj5NRKSzuzMlGHJdNbmwMaq8fGaSk7_z4cUty0]--></g></svg>