<svg xmlns="http://www.w3.org/2000/svg" xmlns:xlink="http://www.w3.org/1999/xlink" contentStyleType="text/css" data-diagram-type="ACTIVITY" height="1230px" preserveAspectRatio="none" style="width:941px;height:1230px;background:#FFFFFF;" version="1.1" viewBox="0 0 941 1230" width="941px" zoomAndPan="magnify"><defs/><g><rect fill="none" height="1208.501" style="stroke:#000000;stroke-width:1.5;" width="919.9633" x="11" y="11"/><path d="M196.0833,11 L196.0833,20.7999 L186.0833,30.7999 L11,30.7999" fill="none" style="stroke:#000000;stroke-width:1.5;"/><text fill="#000000" font-family="sans-serif" font-size="14" lengthAdjust="spacing" textLength="175.0833" x="14" y="25.0059">calc_SSA_global_name_set</text><ellipse cx="471.9888" cy="50.7999" fill="#222222" rx="10" ry="10" style="stroke:#222222;stroke-width:1;"/><rect fill="#555555" height="6" rx="2.5" ry="2.5" style="stroke:#555555;stroke-width:1;" width="444.0984" x="249.9396" y="80.7999"/><rect fill="#F1F1F1" height="34.4001" rx="12.5" ry="12.5" style="stroke:#181818;stroke-width:0.5;" width="193.7132" x="263.9396" y="106.7999"/><text fill="#000000" font-family="sans-serif" font-size="12" lengthAdjust="spacing" textLength="173.7132" x="273.9396" y="127.948">CFGNode *t_inp_CFG &lt;- INPUT</text><rect fill="#F1F1F1" height="34.4001" rx="12.5" ry="12.5" style="stroke:#181818;stroke-width:0.5;" width="194.3852" x="485.6528" y="106.7999"/><text fill="#000000" font-family="sans-serif" font-size="12" lengthAdjust="spacing" textLength="174.3852" x="495.6528" y="127.948">size_t t_inp_CFG_size &lt;- INPUT</text><rect fill="#555555" height="6" rx="2.5" ry="2.5" style="stroke:#555555;stroke-width:1;" width="444.0984" x="249.9396" y="161.2"/><rect fill="#555555" height="6" rx="2.5" ry="2.5" style="stroke:#555555;stroke-width:1;" width="899.9633" x="21" y="187.2"/><rect fill="#F1F1F1" height="34.4001" rx="12.5" ry="12.5" style="stroke:#181818;stroke-width:0.5;" width="153.069" x="33" y="213.2"/><text fill="#000000" font-family="sans-serif" font-size="12" lengthAdjust="spacing" textLength="133.069" x="43" y="234.3481">size_t t_block_count &lt;- 0</text><rect fill="#F1F1F1" height="34.4001" rx="12.5" ry="12.5" style="stroke:#181818;stroke-width:0.5;" width="149.0369" x="198.0833" y="213.2"/><text fill="#000000" font-family="sans-serif" font-size="12" lengthAdjust="spacing" textLength="129.0369" x="208.0833" y="234.3481">Size_tLL varkill &lt;- NULL</text><rect fill="#F1F1F1" height="34.4001" rx="12.5" ry="12.5" style="stroke:#181818;stroke-width:0.5;" width="173.7211" x="375.1202" y="213.2"/><text fill="#000000" font-family="sans-serif" font-size="12" lengthAdjust="spacing" textLength="153.7211" x="385.1202" y="234.3481">bool is_left_in_varkill &lt;- false</text><rect fill="#F1F1F1" height="34.4001" rx="12.5" ry="12.5" style="stroke:#181818;stroke-width:0.5;" width="181.0531" x="576.8413" y="213.2"/><text fill="#000000" font-family="sans-serif" font-size="12" lengthAdjust="spacing" textLength="161.0531" x="586.8413" y="234.3481">bool is_right_in_varkill &lt;- false</text><rect fill="#F1F1F1" height="34.4001" rx="12.5" ry="12.5" style="stroke:#181818;stroke-width:0.5;" width="141.0689" x="767.8944" y="213.2"/><text fill="#000000" font-family="sans-serif" font-size="12" lengthAdjust="spacing" textLength="121.0689" x="777.8944" y="234.3481">Size_tLL t_out = NULL</text><rect fill="#555555" height="6" rx="2.5" ry="2.5" style="stroke:#555555;stroke-width:1;" width="899.9633" x="21" y="267.6001"/><rect fill="#F1F1F1" height="34.4001" rx="12.5" ry="12.5" style="stroke:#181818;stroke-width:0.5;" width="203.3973" x="370.2902" y="337.6001"/><text fill="#000000" font-family="sans-serif" font-size="12" lengthAdjust="spacing" textLength="183.3973" x="380.2902" y="358.7482">calc_SSA_delete_Size_tLL(varkill)</text><rect fill="#F1F1F1" height="48.8002" rx="12.5" ry="12.5" style="stroke:#181818;stroke-width:0.5;" width="301.102" x="321.4378" y="436.0002"/><text fill="#000000" font-family="sans-serif" font-size="12" lengthAdjust="spacing" textLength="281.102" x="331.4378" y="457.1483">is_left_in_varkill &lt;- calc_SSA_Size_tLL_set_member</text><text fill="#000000" font-family="sans-serif" font-size="12" lengthAdjust="spacing" textLength="256.0938" x="331.4378" y="471.5484">(varkill, t_inp_CFG[t_block_count].contents.regl)</text><rect fill="#F1F1F1" height="48.8002" rx="12.5" ry="12.5" style="stroke:#181818;stroke-width:0.5;" width="308.434" x="317.7718" y="504.8004"/><text fill="#000000" font-family="sans-serif" font-size="12" lengthAdjust="spacing" textLength="288.434" x="327.7718" y="525.9485">is_right_in_varkill &lt;- calc_SSA_Size_tLL_set_member</text><text fill="#000000" font-family="sans-serif" font-size="12" lengthAdjust="spacing" textLength="252.7578" x="327.7718" y="540.3486">(varkill, t_inp_ClG[t_block_count].contents.regr)</text><rect fill="#F1F1F1" height="48.8002" rx="12.5" ry="12.5" style="stroke:#181818;stroke-width:0.5;" width="272.1218" x="335.9279" y="624.6004"/><text fill="#000000" font-family="sans-serif" font-size="12" lengthAdjust="spacing" textLength="214.4535" x="345.9279" y="645.7485">t_out &lt;- calc_SSA_append_to_ll_sparse</text><text fill="#000000" font-family="sans-serif" font-size="12" lengthAdjust="spacing" textLength="252.1218" x="345.9279" y="660.1486">(t_out, t_inp_CFG[t_block_count].contents.regl)</text><polygon fill="#F1F1F1" points="352.9092,573.6006,591.0684,573.6006,603.0684,586.8005,591.0684,600.0004,352.9092,600.0004,340.9092,586.8005,352.9092,573.6006" style="stroke:#181818;stroke-width:0.5;"/><text fill="#000000" font-family="sans-serif" font-size="11" lengthAdjust="spacing" textLength="29.9418" x="475.9888" y="610.2194">TRUE</text><text fill="#000000" font-family="sans-serif" font-size="11" lengthAdjust="spacing" textLength="238.1592" x="352.9092" y="583.8196">t_inp_cfg[t_block_count].contents.regl_reg = true</text><text fill="#000000" font-family="sans-serif" font-size="11" lengthAdjust="spacing" textLength="131.1301" x="426.3008" y="597.0195">&amp;&amp; is_left_in_varkill = false</text><polygon fill="#F1F1F1" points="471.9888,693.4006,483.9888,705.4006,471.9888,717.4006,459.9888,705.4006,471.9888,693.4006" style="stroke:#181818;stroke-width:0.5;"/><rect fill="#F1F1F1" height="48.8002" rx="12.5" ry="12.5" style="stroke:#181818;stroke-width:0.5;" width="273.4538" x="335.2619" y="796.7003"/><text fill="#000000" font-family="sans-serif" font-size="12" lengthAdjust="spacing" textLength="214.4535" x="345.2619" y="817.8484">t_out &lt;- calc_SSA_append_to_ll_sparse</text><text fill="#000000" font-family="sans-serif" font-size="12" lengthAdjust="spacing" textLength="253.4538" x="345.2619" y="832.2485">(t_out, t_inp_CFG[t_block_count].contents.regr)</text><polygon fill="#F1F1F1" points="352.2987,745.7005,591.6789,745.7005,603.6789,758.9004,591.6789,772.1003,352.2987,772.1003,340.2987,758.9004,352.2987,745.7005" style="stroke:#181818;stroke-width:0.5;"/><text fill="#000000" font-family="sans-serif" font-size="11" lengthAdjust="spacing" textLength="29.9418" x="475.9888" y="782.3193">TRUE</text><text fill="#000000" font-family="sans-serif" font-size="11" lengthAdjust="spacing" textLength="239.3802" x="352.2987" y="755.9195">t_inp_cfg[t_block_count].contents.regr_reg = true</text><text fill="#000000" font-family="sans-serif" font-size="11" lengthAdjust="spacing" textLength="137.851" x="425.6903" y="769.1194">&amp;&amp; is_right_in_varkill = false</text><polygon fill="#F1F1F1" points="471.9888,865.5005,483.9888,877.5005,471.9888,889.5005,459.9888,877.5005,471.9888,865.5005" style="stroke:#181818;stroke-width:0.5;"/><rect fill="#F1F1F1" height="48.8002" rx="12.5" ry="12.5" style="stroke:#181818;stroke-width:0.5;" width="276.0938" x="333.9419" y="909.5005"/><text fill="#000000" font-family="sans-serif" font-size="12" lengthAdjust="spacing" textLength="218.4255" x="343.9419" y="930.6486">varkill &lt;- calc_SSA_append_to_ll_sparse</text><text fill="#000000" font-family="sans-serif" font-size="12" lengthAdjust="spacing" textLength="256.0938" x="343.9419" y="945.0487">(varkill, t_inp_CFG[t_block_count].contents.regl)</text><rect fill="#F1F1F1" height="34.4001" rx="12.5" ry="12.5" style="stroke:#181818;stroke-width:0.5;" width="341.1583" x="301.4096" y="978.3007"/><text fill="#000000" font-family="sans-serif" font-size="12" lengthAdjust="spacing" textLength="321.1583" x="311.4096" y="999.4488">t_inp_CFG[t_block_count] &lt;- t_inp_CFG[t_block_count].next</text><polygon fill="#F1F1F1" points="374.623,392.0002,569.3546,392.0002,581.3546,404.0002,569.3546,416.0002,374.623,416.0002,362.623,404.0002,374.623,392.0002" style="stroke:#181818;stroke-width:0.5;"/><text fill="#000000" font-family="sans-serif" font-size="11" lengthAdjust="spacing" textLength="194.7316" x="374.623" y="407.6192">t_inp_CFG[t_block_count].next != NULL</text><rect fill="#F1F1F1" height="34.4001" rx="12.5" ry="12.5" style="stroke:#181818;stroke-width:0.5;" width="206.1093" x="368.9341" y="1054.7008"/><text fill="#000000" font-family="sans-serif" font-size="12" lengthAdjust="spacing" textLength="186.1093" x="378.9341" y="1075.8489">t_block_count &lt;- t_block_count + 1</text><polygon fill="#F1F1F1" points="392.3549,293.6001,551.6227,293.6001,563.6227,305.6001,551.6227,317.6001,392.3549,317.6001,380.3549,305.6001,392.3549,293.6001" style="stroke:#181818;stroke-width:0.5;"/><text fill="#000000" font-family="sans-serif" font-size="11" lengthAdjust="spacing" textLength="159.2678" x="392.3549" y="309.2191">t_block_count &lt; t_inp_CFG_size</text><rect fill="#F1F1F1" height="34.4001" rx="12.5" ry="12.5" style="stroke:#181818;stroke-width:0.5;" width="99.3566" x="422.3105" y="1131.1009"/><text fill="#000000" font-family="sans-serif" font-size="12" lengthAdjust="spacing" textLength="79.3566" x="432.3105" y="1152.249">OUTPUT t_out</text><ellipse cx="471.9888" cy="1196.501" fill="none" rx="11" ry="11" style="stroke:#222222;stroke-width:1;"/><ellipse cx="471.9888" cy="1196.501" fill="#222222" rx="6" ry="6" style="stroke:#222222;stroke-width:1;"/><line style="stroke:#181818;stroke-width:1;" x1="360.7962" x2="360.7962" y1="86.7999" y2="106.7999"/><polygon fill="#181818" points="356.7962,96.7999,360.7962,106.7999,364.7962,96.7999,360.7962,100.7999" style="stroke:#181818;stroke-width:1;"/><line style="stroke:#181818;stroke-width:1;" x1="582.8454" x2="582.8454" y1="86.7999" y2="106.7999"/><polygon fill="#181818" points="578.8454,96.7999,582.8454,106.7999,586.8454,96.7999,582.8454,100.7999" style="stroke:#181818;stroke-width:1;"/><line style="stroke:#181818;stroke-width:1;" x1="360.7962" x2="360.7962" y1="141.2" y2="161.2"/><polygon fill="#181818" points="356.7962,151.2,360.7962,161.2,364.7962,151.2,360.7962,155.2" style="stroke:#181818;stroke-width:1;"/><line style="stroke:#181818;stroke-width:1;" x1="582.8454" x2="582.8454" y1="141.2" y2="161.2"/><polygon fill="#181818" points="578.8454,151.2,582.8454,161.2,586.8454,151.2,582.8454,155.2" style="stroke:#181818;stroke-width:1;"/><line style="stroke:#181818;stroke-width:1;" x1="471.9888" x2="471.9888" y1="60.7999" y2="80.7999"/><polygon fill="#181818" points="467.9888,70.7999,471.9888,80.7999,475.9888,70.7999,471.9888,74.7999" style="stroke:#181818;stroke-width:1;"/><line style="stroke:#181818;stroke-width:1;" x1="109.5345" x2="109.5345" y1="193.2" y2="213.2"/><polygon fill="#181818" points="105.5345,203.2,109.5345,213.2,113.5345,203.2,109.5345,207.2" style="stroke:#181818;stroke-width:1;"/><line style="stroke:#181818;stroke-width:1;" x1="272.6017" x2="272.6017" y1="193.2" y2="213.2"/><polygon fill="#181818" points="268.6017,203.2,272.6017,213.2,276.6017,203.2,272.6017,207.2" style="stroke:#181818;stroke-width:1;"/><line style="stroke:#181818;stroke-width:1;" x1="461.9807" x2="461.9807" y1="193.2" y2="213.2"/><polygon fill="#181818" points="457.9807,203.2,461.9807,213.2,465.9807,203.2,461.9807,207.2" style="stroke:#181818;stroke-width:1;"/><line style="stroke:#181818;stroke-width:1;" x1="667.3678" x2="667.3678" y1="193.2" y2="213.2"/><polygon fill="#181818" points="663.3678,203.2,667.3678,213.2,671.3678,203.2,667.3678,207.2" style="stroke:#181818;stroke-width:1;"/><line style="stroke:#181818;stroke-width:1;" x1="838.4288" x2="838.4288" y1="193.2" y2="213.2"/><polygon fill="#181818" points="834.4288,203.2,838.4288,213.2,842.4288,203.2,838.4288,207.2" style="stroke:#181818;stroke-width:1;"/><line style="stroke:#181818;stroke-width:1;" x1="109.5345" x2="109.5345" y1="247.6001" y2="267.6001"/><polygon fill="#181818" points="105.5345,257.6001,109.5345,267.6001,113.5345,257.6001,109.5345,261.6001" style="stroke:#181818;stroke-width:1;"/><line style="stroke:#181818;stroke-width:1;" x1="272.6017" x2="272.6017" y1="247.6001" y2="267.6001"/><polygon fill="#181818" points="268.6017,257.6001,272.6017,267.6001,276.6017,257.6001,272.6017,261.6001" style="stroke:#181818;stroke-width:1;"/><line style="stroke:#181818;stroke-width:1;" x1="461.9807" x2="461.9807" y1="247.6001" y2="267.6001"/><polygon fill="#181818" points="457.9807,257.6001,461.9807,267.6001,465.9807,257.6001,461.9807,261.6001" style="stroke:#181818;stroke-width:1;"/><line style="stroke:#181818;stroke-width:1;" x1="667.3678" x2="667.3678" y1="247.6001" y2="267.6001"/><polygon fill="#181818" points="663.3678,257.6001,667.3678,267.6001,671.3678,257.6001,667.3678,261.6001" style="stroke:#181818;stroke-width:1;"/><line style="stroke:#181818;stroke-width:1;" x1="838.4288" x2="838.4288" y1="247.6001" y2="267.6001"/><polygon fill="#181818" points="834.4288,257.6001,838.4288,267.6001,842.4288,257.6001,838.4288,261.6001" style="stroke:#181818;stroke-width:1;"/><line style="stroke:#181818;stroke-width:1;" x1="471.9888" x2="471.9888" y1="167.2" y2="187.2"/><polygon fill="#181818" points="467.9888,177.2,471.9888,187.2,475.9888,177.2,471.9888,181.2" style="stroke:#181818;stroke-width:1;"/><line style="stroke:#181818;stroke-width:1;" x1="471.9888" x2="471.9888" y1="484.8004" y2="504.8004"/><polygon fill="#181818" points="467.9888,494.8004,471.9888,504.8004,475.9888,494.8004,471.9888,498.8004" style="stroke:#181818;stroke-width:1;"/><line style="stroke:#181818;stroke-width:1;" x1="471.9888" x2="471.9888" y1="600.0004" y2="624.6004"/><polygon fill="#181818" points="467.9888,614.6004,471.9888,624.6004,475.9888,614.6004,471.9888,618.6004" style="stroke:#181818;stroke-width:1;"/><line style="stroke:#181818;stroke-width:1;" x1="603.0684" x2="618.0497" y1="586.8005" y2="586.8005"/><polygon fill="#181818" points="614.0497,638.4005,618.0497,648.4005,622.0497,638.4005,618.0497,642.4005" style="stroke:#181818;stroke-width:1;"/><line style="stroke:#181818;stroke-width:1;" x1="618.0497" x2="618.0497" y1="586.8005" y2="705.4006"/><line style="stroke:#181818;stroke-width:1;" x1="618.0497" x2="483.9888" y1="705.4006" y2="705.4006"/><polygon fill="#181818" points="493.9888,701.4006,483.9888,705.4006,493.9888,709.4006,489.9888,705.4006" style="stroke:#181818;stroke-width:1;"/><line style="stroke:#181818;stroke-width:1;" x1="471.9888" x2="471.9888" y1="673.4006" y2="693.4006"/><polygon fill="#181818" points="467.9888,683.4006,471.9888,693.4006,475.9888,683.4006,471.9888,687.4006" style="stroke:#181818;stroke-width:1;"/><line style="stroke:#181818;stroke-width:1;" x1="471.9888" x2="471.9888" y1="553.6006" y2="573.6006"/><polygon fill="#181818" points="467.9888,563.6006,471.9888,573.6006,475.9888,563.6006,471.9888,567.6006" style="stroke:#181818;stroke-width:1;"/><line style="stroke:#181818;stroke-width:1;" x1="471.9888" x2="471.9888" y1="772.1003" y2="796.7003"/><polygon fill="#181818" points="467.9888,786.7003,471.9888,796.7003,475.9888,786.7003,471.9888,790.7003" style="stroke:#181818;stroke-width:1;"/><line style="stroke:#181818;stroke-width:1;" x1="603.6789" x2="618.7157" y1="758.9004" y2="758.9004"/><polygon fill="#181818" points="614.7157,810.5004,618.7157,820.5004,622.7157,810.5004,618.7157,814.5004" style="stroke:#181818;stroke-width:1;"/><line style="stroke:#181818;stroke-width:1;" x1="618.7157" x2="618.7157" y1="758.9004" y2="877.5005"/><line style="stroke:#181818;stroke-width:1;" x1="618.7157" x2="483.9888" y1="877.5005" y2="877.5005"/><polygon fill="#181818" points="493.9888,873.5005,483.9888,877.5005,493.9888,881.5005,489.9888,877.5005" style="stroke:#181818;stroke-width:1;"/><line style="stroke:#181818;stroke-width:1;" x1="471.9888" x2="471.9888" y1="845.5005" y2="865.5005"/><polygon fill="#181818" points="467.9888,855.5005,471.9888,865.5005,475.9888,855.5005,471.9888,859.5005" style="stroke:#181818;stroke-width:1;"/><line style="stroke:#181818;stroke-width:1;" x1="471.9888" x2="471.9888" y1="717.4006" y2="745.7005"/><polygon fill="#181818" points="467.9888,735.7005,471.9888,745.7005,475.9888,735.7005,471.9888,739.7005" style="stroke:#181818;stroke-width:1;"/><line style="stroke:#181818;stroke-width:1;" x1="471.9888" x2="471.9888" y1="889.5005" y2="909.5005"/><polygon fill="#181818" points="467.9888,899.5005,471.9888,909.5005,475.9888,899.5005,471.9888,903.5005" style="stroke:#181818;stroke-width:1;"/><line style="stroke:#181818;stroke-width:1;" x1="471.9888" x2="471.9888" y1="958.3007" y2="978.3007"/><polygon fill="#181818" points="467.9888,968.3007,471.9888,978.3007,475.9888,968.3007,471.9888,972.3007" style="stroke:#181818;stroke-width:1;"/><line style="stroke:#181818;stroke-width:1;" x1="471.9888" x2="471.9888" y1="416.0002" y2="436.0002"/><polygon fill="#181818" points="467.9888,426.0002,471.9888,436.0002,475.9888,426.0002,471.9888,430.0002" style="stroke:#181818;stroke-width:1;"/><line style="stroke:#181818;stroke-width:1;" x1="471.9888" x2="471.9888" y1="1012.7008" y2="1022.7008"/><line style="stroke:#181818;stroke-width:1;" x1="471.9888" x2="654.5679" y1="1022.7008" y2="1022.7008"/><polygon fill="#181818" points="650.5679,725.7005,654.5679,715.7005,658.5679,725.7005,654.5679,721.7005" style="stroke:#181818;stroke-width:1;"/><line style="stroke:#181818;stroke-width:1;" x1="654.5679" x2="654.5679" y1="404.0002" y2="1022.7008"/><line style="stroke:#181818;stroke-width:1;" x1="654.5679" x2="581.3546" y1="404.0002" y2="404.0002"/><polygon fill="#181818" points="591.3546,400.0002,581.3546,404.0002,591.3546,408.0002,587.3546,404.0002" style="stroke:#181818;stroke-width:1;"/><line style="stroke:#181818;stroke-width:1;" x1="362.623" x2="289.4096" y1="404.0002" y2="404.0002"/><polygon fill="#181818" points="285.4096,711.7005,289.4096,721.7005,293.4096,711.7005,289.4096,715.7005" style="stroke:#181818;stroke-width:1;"/><line style="stroke:#181818;stroke-width:1;" x1="289.4096" x2="289.4096" y1="404.0002" y2="1034.7008"/><line style="stroke:#181818;stroke-width:1;" x1="289.4096" x2="471.9888" y1="1034.7008" y2="1034.7008"/><line style="stroke:#181818;stroke-width:1;" x1="471.9888" x2="471.9888" y1="1034.7008" y2="1054.7008"/><polygon fill="#181818" points="467.9888,1044.7008,471.9888,1054.7008,475.9888,1044.7008,471.9888,1048.7008" style="stroke:#181818;stroke-width:1;"/><line style="stroke:#181818;stroke-width:1;" x1="471.9888" x2="471.9888" y1="372.0002" y2="392.0002"/><polygon fill="#181818" points="467.9888,382.0002,471.9888,392.0002,475.9888,382.0002,471.9888,386.0002" style="stroke:#181818;stroke-width:1;"/><line style="stroke:#181818;stroke-width:1;" x1="471.9888" x2="471.9888" y1="317.6001" y2="337.6001"/><polygon fill="#181818" points="467.9888,327.6001,471.9888,337.6001,475.9888,327.6001,471.9888,331.6001" style="stroke:#181818;stroke-width:1;"/><line style="stroke:#181818;stroke-width:1;" x1="471.9888" x2="471.9888" y1="1089.1009" y2="1099.1009"/><line style="stroke:#181818;stroke-width:1;" x1="471.9888" x2="666.5679" y1="1099.1009" y2="1099.1009"/><polygon fill="#181818" points="662.5679,713.7005,666.5679,703.7005,670.5679,713.7005,666.5679,709.7005" style="stroke:#181818;stroke-width:1;"/><line style="stroke:#181818;stroke-width:1;" x1="666.5679" x2="666.5679" y1="305.6001" y2="1099.1009"/><line style="stroke:#181818;stroke-width:1;" x1="666.5679" x2="563.6227" y1="305.6001" y2="305.6001"/><polygon fill="#181818" points="573.6227,301.6001,563.6227,305.6001,573.6227,309.6001,569.6227,305.6001" style="stroke:#181818;stroke-width:1;"/><line style="stroke:#181818;stroke-width:1;" x1="380.3549" x2="265.4096" y1="305.6001" y2="305.6001"/><polygon fill="#181818" points="261.4096,699.7005,265.4096,709.7005,269.4096,699.7005,265.4096,703.7005" style="stroke:#181818;stroke-width:1;"/><line style="stroke:#181818;stroke-width:1;" x1="265.4096" x2="265.4096" y1="305.6001" y2="1111.1009"/><line style="stroke:#181818;stroke-width:1;" x1="265.4096" x2="471.9888" y1="1111.1009" y2="1111.1009"/><line style="stroke:#181818;stroke-width:1;" x1="471.9888" x2="471.9888" y1="1111.1009" y2="1131.1009"/><polygon fill="#181818" points="467.9888,1121.1009,471.9888,1131.1009,475.9888,1121.1009,471.9888,1125.1009" style="stroke:#181818;stroke-width:1;"/><line style="stroke:#181818;stroke-width:1;" x1="471.9888" x2="471.9888" y1="273.6001" y2="293.6001"/><polygon fill="#181818" points="467.9888,283.6001,471.9888,293.6001,475.9888,283.6001,471.9888,287.6001" style="stroke:#181818;stroke-width:1;"/><line style="stroke:#181818;stroke-width:1;" x1="471.9888" x2="471.9888" y1="1165.501" y2="1185.501"/><polygon fill="#181818" points="467.9888,1175.501,471.9888,1185.501,475.9888,1175.501,471.9888,1179.501" style="stroke:#181818;stroke-width:1;"/><!--SRC=[lLJBIyCm63-tVqMyZCqNUktSGKH5A5FSUXBvIBklNLYMb3HJKVpVJTgrs_eOpeENGiFlzJsIb2hDD9E2H9H7C9bSGy9bI3a8kaJ8K9ClrycqWRbEBDN2THplvkv-B6T8ZZKmaOBv9LTdv67y54o71OhGX39XiHdxHD2aGe8zQC1Hp3Ro5INaCbf095T2MyP5GtoI8tsVl56rO9nRr3Zm_GOmb98JbW77s2Q1BNnCUOQT1CMI-UyOLHODSgN9Q2T8Nj_xd74a_LfTjTOCh5OrYnbor0YbTd-TOc1qDt9h-ikEyEkvm0zDZeeSLjNnsXjGcPKkTkgmn6M8oj9AqrFIQHL9eL7ex5nXKeJBpTgQTx0Rt-kc2ZSMbus8ucHlEZ0VCnojLcY9lLxRMeoA6G-8dgCW_UbpS9jtqF6AuMxNGTFKJ1Uq1CuXIwdASc6ddqCFQveHOl51zQZMUXgD__U2LAqWhsq5Efp-k71TO6kvzv9OkicHtoSt5wezFBi79-JIC3O4xp6OcgUikFT3-rZArFt-0G00]--></g></svg>