<svg xmlns="http://www.w3.org/2000/svg" xmlns:xlink="http://www.w3.org/1999/xlink" contentStyleType="text/css" data-diagram-type="ACTIVITY" height="954px" preserveAspectRatio="none" style="width:499px;height:954px;background:#FFFFFF;" version="1.1" viewBox="0 0 499 954" width="499px" zoomAndPan="magnify"><defs/><g><rect fill="none" height="932.4005" style="stroke:#000000;stroke-width:1.5;" width="477.4626" x="11" y="11"/><path d="M175.0974,11 L175.0974,20.7999 L165.0974,30.7999 L11,30.7999" fill="none" style="stroke:#000000;stroke-width:1.5;"/><text fill="#000000" font-family="sans-serif" font-size="14" lengthAdjust="spacing" textLength="154.0974" x="14" y="25.0059">calc_SSA_append_to_df</text><ellipse cx="249.7313" cy="50.7999" fill="#222222" rx="10" ry="10" style="stroke:#222222;stroke-width:1;"/><rect fill="#555555" height="6" rx="2.5" ry="2.5" style="stroke:#555555;stroke-width:1;" width="457.4626" x="21" y="80.7999"/><rect fill="#F1F1F1" height="34.4001" rx="12.5" ry="12.5" style="stroke:#181818;stroke-width:0.5;" width="183.7292" x="33" y="106.7999"/><text fill="#000000" font-family="sans-serif" font-size="12" lengthAdjust="spacing" textLength="163.7292" x="43" y="127.948">size_t t_inp_element &lt;- INPUT</text><rect fill="#F1F1F1" height="34.4001" rx="12.5" ry="12.5" style="stroke:#181818;stroke-width:0.5;" width="221.7334" x="244.7292" y="106.7999"/><text fill="#000000" font-family="sans-serif" font-size="12" lengthAdjust="spacing" textLength="201.7334" x="254.7292" y="127.948">DominanceFrontier t_inp_df &lt;- INPUT</text><rect fill="#555555" height="6" rx="2.5" ry="2.5" style="stroke:#555555;stroke-width:1;" width="457.4626" x="21" y="161.2"/><rect fill="#555555" height="6" rx="2.5" ry="2.5" style="stroke:#555555;stroke-width:1;" width="428.1623" x="35.6501" y="187.2"/><rect fill="#F1F1F1" height="34.4001" rx="12.5" ry="12.5" style="stroke:#181818;stroke-width:0.5;" width="235.1015" x="49.6501" y="213.2"/><text fill="#000000" font-family="sans-serif" font-size="12" lengthAdjust="spacing" textLength="215.1015" x="59.6501" y="234.3481">DominanceFrontier *t_head &lt;- &amp;t_inp_df</text><rect fill="#F1F1F1" height="34.4001" rx="12.5" ry="12.5" style="stroke:#181818;stroke-width:0.5;" width="137.0608" x="312.7516" y="213.2"/><text fill="#000000" font-family="sans-serif" font-size="12" lengthAdjust="spacing" textLength="117.0608" x="322.7516" y="234.3481">bool duplicate &lt;- false</text><rect fill="#555555" height="6" rx="2.5" ry="2.5" style="stroke:#555555;stroke-width:1;" width="428.1623" x="35.6501" y="267.6001"/><rect fill="#F1F1F1" height="34.4001" rx="12.5" ry="12.5" style="stroke:#181818;stroke-width:0.5;" width="106.3766" x="196.543" y="342.2001"/><text fill="#000000" font-family="sans-serif" font-size="12" lengthAdjust="spacing" textLength="86.3766" x="206.543" y="363.3482">duplicate &lt;- true</text><polygon fill="#F1F1F1" points="167.0284,293.6001,332.4342,293.6001,344.4342,305.6001,332.4342,317.6001,167.0284,317.6001,155.0284,305.6001,167.0284,293.6001" style="stroke:#181818;stroke-width:0.5;"/><text fill="#000000" font-family="sans-serif" font-size="11" lengthAdjust="spacing" textLength="29.9418" x="253.7313" y="327.8191">TRUE</text><text fill="#000000" font-family="sans-serif" font-size="11" lengthAdjust="spacing" textLength="165.4058" x="167.0284" y="309.2191">t_inp_df.contents = t_inp_element</text><polygon fill="#F1F1F1" points="249.7313,396.6002,261.7313,408.6002,249.7313,420.6002,237.7313,408.6002,249.7313,396.6002" style="stroke:#181818;stroke-width:0.5;"/><rect fill="#F1F1F1" height="34.4001" rx="12.5" ry="12.5" style="stroke:#181818;stroke-width:0.5;" width="149.0849" x="175.1888" y="484.6002"/><text fill="#000000" font-family="sans-serif" font-size="12" lengthAdjust="spacing" textLength="129.0849" x="185.1888" y="505.7483">t_inp_df &lt;- t_inp_df.next</text><rect fill="#F1F1F1" height="34.4001" rx="12.5" ry="12.5" style="stroke:#181818;stroke-width:0.5;" width="106.3766" x="196.543" y="587.6002"/><text fill="#000000" font-family="sans-serif" font-size="12" lengthAdjust="spacing" textLength="86.3766" x="206.543" y="608.7483">duplicate &lt;- true</text><polygon fill="#F1F1F1" points="167.0284,539.0003,332.4342,539.0003,344.4342,551.0003,332.4342,563.0003,167.0284,563.0003,155.0284,551.0003,167.0284,539.0003" style="stroke:#181818;stroke-width:0.5;"/><text fill="#000000" font-family="sans-serif" font-size="11" lengthAdjust="spacing" textLength="29.9418" x="253.7313" y="573.2192">TRUE</text><text fill="#000000" font-family="sans-serif" font-size="11" lengthAdjust="spacing" textLength="165.4058" x="167.0284" y="554.6193">t_inp_df.contents = t_inp_element</text><polygon fill="#F1F1F1" points="249.7313,642.0003,261.7313,654.0003,249.7313,666.0003,237.7313,654.0003,249.7313,642.0003" style="stroke:#181818;stroke-width:0.5;"/><polygon fill="#F1F1F1" points="196.3817,440.6002,303.0809,440.6002,315.0809,452.6002,303.0809,464.6002,196.3817,464.6002,184.3817,452.6002,196.3817,440.6002" style="stroke:#181818;stroke-width:0.5;"/><text fill="#000000" font-family="sans-serif" font-size="11" lengthAdjust="spacing" textLength="106.6992" x="196.3817" y="456.2192">t_inp_df.next != NULL</text><rect fill="#F1F1F1" height="34.4001" rx="12.5" ry="12.5" style="stroke:#181818;stroke-width:0.5;" width="181.7611" x="158.8507" y="756.6003"/><text fill="#000000" font-family="sans-serif" font-size="12" lengthAdjust="spacing" textLength="161.7611" x="168.8507" y="777.7484">t_inp_df.next &lt;- t_inp_element</text><polygon fill="#F1F1F1" points="209.8346,708.0003,289.628,708.0003,301.628,720.0003,289.628,732.0003,209.8346,732.0003,197.8346,720.0003,209.8346,708.0003" style="stroke:#181818;stroke-width:0.5;"/><text fill="#000000" font-family="sans-serif" font-size="11" lengthAdjust="spacing" textLength="29.9418" x="253.7313" y="742.2193">TRUE</text><text fill="#000000" font-family="sans-serif" font-size="11" lengthAdjust="spacing" textLength="79.7934" x="209.8346" y="723.6193">duplicate = false</text><polygon fill="#F1F1F1" points="249.7313,811.0004,261.7313,823.0004,249.7313,835.0004,237.7313,823.0004,249.7313,811.0004" style="stroke:#181818;stroke-width:0.5;"/><rect fill="#F1F1F1" height="34.4001" rx="12.5" ry="12.5" style="stroke:#181818;stroke-width:0.5;" width="109.3646" x="195.049" y="855.0004"/><text fill="#000000" font-family="sans-serif" font-size="12" lengthAdjust="spacing" textLength="89.3646" x="205.049" y="876.1485">OUTPUT t_head</text><ellipse cx="249.7313" cy="920.4005" fill="none" rx="11" ry="11" style="stroke:#222222;stroke-width:1;"/><ellipse cx="249.7313" cy="920.4005" fill="#222222" rx="6" ry="6" style="stroke:#222222;stroke-width:1;"/><line style="stroke:#181818;stroke-width:1;" x1="124.8646" x2="124.8646" y1="86.7999" y2="106.7999"/><polygon fill="#181818" points="120.8646,96.7999,124.8646,106.7999,128.8646,96.7999,124.8646,100.7999" style="stroke:#181818;stroke-width:1;"/><line style="stroke:#181818;stroke-width:1;" x1="355.5959" x2="355.5959" y1="86.7999" y2="106.7999"/><polygon fill="#181818" points="351.5959,96.7999,355.5959,106.7999,359.5959,96.7999,355.5959,100.7999" style="stroke:#181818;stroke-width:1;"/><line style="stroke:#181818;stroke-width:1;" x1="124.8646" x2="124.8646" y1="141.2" y2="161.2"/><polygon fill="#181818" points="120.8646,151.2,124.8646,161.2,128.8646,151.2,124.8646,155.2" style="stroke:#181818;stroke-width:1;"/><line style="stroke:#181818;stroke-width:1;" x1="355.5959" x2="355.5959" y1="141.2" y2="161.2"/><polygon fill="#181818" points="351.5959,151.2,355.5959,161.2,359.5959,151.2,355.5959,155.2" style="stroke:#181818;stroke-width:1;"/><line style="stroke:#181818;stroke-width:1;" x1="249.7313" x2="249.7313" y1="60.7999" y2="80.7999"/><polygon fill="#181818" points="245.7313,70.7999,249.7313,80.7999,253.7313,70.7999,249.7313,74.7999" style="stroke:#181818;stroke-width:1;"/><line style="stroke:#181818;stroke-width:1;" x1="167.2009" x2="167.2009" y1="193.2" y2="213.2"/><polygon fill="#181818" points="163.2009,203.2,167.2009,213.2,171.2009,203.2,167.2009,207.2" style="stroke:#181818;stroke-width:1;"/><line style="stroke:#181818;stroke-width:1;" x1="381.282" x2="381.282" y1="193.2" y2="213.2"/><polygon fill="#181818" points="377.282,203.2,381.282,213.2,385.282,203.2,381.282,207.2" style="stroke:#181818;stroke-width:1;"/><line style="stroke:#181818;stroke-width:1;" x1="167.2009" x2="167.2009" y1="247.6001" y2="267.6001"/><polygon fill="#181818" points="163.2009,257.6001,167.2009,267.6001,171.2009,257.6001,167.2009,261.6001" style="stroke:#181818;stroke-width:1;"/><line style="stroke:#181818;stroke-width:1;" x1="381.282" x2="381.282" y1="247.6001" y2="267.6001"/><polygon fill="#181818" points="377.282,257.6001,381.282,267.6001,385.282,257.6001,381.282,261.6001" style="stroke:#181818;stroke-width:1;"/><line style="stroke:#181818;stroke-width:1;" x1="249.7313" x2="249.7313" y1="167.2" y2="187.2"/><polygon fill="#181818" points="245.7313,177.2,249.7313,187.2,253.7313,177.2,249.7313,181.2" style="stroke:#181818;stroke-width:1;"/><line style="stroke:#181818;stroke-width:1;" x1="249.7313" x2="249.7313" y1="317.6001" y2="342.2001"/><polygon fill="#181818" points="245.7313,332.2001,249.7313,342.2001,253.7313,332.2001,249.7313,336.2001" style="stroke:#181818;stroke-width:1;"/><line style="stroke:#181818;stroke-width:1;" x1="344.4342" x2="356.4342" y1="305.6001" y2="305.6001"/><polygon fill="#181818" points="352.4342,349.4001,356.4342,359.4001,360.4342,349.4001,356.4342,353.4001" style="stroke:#181818;stroke-width:1;"/><line style="stroke:#181818;stroke-width:1;" x1="356.4342" x2="356.4342" y1="305.6001" y2="408.6002"/><line style="stroke:#181818;stroke-width:1;" x1="356.4342" x2="261.7313" y1="408.6002" y2="408.6002"/><polygon fill="#181818" points="271.7313,404.6002,261.7313,408.6002,271.7313,412.6002,267.7313,408.6002" style="stroke:#181818;stroke-width:1;"/><line style="stroke:#181818;stroke-width:1;" x1="249.7313" x2="249.7313" y1="376.6002" y2="396.6002"/><polygon fill="#181818" points="245.7313,386.6002,249.7313,396.6002,253.7313,386.6002,249.7313,390.6002" style="stroke:#181818;stroke-width:1;"/><line style="stroke:#181818;stroke-width:1;" x1="249.7313" x2="249.7313" y1="273.6001" y2="293.6001"/><polygon fill="#181818" points="245.7313,283.6001,249.7313,293.6001,253.7313,283.6001,249.7313,287.6001" style="stroke:#181818;stroke-width:1;"/><line style="stroke:#181818;stroke-width:1;" x1="249.7313" x2="249.7313" y1="563.0003" y2="587.6002"/><polygon fill="#181818" points="245.7313,577.6002,249.7313,587.6002,253.7313,577.6002,249.7313,581.6002" style="stroke:#181818;stroke-width:1;"/><line style="stroke:#181818;stroke-width:1;" x1="344.4342" x2="356.4342" y1="551.0003" y2="551.0003"/><polygon fill="#181818" points="352.4342,594.8003,356.4342,604.8003,360.4342,594.8003,356.4342,598.8003" style="stroke:#181818;stroke-width:1;"/><line style="stroke:#181818;stroke-width:1;" x1="356.4342" x2="356.4342" y1="551.0003" y2="654.0003"/><line style="stroke:#181818;stroke-width:1;" x1="356.4342" x2="261.7313" y1="654.0003" y2="654.0003"/><polygon fill="#181818" points="271.7313,650.0003,261.7313,654.0003,271.7313,658.0003,267.7313,654.0003" style="stroke:#181818;stroke-width:1;"/><line style="stroke:#181818;stroke-width:1;" x1="249.7313" x2="249.7313" y1="622.0003" y2="642.0003"/><polygon fill="#181818" points="245.7313,632.0003,249.7313,642.0003,253.7313,632.0003,249.7313,636.0003" style="stroke:#181818;stroke-width:1;"/><line style="stroke:#181818;stroke-width:1;" x1="249.7313" x2="249.7313" y1="519.0003" y2="539.0003"/><polygon fill="#181818" points="245.7313,529.0003,249.7313,539.0003,253.7313,529.0003,249.7313,533.0003" style="stroke:#181818;stroke-width:1;"/><line style="stroke:#181818;stroke-width:1;" x1="249.7313" x2="249.7313" y1="464.6002" y2="484.6002"/><polygon fill="#181818" points="245.7313,474.6002,249.7313,484.6002,253.7313,474.6002,249.7313,478.6002" style="stroke:#181818;stroke-width:1;"/><line style="stroke:#181818;stroke-width:1;" x1="249.7313" x2="249.7313" y1="666.0003" y2="676.0003"/><line style="stroke:#181818;stroke-width:1;" x1="249.7313" x2="368.4342" y1="676.0003" y2="676.0003"/><polygon fill="#181818" points="364.4342,568.1002,368.4342,558.1002,372.4342,568.1002,368.4342,564.1002" style="stroke:#181818;stroke-width:1;"/><line style="stroke:#181818;stroke-width:1;" x1="368.4342" x2="368.4342" y1="452.6002" y2="676.0003"/><line style="stroke:#181818;stroke-width:1;" x1="368.4342" x2="315.0809" y1="452.6002" y2="452.6002"/><polygon fill="#181818" points="325.0809,448.6002,315.0809,452.6002,325.0809,456.6002,321.0809,452.6002" style="stroke:#181818;stroke-width:1;"/><line style="stroke:#181818;stroke-width:1;" x1="184.3817" x2="143.0284" y1="452.6002" y2="452.6002"/><polygon fill="#181818" points="139.0284,554.1002,143.0284,564.1002,147.0284,554.1002,143.0284,558.1002" style="stroke:#181818;stroke-width:1;"/><line style="stroke:#181818;stroke-width:1;" x1="143.0284" x2="143.0284" y1="452.6002" y2="688.0003"/><line style="stroke:#181818;stroke-width:1;" x1="143.0284" x2="249.7313" y1="688.0003" y2="688.0003"/><line style="stroke:#181818;stroke-width:1;" x1="249.7313" x2="249.7313" y1="688.0003" y2="708.0003"/><polygon fill="#181818" points="245.7313,698.0003,249.7313,708.0003,253.7313,698.0003,249.7313,702.0003" style="stroke:#181818;stroke-width:1;"/><line style="stroke:#181818;stroke-width:1;" x1="249.7313" x2="249.7313" y1="420.6002" y2="440.6002"/><polygon fill="#181818" points="245.7313,430.6002,249.7313,440.6002,253.7313,430.6002,249.7313,434.6002" style="stroke:#181818;stroke-width:1;"/><line style="stroke:#181818;stroke-width:1;" x1="249.7313" x2="249.7313" y1="732.0003" y2="756.6003"/><polygon fill="#181818" points="245.7313,746.6003,249.7313,756.6003,253.7313,746.6003,249.7313,750.6003" style="stroke:#181818;stroke-width:1;"/><line style="stroke:#181818;stroke-width:1;" x1="301.628" x2="350.6118" y1="720.0003" y2="720.0003"/><polygon fill="#181818" points="346.6118,763.8003,350.6118,773.8003,354.6118,763.8003,350.6118,767.8003" style="stroke:#181818;stroke-width:1;"/><line style="stroke:#181818;stroke-width:1;" x1="350.6118" x2="350.6118" y1="720.0003" y2="823.0004"/><line style="stroke:#181818;stroke-width:1;" x1="350.6118" x2="261.7313" y1="823.0004" y2="823.0004"/><polygon fill="#181818" points="271.7313,819.0004,261.7313,823.0004,271.7313,827.0004,267.7313,823.0004" style="stroke:#181818;stroke-width:1;"/><line style="stroke:#181818;stroke-width:1;" x1="249.7313" x2="249.7313" y1="791.0004" y2="811.0004"/><polygon fill="#181818" points="245.7313,801.0004,249.7313,811.0004,253.7313,801.0004,249.7313,805.0004" style="stroke:#181818;stroke-width:1;"/><line style="stroke:#181818;stroke-width:1;" x1="249.7313" x2="249.7313" y1="835.0004" y2="855.0004"/><polygon fill="#181818" points="245.7313,845.0004,249.7313,855.0004,253.7313,845.0004,249.7313,849.0004" style="stroke:#181818;stroke-width:1;"/><line style="stroke:#181818;stroke-width:1;" x1="249.7313" x2="249.7313" y1="889.4005" y2="909.4005"/><polygon fill="#181818" points="245.7313,899.4005,249.7313,909.4005,253.7313,899.4005,249.7313,903.4005" style="stroke:#181818;stroke-width:1;"/><!--SRC=[fLAzJiCm4Dxx5CU2MgJo00qPa009gIg89hDbaZCvrRMjv2eGY7V7ILqd4IaBdcwuxzVdPCt4P0qKKXTYkxqLqZaqfM0hIWLVC_2lOR_MJShMksvetwgXJnGCBCWuWHhtQ1Xkbl2uUSwp9090laaoFUpExib8K-13RGqJre71wqs0lPa9wTySLomgb6LBSNdYE-_XrLeDvS5fAYHZ2r9IDpYXImhc9xxhmelva0sauzGBu0eDpBEN_7xHgum4k3u4VazDgflUAz8uu3VumN2HmYPVhmSymtv6kqdS-OVDlwoExVgfSnoBwL7fiS0pHOm3nXJ1Lcm5WixgAS_y5S3nIvDmXDRDldy0]--></g></svg>