<svg xmlns="http://www.w3.org/2000/svg" xmlns:xlink="http://www.w3.org/1999/xlink" contentStyleType="text/css" data-diagram-type="ACTIVITY" height="565px" preserveAspectRatio="none" style="width:335px;height:565px;background:#FFFFFF;" version="1.1" viewBox="0 0 335 565" width="335px" zoomAndPan="magnify"><defs/><g><rect fill="none" height="543.4003" style="stroke:#000000;stroke-width:1.5;" width="313.3855" x="11" y="11"/><path d="M117.4596,11 L117.4596,20.7999 L107.4596,30.7999 L11,30.7999" fill="none" style="stroke:#000000;stroke-width:1.5;"/><text fill="#000000" font-family="sans-serif" font-size="14" lengthAdjust="spacing" textLength="96.4596" x="14" y="25.0059">calc_CFG_instr</text><ellipse cx="167.6927" cy="50.7999" fill="#222222" rx="10" ry="10" style="stroke:#222222;stroke-width:1;"/><rect fill="#555555" height="6" rx="2.5" ry="2.5" style="stroke:#555555;stroke-width:1;" width="293.3855" x="21" y="80.7999"/><rect fill="#F1F1F1" height="34.4001" rx="12.5" ry="12.5" style="stroke:#181818;stroke-width:0.5;" width="134.3608" x="33" y="106.7999"/><text fill="#000000" font-family="sans-serif" font-size="12" lengthAdjust="spacing" textLength="114.3608" x="43" y="127.948">VasmInstr *l = INPUT</text><rect fill="#F1F1F1" height="34.4001" rx="12.5" ry="12.5" style="stroke:#181818;stroke-width:0.5;" width="107.0246" x="195.3608" y="106.7999"/><text fill="#000000" font-family="sans-serif" font-size="12" lengthAdjust="spacing" textLength="87.0246" x="205.3608" y="127.948">size_t i = INPUT</text><rect fill="#555555" height="6" rx="2.5" ry="2.5" style="stroke:#555555;stroke-width:1;" width="293.3855" x="21" y="161.2"/><rect fill="#555555" height="6" rx="2.5" ry="2.5" style="stroke:#555555;stroke-width:1;" width="160.0445" x="87.6705" y="187.2"/><rect fill="#F1F1F1" height="34.4001" rx="12.5" ry="12.5" style="stroke:#181818;stroke-width:0.5;" width="57.6923" x="101.6705" y="213.2"/><text fill="#000000" font-family="sans-serif" font-size="12" lengthAdjust="spacing" textLength="37.6923" x="111.6705" y="234.3481">out = *l</text><rect fill="#F1F1F1" height="34.4001" rx="12.5" ry="12.5" style="stroke:#181818;stroke-width:0.5;" width="46.3522" x="187.3628" y="213.2"/><text fill="#000000" font-family="sans-serif" font-size="12" lengthAdjust="spacing" textLength="26.3522" x="197.3628" y="234.3481">c = 0</text><rect fill="#555555" height="6" rx="2.5" ry="2.5" style="stroke:#555555;stroke-width:1;" width="160.0445" x="87.6705" y="267.6001"/><rect fill="#555555" height="6" rx="2.5" ry="2.5" style="stroke:#555555;stroke-width:1;" width="196.7408" x="69.3224" y="337.6001"/><rect fill="#F1F1F1" height="34.4001" rx="12.5" ry="12.5" style="stroke:#181818;stroke-width:0.5;" width="100.7246" x="83.3224" y="363.6001"/><text fill="#000000" font-family="sans-serif" font-size="12" lengthAdjust="spacing" textLength="80.7246" x="93.3224" y="384.7482">out = out-&gt;next</text><rect fill="#F1F1F1" height="34.4001" rx="12.5" ry="12.5" style="stroke:#181818;stroke-width:0.5;" width="40.0162" x="212.047" y="363.6001"/><text fill="#000000" font-family="sans-serif" font-size="12" lengthAdjust="spacing" textLength="20.0162" x="222.047" y="384.7482">c++</text><rect fill="#555555" height="6" rx="2.5" ry="2.5" style="stroke:#555555;stroke-width:1;" width="196.7408" x="69.3224" y="418.0002"/><polygon fill="#F1F1F1" points="155.6927,293.6001,179.6927,293.6001,191.6927,305.6001,179.6927,317.6001,155.6927,317.6001,143.6927,305.6001,155.6927,293.6001" style="stroke:#181818;stroke-width:0.5;"/><text fill="#000000" font-family="sans-serif" font-size="11" lengthAdjust="spacing" textLength="23.5398" x="155.9228" y="309.2191">c != i</text><rect fill="#F1F1F1" height="34.4001" rx="12.5" ry="12.5" style="stroke:#181818;stroke-width:0.5;" width="89.3485" x="123.0185" y="466.0002"/><text fill="#000000" font-family="sans-serif" font-size="12" lengthAdjust="spacing" textLength="69.3485" x="133.0185" y="487.1483">OUTPUT out</text><ellipse cx="167.6927" cy="531.4003" fill="none" rx="11" ry="11" style="stroke:#222222;stroke-width:1;"/><ellipse cx="167.6927" cy="531.4003" fill="#222222" rx="6" ry="6" style="stroke:#222222;stroke-width:1;"/><line style="stroke:#181818;stroke-width:1;" x1="100.1804" x2="100.1804" y1="86.7999" y2="106.7999"/><polygon fill="#181818" points="96.1804,96.7999,100.1804,106.7999,104.1804,96.7999,100.1804,100.7999" style="stroke:#181818;stroke-width:1;"/><line style="stroke:#181818;stroke-width:1;" x1="248.8732" x2="248.8732" y1="86.7999" y2="106.7999"/><polygon fill="#181818" points="244.8732,96.7999,248.8732,106.7999,252.8732,96.7999,248.8732,100.7999" style="stroke:#181818;stroke-width:1;"/><line style="stroke:#181818;stroke-width:1;" x1="100.1804" x2="100.1804" y1="141.2" y2="161.2"/><polygon fill="#181818" points="96.1804,151.2,100.1804,161.2,104.1804,151.2,100.1804,155.2" style="stroke:#181818;stroke-width:1;"/><line style="stroke:#181818;stroke-width:1;" x1="248.8732" x2="248.8732" y1="141.2" y2="161.2"/><polygon fill="#181818" points="244.8732,151.2,248.8732,161.2,252.8732,151.2,248.8732,155.2" style="stroke:#181818;stroke-width:1;"/><line style="stroke:#181818;stroke-width:1;" x1="167.6927" x2="167.6927" y1="60.7999" y2="80.7999"/><polygon fill="#181818" points="163.6927,70.7999,167.6927,80.7999,171.6927,70.7999,167.6927,74.7999" style="stroke:#181818;stroke-width:1;"/><line style="stroke:#181818;stroke-width:1;" x1="130.5166" x2="130.5166" y1="193.2" y2="213.2"/><polygon fill="#181818" points="126.5166,203.2,130.5166,213.2,134.5166,203.2,130.5166,207.2" style="stroke:#181818;stroke-width:1;"/><line style="stroke:#181818;stroke-width:1;" x1="210.5389" x2="210.5389" y1="193.2" y2="213.2"/><polygon fill="#181818" points="206.5389,203.2,210.5389,213.2,214.5389,203.2,210.5389,207.2" style="stroke:#181818;stroke-width:1;"/><line style="stroke:#181818;stroke-width:1;" x1="130.5166" x2="130.5166" y1="247.6001" y2="267.6001"/><polygon fill="#181818" points="126.5166,257.6001,130.5166,267.6001,134.5166,257.6001,130.5166,261.6001" style="stroke:#181818;stroke-width:1;"/><line style="stroke:#181818;stroke-width:1;" x1="210.5389" x2="210.5389" y1="247.6001" y2="267.6001"/><polygon fill="#181818" points="206.5389,257.6001,210.5389,267.6001,214.5389,257.6001,210.5389,261.6001" style="stroke:#181818;stroke-width:1;"/><line style="stroke:#181818;stroke-width:1;" x1="167.6927" x2="167.6927" y1="167.2" y2="187.2"/><polygon fill="#181818" points="163.6927,177.2,167.6927,187.2,171.6927,177.2,167.6927,181.2" style="stroke:#181818;stroke-width:1;"/><line style="stroke:#181818;stroke-width:1;" x1="133.6847" x2="133.6847" y1="343.6001" y2="363.6001"/><polygon fill="#181818" points="129.6847,353.6001,133.6847,363.6001,137.6847,353.6001,133.6847,357.6001" style="stroke:#181818;stroke-width:1;"/><line style="stroke:#181818;stroke-width:1;" x1="232.055" x2="232.055" y1="343.6001" y2="363.6001"/><polygon fill="#181818" points="228.055,353.6001,232.055,363.6001,236.055,353.6001,232.055,357.6001" style="stroke:#181818;stroke-width:1;"/><line style="stroke:#181818;stroke-width:1;" x1="133.6847" x2="133.6847" y1="398.0002" y2="418.0002"/><polygon fill="#181818" points="129.6847,408.0002,133.6847,418.0002,137.6847,408.0002,133.6847,412.0002" style="stroke:#181818;stroke-width:1;"/><line style="stroke:#181818;stroke-width:1;" x1="232.055" x2="232.055" y1="398.0002" y2="418.0002"/><polygon fill="#181818" points="228.055,408.0002,232.055,418.0002,236.055,408.0002,232.055,412.0002" style="stroke:#181818;stroke-width:1;"/><line style="stroke:#181818;stroke-width:1;" x1="167.6927" x2="167.6927" y1="317.6001" y2="337.6001"/><polygon fill="#181818" points="163.6927,327.6001,167.6927,337.6001,171.6927,327.6001,167.6927,331.6001" style="stroke:#181818;stroke-width:1;"/><line style="stroke:#181818;stroke-width:1;" x1="167.6927" x2="167.6927" y1="424.0002" y2="434.0002"/><line style="stroke:#181818;stroke-width:1;" x1="167.6927" x2="278.0631" y1="434.0002" y2="434.0002"/><polygon fill="#181818" points="274.0631,378.8002,278.0631,368.8002,282.0631,378.8002,278.0631,374.8002" style="stroke:#181818;stroke-width:1;"/><line style="stroke:#181818;stroke-width:1;" x1="278.0631" x2="278.0631" y1="305.6001" y2="434.0002"/><line style="stroke:#181818;stroke-width:1;" x1="278.0631" x2="191.6927" y1="305.6001" y2="305.6001"/><polygon fill="#181818" points="201.6927,301.6001,191.6927,305.6001,201.6927,309.6001,197.6927,305.6001" style="stroke:#181818;stroke-width:1;"/><line style="stroke:#181818;stroke-width:1;" x1="143.6927" x2="57.3224" y1="305.6001" y2="305.6001"/><polygon fill="#181818" points="53.3224,364.8002,57.3224,374.8002,61.3224,364.8002,57.3224,368.8002" style="stroke:#181818;stroke-width:1;"/><line style="stroke:#181818;stroke-width:1;" x1="57.3224" x2="57.3224" y1="305.6001" y2="446.0002"/><line style="stroke:#181818;stroke-width:1;" x1="57.3224" x2="167.6927" y1="446.0002" y2="446.0002"/><line style="stroke:#181818;stroke-width:1;" x1="167.6927" x2="167.6927" y1="446.0002" y2="466.0002"/><polygon fill="#181818" points="163.6927,456.0002,167.6927,466.0002,171.6927,456.0002,167.6927,460.0002" style="stroke:#181818;stroke-width:1;"/><line style="stroke:#181818;stroke-width:1;" x1="167.6927" x2="167.6927" y1="273.6001" y2="293.6001"/><polygon fill="#181818" points="163.6927,283.6001,167.6927,293.6001,171.6927,283.6001,167.6927,287.6001" style="stroke:#181818;stroke-width:1;"/><line style="stroke:#181818;stroke-width:1;" x1="167.6927" x2="167.6927" y1="500.4003" y2="520.4003"/><polygon fill="#181818" points="163.6927,510.4003,167.6927,520.4003,171.6927,510.4003,167.6927,514.4003" style="stroke:#181818;stroke-width:1;"/><!--SRC=[AqWiAiaioSpFKqXEp4cETtPpZy_CAoufKgZcKW22uXAWF9YLbb-K3MQ0W5LOOd6k9rYTLew2hOAdNq1eY3LSdK9YUc9c7a9rSMPLQdo9GYOMbQbvALYCpoyj0QhLoi5jP39GtW2BEUKPcJcf2Xh92egs2fcQSFKenYDP0IHrxV9IAqgiKPIYsGQnKLiRJH7CJY0DjXRCiV8F3G5w4MIoDJG8ymkuQW40]--></g></svg>