<svg xmlns="http://www.w3.org/2000/svg" xmlns:xlink="http://www.w3.org/1999/xlink" contentStyleType="text/css" data-diagram-type="ACTIVITY" height="879px" preserveAspectRatio="none" style="width:349px;height:879px;background:#FFFFFF;" version="1.1" viewBox="0 0 349 879" width="349px" zoomAndPan="magnify"><defs/><g><rect fill="none" height="857.7197" style="stroke:#000000;stroke-width:1.5;" width="326.7295" x="11" y="11"/><path d="M129.1495,11 L129.1495,20.7999 L119.1495,30.7999 L11,30.7999" fill="none" style="stroke:#000000;stroke-width:1.5;"/><text fill="#000000" font-family="sans-serif" font-size="14" lengthAdjust="spacing" textLength="108.1495" x="14" y="25.0059">calc_CFG_edges</text><ellipse cx="175.3648" cy="50.7999" fill="#222222" rx="10" ry="10" style="stroke:#222222;stroke-width:1;"/><rect fill="#555555" height="6" rx="2.5" ry="2.5" style="stroke:#555555;stroke-width:1;" width="304.7295" x="23" y="80.7999"/><rect fill="#F1F1F1" height="34.4001" rx="12.5" ry="12.5" style="stroke:#181818;stroke-width:0.5;" width="138.3688" x="37" y="106.7999"/><text fill="#000000" font-family="sans-serif" font-size="12" lengthAdjust="spacing" textLength="118.3688" x="47" y="127.948">CFGNode *n = INPUT</text><rect fill="#F1F1F1" height="34.4001" rx="12.5" ry="12.5" style="stroke:#181818;stroke-width:0.5;" width="110.3607" x="203.3688" y="106.7999"/><text fill="#000000" font-family="sans-serif" font-size="12" lengthAdjust="spacing" textLength="90.3607" x="213.3688" y="127.948">size_t s = INPUT</text><rect fill="#555555" height="6" rx="2.5" ry="2.5" style="stroke:#555555;stroke-width:1;" width="304.7295" x="23" y="161.2"/><rect fill="#555555" height="6" rx="2.5" ry="2.5" style="stroke:#555555;stroke-width:1;" width="159.3845" x="95.6725" y="187.2"/><rect fill="#F1F1F1" height="34.4001" rx="12.5" ry="12.5" style="stroke:#181818;stroke-width:0.5;" width="46.3522" x="109.6725" y="213.2"/><text fill="#000000" font-family="sans-serif" font-size="12" lengthAdjust="spacing" textLength="26.3522" x="119.6725" y="234.3481">c = 0</text><rect fill="#F1F1F1" height="34.4001" rx="12.5" ry="12.5" style="stroke:#181818;stroke-width:0.5;" width="57.0323" x="184.0247" y="213.2"/><text fill="#000000" font-family="sans-serif" font-size="12" lengthAdjust="spacing" textLength="37.0323" x="194.0247" y="234.3481">out = n</text><rect fill="#555555" height="6" rx="2.5" ry="2.5" style="stroke:#555555;stroke-width:1;" width="159.3845" x="95.6725" y="267.6001"/><rect fill="#F1F1F1" height="34.4001" rx="12.5" ry="12.5" style="stroke:#181818;stroke-width:0.5;" width="53.6963" x="148.5166" y="293.6001"/><text fill="#000000" font-family="sans-serif" font-size="12" lengthAdjust="spacing" textLength="33.6963" x="158.5166" y="314.7482">t = out</text><rect fill="#F1F1F1" height="34.4001" rx="12.5" ry="12.5" style="stroke:#181818;stroke-width:0.5;" width="208.0654" x="71.3321" y="392.0002"/><text fill="#000000" font-family="sans-serif" font-size="12" lengthAdjust="spacing" textLength="188.0654" x="81.3321" y="413.1483">l = calc_CFG_last_inst(t-&gt;contents)</text><rect fill="#F1F1F1" height="34.4001" rx="12.5" ry="12.5" style="stroke:#181818;stroke-width:0.5;" width="218.0734" x="66.328" y="446.4003"/><text fill="#000000" font-family="sans-serif" font-size="12" lengthAdjust="spacing" textLength="198.0734" x="76.328" y="467.5484">LC = calc_CFG_loop_const(l-&gt;left, n)</text><polygon fill="#F1F1F1" points="51.3746,500.8004,114.9541,500.8004,126.9541,512.8004,114.9541,524.8004,51.3746,524.8004,39.3746,512.8004,51.3746,500.8004" style="stroke:#181818;stroke-width:0.5;"/><text fill="#000000" font-family="sans-serif" font-size="11" lengthAdjust="spacing" textLength="29.9418" x="87.1644" y="535.0194">TRUE</text><text fill="#000000" font-family="sans-serif" font-size="11" lengthAdjust="spacing" textLength="63.5795" x="51.3746" y="516.4194">l-&gt;type = jmp</text><rect fill="#F1F1F1" height="34.4001" rx="12.5" ry="12.5" style="stroke:#181818;stroke-width:0.5;" width="79.3645" x="43.4821" y="556.5194"/><text fill="#000000" font-family="sans-serif" font-size="12" lengthAdjust="spacing" textLength="59.3645" x="53.4821" y="577.6674">t-&gt;left = LC</text><rect fill="#F1F1F1" height="34.4001" rx="12.5" ry="12.5" style="stroke:#181818;stroke-width:0.5;" width="40.0162" x="63.1563" y="625.9195"/><text fill="#000000" font-family="sans-serif" font-size="12" lengthAdjust="spacing" textLength="20.0162" x="73.1563" y="647.0675">c++</text><rect fill="#F1F1F1" height="34.4001" rx="12.5" ry="12.5" style="stroke:#181818;stroke-width:0.5;" width="37.3521" x="64.4883" y="683.9195"/><text fill="#000000" font-family="sans-serif" font-size="12" lengthAdjust="spacing" textLength="17.3521" x="74.4883" y="705.0676">t++</text><polygon fill="#F1F1F1" points="170.7171,500.8004,227.5757,500.8004,239.5757,512.8004,227.5757,524.8004,170.7171,524.8004,158.7171,512.8004,170.7171,500.8004" style="stroke:#181818;stroke-width:0.5;"/><text fill="#000000" font-family="sans-serif" font-size="11" lengthAdjust="spacing" textLength="29.9418" x="203.1464" y="535.0194">TRUE</text><text fill="#000000" font-family="sans-serif" font-size="11" lengthAdjust="spacing" textLength="56.8586" x="170.7171" y="516.4194">l-&gt;type = jle</text><text fill="#000000" font-family="sans-serif" font-size="11" lengthAdjust="spacing" textLength="34.8477" x="239.5757" y="509.8195">FALSE</text><rect fill="#F1F1F1" height="34.4001" rx="12.5" ry="12.5" style="stroke:#181818;stroke-width:0.5;" width="79.3645" x="159.4642" y="556.5194"/><text fill="#000000" font-family="sans-serif" font-size="12" lengthAdjust="spacing" textLength="59.3645" x="169.4642" y="577.6674">t-&gt;left = LC</text><rect fill="#F1F1F1" height="34.4001" rx="12.5" ry="12.5" style="stroke:#181818;stroke-width:0.5;" width="104.3846" x="146.9541" y="625.9195"/><text fill="#000000" font-family="sans-serif" font-size="12" lengthAdjust="spacing" textLength="84.3846" x="156.9541" y="647.0675">t-&gt;right = n[c+1]</text><rect fill="#F1F1F1" height="34.4001" rx="12.5" ry="12.5" style="stroke:#181818;stroke-width:0.5;" width="40.0162" x="179.1384" y="683.9195"/><text fill="#000000" font-family="sans-serif" font-size="12" lengthAdjust="spacing" textLength="20.0162" x="189.1384" y="705.0676">c++</text><rect fill="#F1F1F1" height="34.4001" rx="12.5" ry="12.5" style="stroke:#181818;stroke-width:0.5;" width="37.3521" x="180.4704" y="738.3196"/><text fill="#000000" font-family="sans-serif" font-size="12" lengthAdjust="spacing" textLength="17.3521" x="190.4704" y="759.4677">t++</text><rect fill="#F1F1F1" height="34.4001" rx="12.5" ry="12.5" style="stroke:#181818;stroke-width:0.5;" width="40.0162" x="271.3388" y="622.3195"/><text fill="#000000" font-family="sans-serif" font-size="12" lengthAdjust="spacing" textLength="20.0162" x="281.3388" y="643.4676">c++</text><rect fill="#F1F1F1" height="34.4001" rx="12.5" ry="12.5" style="stroke:#181818;stroke-width:0.5;" width="37.3521" x="272.6708" y="680.3196"/><text fill="#000000" font-family="sans-serif" font-size="12" lengthAdjust="spacing" textLength="17.3521" x="282.6708" y="701.4676">t++</text><polygon fill="#F1F1F1" points="162.0658,348.0002,188.6637,348.0002,200.6637,360.0002,188.6637,372.0002,162.0658,372.0002,150.0658,360.0002,162.0658,348.0002" style="stroke:#181818;stroke-width:0.5;"/><text fill="#000000" font-family="sans-serif" font-size="11" lengthAdjust="spacing" textLength="26.5978" x="162.0658" y="363.6192">c != s</text><ellipse cx="175.3648" cy="845.7197" fill="none" rx="11" ry="11" style="stroke:#222222;stroke-width:1;"/><ellipse cx="175.3648" cy="845.7197" fill="#222222" rx="6" ry="6" style="stroke:#222222;stroke-width:1;"/><line style="stroke:#181818;stroke-width:1;" x1="106.1844" x2="106.1844" y1="86.7999" y2="106.7999"/><polygon fill="#181818" points="102.1844,96.7999,106.1844,106.7999,110.1844,96.7999,106.1844,100.7999" style="stroke:#181818;stroke-width:1;"/><line style="stroke:#181818;stroke-width:1;" x1="258.5492" x2="258.5492" y1="86.7999" y2="106.7999"/><polygon fill="#181818" points="254.5492,96.7999,258.5492,106.7999,262.5492,96.7999,258.5492,100.7999" style="stroke:#181818;stroke-width:1;"/><line style="stroke:#181818;stroke-width:1;" x1="106.1844" x2="106.1844" y1="141.2" y2="161.2"/><polygon fill="#181818" points="102.1844,151.2,106.1844,161.2,110.1844,151.2,106.1844,155.2" style="stroke:#181818;stroke-width:1;"/><line style="stroke:#181818;stroke-width:1;" x1="258.5492" x2="258.5492" y1="141.2" y2="161.2"/><polygon fill="#181818" points="254.5492,151.2,258.5492,161.2,262.5492,151.2,258.5492,155.2" style="stroke:#181818;stroke-width:1;"/><line style="stroke:#181818;stroke-width:1;" x1="175.3648" x2="175.3648" y1="60.7999" y2="80.7999"/><polygon fill="#181818" points="171.3648,70.7999,175.3648,80.7999,179.3648,70.7999,175.3648,74.7999" style="stroke:#181818;stroke-width:1;"/><line style="stroke:#181818;stroke-width:1;" x1="132.8486" x2="132.8486" y1="193.2" y2="213.2"/><polygon fill="#181818" points="128.8486,203.2,132.8486,213.2,136.8486,203.2,132.8486,207.2" style="stroke:#181818;stroke-width:1;"/><line style="stroke:#181818;stroke-width:1;" x1="212.5409" x2="212.5409" y1="193.2" y2="213.2"/><polygon fill="#181818" points="208.5409,203.2,212.5409,213.2,216.5409,203.2,212.5409,207.2" style="stroke:#181818;stroke-width:1;"/><line style="stroke:#181818;stroke-width:1;" x1="132.8486" x2="132.8486" y1="247.6001" y2="267.6001"/><polygon fill="#181818" points="128.8486,257.6001,132.8486,267.6001,136.8486,257.6001,132.8486,261.6001" style="stroke:#181818;stroke-width:1;"/><line style="stroke:#181818;stroke-width:1;" x1="212.5409" x2="212.5409" y1="247.6001" y2="267.6001"/><polygon fill="#181818" points="208.5409,257.6001,212.5409,267.6001,216.5409,257.6001,212.5409,261.6001" style="stroke:#181818;stroke-width:1;"/><line style="stroke:#181818;stroke-width:1;" x1="175.3648" x2="175.3648" y1="167.2" y2="187.2"/><polygon fill="#181818" points="171.3648,177.2,175.3648,187.2,179.3648,177.2,175.3648,181.2" style="stroke:#181818;stroke-width:1;"/><line style="stroke:#181818;stroke-width:1;" x1="175.3648" x2="175.3648" y1="273.6001" y2="293.6001"/><polygon fill="#181818" points="171.3648,283.6001,175.3648,293.6001,179.3648,283.6001,175.3648,287.6001" style="stroke:#181818;stroke-width:1;"/><line style="stroke:#181818;stroke-width:1;" x1="175.3648" x2="175.3648" y1="426.4003" y2="446.4003"/><polygon fill="#181818" points="171.3648,436.4003,175.3648,446.4003,179.3648,436.4003,175.3648,440.4003" style="stroke:#181818;stroke-width:1;"/><line style="stroke:#181818;stroke-width:1;" x1="83.1644" x2="83.1644" y1="590.9195" y2="625.9195"/><polygon fill="#181818" points="79.1644,615.9195,83.1644,625.9195,87.1644,615.9195,83.1644,619.9195" style="stroke:#181818;stroke-width:1;"/><line style="stroke:#181818;stroke-width:1;" x1="83.1644" x2="83.1644" y1="660.3196" y2="683.9195"/><polygon fill="#181818" points="79.1644,673.9195,83.1644,683.9195,87.1644,673.9195,83.1644,677.9195" style="stroke:#181818;stroke-width:1;"/><line style="stroke:#181818;stroke-width:1;" x1="199.1464" x2="199.1464" y1="590.9195" y2="625.9195"/><polygon fill="#181818" points="195.1464,615.9195,199.1464,625.9195,203.1464,615.9195,199.1464,619.9195" style="stroke:#181818;stroke-width:1;"/><line style="stroke:#181818;stroke-width:1;" x1="199.1464" x2="199.1464" y1="660.3196" y2="683.9195"/><polygon fill="#181818" points="195.1464,673.9195,199.1464,683.9195,203.1464,673.9195,199.1464,677.9195" style="stroke:#181818;stroke-width:1;"/><line style="stroke:#181818;stroke-width:1;" x1="199.1464" x2="199.1464" y1="718.3196" y2="738.3196"/><polygon fill="#181818" points="195.1464,728.3196,199.1464,738.3196,203.1464,728.3196,199.1464,732.3196" style="stroke:#181818;stroke-width:1;"/><line style="stroke:#181818;stroke-width:1;" x1="291.3468" x2="291.3468" y1="656.7196" y2="680.3196"/><polygon fill="#181818" points="287.3468,670.3196,291.3468,680.3196,295.3468,670.3196,291.3468,674.3196" style="stroke:#181818;stroke-width:1;"/><line style="stroke:#181818;stroke-width:1;" x1="83.1644" x2="83.1644" y1="524.8004" y2="556.5194"/><polygon fill="#181818" points="79.1644,546.5194,83.1644,556.5194,87.1644,546.5194,83.1644,550.5194" style="stroke:#181818;stroke-width:1;"/><line style="stroke:#181818;stroke-width:1;" x1="83.1644" x2="83.1644" y1="718.3196" y2="792.7197"/><polygon fill="#181818" points="79.1644,782.7197,83.1644,792.7197,87.1644,782.7197,83.1644,786.7197" style="stroke:#181818;stroke-width:1;"/><line style="stroke:#181818;stroke-width:1;" x1="199.1464" x2="199.1464" y1="524.8004" y2="556.5194"/><polygon fill="#181818" points="195.1464,546.5194,199.1464,556.5194,203.1464,546.5194,199.1464,550.5194" style="stroke:#181818;stroke-width:1;"/><line style="stroke:#181818;stroke-width:1;" x1="199.1464" x2="199.1464" y1="772.7197" y2="792.7197"/><polygon fill="#181818" points="195.1464,782.7197,199.1464,792.7197,203.1464,782.7197,199.1464,786.7197" style="stroke:#181818;stroke-width:1;"/><line style="stroke:#181818;stroke-width:1;" x1="126.9541" x2="158.7171" y1="512.8004" y2="512.8004"/><polygon fill="#181818" points="148.7171,508.8004,158.7171,512.8004,148.7171,516.8004,152.7171,512.8004" style="stroke:#181818;stroke-width:1;"/><line style="stroke:#181818;stroke-width:1;" x1="175.3648" x2="175.3648" y1="480.8004" y2="485.8004"/><line style="stroke:#181818;stroke-width:1;" x1="175.3648" x2="83.1644" y1="485.8004" y2="485.8004"/><line style="stroke:#181818;stroke-width:1;" x1="83.1644" x2="83.1644" y1="485.8004" y2="500.8004"/><polygon fill="#181818" points="79.1644,490.8004,83.1644,500.8004,87.1644,490.8004,83.1644,494.8004" style="stroke:#181818;stroke-width:1;"/><line style="stroke:#181818;stroke-width:1;" x1="239.5757" x2="291.3468" y1="512.8004" y2="512.8004"/><line style="stroke:#181818;stroke-width:1;" x1="291.3468" x2="291.3468" y1="512.8004" y2="622.3195"/><polygon fill="#181818" points="287.3468,612.3195,291.3468,622.3195,295.3468,612.3195,291.3468,616.3195" style="stroke:#181818;stroke-width:1;"/><line style="stroke:#181818;stroke-width:1;" x1="291.3468" x2="291.3468" y1="714.7197" y2="792.7197"/><polygon fill="#181818" points="287.3468,782.7197,291.3468,792.7197,295.3468,782.7197,291.3468,786.7197" style="stroke:#181818;stroke-width:1;"/><line style="stroke:#181818;stroke-width:1;" x1="83.1644" x2="291.3468" y1="792.7197" y2="792.7197"/><line style="stroke:#181818;stroke-width:1;" x1="175.3648" x2="175.3648" y1="372.0002" y2="392.0002"/><polygon fill="#181818" points="171.3648,382.0002,175.3648,392.0002,179.3648,382.0002,175.3648,386.0002" style="stroke:#181818;stroke-width:1;"/><line style="stroke:#181818;stroke-width:1;" x1="175.3648" x2="175.3648" y1="792.7197" y2="802.7197"/><line style="stroke:#181818;stroke-width:1;" x1="175.3648" x2="323.3549" y1="802.7197" y2="802.7197"/><polygon fill="#181818" points="319.3549,602.8195,323.3549,592.8195,327.3549,602.8195,323.3549,598.8195" style="stroke:#181818;stroke-width:1;"/><line style="stroke:#181818;stroke-width:1;" x1="323.3549" x2="323.3549" y1="360.0002" y2="802.7197"/><line style="stroke:#181818;stroke-width:1;" x1="323.3549" x2="200.6637" y1="360.0002" y2="360.0002"/><polygon fill="#181818" points="210.6637,356.0002,200.6637,360.0002,210.6637,364.0002,206.6637,360.0002" style="stroke:#181818;stroke-width:1;"/><line style="stroke:#181818;stroke-width:1;" x1="150.0658" x2="27.3746" y1="360.0002" y2="360.0002"/><polygon fill="#181818" points="23.3746,588.8195,27.3746,598.8195,31.3746,588.8195,27.3746,592.8195" style="stroke:#181818;stroke-width:1;"/><line style="stroke:#181818;stroke-width:1;" x1="27.3746" x2="27.3746" y1="360.0002" y2="814.7197"/><line style="stroke:#181818;stroke-width:1;" x1="27.3746" x2="175.3648" y1="814.7197" y2="814.7197"/><line style="stroke:#181818;stroke-width:1;" x1="175.3648" x2="175.3648" y1="814.7197" y2="834.7197"/><polygon fill="#181818" points="171.3648,824.7197,175.3648,834.7197,179.3648,824.7197,175.3648,828.7197" style="stroke:#181818;stroke-width:1;"/><line style="stroke:#181818;stroke-width:1;" x1="175.3648" x2="175.3648" y1="328.0002" y2="348.0002"/><polygon fill="#181818" points="171.3648,338.0002,175.3648,348.0002,179.3648,338.0002,175.3648,342.0002" style="stroke:#181818;stroke-width:1;"/><!--SRC=[dP9HIyD03CVV-odYMsitqDUL3QGu4SeGtPv4IhccxUcPAxs8gFZTJLjSrwA8ozEH_o__v2vNPmrhrfP0PKQbyVegnRn41n-UOz4ya2XiyzGTsbW8ix4vmYd14gutDxjjjASWApDD0-lqEwOCRamYvOFds5m9UVQxdtrX0UW7cqKhYDnBhvKs2Bw2aoMuOAWt0kqlQZB7gIR7FizNoX8ZiGkYWKxY4MvjdGecl9cl31Oy0ph0TG6jm6yrIjdZSnq0LqZWRsztbyCC_R2zWN1978qb5OQJ31zcq3YST39uN2UH6brMtOlUg_3yuV-JWB- -IEwcFVygf5mNtnliDYL_pTRUvnS0]--></g></svg>