<svg xmlns="http://www.w3.org/2000/svg" xmlns:xlink="http://www.w3.org/1999/xlink" contentStyleType="text/css" data-diagram-type="ACTIVITY" height="767px" preserveAspectRatio="none" style="width:663px;height:767px;background:#FFFFFF;" version="1.1" viewBox="0 0 663 767" width="663px" zoomAndPan="magnify"><defs/><g><rect fill="none" height="745.3196" style="stroke:#000000;stroke-width:1.5;" width="641.4858" x="11" y="11"/><path d="M147.0415,11 L147.0415,20.7999 L137.0415,30.7999 L11,30.7999" fill="none" style="stroke:#000000;stroke-width:1.5;"/><text fill="#000000" font-family="sans-serif" font-size="14" lengthAdjust="spacing" textLength="126.0415" x="14" y="25.0059">calc_CFG_head_arr</text><ellipse cx="345.7429" cy="50.7999" fill="#222222" rx="10" ry="10" style="stroke:#222222;stroke-width:1;"/><rect fill="#F1F1F1" height="34.4001" rx="12.5" ry="12.5" style="stroke:#181818;stroke-width:0.5;" width="129.6928" x="280.8965" y="80.7999"/><text fill="#000000" font-family="sans-serif" font-size="12" lengthAdjust="spacing" textLength="109.6928" x="290.8965" y="101.948">VasmInstr l = INPUT</text><rect fill="#555555" height="6" rx="2.5" ry="2.5" style="stroke:#555555;stroke-width:1;" width="276.7213" x="207.3823" y="135.2"/><rect fill="#F1F1F1" height="34.4001" rx="12.5" ry="12.5" style="stroke:#181818;stroke-width:0.5;" width="174.3691" x="221.3823" y="161.2"/><text fill="#000000" font-family="sans-serif" font-size="12" lengthAdjust="spacing" textLength="154.3691" x="231.3823" y="182.3481">s = calc_CFG_num_blocks(l)</text><rect fill="#F1F1F1" height="34.4001" rx="12.5" ry="12.5" style="stroke:#181818;stroke-width:0.5;" width="46.3522" x="423.7513" y="161.2"/><text fill="#000000" font-family="sans-serif" font-size="12" lengthAdjust="spacing" textLength="26.3522" x="433.7513" y="182.3481">c = 0</text><rect fill="#555555" height="6" rx="2.5" ry="2.5" style="stroke:#555555;stroke-width:1;" width="276.7213" x="207.3823" y="215.6001"/><rect fill="#F1F1F1" height="34.4001" rx="12.5" ry="12.5" style="stroke:#181818;stroke-width:0.5;" width="49.3522" x="321.0668" y="241.6001"/><text fill="#000000" font-family="sans-serif" font-size="12" lengthAdjust="spacing" textLength="29.3522" x="331.0668" y="262.7482">out[s]</text><polygon fill="#F1F1F1" points="91.8466,340.0002,161.5421,340.0002,173.5421,352.0002,161.5421,364.0002,91.8466,364.0002,79.8466,352.0002,91.8466,340.0002" style="stroke:#181818;stroke-width:0.5;"/><text fill="#000000" font-family="sans-serif" font-size="11" lengthAdjust="spacing" textLength="29.9418" x="130.6943" y="374.2192">TRUE</text><text fill="#000000" font-family="sans-serif" font-size="11" lengthAdjust="spacing" textLength="69.6955" x="91.8466" y="355.6192">l is head of list</text><rect fill="#F1F1F1" height="34.4001" rx="12.5" ry="12.5" style="stroke:#181818;stroke-width:0.5;" width="56.3603" x="98.5142" y="395.7192"/><text fill="#000000" font-family="sans-serif" font-size="12" lengthAdjust="spacing" textLength="36.3603" x="108.5142" y="416.8672">out = c</text><rect fill="#555555" height="6" rx="2.5" ry="2.5" style="stroke:#555555;stroke-width:1;" width="177.3886" x="39" y="465.1193"/><rect fill="#F1F1F1" height="34.4001" rx="12.5" ry="12.5" style="stroke:#181818;stroke-width:0.5;" width="50.6962" x="51" y="491.1193"/><text fill="#000000" font-family="sans-serif" font-size="12" lengthAdjust="spacing" textLength="30.6962" x="61" y="512.2673">out++</text><rect fill="#F1F1F1" height="34.4001" rx="12.5" ry="12.5" style="stroke:#181818;stroke-width:0.5;" width="72.6924" x="129.6962" y="491.1193"/><text fill="#000000" font-family="sans-serif" font-size="12" lengthAdjust="spacing" textLength="52.6924" x="139.6962" y="512.2673">l = l-&gt;next</text><rect fill="#555555" height="6" rx="2.5" ry="2.5" style="stroke:#555555;stroke-width:1;" width="177.3886" x="39" y="545.5194"/><polygon fill="#F1F1F1" points="288.3257,340.0002,363.8402,340.0002,375.8402,352.0002,363.8402,364.0002,288.3257,364.0002,276.3257,352.0002,288.3257,340.0002" style="stroke:#181818;stroke-width:0.5;"/><text fill="#000000" font-family="sans-serif" font-size="11" lengthAdjust="spacing" textLength="29.9418" x="330.0829" y="374.2192">TRUE</text><text fill="#000000" font-family="sans-serif" font-size="11" lengthAdjust="spacing" textLength="75.5145" x="288.3257" y="355.6192">l-&gt;type == label</text><rect fill="#F1F1F1" height="34.4001" rx="12.5" ry="12.5" style="stroke:#181818;stroke-width:0.5;" width="56.3603" x="297.9028" y="395.7192"/><text fill="#000000" font-family="sans-serif" font-size="12" lengthAdjust="spacing" textLength="36.3603" x="307.9028" y="416.8672">out = c</text><rect fill="#555555" height="6" rx="2.5" ry="2.5" style="stroke:#555555;stroke-width:1;" width="179.3886" x="236.3886" y="465.1193"/><rect fill="#F1F1F1" height="34.4001" rx="12.5" ry="12.5" style="stroke:#181818;stroke-width:0.5;" width="50.6962" x="250.3886" y="491.1193"/><text fill="#000000" font-family="sans-serif" font-size="12" lengthAdjust="spacing" textLength="30.6962" x="260.3886" y="512.2673">out++</text><rect fill="#F1F1F1" height="34.4001" rx="12.5" ry="12.5" style="stroke:#181818;stroke-width:0.5;" width="72.6924" x="329.0849" y="491.1193"/><text fill="#000000" font-family="sans-serif" font-size="12" lengthAdjust="spacing" textLength="52.6924" x="339.0849" y="512.2673">l = l-&gt;next</text><rect fill="#555555" height="6" rx="2.5" ry="2.5" style="stroke:#555555;stroke-width:1;" width="179.3886" x="236.3886" y="545.5194"/><polygon fill="#F1F1F1" points="488.4903,340.0002,551.7728,340.0002,563.7728,352.0002,551.7728,364.0002,488.4903,364.0002,476.4903,352.0002,488.4903,340.0002" style="stroke:#181818;stroke-width:0.5;"/><text fill="#000000" font-family="sans-serif" font-size="11" lengthAdjust="spacing" textLength="29.9418" x="524.1315" y="374.2192">TRUE</text><text fill="#000000" font-family="sans-serif" font-size="11" lengthAdjust="spacing" textLength="63.2825" x="488.4903" y="355.6192">l-&gt;type == jle</text><text fill="#000000" font-family="sans-serif" font-size="11" lengthAdjust="spacing" textLength="34.8477" x="563.7728" y="349.0193">FALSE</text><rect fill="#555555" height="6" rx="2.5" ry="2.5" style="stroke:#555555;stroke-width:1;" width="168.7086" x="435.7773" y="395.7192"/><rect fill="#F1F1F1" height="34.4001" rx="12.5" ry="12.5" style="stroke:#181818;stroke-width:0.5;" width="72.6924" x="449.7773" y="421.7192"/><text fill="#000000" font-family="sans-serif" font-size="12" lengthAdjust="spacing" textLength="52.6924" x="459.7773" y="442.8672">l = l-&gt;next</text><rect fill="#F1F1F1" height="34.4001" rx="12.5" ry="12.5" style="stroke:#181818;stroke-width:0.5;" width="40.0162" x="550.4697" y="421.7192"/><text fill="#000000" font-family="sans-serif" font-size="12" lengthAdjust="spacing" textLength="20.0162" x="560.4697" y="442.8672">c++</text><rect fill="#555555" height="6" rx="2.5" ry="2.5" style="stroke:#555555;stroke-width:1;" width="168.7086" x="435.7773" y="476.1193"/><rect fill="#F1F1F1" height="34.4001" rx="12.5" ry="12.5" style="stroke:#181818;stroke-width:0.5;" width="56.3603" x="491.9514" y="517.1193"/><text fill="#000000" font-family="sans-serif" font-size="12" lengthAdjust="spacing" textLength="36.3603" x="501.9514" y="538.2673">out = c</text><rect fill="#F1F1F1" height="34.4001" rx="12.5" ry="12.5" style="stroke:#181818;stroke-width:0.5;" width="50.6962" x="494.7834" y="571.5194"/><text fill="#000000" font-family="sans-serif" font-size="12" lengthAdjust="spacing" textLength="30.6962" x="504.7834" y="592.6674">out++</text><polygon fill="#F1F1F1" points="322.6651,296.0002,368.8207,296.0002,380.8207,308.0002,368.8207,320.0002,322.6651,320.0002,310.6651,308.0002,322.6651,296.0002" style="stroke:#181818;stroke-width:0.5;"/><text fill="#000000" font-family="sans-serif" font-size="11" lengthAdjust="spacing" textLength="46.1557" x="322.6651" y="311.6192">l != NULL</text><rect fill="#F1F1F1" height="34.4001" rx="12.5" ry="12.5" style="stroke:#181818;stroke-width:0.5;" width="89.3485" x="301.0687" y="667.9195"/><text fill="#000000" font-family="sans-serif" font-size="12" lengthAdjust="spacing" textLength="69.3485" x="311.0687" y="689.0675">OUTPUT out</text><ellipse cx="345.7429" cy="733.3196" fill="none" rx="11" ry="11" style="stroke:#222222;stroke-width:1;"/><ellipse cx="345.7429" cy="733.3196" fill="#222222" rx="6" ry="6" style="stroke:#222222;stroke-width:1;"/><line style="stroke:#181818;stroke-width:1;" x1="345.7429" x2="345.7429" y1="60.7999" y2="80.7999"/><polygon fill="#181818" points="341.7429,70.7999,345.7429,80.7999,349.7429,70.7999,345.7429,74.7999" style="stroke:#181818;stroke-width:1;"/><line style="stroke:#181818;stroke-width:1;" x1="308.5668" x2="308.5668" y1="141.2" y2="161.2"/><polygon fill="#181818" points="304.5668,151.2,308.5668,161.2,312.5668,151.2,308.5668,155.2" style="stroke:#181818;stroke-width:1;"/><line style="stroke:#181818;stroke-width:1;" x1="446.9274" x2="446.9274" y1="141.2" y2="161.2"/><polygon fill="#181818" points="442.9274,151.2,446.9274,161.2,450.9274,151.2,446.9274,155.2" style="stroke:#181818;stroke-width:1;"/><line style="stroke:#181818;stroke-width:1;" x1="308.5668" x2="308.5668" y1="195.6001" y2="215.6001"/><polygon fill="#181818" points="304.5668,205.6001,308.5668,215.6001,312.5668,205.6001,308.5668,209.6001" style="stroke:#181818;stroke-width:1;"/><line style="stroke:#181818;stroke-width:1;" x1="446.9274" x2="446.9274" y1="195.6001" y2="215.6001"/><polygon fill="#181818" points="442.9274,205.6001,446.9274,215.6001,450.9274,205.6001,446.9274,209.6001" style="stroke:#181818;stroke-width:1;"/><line style="stroke:#181818;stroke-width:1;" x1="345.7429" x2="345.7429" y1="115.2" y2="135.2"/><polygon fill="#181818" points="341.7429,125.2,345.7429,135.2,349.7429,125.2,345.7429,129.2" style="stroke:#181818;stroke-width:1;"/><line style="stroke:#181818;stroke-width:1;" x1="345.7429" x2="345.7429" y1="221.6001" y2="241.6001"/><polygon fill="#181818" points="341.7429,231.6001,345.7429,241.6001,349.7429,231.6001,345.7429,235.6001" style="stroke:#181818;stroke-width:1;"/><line style="stroke:#181818;stroke-width:1;" x1="76.3481" x2="76.3481" y1="471.1193" y2="491.1193"/><polygon fill="#181818" points="72.3481,481.1193,76.3481,491.1193,80.3481,481.1193,76.3481,485.1193" style="stroke:#181818;stroke-width:1;"/><line style="stroke:#181818;stroke-width:1;" x1="166.0424" x2="166.0424" y1="471.1193" y2="491.1193"/><polygon fill="#181818" points="162.0424,481.1193,166.0424,491.1193,170.0424,481.1193,166.0424,485.1193" style="stroke:#181818;stroke-width:1;"/><line style="stroke:#181818;stroke-width:1;" x1="76.3481" x2="76.3481" y1="525.5194" y2="545.5194"/><polygon fill="#181818" points="72.3481,535.5194,76.3481,545.5194,80.3481,535.5194,76.3481,539.5194" style="stroke:#181818;stroke-width:1;"/><line style="stroke:#181818;stroke-width:1;" x1="166.0424" x2="166.0424" y1="525.5194" y2="545.5194"/><polygon fill="#181818" points="162.0424,535.5194,166.0424,545.5194,170.0424,535.5194,166.0424,539.5194" style="stroke:#181818;stroke-width:1;"/><line style="stroke:#181818;stroke-width:1;" x1="126.6943" x2="126.6943" y1="430.1193" y2="465.1193"/><polygon fill="#181818" points="122.6943,455.1193,126.6943,465.1193,130.6943,455.1193,126.6943,459.1193" style="stroke:#181818;stroke-width:1;"/><line style="stroke:#181818;stroke-width:1;" x1="275.7367" x2="275.7367" y1="471.1193" y2="491.1193"/><polygon fill="#181818" points="271.7367,481.1193,275.7367,491.1193,279.7367,481.1193,275.7367,485.1193" style="stroke:#181818;stroke-width:1;"/><line style="stroke:#181818;stroke-width:1;" x1="365.4311" x2="365.4311" y1="471.1193" y2="491.1193"/><polygon fill="#181818" points="361.4311,481.1193,365.4311,491.1193,369.4311,481.1193,365.4311,485.1193" style="stroke:#181818;stroke-width:1;"/><line style="stroke:#181818;stroke-width:1;" x1="275.7367" x2="275.7367" y1="525.5194" y2="545.5194"/><polygon fill="#181818" points="271.7367,535.5194,275.7367,545.5194,279.7367,535.5194,275.7367,539.5194" style="stroke:#181818;stroke-width:1;"/><line style="stroke:#181818;stroke-width:1;" x1="365.4311" x2="365.4311" y1="525.5194" y2="545.5194"/><polygon fill="#181818" points="361.4311,535.5194,365.4311,545.5194,369.4311,535.5194,365.4311,539.5194" style="stroke:#181818;stroke-width:1;"/><line style="stroke:#181818;stroke-width:1;" x1="326.0829" x2="326.0829" y1="430.1193" y2="465.1193"/><polygon fill="#181818" points="322.0829,455.1193,326.0829,465.1193,330.0829,455.1193,326.0829,459.1193" style="stroke:#181818;stroke-width:1;"/><line style="stroke:#181818;stroke-width:1;" x1="486.1235" x2="486.1235" y1="401.7192" y2="421.7192"/><polygon fill="#181818" points="482.1235,411.7192,486.1235,421.7192,490.1235,411.7192,486.1235,415.7192" style="stroke:#181818;stroke-width:1;"/><line style="stroke:#181818;stroke-width:1;" x1="570.4777" x2="570.4777" y1="401.7192" y2="421.7192"/><polygon fill="#181818" points="566.4777,411.7192,570.4777,421.7192,574.4777,411.7192,570.4777,415.7192" style="stroke:#181818;stroke-width:1;"/><line style="stroke:#181818;stroke-width:1;" x1="486.1235" x2="486.1235" y1="456.1193" y2="476.1193"/><polygon fill="#181818" points="482.1235,466.1193,486.1235,476.1193,490.1235,466.1193,486.1235,470.1193" style="stroke:#181818;stroke-width:1;"/><line style="stroke:#181818;stroke-width:1;" x1="570.4777" x2="570.4777" y1="456.1193" y2="476.1193"/><polygon fill="#181818" points="566.4777,466.1193,570.4777,476.1193,574.4777,466.1193,570.4777,470.1193" style="stroke:#181818;stroke-width:1;"/><line style="stroke:#181818;stroke-width:1;" x1="520.1315" x2="520.1315" y1="482.1193" y2="517.1193"/><polygon fill="#181818" points="516.1315,507.1193,520.1315,517.1193,524.1315,507.1193,520.1315,511.1193" style="stroke:#181818;stroke-width:1;"/><line style="stroke:#181818;stroke-width:1;" x1="520.1315" x2="520.1315" y1="551.5194" y2="571.5194"/><polygon fill="#181818" points="516.1315,561.5194,520.1315,571.5194,524.1315,561.5194,520.1315,565.5194" style="stroke:#181818;stroke-width:1;"/><line style="stroke:#181818;stroke-width:1;" x1="126.6943" x2="126.6943" y1="364.0002" y2="395.7192"/><polygon fill="#181818" points="122.6943,385.7192,126.6943,395.7192,130.6943,385.7192,126.6943,389.7192" style="stroke:#181818;stroke-width:1;"/><line style="stroke:#181818;stroke-width:1;" x1="126.6943" x2="126.6943" y1="551.5194" y2="625.9195"/><polygon fill="#181818" points="122.6943,615.9195,126.6943,625.9195,130.6943,615.9195,126.6943,619.9195" style="stroke:#181818;stroke-width:1;"/><line style="stroke:#181818;stroke-width:1;" x1="326.0829" x2="326.0829" y1="364.0002" y2="395.7192"/><polygon fill="#181818" points="322.0829,385.7192,326.0829,395.7192,330.0829,385.7192,326.0829,389.7192" style="stroke:#181818;stroke-width:1;"/><line style="stroke:#181818;stroke-width:1;" x1="326.0829" x2="326.0829" y1="551.5194" y2="625.9195"/><polygon fill="#181818" points="322.0829,615.9195,326.0829,625.9195,330.0829,615.9195,326.0829,619.9195" style="stroke:#181818;stroke-width:1;"/><line style="stroke:#181818;stroke-width:1;" x1="520.1315" x2="520.1315" y1="364.0002" y2="395.7192"/><polygon fill="#181818" points="516.1315,385.7192,520.1315,395.7192,524.1315,385.7192,520.1315,389.7192" style="stroke:#181818;stroke-width:1;"/><line style="stroke:#181818;stroke-width:1;" x1="520.1315" x2="520.1315" y1="605.9195" y2="625.9195"/><polygon fill="#181818" points="516.1315,615.9195,520.1315,625.9195,524.1315,615.9195,520.1315,619.9195" style="stroke:#181818;stroke-width:1;"/><line style="stroke:#181818;stroke-width:1;" x1="173.5421" x2="276.3257" y1="352.0002" y2="352.0002"/><polygon fill="#181818" points="266.3257,348.0002,276.3257,352.0002,266.3257,356.0002,270.3257,352.0002" style="stroke:#181818;stroke-width:1;"/><line style="stroke:#181818;stroke-width:1;" x1="375.8402" x2="476.4903" y1="352.0002" y2="352.0002"/><polygon fill="#181818" points="466.4903,348.0002,476.4903,352.0002,466.4903,356.0002,470.4903,352.0002" style="stroke:#181818;stroke-width:1;"/><line style="stroke:#181818;stroke-width:1;" x1="345.7429" x2="345.7429" y1="320.0002" y2="325.0002"/><line style="stroke:#181818;stroke-width:1;" x1="345.7429" x2="126.6943" y1="325.0002" y2="325.0002"/><line style="stroke:#181818;stroke-width:1;" x1="126.6943" x2="126.6943" y1="325.0002" y2="340.0002"/><polygon fill="#181818" points="122.6943,330.0002,126.6943,340.0002,130.6943,330.0002,126.6943,334.0002" style="stroke:#181818;stroke-width:1;"/><line style="stroke:#181818;stroke-width:1;" x1="563.7728" x2="618.4858" y1="352.0002" y2="352.0002"/><line style="stroke:#181818;stroke-width:1;" x1="618.4858" x2="618.4858" y1="352.0002" y2="625.9195"/><polygon fill="#181818" points="614.4858,615.9195,618.4858,625.9195,622.4858,615.9195,618.4858,619.9195" style="stroke:#181818;stroke-width:1;"/><line style="stroke:#181818;stroke-width:1;" x1="126.6943" x2="618.4858" y1="625.9195" y2="625.9195"/><line style="stroke:#181818;stroke-width:1;" x1="345.7429" x2="345.7429" y1="625.9195" y2="635.9195"/><line style="stroke:#181818;stroke-width:1;" x1="345.7429" x2="636.4858" y1="635.9195" y2="635.9195"/><polygon fill="#181818" points="632.4858,502.7194,636.4858,492.7194,640.4858,502.7194,636.4858,498.7194" style="stroke:#181818;stroke-width:1;"/><line style="stroke:#181818;stroke-width:1;" x1="636.4858" x2="636.4858" y1="308.0002" y2="635.9195"/><line style="stroke:#181818;stroke-width:1;" x1="636.4858" x2="380.8207" y1="308.0002" y2="308.0002"/><polygon fill="#181818" points="390.8207,304.0002,380.8207,308.0002,390.8207,312.0002,386.8207,308.0002" style="stroke:#181818;stroke-width:1;"/><line style="stroke:#181818;stroke-width:1;" x1="310.6651" x2="27" y1="308.0002" y2="308.0002"/><polygon fill="#181818" points="23,488.7194,27,498.7194,31,488.7194,27,492.7194" style="stroke:#181818;stroke-width:1;"/><line style="stroke:#181818;stroke-width:1;" x1="27" x2="27" y1="308.0002" y2="647.9195"/><line style="stroke:#181818;stroke-width:1;" x1="27" x2="345.7429" y1="647.9195" y2="647.9195"/><line style="stroke:#181818;stroke-width:1;" x1="345.7429" x2="345.7429" y1="647.9195" y2="667.9195"/><polygon fill="#181818" points="341.7429,657.9195,345.7429,667.9195,349.7429,657.9195,345.7429,661.9195" style="stroke:#181818;stroke-width:1;"/><line style="stroke:#181818;stroke-width:1;" x1="345.7429" x2="345.7429" y1="276.0002" y2="296.0002"/><polygon fill="#181818" points="341.7429,286.0002,345.7429,296.0002,349.7429,286.0002,345.7429,290.0002" style="stroke:#181818;stroke-width:1;"/><line style="stroke:#181818;stroke-width:1;" x1="345.7429" x2="345.7429" y1="702.3196" y2="722.3196"/><polygon fill="#181818" points="341.7429,712.3196,345.7429,722.3196,349.7429,712.3196,345.7429,716.3196" style="stroke:#181818;stroke-width:1;"/><!--SRC=[rLDHIyCm47xlhpZVMiR0Pqi78au6POgsleYKB4jjt2qfIOQA-DzDqgtjjjPtytJSVT_TznsNcYZ33PS2A45QtCplYegHTK6KWky0xDF6GdnqzKpqTY6qKO2Gm6Bva6UnhvHIRNpWOTeMssvYjorMAEb6XnXrQ21lX8kEGotdibTcOjtCb3lpeb-RoaV5aK68S970Ca_JgENpqgMv1YSUP0d8jOd0L4n0c3tcjntqqDM9Z8-oHoxwqCda77XYe8MxpU1q9jYd6I0TRBd7K3ElUpepNpM3n1B9Yk7_a_sER5pqiBo_vus8f8EE-kB6jtIw46S3mlbr-jJJQrlnCjX7_jgQ8xpFCtlhO5l4-pyXw-3d5m00]--></g></svg>