<svg xmlns="http://www.w3.org/2000/svg" xmlns:xlink="http://www.w3.org/1999/xlink" contentStyleType="text/css" data-diagram-type="ACTIVITY" height="459px" preserveAspectRatio="none" style="width:298px;height:459px;background:#FFFFFF;" version="1.1" viewBox="0 0 298 459" width="298px" zoomAndPan="magnify"><defs/><g><rect fill="none" height="437.0002" style="stroke:#000000;stroke-width:1.5;" width="276.7252" x="11" y="11"/><path d="M184.3653,11 L184.3653,20.7999 L174.3653,30.7999 L11,30.7999" fill="none" style="stroke:#000000;stroke-width:1.5;"/><text fill="#000000" font-family="sans-serif" font-size="14" lengthAdjust="spacing" textLength="163.3653" x="14" y="25.0059">calc_CFG_num_list_items</text><ellipse cx="149.3626" cy="50.7999" fill="#222222" rx="10" ry="10" style="stroke:#222222;stroke-width:1;"/><rect fill="#555555" height="6" rx="2.5" ry="2.5" style="stroke:#555555;stroke-width:1;" width="256.7252" x="21" y="80.7999"/><rect fill="#F1F1F1" height="34.4001" rx="12.5" ry="12.5" style="stroke:#181818;stroke-width:0.5;" width="147.6929" x="33" y="106.7999"/><text fill="#000000" font-family="sans-serif" font-size="12" lengthAdjust="spacing" textLength="127.6929" x="43" y="127.948">VasmInstr *l = OUTPUT</text><rect fill="#F1F1F1" height="34.4001" rx="12.5" ry="12.5" style="stroke:#181818;stroke-width:0.5;" width="57.0323" x="208.6929" y="106.7999"/><text fill="#000000" font-family="sans-serif" font-size="12" lengthAdjust="spacing" textLength="37.0323" x="218.6929" y="127.948">out = 0</text><rect fill="#555555" height="6" rx="2.5" ry="2.5" style="stroke:#555555;stroke-width:1;" width="256.7252" x="21" y="161.2"/><rect fill="#555555" height="6" rx="2.5" ry="2.5" style="stroke:#555555;stroke-width:1;" width="179.3886" x="59.6683" y="231.2"/><rect fill="#F1F1F1" height="34.4001" rx="12.5" ry="12.5" style="stroke:#181818;stroke-width:0.5;" width="50.6962" x="73.6683" y="257.2"/><text fill="#000000" font-family="sans-serif" font-size="12" lengthAdjust="spacing" textLength="30.6962" x="83.6683" y="278.3481">out++</text><rect fill="#F1F1F1" height="34.4001" rx="12.5" ry="12.5" style="stroke:#181818;stroke-width:0.5;" width="72.6924" x="152.3645" y="257.2"/><text fill="#000000" font-family="sans-serif" font-size="12" lengthAdjust="spacing" textLength="52.6924" x="162.3645" y="278.3481">l = l-&gt;next</text><rect fill="#555555" height="6" rx="2.5" ry="2.5" style="stroke:#555555;stroke-width:1;" width="179.3886" x="59.6683" y="311.6001"/><polygon fill="#F1F1F1" points="110.8464,187.2,187.8788,187.2,199.8788,199.2,187.8788,211.2,110.8464,211.2,98.8464,199.2,110.8464,187.2" style="stroke:#181818;stroke-width:0.5;"/><text fill="#000000" font-family="sans-serif" font-size="11" lengthAdjust="spacing" textLength="77.0324" x="110.8464" y="202.819">l-&gt;next != NULL</text><rect fill="#F1F1F1" height="34.4001" rx="12.5" ry="12.5" style="stroke:#181818;stroke-width:0.5;" width="89.3485" x="104.6884" y="359.6001"/><text fill="#000000" font-family="sans-serif" font-size="12" lengthAdjust="spacing" textLength="69.3485" x="114.6884" y="380.7482">OUTPUT out</text><ellipse cx="149.3626" cy="425.0002" fill="none" rx="11" ry="11" style="stroke:#222222;stroke-width:1;"/><ellipse cx="149.3626" cy="425.0002" fill="#222222" rx="6" ry="6" style="stroke:#222222;stroke-width:1;"/><line style="stroke:#181818;stroke-width:1;" x1="106.8465" x2="106.8465" y1="86.7999" y2="106.7999"/><polygon fill="#181818" points="102.8465,96.7999,106.8465,106.7999,110.8465,96.7999,106.8465,100.7999" style="stroke:#181818;stroke-width:1;"/><line style="stroke:#181818;stroke-width:1;" x1="237.2091" x2="237.2091" y1="86.7999" y2="106.7999"/><polygon fill="#181818" points="233.2091,96.7999,237.2091,106.7999,241.2091,96.7999,237.2091,100.7999" style="stroke:#181818;stroke-width:1;"/><line style="stroke:#181818;stroke-width:1;" x1="106.8465" x2="106.8465" y1="141.2" y2="161.2"/><polygon fill="#181818" points="102.8465,151.2,106.8465,161.2,110.8465,151.2,106.8465,155.2" style="stroke:#181818;stroke-width:1;"/><line style="stroke:#181818;stroke-width:1;" x1="237.2091" x2="237.2091" y1="141.2" y2="161.2"/><polygon fill="#181818" points="233.2091,151.2,237.2091,161.2,241.2091,151.2,237.2091,155.2" style="stroke:#181818;stroke-width:1;"/><line style="stroke:#181818;stroke-width:1;" x1="149.3626" x2="149.3626" y1="60.7999" y2="80.7999"/><polygon fill="#181818" points="145.3626,70.7999,149.3626,80.7999,153.3626,70.7999,149.3626,74.7999" style="stroke:#181818;stroke-width:1;"/><line style="stroke:#181818;stroke-width:1;" x1="99.0164" x2="99.0164" y1="237.2" y2="257.2"/><polygon fill="#181818" points="95.0164,247.2,99.0164,257.2,103.0164,247.2,99.0164,251.2" style="stroke:#181818;stroke-width:1;"/><line style="stroke:#181818;stroke-width:1;" x1="188.7107" x2="188.7107" y1="237.2" y2="257.2"/><polygon fill="#181818" points="184.7107,247.2,188.7107,257.2,192.7107,247.2,188.7107,251.2" style="stroke:#181818;stroke-width:1;"/><line style="stroke:#181818;stroke-width:1;" x1="99.0164" x2="99.0164" y1="291.6001" y2="311.6001"/><polygon fill="#181818" points="95.0164,301.6001,99.0164,311.6001,103.0164,301.6001,99.0164,305.6001" style="stroke:#181818;stroke-width:1;"/><line style="stroke:#181818;stroke-width:1;" x1="188.7107" x2="188.7107" y1="291.6001" y2="311.6001"/><polygon fill="#181818" points="184.7107,301.6001,188.7107,311.6001,192.7107,301.6001,188.7107,305.6001" style="stroke:#181818;stroke-width:1;"/><line style="stroke:#181818;stroke-width:1;" x1="149.3626" x2="149.3626" y1="211.2" y2="231.2"/><polygon fill="#181818" points="145.3626,221.2,149.3626,231.2,153.3626,221.2,149.3626,225.2" style="stroke:#181818;stroke-width:1;"/><line style="stroke:#181818;stroke-width:1;" x1="149.3626" x2="149.3626" y1="317.6001" y2="327.6001"/><line style="stroke:#181818;stroke-width:1;" x1="149.3626" x2="251.0569" y1="327.6001" y2="327.6001"/><polygon fill="#181818" points="247.0569,272.4001,251.0569,262.4001,255.0569,272.4001,251.0569,268.4001" style="stroke:#181818;stroke-width:1;"/><line style="stroke:#181818;stroke-width:1;" x1="251.0569" x2="251.0569" y1="199.2" y2="327.6001"/><line style="stroke:#181818;stroke-width:1;" x1="251.0569" x2="199.8788" y1="199.2" y2="199.2"/><polygon fill="#181818" points="209.8788,195.2,199.8788,199.2,209.8788,203.2,205.8788,199.2" style="stroke:#181818;stroke-width:1;"/><line style="stroke:#181818;stroke-width:1;" x1="98.8464" x2="47.6683" y1="199.2" y2="199.2"/><polygon fill="#181818" points="43.6683,258.4001,47.6683,268.4001,51.6683,258.4001,47.6683,262.4001" style="stroke:#181818;stroke-width:1;"/><line style="stroke:#181818;stroke-width:1;" x1="47.6683" x2="47.6683" y1="199.2" y2="339.6001"/><line style="stroke:#181818;stroke-width:1;" x1="47.6683" x2="149.3626" y1="339.6001" y2="339.6001"/><line style="stroke:#181818;stroke-width:1;" x1="149.3626" x2="149.3626" y1="339.6001" y2="359.6001"/><polygon fill="#181818" points="145.3626,349.6001,149.3626,359.6001,153.3626,349.6001,149.3626,353.6001" style="stroke:#181818;stroke-width:1;"/><line style="stroke:#181818;stroke-width:1;" x1="149.3626" x2="149.3626" y1="167.2" y2="187.2"/><polygon fill="#181818" points="145.3626,177.2,149.3626,187.2,153.3626,177.2,149.3626,181.2" style="stroke:#181818;stroke-width:1;"/><line style="stroke:#181818;stroke-width:1;" x1="149.3626" x2="149.3626" y1="394.0002" y2="414.0002"/><polygon fill="#181818" points="145.3626,404.0002,149.3626,414.0002,153.3626,404.0002,149.3626,408.0002" style="stroke:#181818;stroke-width:1;"/><!--SRC=[NOzF2y8m3CNl-nJnfWx1yygy28emrCFcjPHPjTW_eyrG4B-xNTscMox9Wr_UIofcKQ0m6aecIxhURAck5PN28HN8bODN1BuSUZ1C5sFlOMWgEJ6dTjgXXRc450v5VYnoqeF0hape7svgzDJo3-3w7CJZ9YI7gLoiD7yYJ5BO5raswrS7iPrN79C1C8eBM7DMwpg2ksZVGteGoVS5yEwa_TnKqVi3]--></g></svg>