<svg xmlns="http://www.w3.org/2000/svg" xmlns:xlink="http://www.w3.org/1999/xlink" contentStyleType="text/css" data-diagram-type="ACTIVITY" height="452px" preserveAspectRatio="none" style="width:349px;height:452px;background:#FFFFFF;" version="1.1" viewBox="0 0 349 452" width="349px" zoomAndPan="magnify"><title>calc_CFG_loop_const ()</title><defs/><g><g class="title" data-source-line="1"><text fill="#000000" font-family="sans-serif" font-size="14" font-weight="bold" lengthAdjust="spacing" textLength="160.2574" x="93.0721" y="33.0059">calc_CFG_loop_const ()</text></g><rect fill="none" height="393.0002" style="stroke:#000000;stroke-width:1.5;" width="327.4016" x="11" y="48.7999"/><path d="M158.7174,48.7999 L158.7174,58.5999 L148.7174,68.5999 L11,68.5999" fill="none" style="stroke:#000000;stroke-width:1.5;"/><text fill="#000000" font-family="sans-serif" font-size="14" lengthAdjust="spacing" textLength="137.7174" x="14" y="62.8059">calc_CFG_loop_const</text><ellipse cx="174.7008" cy="88.5999" fill="#222222" rx="10" ry="10" style="stroke:#222222;stroke-width:1;"/><rect fill="#555555" height="6" rx="2.5" ry="2.5" style="stroke:#555555;stroke-width:1;" width="307.4016" x="21" y="118.5999"/><rect fill="#F1F1F1" height="34.4001" rx="12.5" ry="12.5" style="stroke:#181818;stroke-width:0.5;" width="148.3769" x="33" y="144.5999"/><text fill="#000000" font-family="sans-serif" font-size="12" lengthAdjust="spacing" textLength="128.3769" x="43" y="165.7479">CFGNode *out = INPUT</text><rect fill="#F1F1F1" height="34.4001" rx="12.5" ry="12.5" style="stroke:#181818;stroke-width:0.5;" width="107.0246" x="209.3769" y="144.5999"/><text fill="#000000" font-family="sans-serif" font-size="12" lengthAdjust="spacing" textLength="87.0246" x="219.3769" y="165.7479">size_t i = INPUT</text><polygon fill="#F1F1F1" points="174.7008,189,186.7008,201,174.7008,213,162.7008,201,174.7008,189" style="stroke:#181818;stroke-width:0.5;"/><rect fill="#F1F1F1" height="34.4001" rx="12.5" ry="12.5" style="stroke:#181818;stroke-width:0.5;" width="100.7246" x="124.3385" y="277"/><text fill="#000000" font-family="sans-serif" font-size="12" lengthAdjust="spacing" textLength="80.7246" x="134.3385" y="298.148">out = out-&gt;next</text><polygon fill="#F1F1F1" points="100.8748,233,248.5268,233,260.5268,245,248.5268,257,100.8748,257,88.8748,245,100.8748,233" style="stroke:#181818;stroke-width:0.5;"/><text fill="#000000" font-family="sans-serif" font-size="11" lengthAdjust="spacing" textLength="147.652" x="100.8748" y="248.6189">(out != label) &amp;&amp; (out-&gt;left != i)</text><rect fill="#F1F1F1" height="34.4001" rx="12.5" ry="12.5" style="stroke:#181818;stroke-width:0.5;" width="89.3485" x="130.0265" y="353.4001"/><text fill="#000000" font-family="sans-serif" font-size="12" lengthAdjust="spacing" textLength="69.3485" x="140.0265" y="374.5481">OUTPUT out</text><ellipse cx="174.7008" cy="418.8002" fill="none" rx="11" ry="11" style="stroke:#222222;stroke-width:1;"/><ellipse cx="174.7008" cy="418.8002" fill="#222222" rx="6" ry="6" style="stroke:#222222;stroke-width:1;"/><line style="stroke:#181818;stroke-width:1;" x1="107.1885" x2="107.1885" y1="124.5999" y2="144.5999"/><polygon fill="#181818" points="103.1885,134.5999,107.1885,144.5999,111.1885,134.5999,107.1885,138.5999" style="stroke:#181818;stroke-width:1;"/><line style="stroke:#181818;stroke-width:1;" x1="262.8892" x2="262.8892" y1="124.5999" y2="144.5999"/><polygon fill="#181818" points="258.8892,134.5999,262.8892,144.5999,266.8892,134.5999,262.8892,138.5999" style="stroke:#181818;stroke-width:1;"/><line style="stroke:#181818;stroke-width:1;" x1="107.1885" x2="107.1885" y1="179" y2="201"/><line style="stroke:#181818;stroke-width:1;" x1="107.1885" x2="162.7008" y1="201" y2="201"/><polygon fill="#181818" points="152.7008,197,162.7008,201,152.7008,205,156.7008,201" style="stroke:#181818;stroke-width:1;"/><line style="stroke:#181818;stroke-width:1;" x1="262.8892" x2="262.8892" y1="179" y2="201"/><line style="stroke:#181818;stroke-width:1;" x1="262.8892" x2="186.7008" y1="201" y2="201"/><polygon fill="#181818" points="196.7008,197,186.7008,201,196.7008,205,192.7008,201" style="stroke:#181818;stroke-width:1;"/><line style="stroke:#181818;stroke-width:1;" x1="174.7008" x2="174.7008" y1="98.5999" y2="118.5999"/><polygon fill="#181818" points="170.7008,108.5999,174.7008,118.5999,178.7008,108.5999,174.7008,112.5999" style="stroke:#181818;stroke-width:1;"/><line style="stroke:#181818;stroke-width:1;" x1="174.7008" x2="174.7008" y1="257" y2="277"/><polygon fill="#181818" points="170.7008,267,174.7008,277,178.7008,267,174.7008,271" style="stroke:#181818;stroke-width:1;"/><line style="stroke:#181818;stroke-width:1;" x1="174.7008" x2="174.7008" y1="311.4001" y2="321.4001"/><line style="stroke:#181818;stroke-width:1;" x1="174.7008" x2="272.5268" y1="321.4001" y2="321.4001"/><polygon fill="#181818" points="268.5268,292.2,272.5268,282.2,276.5268,292.2,272.5268,288.2" style="stroke:#181818;stroke-width:1;"/><line style="stroke:#181818;stroke-width:1;" x1="272.5268" x2="272.5268" y1="245" y2="321.4001"/><line style="stroke:#181818;stroke-width:1;" x1="272.5268" x2="260.5268" y1="245" y2="245"/><polygon fill="#181818" points="270.5268,241,260.5268,245,270.5268,249,266.5268,245" style="stroke:#181818;stroke-width:1;"/><line style="stroke:#181818;stroke-width:1;" x1="88.8748" x2="76.8748" y1="245" y2="245"/><polygon fill="#181818" points="72.8748,278.2,76.8748,288.2,80.8748,278.2,76.8748,282.2" style="stroke:#181818;stroke-width:1;"/><line style="stroke:#181818;stroke-width:1;" x1="76.8748" x2="76.8748" y1="245" y2="333.4001"/><line style="stroke:#181818;stroke-width:1;" x1="76.8748" x2="174.7008" y1="333.4001" y2="333.4001"/><line style="stroke:#181818;stroke-width:1;" x1="174.7008" x2="174.7008" y1="333.4001" y2="353.4001"/><polygon fill="#181818" points="170.7008,343.4001,174.7008,353.4001,178.7008,343.4001,174.7008,347.4001" style="stroke:#181818;stroke-width:1;"/><line style="stroke:#181818;stroke-width:1;" x1="174.7008" x2="174.7008" y1="213" y2="233"/><polygon fill="#181818" points="170.7008,223,174.7008,233,178.7008,223,174.7008,227" style="stroke:#181818;stroke-width:1;"/><line style="stroke:#181818;stroke-width:1;" x1="174.7008" x2="174.7008" y1="387.8002" y2="407.8002"/><polygon fill="#181818" points="170.7008,397.8002,174.7008,407.8002,178.7008,397.8002,174.7008,401.8002" style="stroke:#181818;stroke-width:1;"/><!--SRC=[RO_12i8m38RlVOfu6QlW2spCYw1ucHwsSwbRDekr7Lj4KNntsqus17CAoSVt9wH88rHILsAptGbjRISgQmQ2cBDEzgH8MVCNU35mDP23M6WRsrz2uojnT6vhXAMz4MImpuzbaKuSo5OgCzE3Ug8WKByacXgksBSu1jpFoXqRnzwuo43B4seEKGH-ibfhRC9SSJwBn_ImD_YWoHjSepOvb8MBz53Ala_PZhq_]--></g></svg>