<svg xmlns="http://www.w3.org/2000/svg" xmlns:xlink="http://www.w3.org/1999/xlink" contentStyleType="text/css" data-diagram-type="ACTIVITY" height="409px" preserveAspectRatio="none" style="width:191px;height:409px;background:#FFFFFF;" version="1.1" viewBox="0 0 191 409" width="191px" zoomAndPan="magnify"><defs/><g><rect fill="none" height="387.4003" style="stroke:#000000;stroke-width:1.5;" width="169.8803" x="11" y="11"/><path d="M142.3655,11 L142.3655,20.7999 L132.3655,30.7999 L11,30.7999" fill="none" style="stroke:#000000;stroke-width:1.5;"/><text fill="#000000" font-family="sans-serif" font-size="14" lengthAdjust="spacing" textLength="121.3655" x="14" y="25.0059">calc_CFG_last_inst</text><ellipse cx="95.9402" cy="50.7999" fill="#222222" rx="10" ry="10" style="stroke:#222222;stroke-width:1;"/><rect fill="#F1F1F1" height="34.4001" rx="12.5" ry="12.5" style="stroke:#181818;stroke-width:0.5;" width="130.3648" x="30.7578" y="80.7999"/><text fill="#000000" font-family="sans-serif" font-size="12" lengthAdjust="spacing" textLength="110.3648" x="40.7578" y="101.948">VasmInst *l = INPUT</text><rect fill="#F1F1F1" height="34.4001" rx="12.5" ry="12.5" style="stroke:#181818;stroke-width:0.5;" width="53.0242" x="69.428" y="135.2"/><text fill="#000000" font-family="sans-serif" font-size="12" lengthAdjust="spacing" textLength="33.0242" x="79.428" y="156.3481">out = l</text><rect fill="#F1F1F1" height="34.4001" rx="12.5" ry="12.5" style="stroke:#181818;stroke-width:0.5;" width="100.7246" x="45.5779" y="233.6001"/><text fill="#000000" font-family="sans-serif" font-size="12" lengthAdjust="spacing" textLength="80.7246" x="55.5779" y="254.7482">out = out-&gt;next</text><polygon fill="#F1F1F1" points="51,189.6001,140.8803,189.6001,152.8803,201.6001,140.8803,213.6001,51,213.6001,39,201.6001,51,189.6001" style="stroke:#181818;stroke-width:0.5;"/><text fill="#000000" font-family="sans-serif" font-size="11" lengthAdjust="spacing" textLength="89.8803" x="51" y="205.2191">out-&gt;next != NULL</text><rect fill="#F1F1F1" height="34.4001" rx="12.5" ry="12.5" style="stroke:#181818;stroke-width:0.5;" width="89.3485" x="51.2659" y="310.0002"/><text fill="#000000" font-family="sans-serif" font-size="12" lengthAdjust="spacing" textLength="69.3485" x="61.2659" y="331.1483">OUTPUT out</text><ellipse cx="95.9402" cy="375.4003" fill="none" rx="11" ry="11" style="stroke:#222222;stroke-width:1;"/><ellipse cx="95.9402" cy="375.4003" fill="#222222" rx="6" ry="6" style="stroke:#222222;stroke-width:1;"/><line style="stroke:#181818;stroke-width:1;" x1="95.9402" x2="95.9402" y1="60.7999" y2="80.7999"/><polygon fill="#181818" points="91.9402,70.7999,95.9402,80.7999,99.9402,70.7999,95.9402,74.7999" style="stroke:#181818;stroke-width:1;"/><line style="stroke:#181818;stroke-width:1;" x1="95.9402" x2="95.9402" y1="115.2" y2="135.2"/><polygon fill="#181818" points="91.9402,125.2,95.9402,135.2,99.9402,125.2,95.9402,129.2" style="stroke:#181818;stroke-width:1;"/><line style="stroke:#181818;stroke-width:1;" x1="95.9402" x2="95.9402" y1="213.6001" y2="233.6001"/><polygon fill="#181818" points="91.9402,223.6001,95.9402,233.6001,99.9402,223.6001,95.9402,227.6001" style="stroke:#181818;stroke-width:1;"/><line style="stroke:#181818;stroke-width:1;" x1="95.9402" x2="95.9402" y1="268.0002" y2="278.0002"/><line style="stroke:#181818;stroke-width:1;" x1="95.9402" x2="164.8803" y1="278.0002" y2="278.0002"/><polygon fill="#181818" points="160.8803,248.8002,164.8803,238.8002,168.8803,248.8002,164.8803,244.8002" style="stroke:#181818;stroke-width:1;"/><line style="stroke:#181818;stroke-width:1;" x1="164.8803" x2="164.8803" y1="201.6001" y2="278.0002"/><line style="stroke:#181818;stroke-width:1;" x1="164.8803" x2="152.8803" y1="201.6001" y2="201.6001"/><polygon fill="#181818" points="162.8803,197.6001,152.8803,201.6001,162.8803,205.6001,158.8803,201.6001" style="stroke:#181818;stroke-width:1;"/><line style="stroke:#181818;stroke-width:1;" x1="39" x2="27" y1="201.6001" y2="201.6001"/><polygon fill="#181818" points="23,234.8002,27,244.8002,31,234.8002,27,238.8002" style="stroke:#181818;stroke-width:1;"/><line style="stroke:#181818;stroke-width:1;" x1="27" x2="27" y1="201.6001" y2="290.0002"/><line style="stroke:#181818;stroke-width:1;" x1="27" x2="95.9402" y1="290.0002" y2="290.0002"/><line style="stroke:#181818;stroke-width:1;" x1="95.9402" x2="95.9402" y1="290.0002" y2="310.0002"/><polygon fill="#181818" points="91.9402,300.0002,95.9402,310.0002,99.9402,300.0002,95.9402,304.0002" style="stroke:#181818;stroke-width:1;"/><line style="stroke:#181818;stroke-width:1;" x1="95.9402" x2="95.9402" y1="169.6001" y2="189.6001"/><polygon fill="#181818" points="91.9402,179.6001,95.9402,189.6001,99.9402,179.6001,95.9402,183.6001" style="stroke:#181818;stroke-width:1;"/><line style="stroke:#181818;stroke-width:1;" x1="95.9402" x2="95.9402" y1="344.4003" y2="364.4003"/><polygon fill="#181818" points="91.9402,354.4003,95.9402,364.4003,99.9402,354.4003,95.9402,358.4003" style="stroke:#181818;stroke-width:1;"/><!--SRC=[AqWiAiaioSpFKqXEp4cETtPpZyz9B2w9pymhBb6evb80Wk8Ie1emooeiiJZN4oIZbQDWg-3f5n0QOWsHoIyj0OhaG7Zb6PavgGeQG35TkxpKYX85HLi5lr0V7qsmB99wk0g8ljIy5B1MY97-eI50yq5ghA7ko2_WgWK0]--></g></svg>