<svg xmlns="http://www.w3.org/2000/svg" xmlns:xlink="http://www.w3.org/1999/xlink" contentStyleType="text/css" data-diagram-type="ACTIVITY" height="745px" preserveAspectRatio="none" style="width:656px;height:745px;background:#FFFFFF;" version="1.1" viewBox="0 0 656 745" width="656px" zoomAndPan="magnify"><defs/><g><rect fill="none" height="723.8007" style="stroke:#000000;stroke-width:1.5;" width="634.1231" x="11" y="11"/><path d="M83.2297,11 L83.2297,20.7999 L73.2297,30.7999 L11,30.7999" fill="none" style="stroke:#000000;stroke-width:1.5;"/><text fill="#000000" font-family="sans-serif" font-size="14" lengthAdjust="spacing" textLength="62.2297" x="14" y="25.0059">calc_CFG</text><ellipse cx="337.0616" cy="50.7999" fill="#222222" rx="10" ry="10" style="stroke:#222222;stroke-width:1;"/><rect fill="#F1F1F1" height="34.4001" rx="12.5" ry="12.5" style="stroke:#181818;stroke-width:0.5;" width="130.3648" x="271.8792" y="80.7999"/><text fill="#000000" font-family="sans-serif" font-size="12" lengthAdjust="spacing" textLength="110.3648" x="281.8792" y="101.948">VasmInst *l = INPUT</text><rect fill="#555555" height="6" rx="2.5" ry="2.5" style="stroke:#555555;stroke-width:1;" width="614.1231" x="21" y="135.2"/><rect fill="#F1F1F1" height="34.4001" rx="12.5" ry="12.5" style="stroke:#181818;stroke-width:0.5;" width="174.3691" x="33" y="161.2"/><text fill="#000000" font-family="sans-serif" font-size="12" lengthAdjust="spacing" textLength="154.3691" x="43" y="182.3481">s = calc_CFG_num_blocks(l)</text><rect fill="#F1F1F1" height="34.4001" rx="12.5" ry="12.5" style="stroke:#181818;stroke-width:0.5;" width="159.045" x="235.3691" y="161.2"/><text fill="#000000" font-family="sans-serif" font-size="12" lengthAdjust="spacing" textLength="139.045" x="245.3691" y="182.3481">h = calc_CFG_head_arr(l)</text><rect fill="#F1F1F1" height="34.4001" rx="12.5" ry="12.5" style="stroke:#181818;stroke-width:0.5;" width="144.3569" x="422.414" y="161.2"/><text fill="#000000" font-family="sans-serif" font-size="12" lengthAdjust="spacing" textLength="124.3569" x="432.414" y="182.3481">t = calc_CFG_tail_arr(l)</text><rect fill="#F1F1F1" height="34.4001" rx="12.5" ry="12.5" style="stroke:#181818;stroke-width:0.5;" width="46.3522" x="576.7709" y="161.2"/><text fill="#000000" font-family="sans-serif" font-size="12" lengthAdjust="spacing" textLength="26.3522" x="586.7709" y="182.3481">c = 0</text><rect fill="#555555" height="6" rx="2.5" ry="2.5" style="stroke:#555555;stroke-width:1;" width="614.1231" x="21" y="215.6001"/><rect fill="#F1F1F1" height="34.4001" rx="12.5" ry="12.5" style="stroke:#181818;stroke-width:0.5;" width="49.3522" x="312.3855" y="241.6001"/><text fill="#000000" font-family="sans-serif" font-size="12" lengthAdjust="spacing" textLength="29.3522" x="322.3855" y="262.7482">out[s]</text><rect fill="#555555" height="6" rx="2.5" ry="2.5" style="stroke:#555555;stroke-width:1;" width="372.746" x="150.6886" y="340.0002"/><rect fill="#F1F1F1" height="34.4001" rx="12.5" ry="12.5" style="stroke:#181818;stroke-width:0.5;" width="161.709" x="164.6886" y="366.0002"/><text fill="#000000" font-family="sans-serif" font-size="12" lengthAdjust="spacing" textLength="141.709" x="174.6886" y="387.1483">xh = calc_CFG_inst(h[c], l)</text><rect fill="#F1F1F1" height="34.4001" rx="12.5" ry="12.5" style="stroke:#181818;stroke-width:0.5;" width="155.037" x="354.3976" y="366.0002"/><text fill="#000000" font-family="sans-serif" font-size="12" lengthAdjust="spacing" textLength="135.037" x="364.3976" y="387.1483">xt = calc_CFG_inst(t[c], l)</text><rect fill="#555555" height="6" rx="2.5" ry="2.5" style="stroke:#555555;stroke-width:1;" width="372.746" x="150.6886" y="420.4003"/><rect fill="#F1F1F1" height="34.4001" rx="12.5" ry="12.5" style="stroke:#181818;stroke-width:0.5;" width="193.7253" x="240.1989" y="461.2003"/><text fill="#000000" font-family="sans-serif" font-size="12" lengthAdjust="spacing" textLength="173.7253" x="250.1989" y="482.3484">out[c] = calc_CFG_blocks(xh, xt)</text><rect fill="#F1F1F1" height="34.4001" rx="12.5" ry="12.5" style="stroke:#181818;stroke-width:0.5;" width="40.0162" x="317.0535" y="515.6004"/><text fill="#000000" font-family="sans-serif" font-size="12" lengthAdjust="spacing" textLength="20.0162" x="327.0535" y="536.7485">c++</text><polygon fill="#F1F1F1" points="325.0616,296.0002,349.0616,296.0002,361.0616,308.0002,349.0616,320.0002,325.0616,320.0002,313.0616,308.0002,325.0616,296.0002" style="stroke:#181818;stroke-width:0.5;"/><text fill="#000000" font-family="sans-serif" font-size="11" lengthAdjust="spacing" textLength="23.5398" x="325.2917" y="311.6192">c &lt; s</text><rect fill="#F1F1F1" height="34.4001" rx="12.5" ry="12.5" style="stroke:#181818;stroke-width:0.5;" width="167.733" x="253.1951" y="592.0005"/><text fill="#000000" font-family="sans-serif" font-size="12" lengthAdjust="spacing" textLength="147.733" x="263.1951" y="613.1486">out = calc_CFG_edges(out)</text><rect fill="#F1F1F1" height="34.4001" rx="12.5" ry="12.5" style="stroke:#181818;stroke-width:0.5;" width="89.3485" x="292.3873" y="646.4006"/><text fill="#000000" font-family="sans-serif" font-size="12" lengthAdjust="spacing" textLength="69.3485" x="302.3873" y="667.5487">OUTPUT out</text><ellipse cx="337.0616" cy="711.8007" fill="none" rx="11" ry="11" style="stroke:#222222;stroke-width:1;"/><ellipse cx="337.0616" cy="711.8007" fill="#222222" rx="6" ry="6" style="stroke:#222222;stroke-width:1;"/><line style="stroke:#181818;stroke-width:1;" x1="337.0616" x2="337.0616" y1="60.7999" y2="80.7999"/><polygon fill="#181818" points="333.0616,70.7999,337.0616,80.7999,341.0616,70.7999,337.0616,74.7999" style="stroke:#181818;stroke-width:1;"/><line style="stroke:#181818;stroke-width:1;" x1="120.1845" x2="120.1845" y1="141.2" y2="161.2"/><polygon fill="#181818" points="116.1845,151.2,120.1845,161.2,124.1845,151.2,120.1845,155.2" style="stroke:#181818;stroke-width:1;"/><line style="stroke:#181818;stroke-width:1;" x1="314.8916" x2="314.8916" y1="141.2" y2="161.2"/><polygon fill="#181818" points="310.8916,151.2,314.8916,161.2,318.8916,151.2,314.8916,155.2" style="stroke:#181818;stroke-width:1;"/><line style="stroke:#181818;stroke-width:1;" x1="494.5925" x2="494.5925" y1="141.2" y2="161.2"/><polygon fill="#181818" points="490.5925,151.2,494.5925,161.2,498.5925,151.2,494.5925,155.2" style="stroke:#181818;stroke-width:1;"/><line style="stroke:#181818;stroke-width:1;" x1="599.947" x2="599.947" y1="141.2" y2="161.2"/><polygon fill="#181818" points="595.947,151.2,599.947,161.2,603.947,151.2,599.947,155.2" style="stroke:#181818;stroke-width:1;"/><line style="stroke:#181818;stroke-width:1;" x1="120.1845" x2="120.1845" y1="195.6001" y2="215.6001"/><polygon fill="#181818" points="116.1845,205.6001,120.1845,215.6001,124.1845,205.6001,120.1845,209.6001" style="stroke:#181818;stroke-width:1;"/><line style="stroke:#181818;stroke-width:1;" x1="314.8916" x2="314.8916" y1="195.6001" y2="215.6001"/><polygon fill="#181818" points="310.8916,205.6001,314.8916,215.6001,318.8916,205.6001,314.8916,209.6001" style="stroke:#181818;stroke-width:1;"/><line style="stroke:#181818;stroke-width:1;" x1="494.5925" x2="494.5925" y1="195.6001" y2="215.6001"/><polygon fill="#181818" points="490.5925,205.6001,494.5925,215.6001,498.5925,205.6001,494.5925,209.6001" style="stroke:#181818;stroke-width:1;"/><line style="stroke:#181818;stroke-width:1;" x1="599.947" x2="599.947" y1="195.6001" y2="215.6001"/><polygon fill="#181818" points="595.947,205.6001,599.947,215.6001,603.947,205.6001,599.947,209.6001" style="stroke:#181818;stroke-width:1;"/><line style="stroke:#181818;stroke-width:1;" x1="337.0616" x2="337.0616" y1="115.2" y2="135.2"/><polygon fill="#181818" points="333.0616,125.2,337.0616,135.2,341.0616,125.2,337.0616,129.2" style="stroke:#181818;stroke-width:1;"/><line style="stroke:#181818;stroke-width:1;" x1="337.0616" x2="337.0616" y1="221.6001" y2="241.6001"/><polygon fill="#181818" points="333.0616,231.6001,337.0616,241.6001,341.0616,231.6001,337.0616,235.6001" style="stroke:#181818;stroke-width:1;"/><line style="stroke:#181818;stroke-width:1;" x1="245.5431" x2="245.5431" y1="346.0002" y2="366.0002"/><polygon fill="#181818" points="241.5431,356.0002,245.5431,366.0002,249.5431,356.0002,245.5431,360.0002" style="stroke:#181818;stroke-width:1;"/><line style="stroke:#181818;stroke-width:1;" x1="431.9161" x2="431.9161" y1="346.0002" y2="366.0002"/><polygon fill="#181818" points="427.9161,356.0002,431.9161,366.0002,435.9161,356.0002,431.9161,360.0002" style="stroke:#181818;stroke-width:1;"/><line style="stroke:#181818;stroke-width:1;" x1="245.5431" x2="245.5431" y1="400.4003" y2="420.4003"/><polygon fill="#181818" points="241.5431,410.4003,245.5431,420.4003,249.5431,410.4003,245.5431,414.4003" style="stroke:#181818;stroke-width:1;"/><line style="stroke:#181818;stroke-width:1;" x1="431.9161" x2="431.9161" y1="400.4003" y2="420.4003"/><polygon fill="#181818" points="427.9161,410.4003,431.9161,420.4003,435.9161,410.4003,431.9161,414.4003" style="stroke:#181818;stroke-width:1;"/><line style="stroke:#181818;stroke-width:1;" x1="337.0616" x2="337.0616" y1="426.4003" y2="461.2003"/><polygon fill="#181818" points="333.0616,451.2003,337.0616,461.2003,341.0616,451.2003,337.0616,455.2003" style="stroke:#181818;stroke-width:1;"/><line style="stroke:#181818;stroke-width:1;" x1="337.0616" x2="337.0616" y1="495.6004" y2="515.6004"/><polygon fill="#181818" points="333.0616,505.6004,337.0616,515.6004,341.0616,505.6004,337.0616,509.6004" style="stroke:#181818;stroke-width:1;"/><line style="stroke:#181818;stroke-width:1;" x1="337.0616" x2="337.0616" y1="320.0002" y2="340.0002"/><polygon fill="#181818" points="333.0616,330.0002,337.0616,340.0002,341.0616,330.0002,337.0616,334.0002" style="stroke:#181818;stroke-width:1;"/><line style="stroke:#181818;stroke-width:1;" x1="337.0616" x2="337.0616" y1="550.0005" y2="560.0005"/><line style="stroke:#181818;stroke-width:1;" x1="337.0616" x2="535.4346" y1="560.0005" y2="560.0005"/><polygon fill="#181818" points="531.4346,450.4003,535.4346,440.4003,539.4346,450.4003,535.4346,446.4003" style="stroke:#181818;stroke-width:1;"/><line style="stroke:#181818;stroke-width:1;" x1="535.4346" x2="535.4346" y1="308.0002" y2="560.0005"/><line style="stroke:#181818;stroke-width:1;" x1="535.4346" x2="361.0616" y1="308.0002" y2="308.0002"/><polygon fill="#181818" points="371.0616,304.0002,361.0616,308.0002,371.0616,312.0002,367.0616,308.0002" style="stroke:#181818;stroke-width:1;"/><line style="stroke:#181818;stroke-width:1;" x1="313.0616" x2="138.6886" y1="308.0002" y2="308.0002"/><polygon fill="#181818" points="134.6886,436.4003,138.6886,446.4003,142.6886,436.4003,138.6886,440.4003" style="stroke:#181818;stroke-width:1;"/><line style="stroke:#181818;stroke-width:1;" x1="138.6886" x2="138.6886" y1="308.0002" y2="572.0005"/><line style="stroke:#181818;stroke-width:1;" x1="138.6886" x2="337.0616" y1="572.0005" y2="572.0005"/><line style="stroke:#181818;stroke-width:1;" x1="337.0616" x2="337.0616" y1="572.0005" y2="592.0005"/><polygon fill="#181818" points="333.0616,582.0005,337.0616,592.0005,341.0616,582.0005,337.0616,586.0005" style="stroke:#181818;stroke-width:1;"/><line style="stroke:#181818;stroke-width:1;" x1="337.0616" x2="337.0616" y1="276.0002" y2="296.0002"/><polygon fill="#181818" points="333.0616,286.0002,337.0616,296.0002,341.0616,286.0002,337.0616,290.0002" style="stroke:#181818;stroke-width:1;"/><line style="stroke:#181818;stroke-width:1;" x1="337.0616" x2="337.0616" y1="626.4006" y2="646.4006"/><polygon fill="#181818" points="333.0616,636.4006,337.0616,646.4006,341.0616,636.4006,337.0616,640.4006" style="stroke:#181818;stroke-width:1;"/><line style="stroke:#181818;stroke-width:1;" x1="337.0616" x2="337.0616" y1="680.8007" y2="700.8007"/><polygon fill="#181818" points="333.0616,690.8007,337.0616,700.8007,341.0616,690.8007,337.0616,694.8007" style="stroke:#181818;stroke-width:1;"/><!--SRC=[XP6x3i8m34Ltli9ZUGpC1IOa40im00kggf064X4Ir1XH2V7lMEc385wP75yVwze-inmLAck0CytJyMGAjnRGSqYAZ-8DSwUPSGWT3IEOpPVhrS0hUviVVU3B78brazHSJkbEMtvqaMu_gu4Tc39FHeQC52nBMPx_930aa2dzb-14z0DPcAoSorvmwv9IkKgb1KGSXk3Q3Vioe6UA5yUAjXB9BKzwK3luugA4yGt6pt3jiV79an2jDbl87XGOi37lTiiVDV0ZDPE6kCWEmaMKhD1uiLxHKO4oW-huzjowFm00]--></g></svg>