<svg xmlns="http://www.w3.org/2000/svg" xmlns:xlink="http://www.w3.org/1999/xlink" contentStyleType="text/css" data-diagram-type="ACTIVITY" height="639px" preserveAspectRatio="none" style="width:501px;height:639px;background:#FFFFFF;" version="1.1" viewBox="0 0 501 639" width="501px" zoomAndPan="magnify"><defs/><g><rect fill="none" height="617.6006" style="stroke:#000000;stroke-width:1.5;" width="479.7663" x="11" y="11"/><path d="M133.7975,11 L133.7975,20.7999 L123.7975,30.7999 L11,30.7999" fill="none" style="stroke:#000000;stroke-width:1.5;"/><text fill="#000000" font-family="sans-serif" font-size="14" lengthAdjust="spacing" textLength="112.7975" x="14" y="25.0059">calc_CFG_tail_arr</text><ellipse cx="250.8831" cy="50.7999" fill="#222222" rx="10" ry="10" style="stroke:#222222;stroke-width:1;"/><rect fill="#F1F1F1" height="34.4001" rx="12.5" ry="12.5" style="stroke:#181818;stroke-width:0.5;" width="134.3608" x="183.7027" y="80.7999"/><text fill="#000000" font-family="sans-serif" font-size="12" lengthAdjust="spacing" textLength="114.3608" x="193.7027" y="101.948">VasmInstr *l = INPUT</text><rect fill="#555555" height="6" rx="2.5" ry="2.5" style="stroke:#555555;stroke-width:1;" width="459.7663" x="21" y="135.2"/><rect fill="#F1F1F1" height="34.4001" rx="12.5" ry="12.5" style="stroke:#181818;stroke-width:0.5;" width="159.045" x="33" y="161.2"/><text fill="#000000" font-family="sans-serif" font-size="12" lengthAdjust="spacing" textLength="139.045" x="43" y="182.3481">h = calc_CFG_head_arr(l)</text><rect fill="#F1F1F1" height="34.4001" rx="12.5" ry="12.5" style="stroke:#181818;stroke-width:0.5;" width="46.3522" x="220.045" y="161.2"/><text fill="#000000" font-family="sans-serif" font-size="12" lengthAdjust="spacing" textLength="26.3522" x="230.045" y="182.3481">c = 0</text><rect fill="#F1F1F1" height="34.4001" rx="12.5" ry="12.5" style="stroke:#181818;stroke-width:0.5;" width="174.3691" x="294.3972" y="161.2"/><text fill="#000000" font-family="sans-serif" font-size="12" lengthAdjust="spacing" textLength="154.3691" x="304.3972" y="182.3481">s = calc_CFG_num_blocks(l)</text><rect fill="#555555" height="6" rx="2.5" ry="2.5" style="stroke:#555555;stroke-width:1;" width="459.7663" x="21" y="215.6001"/><rect fill="#F1F1F1" height="34.4001" rx="12.5" ry="12.5" style="stroke:#181818;stroke-width:0.5;" width="49.3522" x="226.207" y="241.6001"/><text fill="#000000" font-family="sans-serif" font-size="12" lengthAdjust="spacing" textLength="29.3522" x="236.207" y="262.7482">out[s]</text><rect fill="#F1F1F1" height="34.4001" rx="12.5" ry="12.5" style="stroke:#181818;stroke-width:0.5;" width="121.3888" x="190.1887" y="340.0002"/><text fill="#000000" font-family="sans-serif" font-size="12" lengthAdjust="spacing" textLength="101.3888" x="200.1887" y="361.1483">out[c] = (h[c+1]) - 1</text><rect fill="#F1F1F1" height="34.4001" rx="12.5" ry="12.5" style="stroke:#181818;stroke-width:0.5;" width="40.0162" x="230.875" y="409.4003"/><text fill="#000000" font-family="sans-serif" font-size="12" lengthAdjust="spacing" textLength="20.0162" x="240.875" y="430.5484">c++</text><polygon fill="#F1F1F1" points="229.0318,296.0002,272.7345,296.0002,284.7345,308.0002,272.7345,320.0002,229.0318,320.0002,217.0318,308.0002,229.0318,296.0002" style="stroke:#181818;stroke-width:0.5;"/><text fill="#000000" font-family="sans-serif" font-size="11" lengthAdjust="spacing" textLength="43.7027" x="229.0318" y="311.6192">c != (s-1)</text><rect fill="#F1F1F1" height="34.4001" rx="12.5" ry="12.5" style="stroke:#181818;stroke-width:0.5;" width="213.7174" x="144.0244" y="485.8004"/><text fill="#000000" font-family="sans-serif" font-size="12" lengthAdjust="spacing" textLength="193.7174" x="154.0244" y="506.9485">out[s] = calc_CFG_num_list_items(l)</text><rect fill="#F1F1F1" height="34.4001" rx="12.5" ry="12.5" style="stroke:#181818;stroke-width:0.5;" width="89.3485" x="206.2089" y="540.2005"/><text fill="#000000" font-family="sans-serif" font-size="12" lengthAdjust="spacing" textLength="69.3485" x="216.2089" y="561.3486">OUTPUT out</text><ellipse cx="250.8831" cy="605.6006" fill="none" rx="11" ry="11" style="stroke:#222222;stroke-width:1;"/><ellipse cx="250.8831" cy="605.6006" fill="#222222" rx="6" ry="6" style="stroke:#222222;stroke-width:1;"/><line style="stroke:#181818;stroke-width:1;" x1="250.8831" x2="250.8831" y1="60.7999" y2="80.7999"/><polygon fill="#181818" points="246.8831,70.7999,250.8831,80.7999,254.8831,70.7999,250.8831,74.7999" style="stroke:#181818;stroke-width:1;"/><line style="stroke:#181818;stroke-width:1;" x1="112.5225" x2="112.5225" y1="141.2" y2="161.2"/><polygon fill="#181818" points="108.5225,151.2,112.5225,161.2,116.5225,151.2,112.5225,155.2" style="stroke:#181818;stroke-width:1;"/><line style="stroke:#181818;stroke-width:1;" x1="243.2211" x2="243.2211" y1="141.2" y2="161.2"/><polygon fill="#181818" points="239.2211,151.2,243.2211,161.2,247.2211,151.2,243.2211,155.2" style="stroke:#181818;stroke-width:1;"/><line style="stroke:#181818;stroke-width:1;" x1="381.5817" x2="381.5817" y1="141.2" y2="161.2"/><polygon fill="#181818" points="377.5817,151.2,381.5817,161.2,385.5817,151.2,381.5817,155.2" style="stroke:#181818;stroke-width:1;"/><line style="stroke:#181818;stroke-width:1;" x1="112.5225" x2="112.5225" y1="195.6001" y2="215.6001"/><polygon fill="#181818" points="108.5225,205.6001,112.5225,215.6001,116.5225,205.6001,112.5225,209.6001" style="stroke:#181818;stroke-width:1;"/><line style="stroke:#181818;stroke-width:1;" x1="243.2211" x2="243.2211" y1="195.6001" y2="215.6001"/><polygon fill="#181818" points="239.2211,205.6001,243.2211,215.6001,247.2211,205.6001,243.2211,209.6001" style="stroke:#181818;stroke-width:1;"/><line style="stroke:#181818;stroke-width:1;" x1="381.5817" x2="381.5817" y1="195.6001" y2="215.6001"/><polygon fill="#181818" points="377.5817,205.6001,381.5817,215.6001,385.5817,205.6001,381.5817,209.6001" style="stroke:#181818;stroke-width:1;"/><line style="stroke:#181818;stroke-width:1;" x1="250.8831" x2="250.8831" y1="115.2" y2="135.2"/><polygon fill="#181818" points="246.8831,125.2,250.8831,135.2,254.8831,125.2,250.8831,129.2" style="stroke:#181818;stroke-width:1;"/><line style="stroke:#181818;stroke-width:1;" x1="250.8831" x2="250.8831" y1="221.6001" y2="241.6001"/><polygon fill="#181818" points="246.8831,231.6001,250.8831,241.6001,254.8831,231.6001,250.8831,235.6001" style="stroke:#181818;stroke-width:1;"/><line style="stroke:#181818;stroke-width:1;" x1="250.8831" x2="250.8831" y1="374.4003" y2="409.4003"/><polygon fill="#181818" points="246.8831,399.4003,250.8831,409.4003,254.8831,399.4003,250.8831,403.4003" style="stroke:#181818;stroke-width:1;"/><line style="stroke:#181818;stroke-width:1;" x1="250.8831" x2="250.8831" y1="320.0002" y2="340.0002"/><polygon fill="#181818" points="246.8831,330.0002,250.8831,340.0002,254.8831,330.0002,250.8831,334.0002" style="stroke:#181818;stroke-width:1;"/><line style="stroke:#181818;stroke-width:1;" x1="250.8831" x2="250.8831" y1="443.8004" y2="453.8004"/><line style="stroke:#181818;stroke-width:1;" x1="250.8831" x2="323.5775" y1="453.8004" y2="453.8004"/><polygon fill="#181818" points="319.5775,389.9003,323.5775,379.9003,327.5775,389.9003,323.5775,385.9003" style="stroke:#181818;stroke-width:1;"/><line style="stroke:#181818;stroke-width:1;" x1="323.5775" x2="323.5775" y1="308.0002" y2="453.8004"/><line style="stroke:#181818;stroke-width:1;" x1="323.5775" x2="284.7345" y1="308.0002" y2="308.0002"/><polygon fill="#181818" points="294.7345,304.0002,284.7345,308.0002,294.7345,312.0002,290.7345,308.0002" style="stroke:#181818;stroke-width:1;"/><line style="stroke:#181818;stroke-width:1;" x1="217.0318" x2="178.1887" y1="308.0002" y2="308.0002"/><polygon fill="#181818" points="174.1887,375.9003,178.1887,385.9003,182.1887,375.9003,178.1887,379.9003" style="stroke:#181818;stroke-width:1;"/><line style="stroke:#181818;stroke-width:1;" x1="178.1887" x2="178.1887" y1="308.0002" y2="465.8004"/><line style="stroke:#181818;stroke-width:1;" x1="178.1887" x2="250.8831" y1="465.8004" y2="465.8004"/><line style="stroke:#181818;stroke-width:1;" x1="250.8831" x2="250.8831" y1="465.8004" y2="485.8004"/><polygon fill="#181818" points="246.8831,475.8004,250.8831,485.8004,254.8831,475.8004,250.8831,479.8004" style="stroke:#181818;stroke-width:1;"/><line style="stroke:#181818;stroke-width:1;" x1="250.8831" x2="250.8831" y1="276.0002" y2="296.0002"/><polygon fill="#181818" points="246.8831,286.0002,250.8831,296.0002,254.8831,286.0002,250.8831,290.0002" style="stroke:#181818;stroke-width:1;"/><line style="stroke:#181818;stroke-width:1;" x1="250.8831" x2="250.8831" y1="520.2005" y2="540.2005"/><polygon fill="#181818" points="246.8831,530.2005,250.8831,540.2005,254.8831,530.2005,250.8831,534.2005" style="stroke:#181818;stroke-width:1;"/><line style="stroke:#181818;stroke-width:1;" x1="250.8831" x2="250.8831" y1="574.6006" y2="594.6006"/><polygon fill="#181818" points="246.8831,584.6006,250.8831,594.6006,254.8831,584.6006,250.8831,588.6006" style="stroke:#181818;stroke-width:1;"/><!--SRC=[TP0n3u8m48LtViMvWOH4LWYJYOP57S25aAOMb8RIahR4mVZVBSK8cdZJNTvxNrwknr9JJGK7WXb1szqUQKmPmbB2mm4pIXkBtQ8pLbtAbPQmPf10UZZbMMobgv2jNQolCU87rzIu6d4kysOlu1kcV4uGazZybzKIo8SENPWWhVf6rhoQQef15wgSb7j3MGqkWLK2hWf2pvkfeu-K1kqs1V73qeC0mdXHolUdov0jPud_RSIeqeZgkfjRHSSyCny24uZVhnIzytm1]--></g></svg>