<svg xmlns="http://www.w3.org/2000/svg" xmlns:xlink="http://www.w3.org/1999/xlink" contentStyleType="text/css" data-diagram-type="ACTIVITY" height="537px" preserveAspectRatio="none" style="width:722px;height:537px;background:#FFFFFF;" version="1.1" viewBox="0 0 722 537" width="722px" zoomAndPan="magnify"><defs/><g><rect fill="none" height="515.1193" style="stroke:#000000;stroke-width:1.5;" width="700.6906" x="11" y="11"/><path d="M165.7034,11 L165.7034,20.7999 L155.7034,30.7999 L11,30.7999" fill="none" style="stroke:#000000;stroke-width:1.5;"/><text fill="#000000" font-family="sans-serif" font-size="14" lengthAdjust="spacing" textLength="144.7034" x="14" y="25.0059">calc_CFG_num_blocks</text><ellipse cx="358.4291" cy="50.7999" fill="#222222" rx="10" ry="10" style="stroke:#222222;stroke-width:1;"/><rect fill="#F1F1F1" height="34.4001" rx="12.5" ry="12.5" style="stroke:#181818;stroke-width:0.5;" width="134.3608" x="291.2487" y="80.7999"/><text fill="#000000" font-family="sans-serif" font-size="12" lengthAdjust="spacing" textLength="114.3608" x="301.2487" y="101.948">VasmInstr *l = INPUT</text><rect fill="#F1F1F1" height="34.4001" rx="12.5" ry="12.5" style="stroke:#181818;stroke-width:0.5;" width="57.0323" x="329.913" y="135.2"/><text fill="#000000" font-family="sans-serif" font-size="12" lengthAdjust="spacing" textLength="37.0323" x="339.913" y="156.3481">out = 0</text><polygon fill="#F1F1F1" points="91.8466,233.6001,161.5421,233.6001,173.5421,245.6001,161.5421,257.6001,91.8466,257.6001,79.8466,245.6001,91.8466,233.6001" style="stroke:#181818;stroke-width:0.5;"/><text fill="#000000" font-family="sans-serif" font-size="11" lengthAdjust="spacing" textLength="29.9418" x="130.6943" y="267.8191">TRUE</text><text fill="#000000" font-family="sans-serif" font-size="11" lengthAdjust="spacing" textLength="69.6955" x="91.8466" y="249.2191">l is head of list</text><rect fill="#555555" height="6" rx="2.5" ry="2.5" style="stroke:#555555;stroke-width:1;" width="175.3886" x="39" y="289.3191"/><rect fill="#F1F1F1" height="34.4001" rx="12.5" ry="12.5" style="stroke:#181818;stroke-width:0.5;" width="50.6962" x="51" y="315.3191"/><text fill="#000000" font-family="sans-serif" font-size="12" lengthAdjust="spacing" textLength="30.6962" x="61" y="336.4671">out++</text><rect fill="#F1F1F1" height="34.4001" rx="12.5" ry="12.5" style="stroke:#181818;stroke-width:0.5;" width="72.6924" x="129.6962" y="315.3191"/><text fill="#000000" font-family="sans-serif" font-size="12" lengthAdjust="spacing" textLength="52.6924" x="139.6962" y="336.4671">l = l-&gt;next</text><rect fill="#555555" height="6" rx="2.5" ry="2.5" style="stroke:#555555;stroke-width:1;" width="175.3886" x="39" y="369.7192"/><polygon fill="#F1F1F1" points="274.3257,233.6001,349.8402,233.6001,361.8402,245.6001,349.8402,257.6001,274.3257,257.6001,262.3257,245.6001,274.3257,233.6001" style="stroke:#181818;stroke-width:0.5;"/><text fill="#000000" font-family="sans-serif" font-size="11" lengthAdjust="spacing" textLength="29.9418" x="316.0829" y="267.8191">TRUE</text><text fill="#000000" font-family="sans-serif" font-size="11" lengthAdjust="spacing" textLength="75.5145" x="274.3257" y="249.2191">l-&gt;type == label</text><rect fill="#555555" height="6" rx="2.5" ry="2.5" style="stroke:#555555;stroke-width:1;" width="177.3886" x="224.3886" y="289.3191"/><rect fill="#F1F1F1" height="34.4001" rx="12.5" ry="12.5" style="stroke:#181818;stroke-width:0.5;" width="50.6962" x="236.3886" y="315.3191"/><text fill="#000000" font-family="sans-serif" font-size="12" lengthAdjust="spacing" textLength="30.6962" x="246.3886" y="336.4671">out++</text><rect fill="#F1F1F1" height="34.4001" rx="12.5" ry="12.5" style="stroke:#181818;stroke-width:0.5;" width="72.6924" x="315.0849" y="315.3191"/><text fill="#000000" font-family="sans-serif" font-size="12" lengthAdjust="spacing" textLength="52.6924" x="325.0849" y="336.4671">l = l-&gt;next</text><rect fill="#555555" height="6" rx="2.5" ry="2.5" style="stroke:#555555;stroke-width:1;" width="177.3886" x="224.3886" y="369.7192"/><polygon fill="#F1F1F1" points="479.6626,233.6001,542.9451,233.6001,554.9451,245.6001,542.9451,257.6001,479.6626,257.6001,467.6626,245.6001,479.6626,233.6001" style="stroke:#181818;stroke-width:0.5;"/><text fill="#000000" font-family="sans-serif" font-size="11" lengthAdjust="spacing" textLength="29.9418" x="515.3039" y="267.8191">TRUE</text><text fill="#000000" font-family="sans-serif" font-size="11" lengthAdjust="spacing" textLength="63.2825" x="479.6626" y="249.2191">l-&gt;type == jle</text><text fill="#000000" font-family="sans-serif" font-size="11" lengthAdjust="spacing" textLength="34.8477" x="554.9451" y="242.6192">FALSE</text><rect fill="#555555" height="6" rx="2.5" ry="2.5" style="stroke:#555555;stroke-width:1;" width="179.2209" x="421.7773" y="289.3191"/><rect fill="#F1F1F1" height="34.4001" rx="12.5" ry="12.5" style="stroke:#181818;stroke-width:0.5;" width="50.6962" x="435.6096" y="315.3191"/><text fill="#000000" font-family="sans-serif" font-size="12" lengthAdjust="spacing" textLength="30.6962" x="445.6096" y="336.4671">out++</text><rect fill="#F1F1F1" height="34.4001" rx="12.5" ry="12.5" style="stroke:#181818;stroke-width:0.5;" width="72.6924" x="514.3058" y="315.3191"/><text fill="#000000" font-family="sans-serif" font-size="12" lengthAdjust="spacing" textLength="52.6924" x="524.3058" y="336.4671">l = l-&gt;next</text><rect fill="#555555" height="6" rx="2.5" ry="2.5" style="stroke:#555555;stroke-width:1;" width="179.2209" x="421.7773" y="369.7192"/><rect fill="#F1F1F1" height="34.4001" rx="12.5" ry="12.5" style="stroke:#181818;stroke-width:0.5;" width="72.6924" x="610.9982" y="311.7191"/><text fill="#000000" font-family="sans-serif" font-size="12" lengthAdjust="spacing" textLength="52.6924" x="620.9982" y="332.8672">l = l-&gt;next</text><polygon fill="#F1F1F1" points="335.3513,189.6001,381.507,189.6001,393.507,201.6001,381.507,213.6001,335.3513,213.6001,323.3513,201.6001,335.3513,189.6001" style="stroke:#181818;stroke-width:0.5;"/><text fill="#000000" font-family="sans-serif" font-size="11" lengthAdjust="spacing" textLength="46.1557" x="335.3513" y="205.2191">l != NULL</text><rect fill="#F1F1F1" height="34.4001" rx="12.5" ry="12.5" style="stroke:#181818;stroke-width:0.5;" width="89.3485" x="313.7549" y="437.7192"/><text fill="#000000" font-family="sans-serif" font-size="12" lengthAdjust="spacing" textLength="69.3485" x="323.7549" y="458.8672">OUTPUT out</text><ellipse cx="358.4291" cy="503.1193" fill="none" rx="11" ry="11" style="stroke:#222222;stroke-width:1;"/><ellipse cx="358.4291" cy="503.1193" fill="#222222" rx="6" ry="6" style="stroke:#222222;stroke-width:1;"/><line style="stroke:#181818;stroke-width:1;" x1="358.4291" x2="358.4291" y1="60.7999" y2="80.7999"/><polygon fill="#181818" points="354.4291,70.7999,358.4291,80.7999,362.4291,70.7999,358.4291,74.7999" style="stroke:#181818;stroke-width:1;"/><line style="stroke:#181818;stroke-width:1;" x1="358.4291" x2="358.4291" y1="115.2" y2="135.2"/><polygon fill="#181818" points="354.4291,125.2,358.4291,135.2,362.4291,125.2,358.4291,129.2" style="stroke:#181818;stroke-width:1;"/><line style="stroke:#181818;stroke-width:1;" x1="76.3481" x2="76.3481" y1="295.3191" y2="315.3191"/><polygon fill="#181818" points="72.3481,305.3191,76.3481,315.3191,80.3481,305.3191,76.3481,309.3191" style="stroke:#181818;stroke-width:1;"/><line style="stroke:#181818;stroke-width:1;" x1="166.0424" x2="166.0424" y1="295.3191" y2="315.3191"/><polygon fill="#181818" points="162.0424,305.3191,166.0424,315.3191,170.0424,305.3191,166.0424,309.3191" style="stroke:#181818;stroke-width:1;"/><line style="stroke:#181818;stroke-width:1;" x1="76.3481" x2="76.3481" y1="349.7192" y2="369.7192"/><polygon fill="#181818" points="72.3481,359.7192,76.3481,369.7192,80.3481,359.7192,76.3481,363.7192" style="stroke:#181818;stroke-width:1;"/><line style="stroke:#181818;stroke-width:1;" x1="166.0424" x2="166.0424" y1="349.7192" y2="369.7192"/><polygon fill="#181818" points="162.0424,359.7192,166.0424,369.7192,170.0424,359.7192,166.0424,363.7192" style="stroke:#181818;stroke-width:1;"/><line style="stroke:#181818;stroke-width:1;" x1="261.7367" x2="261.7367" y1="295.3191" y2="315.3191"/><polygon fill="#181818" points="257.7367,305.3191,261.7367,315.3191,265.7367,305.3191,261.7367,309.3191" style="stroke:#181818;stroke-width:1;"/><line style="stroke:#181818;stroke-width:1;" x1="351.4311" x2="351.4311" y1="295.3191" y2="315.3191"/><polygon fill="#181818" points="347.4311,305.3191,351.4311,315.3191,355.4311,305.3191,351.4311,309.3191" style="stroke:#181818;stroke-width:1;"/><line style="stroke:#181818;stroke-width:1;" x1="261.7367" x2="261.7367" y1="349.7192" y2="369.7192"/><polygon fill="#181818" points="257.7367,359.7192,261.7367,369.7192,265.7367,359.7192,261.7367,363.7192" style="stroke:#181818;stroke-width:1;"/><line style="stroke:#181818;stroke-width:1;" x1="351.4311" x2="351.4311" y1="349.7192" y2="369.7192"/><polygon fill="#181818" points="347.4311,359.7192,351.4311,369.7192,355.4311,359.7192,351.4311,363.7192" style="stroke:#181818;stroke-width:1;"/><line style="stroke:#181818;stroke-width:1;" x1="460.9577" x2="460.9577" y1="295.3191" y2="315.3191"/><polygon fill="#181818" points="456.9577,305.3191,460.9577,315.3191,464.9577,305.3191,460.9577,309.3191" style="stroke:#181818;stroke-width:1;"/><line style="stroke:#181818;stroke-width:1;" x1="550.652" x2="550.652" y1="295.3191" y2="315.3191"/><polygon fill="#181818" points="546.652,305.3191,550.652,315.3191,554.652,305.3191,550.652,309.3191" style="stroke:#181818;stroke-width:1;"/><line style="stroke:#181818;stroke-width:1;" x1="460.9577" x2="460.9577" y1="349.7192" y2="369.7192"/><polygon fill="#181818" points="456.9577,359.7192,460.9577,369.7192,464.9577,359.7192,460.9577,363.7192" style="stroke:#181818;stroke-width:1;"/><line style="stroke:#181818;stroke-width:1;" x1="550.652" x2="550.652" y1="349.7192" y2="369.7192"/><polygon fill="#181818" points="546.652,359.7192,550.652,369.7192,554.652,359.7192,550.652,363.7192" style="stroke:#181818;stroke-width:1;"/><line style="stroke:#181818;stroke-width:1;" x1="126.6943" x2="126.6943" y1="257.6001" y2="289.3191"/><polygon fill="#181818" points="122.6943,279.3191,126.6943,289.3191,130.6943,279.3191,126.6943,283.3191" style="stroke:#181818;stroke-width:1;"/><line style="stroke:#181818;stroke-width:1;" x1="126.6943" x2="126.6943" y1="375.7192" y2="395.7192"/><polygon fill="#181818" points="122.6943,385.7192,126.6943,395.7192,130.6943,385.7192,126.6943,389.7192" style="stroke:#181818;stroke-width:1;"/><line style="stroke:#181818;stroke-width:1;" x1="312.0829" x2="312.0829" y1="257.6001" y2="289.3191"/><polygon fill="#181818" points="308.0829,279.3191,312.0829,289.3191,316.0829,279.3191,312.0829,283.3191" style="stroke:#181818;stroke-width:1;"/><line style="stroke:#181818;stroke-width:1;" x1="312.0829" x2="312.0829" y1="375.7192" y2="395.7192"/><polygon fill="#181818" points="308.0829,385.7192,312.0829,395.7192,316.0829,385.7192,312.0829,389.7192" style="stroke:#181818;stroke-width:1;"/><line style="stroke:#181818;stroke-width:1;" x1="511.3039" x2="511.3039" y1="257.6001" y2="289.3191"/><polygon fill="#181818" points="507.3039,279.3191,511.3039,289.3191,515.3039,279.3191,511.3039,283.3191" style="stroke:#181818;stroke-width:1;"/><line style="stroke:#181818;stroke-width:1;" x1="511.3039" x2="511.3039" y1="375.7192" y2="395.7192"/><polygon fill="#181818" points="507.3039,385.7192,511.3039,395.7192,515.3039,385.7192,511.3039,389.7192" style="stroke:#181818;stroke-width:1;"/><line style="stroke:#181818;stroke-width:1;" x1="173.5421" x2="262.3257" y1="245.6001" y2="245.6001"/><polygon fill="#181818" points="252.3257,241.6001,262.3257,245.6001,252.3257,249.6001,256.3257,245.6001" style="stroke:#181818;stroke-width:1;"/><line style="stroke:#181818;stroke-width:1;" x1="361.8402" x2="467.6626" y1="245.6001" y2="245.6001"/><polygon fill="#181818" points="457.6626,241.6001,467.6626,245.6001,457.6626,249.6001,461.6626,245.6001" style="stroke:#181818;stroke-width:1;"/><line style="stroke:#181818;stroke-width:1;" x1="358.4291" x2="358.4291" y1="213.6001" y2="218.6001"/><line style="stroke:#181818;stroke-width:1;" x1="358.4291" x2="126.6943" y1="218.6001" y2="218.6001"/><line style="stroke:#181818;stroke-width:1;" x1="126.6943" x2="126.6943" y1="218.6001" y2="233.6001"/><polygon fill="#181818" points="122.6943,223.6001,126.6943,233.6001,130.6943,223.6001,126.6943,227.6001" style="stroke:#181818;stroke-width:1;"/><line style="stroke:#181818;stroke-width:1;" x1="554.9451" x2="647.3444" y1="245.6001" y2="245.6001"/><line style="stroke:#181818;stroke-width:1;" x1="647.3444" x2="647.3444" y1="245.6001" y2="311.7191"/><polygon fill="#181818" points="643.3444,301.7191,647.3444,311.7191,651.3444,301.7191,647.3444,305.7191" style="stroke:#181818;stroke-width:1;"/><line style="stroke:#181818;stroke-width:1;" x1="647.3444" x2="647.3444" y1="346.1192" y2="395.7192"/><polygon fill="#181818" points="643.3444,385.7192,647.3444,395.7192,651.3444,385.7192,647.3444,389.7192" style="stroke:#181818;stroke-width:1;"/><line style="stroke:#181818;stroke-width:1;" x1="126.6943" x2="647.3444" y1="395.7192" y2="395.7192"/><line style="stroke:#181818;stroke-width:1;" x1="358.4291" x2="358.4291" y1="395.7192" y2="405.7192"/><line style="stroke:#181818;stroke-width:1;" x1="358.4291" x2="695.6906" y1="405.7192" y2="405.7192"/><polygon fill="#181818" points="691.6906,326.9192,695.6906,316.9192,699.6906,326.9192,695.6906,322.9192" style="stroke:#181818;stroke-width:1;"/><line style="stroke:#181818;stroke-width:1;" x1="695.6906" x2="695.6906" y1="201.6001" y2="405.7192"/><line style="stroke:#181818;stroke-width:1;" x1="695.6906" x2="393.507" y1="201.6001" y2="201.6001"/><polygon fill="#181818" points="403.507,197.6001,393.507,201.6001,403.507,205.6001,399.507,201.6001" style="stroke:#181818;stroke-width:1;"/><line style="stroke:#181818;stroke-width:1;" x1="323.3513" x2="27" y1="201.6001" y2="201.6001"/><polygon fill="#181818" points="23,312.9192,27,322.9192,31,312.9192,27,316.9192" style="stroke:#181818;stroke-width:1;"/><line style="stroke:#181818;stroke-width:1;" x1="27" x2="27" y1="201.6001" y2="417.7192"/><line style="stroke:#181818;stroke-width:1;" x1="27" x2="358.4291" y1="417.7192" y2="417.7192"/><line style="stroke:#181818;stroke-width:1;" x1="358.4291" x2="358.4291" y1="417.7192" y2="437.7192"/><polygon fill="#181818" points="354.4291,427.7192,358.4291,437.7192,362.4291,427.7192,358.4291,431.7192" style="stroke:#181818;stroke-width:1;"/><line style="stroke:#181818;stroke-width:1;" x1="358.4291" x2="358.4291" y1="169.6001" y2="189.6001"/><polygon fill="#181818" points="354.4291,179.6001,358.4291,189.6001,362.4291,179.6001,358.4291,183.6001" style="stroke:#181818;stroke-width:1;"/><line style="stroke:#181818;stroke-width:1;" x1="358.4291" x2="358.4291" y1="472.1193" y2="492.1193"/><polygon fill="#181818" points="354.4291,482.1193,358.4291,492.1193,362.4291,482.1193,358.4291,486.1193" style="stroke:#181818;stroke-width:1;"/><!--SRC=[pP91Jy9048Nl_HNFMv6GSAOfYJ50I1eqsdfjbZAb2yDkqnsYnlZVtRQeKVW1p6dsxNkxt-7LgX4jsXeKYelyVhx8pV6GhzaMUuUF07wSU5EtJLwKEooDamQtZ1ZBrMEMHlsLFOfNnltfjT9C21atCLPPaWmwjHrTjh9sg4XjO4kmTZA0L6GGfa_PxDVQJccR_H_X-w_XC3epGcsLDkVs5fL7KqDlSY54PlCZ4Zlg24TJUQy9iG-gDV4r0-wOhWeFuVmkUVx7SVaD7zLbSDgwplHTUiXINonupEZKG5i7dry0]--></g></svg>