<svg xmlns="http://www.w3.org/2000/svg" xmlns:xlink="http://www.w3.org/1999/xlink" contentStyleType="text/css" data-diagram-type="ACTIVITY" height="567px" preserveAspectRatio="none" style="width:350px;height:567px;background:#FFFFFF;" version="1.1" viewBox="0 0 350 567" width="350px" zoomAndPan="magnify"><defs/><g><rect fill="none" height="545.8004" style="stroke:#000000;stroke-width:1.5;" width="328.1455" x="11" y="11"/><path d="M123.6896,11 L123.6896,20.7999 L113.6896,30.7999 L11,30.7999" fill="none" style="stroke:#000000;stroke-width:1.5;"/><text fill="#000000" font-family="sans-serif" font-size="14" lengthAdjust="spacing" textLength="102.6896" x="14" y="25.0059">calc_CFG_block</text><ellipse cx="175.0728" cy="50.7999" fill="#222222" rx="10" ry="10" style="stroke:#222222;stroke-width:1;"/><rect fill="#555555" height="6" rx="2.5" ry="2.5" style="stroke:#555555;stroke-width:1;" width="308.1096" x="21.018" y="80.7999"/><rect fill="#F1F1F1" height="34.4001" rx="12.5" ry="12.5" style="stroke:#181818;stroke-width:0.5;" width="129.7048" x="33.036" y="106.7999"/><text fill="#000000" font-family="sans-serif" font-size="12" lengthAdjust="spacing" textLength="109.7048" x="43.036" y="127.948">VasmInst h = INPUT</text><rect fill="#F1F1F1" height="34.4001" rx="12.5" ry="12.5" style="stroke:#181818;stroke-width:0.5;" width="126.3688" x="190.7408" y="106.7999"/><text fill="#000000" font-family="sans-serif" font-size="12" lengthAdjust="spacing" textLength="106.3688" x="200.7408" y="127.948">VasmInst t = INPUT</text><rect fill="#555555" height="6" rx="2.5" ry="2.5" style="stroke:#555555;stroke-width:1;" width="308.1096" x="21.018" y="161.2"/><rect fill="#555555" height="6" rx="2.5" ry="2.5" style="stroke:#555555;stroke-width:1;" width="308.1455" x="21" y="187.2"/><rect fill="#F1F1F1" height="34.4001" rx="12.5" ry="12.5" style="stroke:#181818;stroke-width:0.5;" width="123.0567" x="33.018" y="213.2"/><text fill="#000000" font-family="sans-serif" font-size="12" lengthAdjust="spacing" textLength="103.0567" x="43.018" y="234.3481">VasmInst *out = &amp;h</text><rect fill="#F1F1F1" height="34.4001" rx="12.5" ry="12.5" style="stroke:#181818;stroke-width:0.5;" width="133.0528" x="184.0747" y="213.2"/><text fill="#000000" font-family="sans-serif" font-size="12" lengthAdjust="spacing" textLength="113.0528" x="194.0747" y="234.3481">VasmInst *temp = &amp;h</text><rect fill="#555555" height="6" rx="2.5" ry="2.5" style="stroke:#555555;stroke-width:1;" width="308.1455" x="21" y="267.6001"/><rect fill="#F1F1F1" height="34.4001" rx="12.5" ry="12.5" style="stroke:#181818;stroke-width:0.5;" width="120.7167" x="114.7144" y="337.6001"/><text fill="#000000" font-family="sans-serif" font-size="12" lengthAdjust="spacing" textLength="100.7167" x="124.7144" y="358.7482">temp = temp-&gt;next</text><polygon fill="#F1F1F1" points="153.5184,293.6001,196.6271,293.6001,208.6271,305.6001,196.6271,317.6001,153.5184,317.6001,141.5184,305.6001,153.5184,293.6001" style="stroke:#181818;stroke-width:0.5;"/><text fill="#000000" font-family="sans-serif" font-size="11" lengthAdjust="spacing" textLength="43.1087" x="153.5184" y="309.2191">temp != t</text><rect fill="#F1F1F1" height="34.4001" rx="12.5" ry="12.5" style="stroke:#181818;stroke-width:0.5;" width="124.7128" x="112.7164" y="414.0002"/><text fill="#000000" font-family="sans-serif" font-size="12" lengthAdjust="spacing" textLength="104.7128" x="122.7164" y="435.1483">temp-&gt;next = NULL</text><rect fill="#F1F1F1" height="34.4001" rx="12.5" ry="12.5" style="stroke:#181818;stroke-width:0.5;" width="89.3485" x="130.3985" y="468.4003"/><text fill="#000000" font-family="sans-serif" font-size="12" lengthAdjust="spacing" textLength="69.3485" x="140.3985" y="489.5484">OUTPUT out</text><ellipse cx="175.0728" cy="533.8004" fill="none" rx="11" ry="11" style="stroke:#222222;stroke-width:1;"/><ellipse cx="175.0728" cy="533.8004" fill="#222222" rx="6" ry="6" style="stroke:#222222;stroke-width:1;"/><line style="stroke:#181818;stroke-width:1;" x1="97.8884" x2="97.8884" y1="86.7999" y2="106.7999"/><polygon fill="#181818" points="93.8884,96.7999,97.8884,106.7999,101.8884,96.7999,97.8884,100.7999" style="stroke:#181818;stroke-width:1;"/><line style="stroke:#181818;stroke-width:1;" x1="253.9252" x2="253.9252" y1="86.7999" y2="106.7999"/><polygon fill="#181818" points="249.9252,96.7999,253.9252,106.7999,257.9252,96.7999,253.9252,100.7999" style="stroke:#181818;stroke-width:1;"/><line style="stroke:#181818;stroke-width:1;" x1="97.8884" x2="97.8884" y1="141.2" y2="161.2"/><polygon fill="#181818" points="93.8884,151.2,97.8884,161.2,101.8884,151.2,97.8884,155.2" style="stroke:#181818;stroke-width:1;"/><line style="stroke:#181818;stroke-width:1;" x1="253.9252" x2="253.9252" y1="141.2" y2="161.2"/><polygon fill="#181818" points="249.9252,151.2,253.9252,161.2,257.9252,151.2,253.9252,155.2" style="stroke:#181818;stroke-width:1;"/><line style="stroke:#181818;stroke-width:1;" x1="175.0728" x2="175.0728" y1="60.7999" y2="80.7999"/><polygon fill="#181818" points="171.0728,70.7999,175.0728,80.7999,179.0728,70.7999,175.0728,74.7999" style="stroke:#181818;stroke-width:1;"/><line style="stroke:#181818;stroke-width:1;" x1="94.5464" x2="94.5464" y1="193.2" y2="213.2"/><polygon fill="#181818" points="90.5464,203.2,94.5464,213.2,98.5464,203.2,94.5464,207.2" style="stroke:#181818;stroke-width:1;"/><line style="stroke:#181818;stroke-width:1;" x1="250.6011" x2="250.6011" y1="193.2" y2="213.2"/><polygon fill="#181818" points="246.6011,203.2,250.6011,213.2,254.6011,203.2,250.6011,207.2" style="stroke:#181818;stroke-width:1;"/><line style="stroke:#181818;stroke-width:1;" x1="94.5464" x2="94.5464" y1="247.6001" y2="267.6001"/><polygon fill="#181818" points="90.5464,257.6001,94.5464,267.6001,98.5464,257.6001,94.5464,261.6001" style="stroke:#181818;stroke-width:1;"/><line style="stroke:#181818;stroke-width:1;" x1="250.6011" x2="250.6011" y1="247.6001" y2="267.6001"/><polygon fill="#181818" points="246.6011,257.6001,250.6011,267.6001,254.6011,257.6001,250.6011,261.6001" style="stroke:#181818;stroke-width:1;"/><line style="stroke:#181818;stroke-width:1;" x1="175.0728" x2="175.0728" y1="167.2" y2="187.2"/><polygon fill="#181818" points="171.0728,177.2,175.0728,187.2,179.0728,177.2,175.0728,181.2" style="stroke:#181818;stroke-width:1;"/><line style="stroke:#181818;stroke-width:1;" x1="175.0728" x2="175.0728" y1="317.6001" y2="337.6001"/><polygon fill="#181818" points="171.0728,327.6001,175.0728,337.6001,179.0728,327.6001,175.0728,331.6001" style="stroke:#181818;stroke-width:1;"/><line style="stroke:#181818;stroke-width:1;" x1="175.0728" x2="175.0728" y1="372.0002" y2="382.0002"/><line style="stroke:#181818;stroke-width:1;" x1="175.0728" x2="247.4311" y1="382.0002" y2="382.0002"/><polygon fill="#181818" points="243.4311,352.8002,247.4311,342.8002,251.4311,352.8002,247.4311,348.8002" style="stroke:#181818;stroke-width:1;"/><line style="stroke:#181818;stroke-width:1;" x1="247.4311" x2="247.4311" y1="305.6001" y2="382.0002"/><line style="stroke:#181818;stroke-width:1;" x1="247.4311" x2="208.6271" y1="305.6001" y2="305.6001"/><polygon fill="#181818" points="218.6271,301.6001,208.6271,305.6001,218.6271,309.6001,214.6271,305.6001" style="stroke:#181818;stroke-width:1;"/><line style="stroke:#181818;stroke-width:1;" x1="141.5184" x2="102.7144" y1="305.6001" y2="305.6001"/><polygon fill="#181818" points="98.7144,338.8002,102.7144,348.8002,106.7144,338.8002,102.7144,342.8002" style="stroke:#181818;stroke-width:1;"/><line style="stroke:#181818;stroke-width:1;" x1="102.7144" x2="102.7144" y1="305.6001" y2="394.0002"/><line style="stroke:#181818;stroke-width:1;" x1="102.7144" x2="175.0728" y1="394.0002" y2="394.0002"/><line style="stroke:#181818;stroke-width:1;" x1="175.0728" x2="175.0728" y1="394.0002" y2="414.0002"/><polygon fill="#181818" points="171.0728,404.0002,175.0728,414.0002,179.0728,404.0002,175.0728,408.0002" style="stroke:#181818;stroke-width:1;"/><line style="stroke:#181818;stroke-width:1;" x1="175.0728" x2="175.0728" y1="273.6001" y2="293.6001"/><polygon fill="#181818" points="171.0728,283.6001,175.0728,293.6001,179.0728,283.6001,175.0728,287.6001" style="stroke:#181818;stroke-width:1;"/><line style="stroke:#181818;stroke-width:1;" x1="175.0728" x2="175.0728" y1="448.4003" y2="468.4003"/><polygon fill="#181818" points="171.0728,458.4003,175.0728,468.4003,179.0728,458.4003,175.0728,462.4003" style="stroke:#181818;stroke-width:1;"/><line style="stroke:#181818;stroke-width:1;" x1="175.0728" x2="175.0728" y1="502.8004" y2="522.8004"/><polygon fill="#181818" points="171.0728,512.8004,175.0728,522.8004,179.0728,512.8004,175.0728,516.8004" style="stroke:#181818;stroke-width:1;"/><!--SRC=[AqWiAiaioSpFKqXEp4cETtPpZq_AoK_ELgZcKW22uXAWF9YLbb-K3MQ0W5LOOd6kPrvnYKA6Wgs2frz0Q8WrN9L2OdfYPXuMjILOrARcfU0pNYk_5AHBBOC8uxLAKdCBq1N3p2_FoCn9LT00Ar6qLIZHH1W0rGQYTEtoKYjA8Dg1Ei6QkE2A8B90fNwXFZuGHLR-eI503oa0dMaD3R3y0gvQ0000]--></g></svg>